<!-- icon666.com - MILLIONS vector ICONS FREE --><svg id="Layer_1" enable-background="new 0 0 24 24" viewBox="0 0 24 24" xmlns="http://www.w3.org/2000/svg"><path d="m3 18c0 .5527344.4472656 1 1 1h3 1c0 2.2060547 1.7939453 4 4 4s4-1.7939453 4-4h1 3c.5527344 0 1-.4472656 1-1s-.4472656-1-1-1h-.1842651c.1120605-.3143311.1842651-.647644.1842651-1v-5c0-3.7194824-2.5552979-6.8450928-6-7.7366943v-.2633057c0-1.1025391-.8974609-2-2-2s-2 .8974609-2 2v.2633057c-3.4447021.8916015-6 4.0172119-6 7.7366943v5c0 .352356.0722656.6856689.1843262 1h-.1843262c-.5527344 0-1 .4472656-1 1zm9 3c-1.1025391 0-2-.8974609-2-2h4c0 1.1025391-.8974609 2-2 2zm-6-5v-5c0-3.3085938 2.6914063-6 6-6s6 2.6914063 6 6v5c0 .5517578-.4482422 1-1 1h-2-6-2c-.5517578 0-1-.4482422-1-1z"></path></svg>