<!-- icon666.com - MILLIONS vector ICONS FREE --><svg xmlns="http://www.w3.org/2000/svg" id="Icons" viewBox="0 0 60 60"><path d="M59.868,40.5,56.723,35H58a1,1,0,0,0,0-2H48.858a3.981,3.981,0,0,0-7.716,0H32a1,1,0,0,0,0,2h1.277l-2.871,5.024-.045,0L27,37.5V34.8a11.018,11.018,0,0,0,5.965-8.913A4.009,4.009,0,0,0,36,22V12.683l6-2.35v6.851A3,3,0,0,0,40,20v3a2,2,0,0,0,2,2h2a2,2,0,0,0,2-2V20a3,3,0,0,0-2-2.816V8.15c0-.017-.009-.032-.01-.049S44,8.054,44,8.029a1.958,1.958,0,0,0-1.357-1.8L22.521.078a1.763,1.763,0,0,0-1.042,0L1.361,6.229A1.958,1.958,0,0,0,0,8.029a2,2,0,0,0,1.2,1.992L8,12.683V22a4.009,4.009,0,0,0,3.035,3.883A11.018,11.018,0,0,0,17,34.8v2.7l-3.357,2.518a8.937,8.937,0,0,0-4.794,1.613c-.017.009-.03.024-.046.034A8.989,8.989,0,0,0,5,49v8a3,3,0,0,0,3,3H36a3,3,0,0,0,.55-.055A2.023,2.023,0,0,0,37,60H53a2,2,0,0,0,2-2V57a3,3,0,0,0-2-2.816V54a4,4,0,0,0-4-4H48V36.618A3.971,3.971,0,0,0,48.858,35h4.419l-3.145,5.5.013.008A.971.971,0,0,0,50,41v1a4,4,0,0,0,4,4h2a4,4,0,0,0,4-4V41a.971.971,0,0,0-.145-.488ZM45,32a2,2,0,1,1-2,2A2,2,0,0,1,45,32Zm-3.858,3A3.971,3.971,0,0,0,42,36.618V50H41a3.959,3.959,0,0,0-2,.556V49a8.992,8.992,0,0,0-.791-3.67A4,4,0,0,0,40,42V41a.971.971,0,0,0-.145-.488l.013-.008L36.723,35ZM18,39.25l2.508,1.88L18.58,43.186,15.666,41Zm8,0L28.334,41,25.42,43.186,23.492,41.13Zm-4,6.5-1.81-1.358L22,42.462l1.81,1.93Zm-8.312-3.734L21,47.5V50l-9.846-7.389A6.945,6.945,0,0,1,13.688,42.016ZM23,47.5l7.023-5.268a3.986,3.986,0,0,0,.661,2L23,50ZM32,42h6a2,2,0,0,1-2,2H34A2,2,0,0,1,32,42Zm.723-2L35,36.016,37.277,40ZM9.995,12c0-.017,0-.034,0-.051v-.209A45.409,45.409,0,0,1,22,10a45.432,45.432,0,0,1,12,1.74v4.444a2.928,2.928,0,0,0-2.763.39,4.228,4.228,0,0,0-2.884-1.782,9.864,9.864,0,0,1-5.05-1.813,1.949,1.949,0,0,0-2.606,0,9.857,9.857,0,0,1-5.05,1.813,4.221,4.221,0,0,0-2.884,1.782A2.926,2.926,0,0,0,10,16.185ZM42,23V20a1,1,0,0,1,2,0l0,3ZM1.958,8.138,22,2.01,41.988,8.1c.005.008.01.023.016.036s0,.012,0,.018v.035l-6.336,2.481a1.984,1.984,0,0,0-1.1-.846A47.543,47.543,0,0,0,22,8,47.506,47.506,0,0,0,9.437,9.821a1.971,1.971,0,0,0-1.1.847L2.009,8.209C2,8.186,2,8.135,1.958,8.138ZM13,25a1,1,0,0,0-1-1,2,2,0,0,1-2-2V19a1,1,0,0,1,2,0v0a1,1,0,0,0,2,0h0v0a2.249,2.249,0,0,1,1.923-2.225A11.6,11.6,0,0,0,22,14.5a11.589,11.589,0,0,0,6.077,2.276A2.25,2.25,0,0,1,30,19a1,1,0,0,0,2,0,1,1,0,0,1,2,0v3a2,2,0,0,1-2,2,1,1,0,0,0-1,1,9,9,0,0,1-18,0Zm9,11a10.969,10.969,0,0,0,3-.421V37.5l-3,2.25L19,37.5V35.579A10.969,10.969,0,0,0,22,36ZM7,57V49a6.976,6.976,0,0,1,2.365-5.231L21,52.5V58H14V51a1,1,0,0,0-2,0v7H8A1,1,0,0,1,7,57Zm25,1V51a1,1,0,0,0-2,0v7H23V52.5l9.235-6.928A3.96,3.96,0,0,0,34,46h2c.1,0,.2-.022.294-.03A6.984,6.984,0,0,1,37,49v5.184A3,3,0,0,0,35,57v1Zm5,0V57a1,1,0,0,1,1-1H52a1,1,0,0,1,1,1l0,1Zm14-4H39a2,2,0,0,1,2-2h8A2,2,0,0,1,51,54Zm-7-4V37.858a3.592,3.592,0,0,0,2,0V50ZM57.277,40H52.723L55,36.016ZM56,44H54a2,2,0,0,1-2-2h6A2,2,0,0,1,56,44Z"></path></svg>