<?xml version="1.0" encoding="UTF-8"?>
<!DOCTYPE svg PUBLIC "-//W3C//DTD SVG 1.1//EN" "http://www.w3.org/Graphics/SVG/1.1/DTD/svg11.dtd">
<!-- Creator: CorelDRAW -->
<svg xmlns="http://www.w3.org/2000/svg" xml:space="preserve" width="1500px" height="834px" version="1.1" style="shape-rendering:geometricPrecision; text-rendering:geometricPrecision; image-rendering:optimizeQuality; fill-rule:evenodd; clip-rule:evenodd"
viewBox="0 0 16256 9144">
 
 <g id="Слой_x0020_1">
  <metadata id="CorelCorpID_0Corel-Layer"/>
  <g id="_2059900113280">
   <path class="fil0" d="M5624.66 7724.44l24.44 0 0 -76.78 24.47 0 0 -134.34 24.47 0 0 -172.71 122.28 0 0 441.4 -195.66 0 0 -57.57zm831.61 -191.92l24.47 0 0 -57.57 24.47 0 0 -57.58 24.44 0 0 57.58 24.47 0 0 57.57 24.45 0 0 57.58 -122.3 0 0 -57.58zm953.93 19.2l-24.47 0 0 19.18 -24.44 0 0 19.2 -24.47 0 0 -249.49 48.91 0 0 19.2 24.47 0 0 38.37 24.47 0 0 115.14 -24.47 0 0 38.4zm-2739.47 -307.08l24.44 0 0 19.2 24.47 0 0 19.18 24.47 0 0 38.39 24.44 0 0 38.38 24.47 0 0 38.37 24.47 0 0 38.4 24.45 0 0 38.38 24.47 0 0 38.37 24.47 0 0 19.2 24.44 38.38 24.47 0 0 38.4 24.47 0 0 38.37 24.44 0 0 38.38 24.47 0 0 19.2 24.47 0 0 19.2 24.44 0 0 19.18 -24.44 0 0 38.38 -73.38 0 0 19.19 -48.94 0 0 -19.19 -48.91 0 0 -19.2 -24.47 0 0 38.39 -24.45 0 0 19.2 -24.47 0 0 38.37 -24.47 0 0 19.2 24.47 0 0 19.18 48.92 0 0 19.19 171.22 0 0 -19.19 73.38 0 0 -19.18 24.47 0 0 -19.2 24.44 0 0 -19.2 24.47 0 0 -19.17 24.47 0 0 -19.2 24.44 0 0 -57.58 24.47 0 0 -38.38 24.47 0 0 -38.38 24.44 0 0 -57.57 24.47 0 0 -38.4 24.47 0 0 -57.57 24.44 0 0 -38.38 24.47 0 0 -57.57 24.47 0 0 -38.38 24.45 0 0 -57.58 24.47 0 0 -38.38 24.47 0 0 -38.39 24.44 0 0 19.2 24.47 0 0 57.58 24.47 0 0 172.73 -24.47 0 0 115.14 -24.47 0 0 76.74 -24.44 0 0 38.4 -24.47 0 0 57.57 -122.3 0 0 268.68 73.38 0 0 19.17 48.92 0 0 -95.94 24.47 0 0 -38.37 24.44 0 0 -19.2 24.47 0 0 -19.2 464.73 0 0 19.2 24.45 0 0 19.2 24.47 0 0 76.74 24.47 0 0 57.57 48.91 0 0 -19.17 73.38 0 0 -153.54 195.66 0 0 -19.18 -24.44 0 0 -115.16 24.44 0 0 -57.57 269.06 0 0 57.57 24.47 0 0 95.96 -24.47 0 0 19.2 -24.44 0 0 19.18 758.23 0 0 -19.18 -24.44 0 0 -19.2 -24.47 0 0 -230.3 73.38 0 0 -19.17 97.85 0 0 -19.2 48.91 0 0 -19.2 48.91 0 0 -19.18 24.47 0 0 -19.19 24.47 0 0 -38.38 24.44 0 0 -153.54 -24.44 0 0 -38.37 -24.47 0 0 -19.2 -24.47 0 0 -19.19 -24.44 0 0 -19.2 -73.38 0 0 -19.17 -489.22 0 0 19.17 24.47 0 0 19.2 24.47 0 0 594.92 -24.47 0 0 19.2 -48.91 0 0 -38.4 -24.47 0 0 -19.17 -24.47 0 0 -57.59 -24.44 0 0 -57.57 -24.47 0 0 -38.37 -24.47 0 0 -57.58 -24.44 0 0 -57.57 -24.47 0 0 -57.58 -24.47 0 0 -38.4 -24.44 0 0 -57.57 -24.47 0 0 -57.58 -24.47 0 0 -57.57 -24.44 0 0 -57.56 -342.43 0 0 19.18 24.44 0 0 19.2 24.47 0 0 76.75 -24.47 0 0 57.58 -24.44 0 0 57.57 -24.47 0 0 57.58 -24.47 0 0 57.57 -24.44 0 0 57.58 -24.47 0 0 38.4 -24.47 0 0 57.57 -24.44 0 0 57.57 -146.75 0 0 -479.77 24.44 0 0 -57.59 24.47 0 0 -19.17 -880.56 0 0 19.17 24.47 0 0 38.39 24.44 0 0 57.57 -24.44 0 0 38.4 -24.47 0 0 57.57 -24.47 0 0 57.58 -24.44 0 0 38.37 -24.47 0 0 -38.37 -24.47 0 0 -38.4 -24.44 0 0 -38.38 -24.47 0 0 -38.37 -24.47 0 0 -38.4 -24.44 0 0 -38.37 -24.47 0 0 -38.39 -24.47 0 0 -38.37 -317.96 0 0 19.17 0 0.01z"/>
   <path class="fil0" d="M9807.23 6361.87l24.47 0 0 -19.2 24.44 0 0 -19.18 24.47 0 0 -19.2 24.47 0 0 -38.37 24.44 0 0 -19.2 24.47 0 0 -19.2 24.47 0 0 -19.18 24.44 0 0 -19.2 24.47 0 0 -38.37 24.47 0 0 -19.2 24.44 0 0 -19.2 48.94 0 0 19.2 24.45 0 0 594.91 -48.92 0 0 -19.18 -24.47 0 0 -19.2 -24.44 0 0 -38.37 -24.47 0 0 -38.38 -24.47 0 0 -19.2 -24.44 0 0 -38.37 -24.47 0 0 -19.2 -24.47 0 0 -38.37 -24.44 0 0 -38.4 -24.47 0 0 -19.19 -24.47 0 0 -38.38 -24.44 0 0 -19.18 -24.47 0 0 -19.2 0 0.01zm-489.18 -249.49l24.47 0 0 19.2 24.44 0 0 594.91 -24.44 0 0 19.2 -24.47 0 0 19.2 366.9 0 0 -19.2 -24.47 0 0 -19.2 -24.44 0 0 -191.89 24.44 0 0 19.2 24.47 0 0 38.37 24.44 0 0 38.38 24.47 0 0 38.37 24.47 0 0 19.2 24.44 0 0 38.38 24.47 0 0 19.19 48.91 0 0 19.2 513.66 0 0 -19.2 24.47 0 0 -19.19 24.47 0 0 -38.38 24.44 0 0 -38.38 24.47 0 0 -38.37 24.47 0 0 -38.4 24.44 0 0 -38.37 24.47 0 0 -38.38 24.47 0 0 -38.4 24.44 0 0 -38.38 24.47 0 0 -38.38 24.47 0 0 326.25 -24.47 0 0 38.38 -24.47 0 0 19.2 342.46 0 0 -19.2 -24.47 0 0 -38.38 -24.47 0 0 -556.54 24.47 0 0 -38.39 24.47 0 0 -19.18 -269.09 0 0 38.38 -24.44 0 0 38.37 -24.47 0 0 19.2 -24.47 0 0 38.37 -24.44 0 0 38.4 -24.47 0 0 38.38 -24.47 0 0 38.37 -24.44 0 0 38.4 -24.47 0 0 38.38 -24.47 0 0 38.38 -24.44 0 0 -326.25 24.44 0 0 -19.2 24.47 0 0 -19.17 -684.88 0 0 19.17 24.47 0 0 95.98 -24.47 0 0 19.17 -24.44 0 0 19.2 -24.47 0 0 38.38 -24.47 0 0 19.2 -24.44 19.2 -24.47 0 0 38.37 -24.44 0 0 -230.29 24.44 0 0 -19.2 24.47 0 0 -19.17 -366.9 0 0 19.17 0 -0.01z"/>
   <polygon class="fil0" points="4205.98,8376.93 4254.9,8376.93 4254.9,8415.3 4279.37,8415.3 4279.37,8434.5 4303.84,8434.5 4303.84,8472.87 4328.28,8472.87 4328.28,8511.25 4352.75,8511.25 4352.75,8549.64 4377.22,8549.64 4377.22,8588.01 4401.66,8588.01 4401.66,8626.4 4426.13,8626.4 4426.13,8664.79 4450.6,8664.79 4450.6,8683.98 4475.03,8683.98 4475.03,8722.38 4499.5,8722.38 4499.5,8760.74 4523.97,8760.74 4523.97,8799.12 4548.41,8799.12 4548.41,8837.52 4572.88,8837.52 4572.88,8856.69 4597.35,8856.69 4597.35,8895.09 4572.88,8895.09 4572.88,8914.26 4499.5,8914.26 4499.5,8933.46 4450.6,8933.46 4450.6,8914.26 4401.66,8914.26 4401.66,8895.09 4377.22,8895.09 4377.22,8933.46 4352.75,8933.46 4352.75,8971.83 4328.28,8971.83 4328.28,9010.23 4352.75,9010.23 4352.75,9029.41 4401.66,9029.41 4401.66,9048.61 4548.41,9048.61 4548.41,9029.41 4621.79,9029.41 4621.79,9010.23 4646.26,9010.23 4646.26,8991.03 4695.16,8991.03 4695.16,8952.66 4719.63,8952.66 4719.63,8933.46 4744.1,8933.46 4744.1,8895.09 4768.54,8895.09 4768.54,8856.69 4793.01,8856.69 4793.01,8818.32 4817.48,8818.32 4817.48,8760.74 4841.94,8760.74 4841.94,8722.38 4866.41,8722.38 4866.41,8664.79 4890.88,8664.79 4915.31,8626.4 4915.31,8568.82 4939.78,8568.82 4939.78,8530.45 4964.25,8530.45 4964.25,8472.87 4988.69,8472.87 4988.69,8434.5 5013.16,8434.5 5013.16,8415.3 5037.63,8415.3 5037.63,8952.66 5013.16,8952.66 5013.16,9010.23 4988.69,9010.23 4988.69,9029.41 5331.14,9029.41 5331.14,9010.23 5306.67,9010.23 5306.67,8991.03 5282.2,8991.03 5282.2,8722.38 5477.91,8722.38 5477.91,8991.03 5453.44,8991.03 5453.44,9010.23 5428.97,9010.23 5428.97,9029.41 5771.42,9029.41 5771.42,9010.23 5746.95,9010.23 5746.95,8952.66 5722.48,8952.66 5722.48,8434.5 5746.95,8434.5 5746.95,8376.93 5771.42,8376.93 5771.42,8357.73 5428.97,8357.73 5428.97,8376.93 5453.44,8376.93 5453.44,8396.13 5477.91,8396.13 5477.91,8607.21 5282.2,8607.21 5282.2,8396.13 5306.67,8396.13 5306.67,8376.93 5331.14,8376.93 5331.14,8357.73 4768.54,8357.73 4768.54,8376.93 4793.01,8376.93 4793.01,8396.13 4817.48,8396.13 4817.48,8492.07 4793.01,8492.07 4793.01,8530.45 4768.54,8530.45 4768.54,8588.01 4744.1,8588.01 4744.1,8645.6 4719.63,8645.6 4719.63,8664.79 4695.16,8664.79 4695.16,8607.21 4670.73,8607.21 4670.73,8568.82 4646.26,8568.82 4646.26,8530.45 4621.79,8530.45 4621.79,8492.07 4597.35,8492.07 4597.35,8453.67 4572.88,8453.67 4572.88,8415.3 4548.41,8415.3 4548.41,8376.93 4523.97,8376.93 4523.97,8357.73 4205.98,8357.73 "/>
   <path class="fil0" d="M5159.91 6342.67l24.47 0 0 -19.18 24.44 0 0 -19.2 24.47 0 0 -19.2 24.47 0 0 -38.37 24.44 0 0 -19.2 24.47 0 0 -19.18 24.47 0 0 -19.2 24.44 0 0 -19.2 48.94 0 0 19.2 24.45 0 0 38.38 24.47 0 0 38.4 24.47 0 0 38.37 24.44 0 0 38.38 24.47 0 0 38.39 24.47 0 0 38.38 24.44 0 0 38.38 24.47 0 0 38.4 24.47 0 0 38.38 24.44 0 0 19.2 24.47 0 0 38.37 48.91 0 0 19.2 -24.44 0 0 19.18 -24.47 0 0 19.19 -48.91 0 0 19.18 -73.38 0 0 -19.18 -24.47 0 0 -19.19 -24.47 0 0 19.19 -24.44 0 0 38.38 -24.47 0 0 38.38 -24.47 0 0 -19.18 -24.45 0 0 -38.4 -24.47 0 0 -19.18 -24.47 0 0 -38.37 -24.44 0 0 -19.2 -24.47 0 0 -38.37 -24.47 0 0 -38.4 -24.44 0 0 -19.18 -24.47 0 0 -38.4 -24.47 0 0 -38.38 -24.44 0 0 -19.18 -24.47 0 0 -57.59 0 0zm-513.65 -230.29l24.47 0 0 19.2 24.44 0 0 594.91 -24.44 0 0 19.2 -24.47 0 0 19.2 366.9 0 0 -19.2 -24.47 0 0 -19.2 -24.44 0 0 -211.09 24.44 0 0 38.4 24.47 0 0 38.37 24.47 0 0 38.38 24.44 0 0 19.19 24.47 0 0 38.38 24.47 0 0 19.2 24.44 0 0 19.18 24.47 0 0 19.19 24.47 0 0 19.2 317.96 0 0 19.18 171.22 0 0 -19.18 48.91 0 0 -19.2 48.94 0 0 -19.19 24.44 0 0 -19.18 24.47 0 0 -19.2 24.47 0 0 -38.38 24.44 0 0 -38.37 24.47 0 0 -38.4 24.47 0 0 -57.57 24.44 0 0 -38.38 24.47 0 0 -57.58 24.47 0 0 -38.38 24.45 0 0 -57.57 24.47 0 0 -38.4 24.47 0 0 -57.57 24.44 0 0 -38.38 24.47 0 0 -76.77 -171.24 0 0 76.77 -24.44 0 0 57.58 -24.47 0 0 38.37 -24.47 0 0 57.58 -24.44 0 0 57.58 -24.47 0 0 -19.19 -24.47 0 0 -38.39 -24.44 0 0 -38.38 -24.47 0 0 -38.37 -24.47 0 0 -38.4 -24.44 0 0 -38.38 -24.47 0 0 -38.37 -24.47 0 0 -38.4 -24.44 0 0 -19.18 -513.66 0 0 19.18 24.44 0 0 38.4 24.47 0 0 19.17 -24.47 0 0 38.4 -24.44 0 0 19.18 -24.47 0 0 38.4 -24.47 0 0 19.17 -24.44 0 0 19.2 -24.47 0 0 38.38 -24.47 0 0 19.2 -24.44 0 0 -230.29 24.44 0 0 -19.2 24.47 0 0 -19.18 -366.9 0 0 19.18 0.01 0z"/>
   <path class="fil0" d="M9513.71 7762.8l-24.44 0 0 19.2 -97.85 0 0 -191.91 97.85 0 0 19.2 24.44 0 0 38.37 24.47 0 0 76.78 -24.47 0 0 38.37 0 -0.01zm-73.38 -287.85l-48.91 0 0 -134.34 73.38 0 0 115.14 -24.47 0 0 19.2zm-953.92 -230.31l-24.44 0 0 95.96 -24.47 0 0 57.57 24.47 0 0 -19.17 24.44 0 0 -19.2 97.85 0 0 -19.2 73.38 498.96 -24.47 0 0 38.4 -24.44 0 0 19.18 342.42 0 0 -19.18 -24.47 0 0 -19.2 -24.44 0 0 -518.16 73.38 0 0 19.2 73.39 0 0 19.2 24.44 0 0 -19.2 24.47 0 0 -76.78 24.47 0 0 575.74 -24.47 0 0 19.2 -24.47 0 0 19.18 513.66 0 0 -19.18 48.94 0 0 -19.2 48.91 0 0 -19.2 24.44 0 0 -19.17 24.47 0 0 -19.2 24.47 0 0 -57.58 24.44 0 0 -115.16 -24.44 0 0 -38.37 -24.47 0 0 -19.2 -24.47 0 0 -19.18 -24.44 0 0 -19.19 -24.47 0 0 -19.2 -24.44 0 0 -19.18 48.91 0 0 -19.2 24.44 0 0 -38.37 24.47 0 0 -95.98 -24.47 0 0 -38.37 -24.44 0 0 -19.2 -24.47 0 0 -19.19 -24.44 0 0 -19.19 -48.94 0 0 -19.18 -1100.69 0 0 19.18 -0.01 0.01z"/>
   <polygon class="fil0" points="10443.17,8396.13 10418.74,8396.13 10418.74,8492.07 10394.27,8492.07 10394.27,8530.45 10418.74,8530.45 10418.74,8511.25 10443.17,8511.25 10443.17,8492.07 10516.55,8492.07 10516.55,8472.87 10614.4,8472.87 10614.4,8971.83 10589.93,8971.83 10589.93,9010.23 10565.49,9010.23 10565.49,9029.41 10907.92,9029.41 10907.92,9010.23 10883.45,9010.23 10883.45,8971.83 10859.02,8971.83 10859.02,8472.87 10956.83,8472.87 10956.83,8492.07 11030.21,8492.07 11030.21,8511.25 11054.68,8511.25 11054.68,8434.5 11079.15,8434.5 11079.15,8415.3 11103.59,8415.3 11103.59,8952.66 11079.15,8952.66 11079.15,9010.23 11054.68,9010.23 11054.68,9029.41 11617.24,9029.41 11617.24,8991.03 11641.71,8991.03 11641.71,8914.26 11666.18,8914.26 11666.18,8875.89 11641.71,8875.89 11641.71,8895.09 11592.8,8895.09 11592.8,8914.26 11348.2,8914.26 11348.2,8722.38 11470.49,8722.38 11470.49,8741.54 11494.96,8741.54 11494.96,8760.74 11519.43,8760.74 11519.43,8607.21 11348.2,8607.21 11348.2,8472.87 11519.43,8472.87 11519.43,8492.07 11543.87,8492.07 11543.87,8511.25 11568.33,8511.25 11568.33,8357.73 10443.17,8357.73 "/>
   <polygon class="fil0" points="11005.77,6112.38 11030.21,6112.38 11030.21,6131.58 11054.68,6131.58 11054.68,6726.48 11030.21,6726.48 11030.21,6745.68 11005.77,6745.68 11005.77,6764.88 11274.81,6764.88 11274.81,6745.68 11299.28,6745.68 11299.28,6707.31 11323.73,6707.31 11323.73,6688.11 11348.2,6688.11 11348.2,6649.74 11372.67,6649.74 11372.67,6611.36 11397.11,6611.36 11397.11,6572.96 11421.58,6572.96 11421.58,6534.59 11446.05,6534.59 11446.05,6496.22 11470.49,6496.22 11470.49,6457.82 11494.96,6457.82 11494.96,6419.43 11519.43,6381.06 11543.87,6381.06 11543.87,6707.31 11519.43,6707.31 11519.43,6745.68 11494.96,6745.68 11494.96,6764.88 11837.37,6764.88 11837.37,6745.68 11812.94,6745.68 11812.94,6707.31 11788.47,6707.31 11788.47,6150.77 11812.94,6150.77 11812.94,6112.38 11837.37,6112.38 11837.37,6093.2 11568.33,6093.2 11568.33,6131.58 11543.87,6131.58 11543.87,6169.94 11519.43,6169.94 11519.43,6189.14 11494.96,6189.14 11494.96,6227.52 11470.49,6227.52 11470.49,6265.92 11446.05,6265.92 11446.05,6304.29 11421.58,6304.29 11421.58,6342.67 11397.11,6342.67 11397.11,6381.06 11372.67,6381.06 11372.67,6419.43 11348.2,6419.43 11348.2,6457.82 11323.73,6457.82 11323.73,6131.58 11348.2,6131.58 11348.2,6112.38 11372.67,6112.38 11372.67,6093.2 11005.77,6093.2 "/>
   <polygon class="fil0" points="5844.79,8376.93 5869.23,8376.93 5869.23,8396.13 5893.7,8396.13 5893.7,8991.03 5869.23,8991.03 5869.23,9010.23 5844.79,9010.23 5844.79,9029.41 6113.85,9029.41 6113.85,9010.23 6138.32,9010.23 6138.32,8971.83 6162.76,8971.83 6162.76,8933.46 6187.23,8933.46 6187.23,8895.09 6211.7,8895.09 6211.7,8856.69 6236.13,8856.69 6236.13,8818.32 6260.6,8818.32 6260.6,8779.94 6285.07,8779.94 6285.07,8760.74 6309.51,8760.74 6309.51,8722.38 6333.98,8722.38 6333.98,8683.98 6358.45,8683.98 6358.45,8645.6 6382.89,8645.6 6382.89,8952.66 6358.45,8952.66 6358.45,9010.23 6333.98,9010.23 6333.98,9029.41 6676.41,9029.41 6676.41,9010.23 6651.94,9010.23 6651.94,8971.83 6627.51,8971.83 6627.51,8396.13 6651.94,8396.13 6651.94,8376.93 6676.41,8376.93 6676.41,8357.73 6407.36,8357.73 6407.36,8376.93 6382.89,8376.93 6382.89,8415.3 6358.45,8415.3 6358.45,8453.67 6333.98,8453.67 6333.98,8492.07 6309.51,8492.07 6309.51,8530.45 6285.07,8530.45 6285.07,8568.82 6260.6,8568.82 6260.6,8607.21 6236.13,8607.21 6236.13,8645.6 6211.7,8645.6 6211.7,8683.98 6187.23,8722.38 6162.76,8722.38 6162.76,8396.13 6187.23,8396.13 6187.23,8376.93 6211.7,8376.93 6211.7,8357.73 5844.79,8357.73 "/>
   <polygon class="fil0" points="13280.5,7244.64 13304.97,7244.64 13304.97,7263.84 13329.44,7263.84 13329.44,7858.77 13304.97,7858.77 13304.97,7877.96 13280.5,7877.96 13280.5,7897.14 13549.57,7897.14 13549.57,7877.96 13574.01,7877.96 13574.01,7839.57 13598.47,7839.57 13598.47,7801.19 13622.94,7801.19 13622.94,7762.8 13647.4,7762.8 13647.4,7724.44 13671.85,7724.44 13671.85,7686.04 13696.32,7686.04 13696.32,7647.66 13720.78,7647.66 13720.78,7609.29 13745.25,7609.29 13745.25,7570.89 13769.72,7570.89 13769.72,7532.52 13794.15,7532.52 13794.15,7494.15 13818.62,7494.15 13818.62,7801.19 13794.15,7801.19 13794.15,7858.77 13769.72,7858.77 13769.72,7897.14 14112.13,7897.14 14112.13,7877.96 14087.66,7877.96 14087.66,7858.77 14063.22,7858.77 14063.22,7263.84 14087.66,7263.84 14087.66,7244.64 14112.13,7244.64 14112.13,7225.47 13843.09,7225.47 13843.09,7244.64 13818.62,7244.64 13818.62,7283.03 13794.15,7283.03 13794.15,7321.41 13769.72,7321.41 13769.72,7359.8 13745.25,7359.8 13745.25,7398.17 13720.78,7398.17 13720.78,7436.57 13696.32,7436.57 13696.32,7474.95 13671.85,7474.95 13671.85,7494.15 13647.4,7494.15 13647.4,7532.52 13622.94,7532.52 13622.94,7570.89 13598.47,7570.89 13598.47,7609.29 13574.01,7609.29 13574.01,7302.23 13598.47,7302.23 13598.47,7244.64 13622.94,7244.64 13622.94,7225.47 13280.5,7225.47 "/>
   <polygon class="fil0" points="9562.65,8376.93 9587.1,8376.93 9587.1,8396.13 9611.57,8396.13 9611.57,8991.03 9587.1,8991.03 9587.1,9010.23 9562.65,9010.23 9562.65,9029.41 9831.7,9029.41 9831.7,9010.23 9856.14,9010.23 9856.14,8971.83 9880.61,8971.83 9880.61,8933.46 9905.08,8933.46 9905.08,8895.09 9929.52,8895.09 9929.52,8856.69 9953.99,8856.69 9953.99,8818.32 9978.46,8818.32 9978.46,8779.94 10002.9,8779.94 10002.9,8741.54 10027.37,8741.54 10027.37,8703.18 10051.84,8703.18 10051.84,8683.98 10076.27,8683.98 10076.27,8645.6 10100.74,8645.6 10100.74,8952.66 10076.27,8952.66 10076.27,9010.23 10051.84,9010.23 10051.84,9029.41 10394.27,9029.41 10394.27,9010.23 10369.8,9010.23 10369.8,8991.03 10345.36,8991.03 10345.36,8396.13 10369.8,8396.13 10369.8,8376.93 10394.27,8376.93 10394.27,8357.73 10125.21,8357.73 10125.21,8376.93 10100.74,8376.93 10100.74,8415.3 10076.27,8415.3 10076.27,8453.67 10051.84,8453.67 10051.84,8492.07 10027.37,8492.07 10027.37,8530.45 10002.9,8530.45 10002.9,8568.82 9978.46,8568.82 9978.46,8607.21 9953.99,8607.21 9953.99,8645.6 9929.52,8645.6 9929.52,8683.98 9905.08,8703.18 9880.61,8703.18 9880.61,8741.54 9856.14,8741.54 9856.14,8434.5 9880.61,8434.5 9880.61,8376.93 9905.08,8376.93 9905.08,8357.73 9562.65,8357.73 "/>
   <polygon class="fil0" points="11274.81,7244.64 11299.28,7244.64 11299.28,7263.84 11323.73,7263.84 11323.73,7858.77 11299.28,7858.77 11299.28,7877.96 11274.81,7877.96 11274.81,7897.14 11641.71,7897.14 11641.71,7877.96 11617.24,7877.96 11617.24,7858.77 11592.8,7858.77 11592.8,7590.09 11788.47,7590.09 11788.47,7839.57 11764,7839.57 11764,7877.96 11739.56,7877.96 11739.56,7897.14 12081.99,7897.14 12081.99,7877.96 12057.52,7877.96 12057.52,7839.57 12033.08,7839.57 12033.08,7283.03 12057.52,7283.03 12057.52,7244.64 12081.99,7244.64 12081.99,7225.47 11739.56,7225.47 11739.56,7244.64 11764,7244.64 11764,7283.03 11788.47,7283.03 11788.47,7474.95 11592.8,7474.95 11592.8,7263.84 11617.24,7263.84 11617.24,7244.64 11641.71,7244.64 11641.71,7225.47 11274.81,7225.47 "/>
   <polygon class="fil0" points="7679.24,6112.38 7703.71,6112.38 7703.71,6150.77 7728.18,6150.77 7728.18,6707.31 7703.71,6707.31 7703.71,6745.68 7679.24,6745.68 7679.24,6764.88 8021.71,6764.88 8021.71,6745.68 7997.24,6745.68 7997.24,6707.31 7972.77,6707.31 7972.77,6457.82 8168.46,6457.82 8168.46,6726.48 8143.99,6726.48 8143.99,6745.68 8119.52,6745.68 8119.52,6764.88 8486.41,6764.88 8486.41,6745.68 8461.97,6745.68 8461.97,6726.48 8437.5,6726.48 8437.5,6131.58 8461.97,6131.58 8461.97,6112.38 8486.41,6112.38 8486.41,6093.2 8119.52,6093.2 8119.52,6112.38 8143.99,6112.38 8143.99,6131.58 8168.46,6131.58 8168.46,6342.67 7972.77,6342.67 7972.77,6150.77 7997.24,6150.77 7997.24,6112.38 8021.71,6112.38 8021.71,6093.2 7679.24,6093.2 "/>
   <path class="fil0" d="M3227.62 7455.75l24.44 0 0 -38.38 24.47 0 0 -38.37 24.47 0 0 -19.2 24.44 0 0 -19.2 73.38 0 0 -19.19 73.38 0 0 19.19 48.91 0 0 19.2 48.94 0 0 38.37 24.45 0 0 19.2 24.47 0 0 57.58 24.45 0 0 211.09 -24.45 0 0 38.4 -24.47 0 0 38.37 -48.92 0 0 19.2 -48.91 0 0 19.18 -73.38 0 0 -19.18 -73.38 0 0 -19.2 -24.47 0 0 -19.18 -24.44 0 0 -19.19 -24.47 0 0 -38.4 -24.47 0 0 -57.57 -24.44 0 0 -172.71 0 -0.01zm97.82 -230.28l-73.38 0 0 19.18 -48.91 0 0 19.2 -48.91 0 0 19.18 -24.47 0 0 19.2 -24.47 0 0 19.18 -24.45 0 0 19.19 -24.47 0 0 19.2 -24.45 0 0 38.37 -24.45 0 0 38.4 -24.47 0 0 76.74 -24.47 0 0 95.98 24.47 0 0 95.94 24.47 0 0 38.38 24.45 0 0 19.18 24.45 0 0 38.39 24.47 0 0 19.2 24.45 0 0 19.17 48.94 0 0 19.2 24.44 0 0 19.2 48.94 0 0 19.18 97.81 0 0 19.2 220.13 0 0 -19.2 97.85 0 0 -19.18 48.92 0 0 -19.2 24.47 0 0 -19.2 24.44 0 0 -19.17 48.94 0 0 -38.39 24.44 0 0 -19.2 24.47 0 0 -19.18 24.47 0 0 -38.38 24.44 0 0 -57.58 24.47 0 -24.47 -172.71 0 -57.58 -24.44 0 0 -38.37 -24.47 0 0 -38.4 -24.47 0 0 -19.18 -24.44 0 0 -19.19 -24.47 0 0 -19.2 -24.47 0 0 -19.18 -48.91 0 0 -19.2 -48.92 0 0 -19.17 -73.38 0 0 -19.2 -244.6 0 0 19.2 0.01 0z"/>
   <polygon class="fil0" points="10418.74,7244.64 10443.17,7244.64 10443.17,7263.84 10467.64,7263.84 10467.64,7858.77 10443.17,7858.77 10443.17,7877.96 10418.74,7877.96 10418.74,7897.14 10761.17,7897.14 10761.17,7877.96 10736.7,7877.96 10736.7,7820.39 10712.25,7820.39 10712.25,7590.09 10932.39,7590.09 10932.39,7820.39 10907.92,7820.39 10907.92,7877.96 10883.45,7877.96 10883.45,7897.14 11225.9,7897.14 11225.9,7877.96 11201.43,7877.96 11201.43,7858.77 11176.96,7858.77 11176.96,7263.84 11201.43,7263.84 11201.43,7244.64 11225.9,7244.64 11225.9,7225.47 10883.45,7225.47 10883.45,7244.64 10907.92,7244.64 10907.92,7302.23 10932.39,7302.23 10932.39,7474.95 10712.25,7474.95 10712.25,7302.23 10736.7,7302.23 10736.7,7244.64 10761.17,7244.64 10761.17,7225.47 10418.74,7225.47 "/>
   <path class="fil0" d="M7165.6 8895.09l-24.45 0 0 19.18 -97.85 0 73.38 -211.09 0 19.2 48.92 0 0 38.37 24.47 0 0 115.14 -24.47 0 0 19.2zm-48.92 -287.88l-73.38 0 0 -134.34 73.38 0 0 19.2 24.47 0 0 76.74 -24.47 0 0 38.4zm-366.89 -230.28l24.47 0 0 38.37 24.44 0 0 556.54 -24.44 0 0 38.4 -24.47 0 0 19.18 489.19 0 0 -19.18 73.38 0 0 -19.2 24.47 0 0 -19.2 24.47 0 0 -19.17 24.44 0 0 -19.2 24.47 0 0 -38.38 24.47 0 0 -153.54 -24.47 0 0 -38.37 -24.47 0 0 -19.2 -24.44 0 0 -19.19 -48.94 0 0 -38.38 24.47 0 0 -19.18 24.47 0 0 -38.4 24.44 0 0 -115.14 -24.44 0 0 -38.38 -24.47 0 0 -19.17 -24.47 0 0 -19.2 -48.91 0 0 -19.2 -513.66 0 0 19.2 0 -0.01z"/>
   <path class="fil0" d="M12571.18 7762.8l-48.92 0 0 19.2 -73.38 0 0 -211.11 122.3 0 0 38.4 24.47 0 0 115.14 -24.47 0 0 38.37zm-440.28 -518.16l24.47 0 0 19.2 24.47 0 0 57.57 24.44 0 0 479.78 -24.44 0 0 57.58 -24.47 0 0 19.2 -24.47 0 0 19.17 489.22 0 0 -19.17 73.38 0 0 -19.2 48.91 0 0 -19.2 24.47 0 0 -19.18 24.44 0 0 -19.2 24.47 0 0 -38.38 24.44 0 0 -191.91 -24.44 0 0 -38.38 -24.47 0 0 -19.2 -24.44 0 0 -19.17 -24.47 0 0 -19.2 -24.47 0 0 -19.2 -122.28 0 0 -19.18 -48.92 0 0 19.18 -97.85 -191.91 24.47 0 0 -19.2 24.45 0 0 -19.17 -366.9 0 0 19.17 -0.01 0z"/>
   <path class="fil0" d="M7067.77 6438.63l24.44 0 0 -57.57 24.47 0 0 -38.4 24.47 0 0 -38.38 24.45 0 0 57.58 24.47 0 0 57.57 24.47 0 0 38.38 -146.77 0 0 -19.18zm-73.38 -326.25l24.44 0 0 19.2 24.47 0 0 57.57 -24.47 0 0 57.57 -24.44 0 0 57.58 -24.47 0 0 57.57 -24.47 0 0 57.58 -24.44 0 0 57.58 -24.47 0 0 57.57 -24.47 0 0 57.58 -24.44 0 0 57.57 -24.47 0 0 38.38 -24.47 0 0 38.37 -24.44 0 0 19.2 -24.47 0 0 19.2 269.04 0 0 -19.2 -24.44 0 0 -38.37 -24.47 0 0 -19.2 24.47 0 0 -76.74 24.44 0 0 -38.4 244.62 19.2 24.47 0 0 57.57 24.44 0 0 76.74 -24.44 0 0 19.2 -24.47 0 0 19.2 391.36 0 0 -19.2 -24.47 0 0 -19.2 -24.47 0 0 -38.37 -24.44 0 0 -38.38 -24.47 0 0 -57.57 -24.47 0 0 -57.58 -24.44 0 0 -38.37 -24.47 0 0 -57.58 -24.47 0 0 -57.58 -24.44 0 0 -57.57 -24.47 0 0 -38.4 -24.47 0 0 -57.58 -24.44 0 0 -57.57 -24.47 0 0 -57.57 -24.47 0 0 -19.18 -317.96 0 0 19.18 0.01 0z"/>
   <path class="fil0" d="M6505.21 6630.54l-24.47 0 0 19.2 -97.85 0 0 -191.92 122.32 0 0 19.2 24.44 0 0 134.34 -24.44 0 0 19.18zm-122.32 -307.05l-24.44 0 0 -115.14 146.75 0 0 -19.2 24.44 0 0 19.2 146.77 0 0 -95.97 -513.66 0 0 633.31 489.19 0 0 -19.2 24.47 0 0 -19.18 24.47 0 0 -19.2 24.44 0 0 -19.2 24.47 0 0 -38.37 24.47 0 24.44 -95.94 0 -19.2 -24.44 0 0 -76.76 -24.47 0 0 -19.2 -24.47 0 0 -38.38 -48.91 0 0 -19.19 -48.91 0 0 -19.2 -244.62 0 0 -19.18 0.01 0z"/>
   <path class="fil0" d="M8461.97 8683.98l-24.47 0 0 19.2 -24.47 0 0 19.2 -24.45 0 0 -249.5 48.92 0 0 19.2 24.47 0 0 19.17 24.44 0 0 153.54 -24.44 0 0 19.19zm-366.89 -307.05l24.44 0 0 57.57 24.47 0 0 498.97 -24.47 0 0 57.57 -24.44 0 0 38.38 342.42 0 0 -19.18 -24.47 0 0 -19.2 -24.45 0 0 -249.49 171.21 0 0 -19.17 73.38 0 0 -19.2 24.47 0 0 -19.2 24.47 0 0 -19.19 24.44 0 24.47 -19.18 0 -57.58 24.47 0 0 -95.94 -24.47 0 0 -38.4 -24.47 0 0 -19.18 -24.44 0 0 -19.2 -24.47 0 0 -19.17 -24.47 0 0 -19.2 -48.91 0 0 -19.2 -489.18 0 0 19.2 0 -0.01z"/>
   <polygon class="fil0" points="8046.14,7225.47 7972.77,7225.47 7972.77,7244.64 7923.86,7244.64 7923.86,7263.84 7899.39,7263.84 7899.39,7283.03 7850.48,7283.03 7850.48,7302.23 7826.01,7302.23 7826.01,7321.41 7801.56,7321.41 7801.56,7359.8 7777.1,7359.8 7777.1,7379 7752.63,7379 7752.63,7417.37 7728.18,7417.37 7728.18,7474.95 7703.71,7474.95 7703.71,7647.66 7728.18,7705.24 7752.63,7705.24 7752.63,7743.62 7777.1,7743.62 7777.1,7782 7801.56,7782 7801.56,7801.19 7826.01,7801.19 7826.01,7820.39 7850.48,7820.39 7850.48,7839.57 7874.95,7839.57 7874.95,7858.77 7923.86,7858.77 7923.86,7877.96 7972.77,7877.96 7972.77,7897.14 8046.14,7897.14 8046.14,7916.33 8315.21,7916.33 8315.21,7897.14 8413.03,7897.14 8413.03,7877.96 8461.97,7877.96 8461.97,7820.39 8486.41,7820.39 8486.41,7762.8 8510.88,7762.8 8510.88,7724.44 8486.41,7724.44 8486.41,7743.62 8437.5,7743.62 8437.5,7762.8 8364.12,7762.8 8364.12,7782 8266.27,7782 8266.27,7801.19 8192.9,7801.19 8192.9,7782 8095.08,7782 8095.08,7762.8 8070.61,7762.8 8070.61,7743.62 8046.14,7743.62 8046.14,7724.44 8021.71,7724.44 8021.71,7705.24 7997.24,7705.24 7997.24,7647.66 7972.77,7647.66 7972.77,7436.57 7997.24,7436.57 7997.24,7398.17 8021.71,7398.17 8021.71,7379 8046.14,7379 8046.14,7359.8 8070.61,7359.8 8070.61,7340.6 8143.99,7340.6 8143.99,7321.41 8241.84,7321.41 8241.84,7340.6 8315.21,7340.6 8315.21,7359.8 8364.12,7359.8 8364.12,7379 8388.58,7379 8388.58,7225.47 8315.21,7225.47 8315.21,7206.27 8046.14,7206.27 "/>
   <polygon class="fil0" points="4303.84,7225.47 4230.45,7225.47 4230.45,7244.64 4181.52,7244.64 4181.52,7263.84 4157.07,7263.84 4157.07,7283.03 4108.13,7283.03 4108.13,7302.23 4083.69,7302.23 4083.69,7321.41 4059.22,7321.41 4059.22,7359.8 4034.75,7359.8 4034.75,7379 4010.32,7379 4010.32,7417.37 3985.85,7417.37 3985.85,7474.95 3961.38,7474.95 3961.38,7647.66 3985.85,7647.66 3985.85,7705.24 4010.32,7705.24 4010.32,7743.62 4034.75,7743.62 4034.75,7762.8 4059.22,7762.8 4059.22,7801.19 4083.69,7820.39 4108.13,7820.39 4108.13,7839.57 4132.6,7839.57 4132.6,7858.77 4181.52,7858.77 4181.52,7877.96 4230.45,7877.96 4230.45,7897.14 4303.84,7897.14 4303.84,7916.33 4572.88,7916.33 4572.88,7897.14 4670.73,7897.14 4670.73,7877.96 4719.63,7877.96 4719.63,7820.39 4744.1,7820.39 4744.1,7762.8 4768.54,7762.8 4768.54,7724.44 4744.1,7724.44 4744.1,7743.62 4695.16,7743.62 4695.16,7762.8 4621.79,7762.8 4621.79,7782 4523.97,7782 4523.97,7801.19 4450.6,7801.19 4450.6,7782 4352.75,7782 4352.75,7762.8 4328.28,7762.8 4328.28,7743.62 4303.84,7743.62 4303.84,7724.44 4279.37,7724.44 4279.37,7705.24 4254.9,7705.24 4254.9,7647.66 4230.45,7647.66 4230.45,7436.57 4254.9,7436.57 4254.9,7398.17 4279.37,7398.17 4279.37,7379 4303.84,7379 4303.84,7359.8 4328.28,7359.8 4328.28,7340.6 4401.66,7340.6 4401.66,7321.41 4499.5,7321.41 4499.5,7340.6 4572.88,7340.6 4572.88,7359.8 4621.79,7359.8 4621.79,7379 4646.26,7379 4646.26,7225.47 4572.88,7225.47 4572.88,7206.27 4303.84,7206.27 "/>
   <polygon class="fil0" points="8877.77,6093.2 8804.39,6093.2 8804.39,6112.38 8755.48,6112.38 8755.48,6131.58 8706.54,6131.58 8706.54,6150.77 8682.11,6150.77 8682.11,6169.94 8657.64,6169.94 8657.64,6189.14 8633.17,6189.14 8633.17,6208.34 8608.73,6208.34 8608.73,6246.72 8584.26,6246.72 8584.26,6285.09 8559.79,6285.09 8559.79,6323.49 8535.35,6323.49 8535.35,6534.59 8559.79,6534.59 8559.79,6572.96 8584.26,6572.96 8584.26,6611.36 8608.73,6611.36 8608.73,6649.74 8633.17,6649.74 8633.17,6668.91 8657.64,6668.91 8657.64,6688.11 8682.11,6688.11 8682.11,6707.31 8706.54,6707.31 8706.54,6726.48 8755.48,6726.48 8755.48,6745.68 8804.39,6745.68 8804.39,6764.88 8877.77,6764.88 8877.77,6784.05 9146.82,6784.05 9146.82,6764.88 9244.67,6764.88 9244.67,6745.68 9293.58,6745.68 9293.58,6688.11 9318.05,6688.11 9318.05,6630.54 9342.52,6630.54 9342.52,6592.16 9318.05,6592.16 9318.05,6611.36 9269.14,6611.36 9269.14,6630.54 9195.76,6630.54 9195.76,6649.74 9122.39,6649.74 9122.39,6668.91 9000.07,6668.91 9000.07,6649.74 8926.68,6649.74 8926.68,6630.54 8877.77,6630.54 8877.77,6611.36 8853.3,6611.36 8853.3,6572.96 8828.86,6572.96 8828.86,6534.59 8804.39,6534.59 8804.39,6304.29 8828.86,6304.29 8828.86,6265.92 8853.3,6265.92 8853.3,6227.52 8902.24,6227.52 8902.24,6208.34 8975.61,6208.34 8975.61,6189.14 9049.01,6189.14 9049.01,6208.34 9146.82,6208.34 9146.82,6227.52 9195.76,6227.52 9195.76,6246.72 9220.2,6246.72 9220.2,6093.2 9122.39,6093.2 9122.39,6074 8877.77,6074 "/>
   <polygon class="fil0" points="9097.92,8357.73 9024.54,8357.73 9024.54,8376.93 8975.61,8376.93 8975.61,8396.13 8951.15,8396.13 8951.15,8415.3 8926.68,8415.3 8926.68,8434.5 8877.77,8434.5 8877.77,8453.67 8853.3,8453.67 8853.3,8492.07 8828.86,8492.07 8828.86,8511.25 8804.39,8511.25 8804.39,8568.82 8779.92,8568.82 8779.92,8645.6 8755.48,8645.6 8755.48,8741.54 8779.92,8741.54 8779.92,8818.32 8804.39,8818.32 8804.39,8875.89 8828.86,8895.09 8853.3,8895.09 8853.3,8914.26 8877.77,8914.26 8877.77,8933.46 8902.24,8933.46 8902.24,8952.66 8926.68,8952.66 8926.68,8971.83 8951.15,8971.83 8951.15,8991.03 8975.61,8991.03 8975.61,9010.23 9024.54,9010.23 9024.54,9029.41 9122.39,9029.41 9122.39,9048.61 9366.95,9048.61 9366.95,9029.41 9464.8,9029.41 9464.8,9010.23 9513.71,9010.23 9513.71,8971.83 9538.18,8971.83 9538.18,8914.26 9562.65,8914.26 9562.65,8856.69 9538.18,8856.69 9538.18,8875.89 9489.27,8875.89 9489.27,8895.09 9415.89,8895.09 9415.89,8914.26 9318.05,8914.26 9318.05,8933.46 9244.67,8933.46 9244.67,8914.26 9171.29,8914.26 9171.29,8895.09 9122.39,8895.09 9122.39,8875.89 9097.92,8875.89 9097.92,8856.69 9073.45,8856.69 9073.45,8818.32 9049.01,8818.32 9049.01,8760.74 9024.54,8760.74 9024.54,8588.01 9049.01,8588.01 9049.01,8530.45 9073.45,8530.45 9073.45,8511.25 9097.92,8511.25 9097.92,8492.07 9122.39,8492.07 9122.39,8472.87 9195.76,8472.87 9195.76,8453.67 9293.58,8453.67 9293.58,8472.87 9391.42,8472.87 9391.42,8492.07 9415.89,8492.07 9415.89,8511.25 9464.8,8511.25 9464.8,8453.67 9440.33,8453.67 9440.33,8357.73 9391.42,8357.73 9391.42,8338.55 9097.92,8338.55 "/>
   <polygon class="fil0" points="9807.23,7244.64 9831.7,7244.64 9831.7,7263.84 9856.14,7263.84 9856.14,7858.77 9831.7,7858.77 9831.7,7877.96 9807.23,7877.96 9807.23,7897.14 10394.27,7897.14 10394.27,7820.39 10418.74,7820.39 10418.74,7743.62 10394.27,7743.62 10394.27,7762.8 10345.36,7762.8 10345.36,7782 10100.74,7782 10223.04,7590.09 10223.04,7609.29 10271.98,7609.29 10271.98,7628.46 10296.42,7628.46 10296.42,7474.95 10100.74,7474.95 10100.74,7340.6 10271.98,7340.6 10271.98,7359.8 10296.42,7359.8 10296.42,7379 10320.89,7379 10320.89,7225.47 9807.23,7225.47 "/>
   <polygon class="fil0" points="7508.05,8376.93 7508.05,8434.5 7532.49,8434.5 7532.49,8952.66 7508.05,8952.66 7508.05,8991.03 7483.58,8991.03 7483.58,9029.41 8046.14,9029.41 8046.14,8991.03 8070.61,8991.03 8070.61,8914.26 8095.08,8914.26 8095.08,8875.89 8046.14,8875.89 8046.14,8895.09 8021.71,8895.09 8021.71,8914.26 7777.1,8914.26 7777.1,8722.38 7899.39,8722.38 7899.39,8741.54 7923.86,8741.54 7923.86,8760.74 7948.33,8760.74 7948.33,8607.21 7777.1,8607.21 7777.1,8472.87 7948.33,8472.87 7948.33,8492.07 7972.77,8492.07 7972.77,8511.25 7997.24,8511.25 7997.24,8357.73 7483.58,8357.73 "/>
   <polygon class="fil0" points="11641.71,8396.13 11617.24,8396.13 11617.24,8472.87 11592.8,8472.87 11592.8,8530.45 11617.24,8530.45 11617.24,8511.25 11641.71,8511.25 11641.71,8492.07 11715.09,8492.07 11715.09,8472.87 11812.94,8472.87 11812.94,8971.83 11788.47,8971.83 11788.47,9010.23 11764,9010.23 11764,9029.41 12106.46,9029.41 12106.46,9010.23 12081.99,9010.23 12081.99,8971.83 12057.52,8971.83 12057.52,8472.87 12155.37,8472.87 12155.37,8492.07 12204.28,8492.07 12204.28,8511.25 12253.22,8511.25 12253.22,8434.5 12277.65,8434.5 12277.65,8357.73 11641.71,8357.73 "/>
   <polygon class="fil0" points="2395.97,7244.64 2420.44,7244.64 2420.44,7283.03 2444.89,7283.03 2444.89,7839.57 2420.44,7839.57 2420.44,7877.96 2395.97,7877.96 2395.97,7897.14 2738.4,7897.14 2738.4,7877.96 2713.96,7877.96 2713.96,7839.57 2689.49,7839.57 2689.49,7340.6 2860.72,7340.6 2860.72,7359.8 2934.1,7359.8 2934.1,7379 2958.53,7379 2958.53,7398.17 2983,7398.17 2983,7302.23 2958.53,7302.23 2958.53,7225.47 2395.97,7225.47 "/>
   <polygon class="fil0" points="12864.69,7244.64 12889.16,7244.64 12889.16,7283.03 12913.59,7283.03 12913.59,7839.57 12889.16,7839.57 12889.16,7877.96 12864.69,7877.96 12864.69,7897.14 13207.12,7897.14 13207.12,7877.96 13182.68,7877.96 13182.68,7839.57 13158.21,7839.57 13158.21,7283.03 13182.68,7283.03 13182.68,7244.64 13207.12,7244.64 13207.12,7225.47 12864.69,7225.47 "/>
   <polygon class="fil0" points="13476.19,7071.93 13500.63,7071.93 13500.63,7129.5 13525.1,7129.5 13525.1,7148.7 13549.57,7148.7 13549.57,7167.9 13574.01,7167.9 13574.01,7187.07 13598.47,7206.27 13794.15,7206.27 13843.09,7187.07 13843.09,7167.9 13867.53,7167.9 13867.53,7148.7 13892,7148.7 13892,7110.32 13916.47,7110.32 13916.47,7033.55 13745.25,7033.55 13745.25,7071.93 13769.72,7071.93 13769.72,7091.13 13745.25,7091.13 13745.25,7110.32 13647.4,7110.32 13647.4,7052.75 13671.85,7052.75 13671.85,7033.55 13476.19,7033.55 "/>
   <polygon class="fil0" points="11225.9,5997.24 11250.34,5997.24 11250.34,6016.43 11274.81,6016.43 11274.81,6035.63 11299.28,6035.63 11299.28,6054.8 11323.73,6054.8 11323.73,6074 11543.87,6074 11543.87,6054.8 11568.33,6054.8 11568.33,6035.63 11592.8,6035.63 11592.8,6016.43 11617.24,6016.43 11617.24,5997.24 11641.71,5997.24 11641.71,5901.27 11470.49,5901.27 11470.49,5920.47 11494.96,5920.47 11494.96,5978.04 11397.11,5978.04 11397.11,5958.86 11372.67,5958.86 11372.67,5920.47 11397.11,5920.47 11397.11,5901.27 11225.9,5901.27 "/>
   <polygon class="fil0" points="5942.61,6150.77 5942.61,6112.38 6113.85,6112.38 6113.85,6131.58 6138.32,6131.58 6138.32,6726.48 6113.85,6726.48 6113.85,6745.68 6089.38,6745.68 6089.38,6764.88 6578.57,6764.88 6578.57,6745.68 6162.76,6745.68 6162.76,6112.38 6676.41,6112.38 6676.41,6208.34 6529.64,6208.34 6529.64,6189.14 6505.21,6189.14 6505.21,6208.34 6358.45,6208.34 6358.45,6323.49 6382.89,6323.49 6382.89,6227.52 6676.41,6227.52 6676.41,6246.72 6700.88,6246.72 6700.88,6093.2 5893.7,6093.2 5893.7,6112.38 5918.17,6112.38 5918.17,6150.77 "/>
   <g>
    <g id="_1568209952640">
     <path class="fil0" d="M5721.62 4334.94c-9.74,75.42 -103.35,70.44 -182.87,77.06 -18.44,-26.68 -43.97,-90.36 -45.1,-121.08 63.81,3.46 186.52,16.25 227.97,44.02zm510.55 -2052.35c-29.32,152.23 106.76,301.39 119.88,432.37 -84.98,-5.64 -165.54,-68.51 -178.59,-151.08 -15.94,-100.96 20.74,-211.19 -6.29,-296.56 -22.27,-70.33 -70.91,-165.43 -108.23,-223.18 -20.59,-31.84 -37.52,-63.82 -63.42,-97.94 -26.46,-34.87 -60.08,-57.26 -65.12,-86.78 46.13,-8.55 123.19,-31.61 149.32,-33.36 165.32,296.55 902.79,391.96 747.08,777.56 -38.2,1.48 -31.74,3.96 -59.77,-27.41 -53.4,-59.72 -217.65,-289.08 -340.82,-182.25 8.29,27.42 13.59,32.15 52.28,45.99 198.97,71.15 173.9,157.01 263.39,209.47 31.36,18.38 83.34,40.4 56.13,101.74 -40.55,17.36 -201.28,14.57 -254.91,8.57 -86.15,-9.64 -88.27,-70.37 -117.39,-145.22 -29.36,-75.46 -48.57,-123.66 -77.57,-188.43 -34.31,-76.59 -55.67,-142.69 -115.97,-143.49l0 0zm1264.4 -817.22l-16.85 27.93c-36.1,-3.75 -39.92,-9.14 -43.71,-48.39l-47.09 -173.41c-13.15,-51.62 -36.97,-118.44 -33.1,-184.13 105.26,-59.84 163.29,-79.15 222.35,-185.47 57.96,-104.36 20.62,-233.5 -37.95,-319.88 -115.61,-170.49 -258.43,-136.17 -353.73,-262.84 -32.15,-42.77 -50.9,-88.19 -96.47,-106.99 -2.85,110.76 -19.56,194.42 -48.17,286.6 -31.62,101.87 -79.31,103.22 -64.69,266.84 6.68,74.62 41.45,190.79 88.98,242.83 75.21,82.34 169.25,75.32 227.4,93.87 10.66,198.73 63.71,459.29 224.98,580.57 226.14,170.05 245.99,210.48 197.69,570.13 -79.46,591.65 -318.08,292.01 -327.57,241.57 -10.33,-54.85 34.08,-100.14 58.61,-132.97 126,-168.52 186.01,-56.7 231.83,-270.9 0.69,-3.28 7.58,-39.62 7.65,-41.16l-5.04 -28.61c-0.27,-3.58 -1.67,-4.69 -3.13,-6.68 -53.62,41.88 -44.67,183.73 -141.7,191.21 0.07,-103.4 84.26,-310.01 18.61,-360.44 -33.54,22.63 -23.3,125.12 -46.76,169.19 -39.93,-3.05 -38.74,-10.85 -59.46,-45.55 -46.71,-78.25 -58.09,-175.41 -109.89,-188.06 -2.84,69.69 20.47,133.78 44.9,189.63 26.29,60.14 54.87,83.37 118.59,114.27 -11.88,78.88 -99.17,201.85 -146.21,232.9 -29.66,-27.76 -25.56,-71.58 -33.47,-125.27l-32.37 -289.52c-7.68,-49.04 -31.68,-83.41 -36.66,-126.21 -8.75,-75 70.52,-133 44.69,-269.81 -15.45,-81.89 -56.26,-171.98 -141.32,-174.4 7.74,71.56 65.32,101.55 73.99,172.63 -89.89,9.72 -177.3,-125.26 -242.06,-201.57 -22.77,-26.84 -35.08,-57.35 -76.61,-63.41 -4.63,95.39 92.04,167.75 158.58,216.92 170.27,125.82 192.93,235.07 87.45,221.19l-110.9 -45.63c-45.83,-23.13 -86.61,-43.46 -129.35,-77.86 -35.32,-28.42 -174.25,-170.27 -189,-220.97 40.28,-59.53 133.21,-120.25 147.47,-255.94 10.83,-103.22 -60.73,-211.57 -125.55,-264.94 -78.45,-64.59 -164.05,-87.67 -278.48,-109.89 -123.87,-24.05 -149.85,-86.9 -243.66,-144.45 3.9,51.55 17.09,90.33 19.79,150.21 11.05,244.02 -54.53,297.46 14.64,450.09 141.42,312 311.74,210.91 409.71,214.78 45.5,82.17 148.31,209.57 205.51,257.83 60.79,51.3 110.06,40.38 166.71,70.81 31.95,17.16 94.94,85.57 111.39,116.13 65.69,122.09 57.89,251.85 54.23,405.38 -9.32,391.09 51.65,285.47 54.5,408.83 -206.34,-1.48 -111.13,-118.83 -202.73,-180.99 -45.71,56.89 -15.27,161.7 27.03,209.09 59.27,66.38 108.74,53.51 217.54,60.61 122.48,7.99 96.11,55.93 109.89,163.37 6.86,53.42 69.26,172.07 29.15,215.13 -50.88,46.85 -241.04,-101.18 -276.07,-131.62 -214.19,-186.2 -190.23,-369.83 -126.32,-628.59 31.84,-128.88 42.39,-227.33 42.02,-375.79 -5.61,-3.5 -32.14,-20.8 -42.68,-25.02 -1.29,-0.51 -19.49,-5.61 -21.15,-5.86 -26.6,-4.06 -16.81,-0.5 -22.49,0.96 -16.27,46.39 100.61,476.91 -119.85,396.48 -124.48,-45.44 -63.01,-346.12 -44.82,-437.99 17.46,-88.23 5.26,-263.1 -117.44,-222.5 -2.26,6.85 -3.39,5.93 -1.37,20.82l17.76 38.18c61.64,91.54 70.94,86.03 48.48,194.63 -83.78,-5.79 -103.65,-112.34 -241.85,-154.8 -1.43,33.61 -8.85,34.98 11.63,47.98 33.68,28.12 127.56,116.36 141.22,151.48 9.13,41.87 88.79,113.69 45.59,177.75 -23.13,24.23 -59.25,5.91 -90.13,-10.46 -98.74,-52.35 -163.84,-34.8 -181.17,-176.44 -10.26,-83.82 -65.55,-321.4 -130.89,-345.67 -30.05,52.48 94.11,251.08 84.77,365.65 -95.74,24.22 -132.15,-16.87 -175.95,-64.72 -165.11,-180.42 -79.86,-141.49 -35.01,-277.44 96.92,-293.72 -142.92,-465.88 -469.79,-423.07 -163.01,21.34 -220.27,-89.5 -282.76,-59.91 48.2,53.96 63.82,128.31 85.24,194.75 50.04,155.32 18.77,161.65 46.73,237.63 38.94,105.9 166.45,246.42 298.62,270.62 -6.54,76.33 76.94,166.56 125.39,242.3 29.12,45.53 152.83,188.39 73.45,251.59 -65.19,28.56 -287.93,-66.05 -356.81,-91.36 3.03,-148.66 46.21,-336.51 -220.55,-413.36 -185.84,-53.54 -317.66,50.28 -399.95,60.07 -56.49,6.74 -96.75,-14.5 -140.57,-4.3l-58.2 -8.74c17.41,35.94 27.77,22.09 41.37,69.5 178.77,226.39 97.1,285.5 263.75,412.46 59.07,45.01 160.59,102.34 246.25,98.86 95.14,-3.88 177.96,-64.41 213.38,-119.76 23.94,2.46 292.8,78.21 335.12,116.39 80.57,72.69 79.75,204.01 165.14,279.63 216.72,191.94 692.77,61.87 743.95,145.87 -26.66,91.52 -285.38,-19.7 -367.17,56.81 7.33,47.11 55.55,58.43 105.27,73.82 34.92,10.81 107.26,24.66 148.62,21.96 112.03,-7.3 181.98,-95.62 266.72,-12.09 56.3,55.48 88.55,137.37 147.6,202.24 47.46,52.15 110.01,114.31 166,175.56 335.96,367.56 -451.02,643.22 -462.97,350.21 -2.25,-55.1 41.22,-55.26 72.05,-82.27 13.17,-32.69 -1.24,-14.14 26.47,-40.47 14.85,-14.11 16.9,-15.93 40.16,-21.3 56.33,1.11 105.56,14.35 152.09,-13.45 32.1,-19.21 61.5,-53.57 48.7,-107.4 -54.01,-9.2 -57.3,63.68 -152.2,58.69 -13.27,-62.81 -1.9,-98.3 1.18,-160.68 1.47,-29.47 9.41,-86.48 -25.83,-98.87 -48.78,-17.15 -13.58,-2.99 -27.03,1.89 -19,11.41 -18.95,6.28 -26.69,41.78 -12.25,56.07 -7.65,117.54 -18.88,177.12 -7.04,37.34 -21.3,63.29 -42.96,89.8 -92.4,113.03 -110.79,21.02 -140.58,-83.17 -44.44,-155.33 56.25,-132.29 138.45,-230.64 17.75,-21.25 28.14,-40.33 27.25,-77.49 -0.73,-30.67 -10.93,-47.57 -28.58,-67.3 -39.53,34.25 -32.52,91.75 -75.74,131.51 -91.12,0.45 -57.67,-85.67 -87.97,-146.96 -36.11,15.16 -47.38,75.32 -27.75,123.9 17.01,42.09 56.62,46.06 43.38,103.62 -60.51,33.51 -122.64,-43.95 -151.9,-81.05 -74.3,-94.18 -131.06,-236.94 -229.43,-291.92 -35.93,-20.08 -56.16,-22.95 -85.58,-46.97 -30.73,-25.1 -36.24,-41.84 -82.97,-15.69 7.96,21.8 115.95,96.75 144.37,124.54 40.51,39.61 92.72,99.23 127.21,147.15 73.08,101.57 218.01,205.45 175.21,345.14 -125.84,32.31 -203.37,-21.79 -277.79,-80.67 -99.7,-78.86 -98.79,-106.05 -122.7,-255.81 -10.94,-68.46 -32.35,-93.24 -54.86,-144.22 -43.53,-98.54 -88.79,-331.92 -236.17,-326.76 2.14,80.44 121.37,143.61 131.51,248.86 -83.67,-9.39 -121.11,-73.08 -161.58,-130.5 -33.54,-47.59 -75.71,-131.86 -124.51,-145.41l-2.15 118.08c-162.34,21.51 -180.97,-206.4 -320.8,-217.13 -60.49,77.8 24.27,143.72 75.89,180.37 126.11,89.55 286.88,130.7 413.51,211.94l181.81 130.56 -3.4 90.19c-48.39,6.95 -89.51,-56.57 -142.42,-85.72 -110.75,-61.01 -273.06,-48.62 -394.87,-78.9 -108.96,-27.08 -15.66,-115.66 -123.7,-89.81 -13.79,41.17 28.79,114.82 48.88,136.57 28.5,30.84 90.35,40.14 141.81,49.16 53.32,9.35 273.4,30.84 316.55,72.56l-44.07 16.71c-91.11,17.76 -265.78,4.2 -347.74,-17.55 -54.57,-14.48 -198.92,-129.42 -253.34,-169.92 3.89,-62.22 34.35,-89.41 25.2,-178.08 -17.31,-167.85 -111.77,-307.97 -310.92,-310.18 -117.67,-1.29 -221.31,60.25 -292.91,119.98 -141.36,117.91 -128.93,60.05 -298.44,112.98 3.85,22.71 23.31,24.02 44.96,35.63 155.69,83.63 251.21,242.28 301.72,275.41 143.38,94.05 349.08,132.9 476.47,-1.42 48.73,2.17 69.21,17.64 98.59,41.69 120.74,98.79 -11.9,100.22 -90.18,126.53 -67.7,22.76 -96,135.07 -0.51,102 67.76,-23.47 8.14,-61.55 167.56,-60.95 48.14,0.19 239.13,7.76 271.25,20.78 -4.76,39.18 -80.79,73.92 -122.03,83.68 -74.75,17.69 -106.98,-5.35 -177.85,28 19.06,35.78 72.56,53.63 124.96,57.87 145.16,11.69 233.46,-121.05 353.93,-173.72 106.24,-46.46 206.87,1.88 269.57,60.76 95.48,89.68 55.37,231.64 -9.64,231.82l-159.77 -82.43c-51.49,-17.81 -127.79,-52.12 -176.25,-7.15 19.85,83.52 221.97,40.12 229.08,142.02 -125.14,90.6 -298.96,-4.98 -388.85,-26.45 -67.43,-16.11 -123.82,-15.13 -196.9,-39.91 -115.7,-39.24 -87.37,-0.56 -187.85,3.15 -55.65,-102.06 -72.85,-176.42 -169.06,-230.65 -90.84,-51.22 -205.39,-39.62 -304.49,8.75 -89.94,43.91 -142.94,112.58 -201.07,197.53 -85.13,124.4 -139.53,79.21 -226.08,163.33l21.98 9.85c29.42,10.77 -13.1,-3.85 15.19,4.78 271.56,82.9 327.25,186.02 448.22,202.08 190.24,25.27 357.09,-24.09 409.25,-204.91 7.41,-25.67 7.75,-51 16.1,-67.54 44.4,-56.44 507.22,97.8 628.17,107.22 -13.67,134.52 -123.59,188.54 -249.79,189.8 -77.07,0.77 -137.31,1.07 -213.43,-10.16 -52.95,-7.82 -149.28,-34.67 -198,-3.89 -0.11,78.84 94.71,79.47 155.02,84.23 441.94,34.81 481.57,-114.27 556.64,-120.29 8.45,63.93 -28.38,151.86 -57.97,193.7 -46.55,65.82 -128.59,67.04 -34.19,117.79 73.23,-23.04 102.54,-104.83 130.96,-181.25 55.85,-150.16 1.6,-168.37 -0.63,-267.18 45.54,-32.63 49.2,-35.02 111.11,-59.51 44.46,-17.59 75.24,-28.85 112.5,-47.17 68.89,-33.9 167.96,-70.34 256.68,-36.37 99.86,38.24 140.17,253.39 124.16,359.96 -9.53,63.42 -27.73,73.46 -95.23,72.29 -62.92,-79.23 -86.13,-202.91 -216.34,-204.23 2.49,83.68 131.83,104.39 112.25,196 -78.67,24.31 -107.02,-9.42 -195.85,32.43 -55.25,26.03 -87.65,56.24 -84.37,134.33 72.3,1.38 73.88,-64.62 173.15,-93.17 142.76,-41.05 315.56,7.26 147.25,138.7 -43.11,33.68 -78.37,44.96 -139.95,51.95 -150.84,17.1 -532.47,-25.98 -665.04,-85.64 -225.42,-101.42 -157.27,-41.72 -281.93,-11.14 -128.09,-128.02 -279.19,-188.35 -452.75,-46.65 -142.88,116.65 -124.78,294.22 -233.87,411.86 -18.56,42.84 -13.4,19.19 -39.44,44.46 -20.66,20.08 -3.75,18.41 -41.37,38.67 -23.49,37.51 -5.76,6.69 0.51,19.24 270.68,-38.22 374.24,71.15 527.25,41.7 166.16,-31.97 278.53,-101.63 316.33,-262.72 128.49,-21.58 301.32,-116.82 415.31,-118.11 154.06,-1.72 311.78,33.26 422.65,100.78 -13.74,67.53 -75.76,73.49 -169.41,108.6 -27.29,10.23 -36.24,11.27 -45.44,40.03 2.15,1.3 5.18,2.49 6.86,3.09 25.07,8.91 52.26,15.91 107.94,8.71 119.7,-15.47 124.1,-114.87 183.05,-169.13 32.03,-29.48 100.66,-48.47 149.39,-87.65 46.51,-37.38 71.49,-78.08 111.89,-124.38 86.11,-98.72 164.29,-130.32 322.53,-149.85 132.05,-16.28 321.76,-35.54 432.21,20.07 9.65,59.08 -27.81,89.34 -53.28,138.9 -22.36,43.48 -39.53,92.25 -46.02,143.04 -13.49,105.63 73.11,243.49 -46.87,293.1 -168.26,69.58 -354.74,-60.69 -475.68,-59.65 -31.95,0.28 -53.37,5.32 -80.12,17.84 -34.72,16.23 -38.52,21.48 -44.31,53.03 113.61,-5.08 220.99,38.04 231.95,130.66 -57.81,93.37 -189.6,56.97 -283.56,15.21 -66.08,-29.37 -198.94,-108.59 -283.32,-57.92 -41.32,24.81 -69.47,56.63 -121,68.88 -211.86,50.34 -155.02,-100 -252.86,-112.96 -51.16,-6.77 -107.37,13.05 -136.67,39.52 -27.34,38.59 -30.98,17.81 -28.6,54.58l57.09 3.28 53.19 -0.81c109.25,191.4 -128.12,107.28 -201.86,170.11 18.1,84.7 159.96,43.06 212.49,22.89 66.52,-25.55 132.79,-51.01 203.63,-69.33 63.99,-16.56 422.01,-114.74 446.2,-0.14 -88.08,25.61 -150.91,-27.4 -247.73,16.97 -54.82,25.12 -147.58,63.92 -173.32,105.34l118.25 -8.85c38.26,-9.47 80.35,-14.88 119.91,-21.9 86.44,-15.33 156.47,-23.95 247.5,-23.11 2.4,71.41 -76.12,84.66 -131.98,107.84 -122.01,50.64 -242.86,70.09 -366.38,108.39 -49.26,15.27 -150.83,22.14 -161.26,74.34 38.06,39.2 121.85,3.81 166.28,-11.73 212.63,-74.36 347.29,-57.7 477.91,-147.74 46.74,-32.23 68.85,-81.21 140.35,-80.72 38.83,0.25 59.4,13.55 95.5,16.15 56.84,4.09 50.07,-3.58 82.54,-23.63 67.38,-41.63 266.84,-62.33 349.42,-25.76 -7.25,25.54 -73.45,69.65 -93.67,91.89 -32,35.16 -57.6,83.24 -35.76,127.96 48.33,51.41 181.31,-179.49 369.12,-184.31 75.95,-1.95 175.43,29.55 248.7,37.02 52.81,5.38 83.83,-8.4 109.82,31.79 21.71,33.54 13.78,49.83 48.74,85.17 37.4,0.64 94.63,-10.99 118.1,-34.85 47.79,-48.63 -27.2,-128.27 164.18,-113.36 79.82,6.22 52.27,-0.35 88.85,49.25 65.81,89.26 393.13,87.44 432.47,-14.75 -55.46,-35.83 -183.03,-43.52 -269.88,-42.66 -3.73,-114.94 160.4,-90.94 261.59,-88.72 49,1.06 113.94,9.11 168.8,12.96 37.14,2.61 89.55,14.53 131.22,2.35 64.43,-18.82 35.67,-44.7 63.69,-88.79 79.1,-124.42 342.56,150.12 497.53,192.41 113.02,30.85 275.78,15.45 400.21,6.4 257.14,-18.68 226.13,98.64 316.63,109.02l50.61 -3.09c3.43,-25.68 13.77,-20.99 -39.36,-60.8l-34.15 -23.98c-16.15,-16.52 -0.1,2.07 -14.29,-20.68 -38.83,-21.43 -136.51,-85.76 -177.46,-93.29 -76.86,-14.14 -187.18,17.28 -269.64,-2.49 -12.24,-83.77 102.78,-77.09 161.44,-98.68 -8.84,-77.53 -180.19,-41.77 -215.09,-10.42 -52.25,46.91 -26.42,167.08 -164.22,130.46 -71.7,-19.05 -134.81,-87.07 -168.96,-135.28 -78.04,-110.17 -115.79,-103.72 -104.81,-177.7 102.92,-62.28 192.54,-6.25 268,-53.23 -12.7,-36.67 -45.26,-37.44 -93.21,-37.63 -101.97,-0.43 -281.35,-14.62 -351.72,31.29 -11.16,27.58 4.5,2.86 -15.38,28.26 -3.97,5.05 -6.54,6.32 -14.25,13.93 -38.04,37.63 -70.9,82.16 -111.89,96.65 -371,118.26 -507.41,-69.93 -567.41,-446.92 -32.15,-201.87 25.19,-277.76 137.33,-390.6 73.82,-74.27 202.66,-177.58 340.64,-196 333.63,-44.55 277.54,428.02 448.7,637.57 44.05,53.91 599.23,385.36 699.37,385.35 82.3,-6.95 40.79,-23.23 4.03,-61.4 -30.76,-44.27 -229.22,-92.31 -259.19,-145.72l45.62 -14.07c93.97,-15.51 217.35,-14.28 302.53,19.1 71.05,27.86 149.43,179.87 212.17,149.31 18.8,-17.09 16.05,-63.99 -13.33,-93.54 -24.51,-24.64 -45.72,-22.02 -60.14,-51.32 25.88,-72.18 191.21,-116.57 286.35,-128.38 3.66,173.94 182.83,288.85 363.25,268.84 90.82,-10.06 164.38,-50.22 237.67,-84.35 94.98,-44.23 207.03,10.12 268.49,-24.8 -0.6,-1.06 -61.33,-50.89 -78.16,-70.1l-131.97 -179.45c-14.55,-32.56 -25.67,-74.91 -48.84,-96.3 -33.06,-24.43 -55.13,-52.74 -83.3,-79.14 -20.04,-31.06 -110.62,-70.74 -155.77,-86.26 -69.98,-24.03 -126.29,-24.19 -190.44,2.28 -148.85,61.36 -163.14,156.32 -189.27,285.13 -57.97,16.97 -127.58,7.02 -192.84,25.88 -71.96,20.8 -85.89,62.48 -133.8,82.55 -65.07,27.23 -78.6,-36.61 -147.2,-52.35 -75.91,-17.43 -523.37,127.13 -672.2,-125.65 -22.67,-38.47 -53.53,-107.12 -51.17,-151.71 43.21,3.32 156.46,84.2 246.76,118.69 107.33,40.99 204.09,41.56 321.23,19.42 178.88,-33.82 131.29,-17.54 295.82,18 65.48,14.15 244.27,-29.97 286.87,-64.23 -23.35,-47.91 -177.78,-14.59 -315.61,-32.74 22.01,-68.45 54.97,-31.07 66.48,-80.88 -89.55,-33.13 -252.91,72.83 -358.24,69.53 -8.46,-44.02 39.71,-101.18 63.49,-123.81 112.67,-107.32 379.54,51.75 474.8,-49.87 -50.1,-46.48 -181.06,1.38 -240.19,-27.22 13.03,-34.25 -19.61,-8.85 34.19,-26.55 50.67,-16.69 80.79,7.35 90.21,-53.34 -59.63,-27.12 -248.23,16.36 -311.01,43.7 -240.45,104.7 -159.5,264.45 -283.23,248.83 -71.91,-9.08 -168.75,-89.29 -222.43,-137.21 -79.21,-70.71 -148.64,-99.09 16.55,-203.38 335.36,-211.71 529.56,-35.09 845.54,-22.04 77.94,3.22 124,-16.47 180.77,24.98 35.38,25.84 76.04,66.17 128.83,48.08 -14.87,-66.73 -84.32,-34.24 -96.24,-113.62 34.32,-37.25 99.67,-49.97 165.75,-47.89 63.58,75.24 63.44,124.51 188.33,153.16 97.09,22.28 203.29,1.04 275.04,-40.68 71.93,-41.8 121.84,-101.63 177.76,-152.64 59.65,-54.42 162.53,-50.62 234.78,-91.85 -19.19,-14.22 -71.51,-31.96 -99.2,-47.56 -128.89,-72.62 -158.66,-115.65 -242.94,-192.73 -90.51,-82.77 -323.82,-130.19 -455.98,-39.84l-62.54 65.29c-77.42,96.35 -55.08,160.73 -42.48,281.12l-328.05 80.58c-0.56,-81.79 67.03,-68.22 71.88,-148.52 -145.74,-12.23 -117.17,73.57 -180.55,132.6 -130.49,10.08 -165.92,-49.89 -238.45,-64.72 -38.08,-20.97 -37.43,-29.21 -64.53,-47.76l-2.2 -30.53c-17.32,-71.86 11.39,-55.43 21.61,-110.68 14.64,-34.37 31.93,-54.07 66.38,-62.21 182.28,-32.22 277.68,129 454.2,122.6 54.16,-1.95 116.03,-18.85 128.76,-60.73 -54.94,-30.55 -217.69,-7.61 -242.48,-56.81 23.37,-33.86 89.7,-13.11 93.79,-84.06 -57.23,-26.97 -140.2,7.71 -216.98,7.84 -68.48,0.1 -168.88,-21.12 -226.33,-10.37 -140.26,26.27 -164.76,156.79 -242.7,232.98 -88.12,86.15 -208.68,93.4 -329.49,153.98 -47.67,23.9 -109.97,75.4 -159.67,78.77 -59.03,3.98 -107.31,-67.56 -111.83,-123.5 42.95,-100.4 224.81,-98.19 328.58,-145.78 103.1,-47.28 213.16,-191.43 220.64,-242.93 20.6,-40.67 32.91,-57.08 75.52,-75.18 27.14,1.49 63.93,-22.34 122.93,-23.25 58.51,-0.91 83.39,3.02 134.71,12.41 75.46,13.77 172.97,49.48 244.05,52.73 118.53,5.43 193.01,-63.84 388.88,-62.83 54,0.28 78.3,-5.15 108.66,-28.92 -13.64,-50.97 -104.75,-63.13 -174.21,-53.04 -35.3,5.14 -51.62,20.19 -91.66,30.24 -205.97,51.72 -107.02,-192.72 -103.99,-197.53 30.23,-48.35 92.1,-70.03 170.88,-65.22 81.73,193.76 274.16,323.76 499.86,168.39 81.54,-56.14 123.61,-127.15 176.05,-221.22 57,-102.25 145.66,-106.41 216.72,-178.33 -289.15,-18.11 -355.35,-160.26 -537.51,-161.12 -267.2,-1.24 -355.42,101.22 -374.4,326.34 -116.58,10.73 -82.89,38.65 -146.42,39.28 -58.74,-81.75 -23.87,-302.3 -38.21,-355.28 -8.74,-32.29 -8.34,-20.86 -18.59,-31.72 -88.37,16.59 -49.74,165.36 -31.75,233.51 29.27,110.83 38.26,146.36 17.31,265.79 -47.69,271.79 -159.24,229.01 -336.75,110.32 2.71,-51.63 16.3,-77.35 42.64,-112.31 72.54,-8.43 93.88,30.79 150.41,-1.09 -5.05,-68.56 -134.69,-70.64 -202.52,-69.33 -36.57,63.44 -41.94,85.37 -48.36,167.58 -325.1,53.92 -571.47,471.25 -1048.31,407.39 -258,-34.55 21.75,-292.88 207.45,-312.97 134.93,-14.6 198.33,36.64 331.89,27.58 75.03,-5.07 214.61,-57.6 218.35,-137.51 -57.05,5.76 -34.09,22.31 -87.4,34.29 13.22,-77.73 51.08,-97.51 48,-175.67 -110.47,35.72 -95.34,172.84 -137.85,210.83 -36.45,22.36 -118.49,22.87 -164.5,-3.54 6.47,-25.1 0.58,-16.31 45.66,-40.05 38.11,-20.06 115.44,-85.4 80.94,-125.06 -30.24,-39.14 -130.25,39.7 -166.86,68.75 -64.79,51.39 -98.83,50.48 -189.17,64.97 -89.33,14.34 -143.23,10.2 -209.45,56.31 -38.9,27.09 -109.54,104.87 -156.83,78.59 -30.88,-15.68 -19.52,-13.12 -38.02,-86.39 -12.3,-48.71 -10.35,-62.27 -48.1,-64.44 -21.74,30.35 -19.97,109.76 -10.06,155.73 14.91,69.15 26.17,64.76 91.21,83.91 45.03,250.21 -436.18,478.99 -353.51,161.22 23.73,-91.18 92.63,-204.58 138.57,-286.99 156.89,-281.48 258.77,-209.44 582.48,-263.86 212.15,-35.66 506.31,-106.87 699.63,-130.58 47.99,-5.9 147.69,-20.64 192.88,-9.68 100.08,24.26 54.68,85.64 126.37,79.38 16.61,-33.27 4.49,-75.54 -11.2,-101.49 -17.86,-29.53 -45.72,-37.12 -78.16,-44.88 -79.78,-19.04 -144.19,-6.21 -212.49,-40.79 -2.08,-70.98 9.94,-64.53 69.87,-77.68 54.11,-11.84 88.4,-8.45 110.27,-45.06 -20.15,-37.22 -136.15,-75.75 -171.86,-27.57l-49.35 43.53c-57.15,49.52 8.52,126.43 -90.55,166.81 -226.78,92.44 -451.98,1.23 -244.18,-311.02 175.23,-263.31 474.66,138.31 736.31,56.05l38.15 -22.48c-8.31,-31.51 -13.95,-37.44 -50.48,-44.98 -67.78,-13.99 -175.72,8.46 -235.16,-30.12 -77.65,-50.41 -48.56,-212.13 -27.14,-254.08 16.09,-31.51 5.04,-10.45 17.13,-23.85 60.11,23.93 108.38,79.22 154.78,113.24 256.25,187.85 275.45,60.21 371.93,119.54 246.94,151.91 446.93,-43.43 504.84,-295.88 7.99,-34.82 10.84,-73.85 21.63,-103.48 25.35,-69.65 89.26,-95.54 103.04,-144.1l10.57 -32.89 -55.73 3.96c-301.68,24.25 -354.94,-82.65 -574.9,36.09 -65.77,35.51 -134.31,81.2 -161.72,159.13 -51.35,145.93 14.52,211.2 16.95,263.85 -100.69,18.77 -215,-84.4 -282.19,-140.07 -33.56,-27.79 -52.57,-31.58 -54.03,-88.3 6.53,-30.26 9.98,-35.93 43.7,-40.96l169.74 -71.27c53.9,-22.86 125.6,-49.45 141.94,-98.08 -32.19,-17.66 -50.64,-7.11 -107.1,9.6 -29.94,8.86 -69.17,23.3 -98.66,33.39 -113.52,38.91 -253.04,112.5 -300.43,230.58 -59.73,148.86 19.75,238.05 -73.63,237.52 -19.73,-0.13 -22.28,-3.31 -41.29,-7.53l-215.5 -39.88c-61.94,-70.59 8.52,-219.12 47.23,-275.15 63.51,-91.92 160.72,-104.66 172.5,-180.25 -130.71,-7.98 -213.81,141.86 -269.04,236.33 -67.29,115.13 -103.86,658.78 -297.87,706.94 -75.91,18.84 -128.05,-33.87 -162.88,-82.18 -45.74,-63.49 -39.6,-128.43 -14.97,-196.92 9.23,-31.8 20.6,-43.02 53.12,-51.32 28.63,-5.26 99.39,-58.13 120.68,-75.93 10.25,-24.84 -2.38,-5.26 16.13,-28.87 1.6,-2.06 15.15,-14.93 18.25,-18.24 24.98,-26.76 13.69,-22.39 47.71,-34.76 126.15,-171.52 27.03,-304.36 180.99,-428.63 52.79,-42.61 144.72,-77.47 209.71,-101.64 58.76,-21.86 151,-66.61 193.48,-107.6 47.31,14.97 10.91,-1.71 41.57,27.26 8.2,7.74 14.24,15.44 22.46,23.77 47.4,48.04 136.93,89.19 210.92,102.89 227.56,42.12 382.99,-198.93 363.14,-442.42 -17.46,-214.47 66.46,-194.95 77.86,-312.48 -68.58,46.98 -136.77,61.51 -240.25,87.86 -114.34,29.11 -165.98,-5.9 -270.6,52.1 -52.45,29.08 -137.75,94.46 -174.15,147.42 -92.79,135.03 -39.53,180.01 -41.46,262.73 -51.7,31.41 -295.21,143.58 -361.83,142.15 -6.42,-70.6 24.98,-250.16 -64.33,-255.68 -38.91,69.97 14.89,201.12 -38.07,301.42 -44.81,84.86 -86.6,92.53 -103.38,226.78 -14.07,112.64 -5.18,175.61 -87.92,245.93 -40.94,34.79 -145.28,114.61 -221.44,100.4 -8.98,-133.35 265.83,-225.04 155.82,-411.54 -44.27,19.53 -51.89,118.97 -74.27,161.22 -23.57,44.44 -63.88,109.97 -124.55,109.42 -24.82,-48.54 -5.91,-76.59 -50.09,-102.26 -66.35,99.38 -0.59,235.61 16.69,344.73 94.83,598.39 -304.98,312.93 -315.24,241 -15.6,-109.34 208.59,-78.18 162.54,-228.12 -57.55,-23.64 -245.84,150.76 -232.47,268.41 11.98,105.46 156.37,73.55 -11.53,204.24 -137.71,107.17 -100.59,334.52 -204.27,356.78 -58.34,-84.13 35.61,-260.6 74.66,-411.57 78.95,-305.23 -45.85,-402.39 29,-445.05 79.27,-32.52 160.25,5.26 239.82,-51.71 29.96,-21.44 115.15,-115.43 92.06,-177.33 -31.26,8.39 -48.22,75.04 -102.86,109.98 -47.3,30.26 -134.52,32.01 -183.64,-1.97 -1.23,-62.15 49.63,-112.17 83.96,-145.61 119.63,-116.48 392.81,-123.87 460.92,-202.67 3.64,-4.61 19.59,-26.29 20.11,-26.87 14.51,-16.7 6.8,-9 24.45,-20.99 41.38,-30.02 38.82,-124.74 53.63,-184.39 18.14,-72.94 52.83,-101.92 109.19,-137.58 156.33,-98.89 186.11,-124.74 180.24,-299.32 119.25,13.61 358.29,96.32 449.19,-197.16 31.54,-101.82 22.51,-181.04 -13.21,-285.08 -12.76,-37.18 -36.49,-81.81 -38.57,-128.39 -3.1,-69.55 19.87,-103.46 11.85,-156.29l0.54 -44c-22.21,26.77 -29.17,40.35 -68.61,57.76 -30.02,7.91 -73.07,42.78 -96.92,56.6 -176.46,102.17 -196.14,56.56 -295.91,168.2 -107.32,120.11 -175.56,290.03 -59.57,435.23 36.86,14.42 11.19,-0.65 38.29,26.38 0.79,0.8 13.79,13.82 14.12,14.19 16.46,19.39 -2.18,-9.29 12.93,20.23 -1.55,114.29 -39.89,234.82 -155.13,224.29 -95.23,-36.87 -50.46,-286.17 -132.76,-311.01 -18.68,58.36 8.5,157.59 27.11,220.59l33.69 211.82c-69.53,57.14 -158.75,-230.11 -176.35,-270.04l-66.38 -160.51c-97.97,-218.92 -59.63,-116.04 86.38,-184.8 39.01,-18.38 65.67,-37.47 93.95,-74.13 130.14,-168.69 59.87,-350.56 -52.41,-512.92 -79.2,-114.54 -22.93,-189.9 -68.87,-269.56 -43.04,46.49 -60.52,89.22 -121.88,151.23 -17.91,18.09 -46.67,46.94 -72.55,69.18 -25.45,21.88 -57.49,33.21 -73.7,53.14 -27.38,30.84 -49.52,57.6 -83.52,80.86 -47.32,35.33 -115.33,248.77 -79.22,340.35 75.99,192.72 213.98,175.97 243.6,203.07 16.43,15.03 189.57,465.78 201.91,524.04 24.68,116.56 14.76,216.93 -60.34,282.89 -46.69,41 -160.86,107.83 -244.44,108.06 -12.53,-131.07 81.74,-171.95 182.33,-293.56 28.24,-34.16 41.77,-55.26 13.12,-94.49 -26.43,7 -176.73,183.7 -203.03,217.17 -106.15,135.03 -51.81,264.39 -162.91,257.61 -31.23,-183.81 78.29,-231.98 151.99,-316.14 39.75,-45.38 55.87,-107.31 66.45,-167.45 6.8,-38.68 11.79,-127.93 -4.89,-166.34 -20.3,-46.69 4,-16.63 -27.49,-30.87 -59.81,47.19 -41.69,246.11 -83.32,314.32 -50.85,83.27 -125.49,71.92 -185.52,203.27 -44.06,96.39 -50.12,218.52 -82.44,317.33 -26.91,82.22 -74.41,188.98 -111.11,273.65 -49.1,-1.99 -93.65,-33.1 -94.47,-85.58 -0.57,-37.63 44.99,-75.55 66.37,-101.53 29.96,-36.37 167.38,-154.51 83.35,-212.74 -32.53,16.44 -14.49,3.05 -29.13,37.8l-63.72 113.04c-4.91,39.3 10.81,13.37 -15.44,37.55 -10.67,9.83 -17.67,9.87 -36.76,13.3 -36.1,-17.8 -42.94,-74.95 -28.46,-115.99 18.32,-51.93 42.33,-46.35 20.95,-110.17 -90.25,-3.68 -109.54,193.46 -104.87,263.89 18.22,274.08 261.05,270.95 196.1,513.94 -27.79,103.99 -61.52,158.35 -107.8,251.66 -290.12,-35.49 -405.35,-949.35 0.27,-1114.55 92.61,-37.73 303.72,-125.52 315.91,-226.03 -66.39,-2.87 -70.23,46.69 -135.38,60.65 0.87,-51.35 21.63,-43.18 26.48,-72.78 27.79,-50.74 50.5,-59.29 83.88,-96.67 29.33,-32.87 55.41,-56.96 87.45,-83.43 49.9,-19.54 161.88,-245.87 143.64,-334.65 -62.45,4.49 -68.08,36.19 -79.92,97.91 -40.03,208.7 -292.4,442.55 -198.72,96.47 35.33,-130.48 154.91,-359.54 147.88,-413.53 -108.47,-1.03 -136.77,241.09 -179.29,266.82 -70.11,14.73 -277.36,-230.06 -273.96,-314.07 130.2,-8.7 251.45,-84.89 295.68,-187.29 64.31,-148.85 -2.67,-269.74 -65.8,-368.31 -27.21,-13.93 -14.36,-4.8 -37.71,-26.79 -10.47,-9.87 -12.88,-13.1 -23.14,-23.42 -19.51,-19.66 -28.13,-27.43 -51.58,-51.72 -13.42,-30.27 -43.76,-35.84 -70.53,-100.71 -14.64,-35.46 -36.08,-97.66 -48.74,-136.73l-22.73 0c-17.35,63.31 -92.97,208.69 -138.54,258.99 -24.21,26.72 -43.77,42.13 -62.69,68.88 -102.44,144.81 -139.38,456.13 100.62,548.96 53.94,20.87 46.16,8.72 71.06,61.7 62.19,132.27 149.16,246.16 259.87,335.71l39.79 32.37c-19.46,92.43 -38.12,181.45 -62.24,265.88 -13.17,46.12 -61.16,248.97 -117.35,188.58 -14.29,-28.52 8.5,-40.07 27.5,-70.34 45.86,-72.99 65.34,-203.87 4.86,-246.05 -39.51,47.78 0.18,137 -31.05,181.79 -13.99,20.07 -0.55,1.88 -16.3,13.92 -33.55,-58.84 3.95,-135.07 -27.01,-203.32 -45.93,-101.18 -78.58,-100.41 -149.92,-302.3 -18.03,-51 -32.78,-131.84 -69.24,-153.52 -1.62,2.33 -3.13,5.52 -3.92,7.59l-8.2 24.68c-5.47,33.81 7.88,72.83 15.83,97.5 12.38,38.39 23.75,80.24 37.26,118.37l84.43 206.07c30.09,99.64 49.74,511 -89.2,461.06 -86.79,-68.24 79.28,-453.98 -83.75,-466.39 -9.26,68.03 8.18,214.04 -9.26,254.89 -39.11,1.43 -80.73,-31.31 -107.92,-52.57 -33.57,-26.27 -60.67,-38.66 -83.78,-70.21 70.9,-87.45 196.5,-130.31 118.85,-285.48 -47.97,22.64 -45.45,104.54 -75.69,145.78 -20.17,27.52 -82.12,101.95 -123.75,70.54 -46.61,-51.24 129.91,-283.62 131.18,-403.79 0.61,-59.65 -2.29,-113.3 -23.41,-158.11 -75.88,-9.25 -50.85,33.36 -46.35,82.39 5.27,57.55 -3.97,90.44 -17.46,138.9 -38.31,137.55 -81.95,174.7 -95.66,219.69l0 0.08z"/>
     <path class="fil0" d="M8341.61 1769.32c35.02,-19.87 152.28,-128.59 171.33,-180.1 -32.05,26.46 -58.13,50.56 -87.45,83.43 -33.38,37.38 -56.09,45.93 -83.88,96.67z"/>
     <path class="fil0" d="M6693.81 1967.94c-13.66,-35.12 -107.54,-123.36 -141.22,-151.49 18.82,51.52 107.23,132.23 141.22,151.49z"/>
     <path class="fil0" d="M9060.54 4836.71c40.98,-14.5 73.85,-59.03 111.89,-96.66 7.71,-7.61 10.28,-8.88 14.24,-13.93 19.88,-25.4 4.22,-0.67 15.39,-28.26 -36.94,18.91 -50.9,40.75 -73.08,65.17 -13.67,15.07 -18.97,19.01 -33.8,31.95 -24.44,21.32 -16.91,12.15 -34.64,41.72l0 0.01z"/>
     <path class="fil0" d="M10354.92 5253.38c31.63,15.8 31.33,14.26 69.82,-0.04 5.05,-39.94 -11.72,-49.43 -37.88,-66.29 -29.43,-18.94 -37.92,-30.08 -69.13,-42.21 14.19,22.74 -1.86,4.15 14.29,20.67l34.15 23.99c53.13,39.8 42.79,35.11 39.36,60.79l-50.61 3.1 0 -0.01z"/>
     <path class="fil0" d="M4953.19 1962.33c-13.61,-47.41 -23.97,-33.56 -41.38,-69.51l58.2 8.75c-19.51,-34.01 -55.78,-21.31 -89.14,-13.99l46.65 56.75c2.24,1.81 9.39,7.37 11.56,8.93l14.11 9.07z"/>
     <path class="fil0" d="M9783 594.97c39.43,-17.42 46.39,-30.99 68.61,-57.76l-0.55 44c23.17,-8.89 12.41,-41.78 5.18,-63.08 -27.28,10.72 1.16,-5.99 -19.86,10.22 -1.35,1.05 -16.45,15.88 -18.72,18.15 -21.42,21.45 -20.01,21.89 -34.67,48.47l0.01 0z"/>
     <path class="fil0" d="M9258.84 2408.95c33.76,-12.08 67.2,-49.37 82.1,-81.88 -34.02,12.37 -22.74,8 -47.72,34.77 -3.1,3.31 -16.64,16.18 -18.25,18.24 -18.51,23.61 -5.87,4.02 -16.12,28.87l-0.01 0z"/>
     <path class="fil0" d="M8302.45 432.57c-31.48,-46.89 -56.02,-50.28 -81.59,-95.38l-30.84 -6.55c23.45,24.29 32.07,32.05 51.58,51.72 10.25,10.32 12.66,13.56 23.14,23.42 23.35,21.99 10.5,12.86 37.71,26.79l0 0z"/>
     <path class="fil0" d="M8633.51 543.94c34,-23.26 56.14,-50.01 83.52,-80.85 -27.78,3.36 -34.19,14.64 -50.87,30.66 -21.08,20.26 -22.58,14.6 -32.65,50.19z"/>
     <path class="fil0" d="M5903.93 4866.28l-57.08 -3.27c-2.39,-36.78 1.25,-16 28.59,-54.59 -31.35,11.02 -49.19,23.69 -46.59,60.14 42.02,7.95 40.96,12.15 75.08,-2.29l0 0.01z"/>
     <path class="fil0" d="M10119.16 4826.11c11.33,9.01 6.67,18.16 36.11,8.09 12.7,-4.35 18.29,-15.42 25.81,-25.85 -19.72,-30.57 -20.17,-34.02 -57.88,-43.64 36.75,38.17 78.26,54.45 -4.04,61.4l0 0z"/>
     <path class="fil0" d="M4686.1 4708.4c37.62,-20.26 20.71,-18.59 41.37,-38.67 26.04,-25.28 20.88,-1.63 39.44,-44.46 -39.73,22.74 -62.22,42.01 -80.8,83.13l-0.01 0z"/>
     <path class="fil0" d="M11247.64 4313.93c-17.57,-46.22 -38.42,-63.2 -83.3,-79.15 28.17,26.4 50.25,54.72 83.3,79.15z"/>
     <path class="fil0" d="M9395.93 1315.8c-15.11,-29.51 3.53,-0.84 -12.92,-20.22 -0.33,-0.38 -13.34,-13.4 -14.13,-14.2 -27.09,-27.03 -1.43,-11.96 -38.29,-26.37 5.63,36.6 33.97,45.69 65.34,60.79l0 0z"/>
     <path class="fil0" d="M11147.19 1843.35l55.73 -3.95 -10.57 32.89c15.77,-10.3 13.7,-3.1 29.86,-25.85 2.99,-4.24 8.78,-18.04 12.41,-26.06l-87.43 22.97 0 0z"/>
     <path class="fil0" d="M9837.35 3378.13c26.44,-17.28 20.14,-14.11 40.7,-34.43 21.33,-21.11 17.14,-13.57 34.81,-40.75 -42.61,18.1 -54.92,34.51 -75.52,75.18l0.01 0z"/>
     <path class="fil0" d="M6996.89 3682.02c28.08,-13.64 5.4,1.88 23.72,-13.83l42.91 -47.94c-23.26,5.37 -25.31,7.19 -40.16,21.3 -27.71,26.32 -13.29,7.77 -26.47,40.47l0 0z"/>
     <path class="fil0" d="M10119.6 3757.33l-66.73 -78.3 2.19 30.53c27.1,18.54 26.46,26.8 64.54,47.77z"/>
     <path class="fil0" d="M7496.57 1465.37c-18.88,11.71 -13.89,7.85 -35.78,12.39l-18.89 -26.42c-1.31,-1.59 -3.94,-4.29 -5.89,-6.43 3.79,39.25 7.61,44.64 43.71,48.39l16.85 -27.93z"/>
     <path class="fil0" d="M9085.04 2536.2c16.42,-9.29 15.31,-5.8 31.2,-20.97 18.94,-18.08 13.92,-16.78 21.92,-30.36 -32.52,8.31 -43.89,19.52 -53.12,51.33z"/>
     <path class="fil0" d="M8158.4 2318.71c19.09,-3.44 26.09,-3.48 36.76,-13.31 26.25,-24.17 10.53,1.76 15.44,-37.54l-52.2 50.85z"/>
     <path class="fil0" d="M10074.48 3568.35l66.37 -62.21c-34.45,8.14 -51.73,27.84 -66.37,62.21z"/>
     <path class="fil0" d="M10837.24 3476.27l62.54 -65.3c-34.87,12.91 -48.83,27.07 -62.54,65.3z"/>
     <path class="fil0" d="M10091.3 2074.06c15.68,-10.05 5.99,-0.47 23.92,-18.02 2.83,-2.78 14.58,-16.92 19.78,-22.95 -33.72,5.03 -37.17,10.7 -43.7,40.97z"/>
     <path class="fil0" d="M9054.19 2017.28c33.75,-17.33 29.76,-12.87 44.56,-47.86 -17.66,11.98 -9.95,4.29 -24.46,20.99 -0.52,0.57 -16.47,22.26 -20.1,26.87l0 0z"/>
     <path class="fil0" d="M9892.05 2646.63l49.35 -43.52c-33.9,12.37 -34.04,10.79 -49.35,43.52z"/>
    </g>
    <path class="fil0" d="M5721.62 4334.94c-9.74,75.42 -103.35,70.44 -182.87,77.06 -18.44,-26.68 -43.97,-90.36 -45.1,-121.08 63.81,3.46 186.52,16.25 227.97,44.02zm821.47 -1575.21c-86.11,-9.66 -88.3,-70.38 -117.36,-145.24 -29.28,-75.36 -48.61,-123.78 -77.59,-188.43 -34.33,-76.57 -55.66,-142.67 -115.97,-143.47 -28.22,146.54 108.56,319.42 119.88,432.37 -84.9,-5.64 -165.6,-68.52 -178.61,-151.06 -26.72,-169.62 75.2,-226.99 -114.5,-519.76l-128.54 -184.72c31.83,-5.89 53.93,-6.33 84.1,-15.12 37.68,-10.97 27.72,-15.75 65.22,-18.23 85.14,152.72 292.88,240.09 453.6,330.83 133.5,75.37 386.63,216.06 293.48,446.72 -38.18,1.48 -31.75,3.98 -59.74,-27.43 -54.02,-60.59 -217.96,-288.8 -340.84,-182.22 6.75,22.36 2.2,16.41 19.13,30.68 7.55,6.36 22.71,11.59 33.14,15.3 198.41,70.71 174.61,157.51 263.38,209.5 31.34,18.35 83.38,40.32 56.14,101.72 -40.49,17.32 -201.36,14.58 -254.92,8.57l0 -0.01zm953.48 -1294.36l-16.85 27.93c-36.1,-3.75 -39.92,-9.14 -43.71,-48.39 -9.62,-67.16 -86.2,-255.29 -80.2,-357.54 54.77,-31.15 89.93,-40.29 131.56,-77.57 137.59,-123.27 161.39,-267.74 52.85,-427.77 -57.78,-85.19 -133.71,-126.63 -234.4,-173.02 -167.49,-77.14 -127.74,-160.51 -215.8,-196.82 -9.28,360.91 -132.52,331.97 -112.84,553.44 6.62,74.5 41.45,190.92 88.96,242.82 75.51,82.46 169.08,75.27 227.39,93.88 7.64,142.32 23.08,211.05 67.1,339.81 40.85,119.51 64.84,170.81 157.89,240.76 226.43,170.17 245.74,210.44 197.64,570.09 -79.01,590.94 -317.93,292.75 -327.55,241.65 -10.32,-54.83 34.12,-100.23 58.65,-133 111.46,-148.9 159.46,-77.01 207.93,-191.26l31.59 -120.84c0.97,-21.06 0.17,-8.58 -2.29,-21.82 -0.29,-1.57 -2.45,-3.22 -2.73,-6.77 -0.28,-3.58 -1.75,-4.68 -3.2,-6.66 -53.63,41.88 -44.68,183.73 -141.71,191.21 0.06,-94.18 12.55,-96.44 32.74,-175.81 9.85,-38.71 18.92,-159.25 -14.13,-184.63 -33.54,22.63 -23.29,125.12 -46.75,169.19 -101,-7.72 -84.82,-212.97 -169.35,-233.6 -5.16,126.42 50.83,249.27 163.49,303.9 -11.89,78.88 -99.17,201.84 -146.22,232.89 -3.79,-3.54 -16.97,2.98 -25.23,-58.54 -3.14,-23.33 -5.12,-45.74 -8.24,-66.7l-32.35 -289.58c-7.62,-49.02 -31.68,-83.35 -36.72,-126.12 -5.76,-48.99 19.67,-75.32 34.53,-122.94 41.24,-132.17 -12.74,-317.95 -131.12,-321.32 7.74,71.56 65.31,101.55 73.99,172.63 -132.81,14.36 -233.7,-252.57 -318.67,-264.98 -4.63,95.37 92.04,167.8 158.58,216.9 174.68,128.9 189.7,235.07 87.41,221.26 -45.88,-6.18 -199.23,-90.55 -240.21,-123.54 -35.35,-28.44 -174.25,-170.23 -189,-220.96 25.32,-37.43 62.67,-65.14 91.56,-109.6 95.22,-146.59 62.68,-302.4 -69.64,-411.28 -78.35,-64.48 -164.07,-87.72 -278.42,-109.92 -124.13,-24.1 -149.74,-86.77 -243.72,-144.42 3.9,51.49 17.08,90.38 19.81,150.22 9.5,207.95 -28.06,236.08 -20.78,322.39 3.41,40.46 20.16,94.09 35.4,127.67 35.53,78.27 81.81,152.38 140.24,189.72 28.93,18.49 83.26,36.52 128.74,38.93 71.97,3.82 86.87,-15.98 140.74,-13.85 45.51,82.22 148.27,209.49 205.48,257.84 87.46,73.88 194.17,30.54 278.13,186.92 65.68,122.35 57.85,251.62 54.21,405.38 -9.27,391.26 51.65,285.41 54.51,408.83 -206.31,-1.48 -111.11,-118.83 -202.73,-180.99 -45.7,56.88 -15.3,161.71 27.05,209.08 59.4,66.48 108.63,53.45 217.54,60.61 146.13,9.6 68.92,54.83 140.31,272.83 81.57,249.02 -222.33,21.92 -277.34,-25.96 -328.12,-285.55 -83.14,-522.13 -84.32,-1004.36 -27.43,-17.1 -55.55,-37.87 -86.32,-29.91 -16.62,47.35 100.88,477.17 -119.88,396.47 -124.29,-45.45 -63.14,-346.23 -44.79,-438 8.84,-44.23 14.08,-125.82 -5.37,-164.93 -20.15,-40.52 -60.6,-74.58 -112.07,-57.56 -2.22,6.73 -3.5,5.92 -1.48,20.83l17.91 38.19c11.81,17.48 21.46,29.2 34.92,50.96 35.84,57.99 27.44,76.4 13.52,143.66 -99.33,-6.86 -79.64,-104.97 -241.85,-154.8 -0.93,21.84 -3.03,13.59 2.35,34.68 8.75,34.31 -9.17,1.59 9.28,13.3 33.69,28.12 127.57,116.36 141.23,151.48 9.13,41.87 88.78,113.69 45.59,177.74 -22.95,24.06 -62.28,4.27 -90.09,-10.47 -30.63,-16.24 -47.5,-23.3 -85,-36.44 -63.42,-22.23 -87.13,-65.64 -96.19,-140 -10.21,-83.78 -65.65,-321.42 -130.91,-345.65 -20.99,36.67 24.44,127.44 39.64,171.18 18.35,52.78 50.64,126.83 45.12,194.47 -95.77,24.23 -132.11,-16.89 -175.94,-64.71 -165.07,-180.2 -79.87,-141.68 -35.01,-277.43 53.86,-162.96 12.01,-296.49 -146.54,-383.27 -204.03,-111.67 -309.92,11.61 -477.89,-62.21 -37.7,-16.57 -93.85,-53.74 -128.12,-37.52 43.63,48.86 105.2,228.94 114.26,304.01 7.01,58.06 -3.15,71.62 17.7,128.38 38.91,105.86 166.5,246.42 298.62,270.61 -11,128.46 324.55,418.1 198.85,493.89 -54,32.56 -290.1,-66.84 -356.81,-91.37 2.42,-118.95 27.15,-179.97 -31.7,-282.62 -85.89,-149.84 -294.12,-170.85 -469.28,-110.59 -37.16,12.79 -82.59,35.55 -119.48,39.94 -56.49,6.74 -96.78,-14.51 -140.62,-4.31l-58.2 -8.74c17.42,35.94 27.77,22.09 41.38,69.5 178.59,226.17 97.4,286.04 263.74,412.45 59.26,45.03 160.43,102.35 246.28,98.88 95.09,-3.86 177.97,-64.46 213.36,-119.77 56.02,5.74 117.34,39.53 181.17,53.9 288.96,65.02 176.77,216.11 319.09,342.12 216.74,191.91 692.78,61.89 743.95,145.87 -26.66,91.52 -285.38,-19.7 -367.17,56.81 7.35,47.18 55.54,58.35 105.3,73.8 256.38,79.66 303.55,-100.2 415.31,9.9 56.37,55.55 88.53,137.48 147.57,202.23 47.59,52.18 110.01,114.26 166.03,175.58 335.78,367.49 -450.7,643.3 -462.97,350.19 -2.32,-55.03 41.27,-55.31 72.05,-82.27 13.17,-32.69 -1.24,-14.14 26.47,-40.46 14.85,-14.12 16.9,-15.94 40.16,-21.31 62.07,1.23 233.47,16.48 200.79,-120.84 -54.01,-9.2 -57.3,63.68 -152.21,58.69 -11.55,-54.74 36.32,-302.48 -52.32,-260.07 -27.56,13.19 -27.22,49.73 -29.13,79.64 -5.88,91.7 -15.36,179.78 -71.79,247.05 -79.91,95.22 -104.57,-18.39 -127.53,-98.71 -24.03,-83.98 -23.43,-95.41 30.74,-140.03 70.51,-58.09 195.57,-135.69 106.37,-235.44 -39.53,34.24 -32.52,91.75 -75.74,131.51 -91.12,0.44 -57.67,-85.67 -87.97,-146.97 -36.1,15.16 -47.4,75.37 -27.73,123.94 17.01,42.02 56.6,46.05 43.36,103.58 -101.49,56.21 -217.17,-173.7 -256.83,-232.24 -45.69,-67.48 -51.98,-100.23 -124.48,-140.73 -35.75,-19.99 -56.47,-23.05 -85.64,-46.93 -30.73,-25.16 -36.15,-41.9 -82.94,-15.73 9.93,27.2 115.75,96.56 144.38,124.55 40.43,39.54 92.8,99.3 127.19,147.14 73.07,101.66 218.04,205.36 175.22,345.15 -125.93,32.34 -203.27,-21.82 -277.77,-80.68 -99.55,-78.65 -98.93,-106.18 -122.75,-255.76 -6.93,-43.55 -83.19,-223.65 -105.13,-284.03 -26.6,-73.24 -90.43,-190.34 -185.87,-187 2.14,80.44 121.37,143.61 131.51,248.87 -63.06,-7.08 -66.18,-16.18 -98.1,-51.65 -53.15,-59.05 -132.49,-208.85 -187.99,-224.27l-2.15 118.09c-162.34,21.51 -180.97,-206.4 -320.8,-217.14 -62.86,80.84 33.81,154.25 92.82,191.73 65.06,41.33 143.86,83.62 224.65,109.32 73.9,23.52 158.18,82.78 217.05,121.46 93.8,61.61 149.99,72.66 133.3,190.56 -41.12,5.91 -54.51,-18.23 -76.36,-38.38 -69.39,-63.96 -161.53,-79.17 -257.65,-94.22 -64.76,-10.16 -140.79,-16.59 -203.25,-32.05 -109.03,-26.98 -15.65,-115.64 -123.74,-89.78 -14.4,43.02 22.1,107.6 48.86,136.59 60.45,65.51 321.97,63.94 425.88,101.98l26.71 14.81c1.06,-1.88 3.97,3.15 5.79,4.91 -53.1,35.33 -143.3,23.33 -202.06,19.64 -55.85,-3.52 -149.49,-8.28 -197.02,-22.46 -35.07,-10.46 -224.91,-145.62 -246.72,-177.07 32.86,-146.69 45.36,-198.74 -25.55,-335.78 -111.73,-215.97 -395.05,-157.15 -557.55,-19.02 -131.22,111.56 -133.22,58.63 -293.32,108.63 4.16,24.57 -3.36,7.86 19.13,22.83 80.08,53.32 181.6,110.76 251.68,203.35 29.43,38.89 31.77,55.96 75.89,84.86 143.44,93.96 349.02,132.94 476.46,-1.42 41.34,1.85 164.44,62.95 146.65,116.44 -39.34,46.97 -78.9,31.86 -138.26,51.79 -29.34,9.85 -87.85,63.84 -54.95,94.63 37.54,35.13 71.06,-5.63 94.56,-27.47 50.46,-46.93 348.62,-25.63 398.71,-5.34 -4.44,36.5 -14.76,27.95 -50.6,49.86 -93.15,56.93 -163.7,21.55 -249.28,61.83 19.05,35.78 72.55,53.61 124.94,57.88 221.16,18.05 363.07,-357.89 623.51,-112.97 95.47,89.8 55.41,231.63 -9.63,231.81 -29.99,-11.63 -45.86,-29.67 -81.07,-47.25 -28.44,-14.2 -49.25,-24.98 -78.71,-35.17 -51.5,-17.79 -127.78,-52.13 -176.25,-7.16 19.85,83.51 221.97,40.15 229.08,142.02 -125.28,90.7 -299.72,-5.15 -388.86,-26.46 -67.42,-16.11 -123.77,-15.13 -196.91,-39.88 -115.87,-39.22 -87.24,-0.58 -187.83,3.14l-6.51 -14.23c-0.9,-2.05 -2.18,-4.81 -3.16,-7.09 -1.92,-4.44 -6.4,-15.58 -8.85,-21.27 -7.32,-17.05 -9,-20.74 -14.86,-32.66 -86.23,-175.74 -252.68,-238.15 -440.16,-146.65 -89.9,43.87 -142.97,112.6 -201.1,197.5 -85.26,124.52 -139.45,79.18 -226.06,163.36 23.47,17.82 31.53,12.67 58.83,20.31 2.87,0.81 10.7,3.13 13.54,3.97 24.98,7.35 43.47,12.52 64.25,21.19 175.42,73.2 238.88,156.61 348.75,171.25 417.42,55.63 394.41,-233.12 425.37,-272.47 37.96,-48.24 392.11,51.94 469.8,76.99 67.56,21.81 84.76,24.51 158.38,30.23 -13.66,134.48 -123.61,188.61 -249.81,189.8 -100.71,0.95 -355.88,-28.07 -369.41,-26.77l-34.23 9.05c-1.56,-2.38 -5.35,2.15 -7.77,3.68 -0.08,53.27 19.28,56.02 60.45,68.15 103.35,30.45 217.54,19.15 322.69,13.91 221.42,-11.03 263.03,-112.88 328.52,-118.12 8.45,63.95 -28.38,151.85 -57.97,193.71 -46.53,65.81 -128.61,67.02 -34.19,117.78 73.25,-23.04 102.49,-104.81 130.96,-181.22 55.82,-149.74 1.6,-168.66 -0.63,-267.21 59.96,-42.96 154.94,-72.86 223.59,-106.69 202.35,-99.74 330.52,-63.6 373.05,177.95 21.49,122.1 31.77,220 -87.42,217.94 -62.73,-78.99 -90.18,-202.96 -216.34,-204.23 2.49,83.63 131.83,104.4 112.25,196 -78.68,24.32 -106.94,-9.4 -195.84,32.45 -55.26,25.99 -87.66,56.23 -84.38,134.31 67.09,1.28 85.79,-67.98 173.18,-93.16 142.73,-41.12 315.59,7.39 147.23,138.69 -125.71,98.04 -349.39,51.54 -494.09,31.58 -141.74,-19.56 -183.58,-8.03 -310.9,-65.26 -225.63,-101.44 -157.06,-41.78 -281.94,-11.15 -137.33,-137.26 -292.3,-177.71 -452.75,-46.65 -142.88,116.72 -124.77,294.23 -233.86,411.87 -18.57,42.83 -13.4,19.18 -39.45,44.46 -20.65,20.08 -3.74,18.41 -41.37,38.66 -7.93,12.68 -4.38,9.46 0.51,19.25 270.82,-38.25 374.68,71.23 527.26,41.7 166.33,-32.19 278.49,-101.51 316.32,-262.73 128.27,-21.54 301.74,-116.93 415.31,-118.1 154.16,-1.56 311.68,33.18 422.65,100.77 -11.48,56.44 -28.22,54.27 -105.81,85.64 -24.57,9.93 -36.88,13.01 -63.6,23 -23.6,8.81 -13.79,0.06 -30.68,15.79 -15.53,14.48 -7.45,1.37 -14.76,24.21 2.15,1.29 5.15,2.51 6.83,3.11 26.95,9.64 54.66,15.56 107.98,8.68 119.64,-15.39 124.18,-114.97 183.02,-169.13 31.95,-29.4 100.73,-48.51 149.44,-87.63 46.43,-37.29 71.54,-78.18 111.86,-124.4 85.88,-98.46 164.47,-130.54 322.51,-149.86 132.12,-16.14 321.71,-35.55 432.24,20.09 14.1,86.38 -77.95,116.21 -99.31,281.9 -16.45,127.6 159.62,421.53 -367.35,269.22 -47.95,-13.86 -257.5,-85.41 -279.62,35.13 113.61,-5.07 220.99,38.05 231.95,130.67 -57.82,93.37 -189.62,56.97 -283.59,15.19 -351.94,-156.46 -229.11,-30.75 -404.27,11 -48.2,11.48 -125.93,13.1 -158.27,-16.47 -42.2,-38.56 -26.24,-87.51 -94.59,-96.53 -51.17,-6.74 -107.38,13.07 -136.69,39.54 -27.34,38.59 -30.98,17.81 -28.59,54.58l57.08 3.27 53.19 -0.8c109.26,191.4 -128.12,107.28 -201.85,170.1 25.89,121.22 278.84,-10.94 416.1,-46.43 100.02,-25.85 262.82,-63.36 367.09,-51.64 47.29,5.31 70.63,11.2 79.13,51.5 -88.1,25.62 -150.91,-27.42 -247.72,16.98 -54.86,25.16 -147.55,63.85 -173.33,105.33l16.03 6.35c66.37,14.81 -41.32,0.09 15.98,2.73 19.76,0.9 258.96,-64.74 453.65,-62.94 1.57,46.57 -13.14,52.26 -47.67,70.45 -142.13,74.93 -297.83,98.24 -450.73,145.77 -49.24,15.29 -150.79,22.13 -161.23,74.35 38.09,39.21 121.83,3.79 166.27,-11.74 212.52,-74.23 347.15,-57.72 477.91,-147.72 46.8,-32.22 68.83,-81.24 140.39,-80.75 88.26,0.6 89.63,47.22 177.97,-7.51 67.24,-41.66 267.06,-62.2 349.46,-25.72 -7.25,25.55 -73.45,69.66 -93.66,91.89 -46.63,51.25 -116.92,260.57 131.61,26.94 48.55,-45.64 119.83,-81.19 201.73,-83.29 75.91,-1.94 175.45,29.57 248.67,37.07 52.71,5.4 83.9,-8.5 109.88,31.72 21.69,33.6 13.76,49.86 48.72,85.19 37.42,0.65 94.58,-11 118.1,-34.8 47.63,-48.22 -27.03,-128.39 164.2,-113.39 79.88,6.26 52.23,-0.48 88.77,49.28 65.65,89.35 393.26,87.24 432.52,-14.79 -37.43,-24.18 -72.13,-25.49 -130.98,-31.58 -52.36,-5.42 -80.88,-11.65 -138.9,-11.08 -5.96,-184.03 472.77,-28.34 576.96,-77.2 64.67,-30.32 10.72,-115.9 110.48,-115.68 67.34,0.15 167.55,68.69 206.96,94.3 45.99,29.88 131.86,97.48 191.54,117.86 184.62,63.02 354.3,-0.52 557.52,23.01 146.73,16.98 105.7,92.95 196.21,103.35l50.61 -3.1c3.43,-25.67 13.77,-20.98 -39.36,-60.79l-34.15 -23.99c-16.15,-16.51 -0.1,2.07 -14.29,-20.67 -38.71,-21.37 -136.66,-85.84 -177.43,-93.33 -76.85,-14.1 -187.21,17.32 -269.67,-2.46 -12.24,-83.76 102.78,-77.08 161.44,-98.68 -8.84,-77.55 -180.18,-41.74 -215.09,-10.43 -52.23,46.81 -26.43,167.17 -164.24,130.47 -71.61,-19.07 -134.87,-87.06 -168.94,-135.27 -78.01,-110.38 -115.83,-103.54 -104.81,-177.7 102.92,-62.28 192.54,-6.25 268,-53.24 -12.72,-36.68 -45.27,-37.44 -93.24,-37.62 -102.02,-0.37 -281.23,-14.69 -351.69,31.28 -11.16,27.59 4.5,2.86 -15.38,28.27 -3.97,5.04 -6.54,6.31 -14.25,13.92 -38.04,37.64 -70.9,82.16 -111.89,96.66 -131.47,41.91 -290.23,71.19 -413.5,-50.6 -92.15,-91.04 -128.29,-236.25 -153.95,-396.29 -32.33,-201.62 25.49,-278.08 137.38,-390.64 73.88,-74.32 202.53,-177.51 340.66,-195.99 188.72,-25.25 247.73,106.77 290.81,245.42 39.74,127.96 76.54,292.33 157.86,392.15 43.85,53.84 599.29,385.35 699.37,385.35 82.3,-6.96 40.79,-23.23 4.03,-61.41 -30.76,-44.27 -229.22,-92.31 -259.19,-145.72l14.48 -6.55c37.09,-12.79 130.33,-18.21 167.22,-17.5 53.12,1.01 126.03,13.27 166.46,29.1 63.59,24.86 210.22,245.36 222.89,117.22 1.11,-11.29 0.59,-14.54 -1.94,-25.07 -11.95,-49.7 -65.02,-52.7 -82.26,-87.72 25.88,-72.17 191.21,-116.57 286.35,-128.37 3.66,173.82 182.9,289 363.29,268.83 90.8,-10.14 164.34,-50.2 237.64,-84.35 94.99,-44.25 206.98,10.13 268.48,-24.8 -0.6,-1.07 -61.34,-50.87 -78.16,-70.09 -21.73,-24.79 -44.54,-55.05 -66.38,-84.64 -22.86,-30.97 -49,-57.59 -65.59,-94.81 -14.51,-32.57 -25.66,-74.93 -48.83,-96.31 -33.06,-24.43 -55.13,-52.74 -83.3,-79.14 -24.56,-38.06 -205.66,-141.86 -346.2,-83.99 -47.86,19.7 -102.64,56.79 -132.44,103.6 -38.39,60.3 -40.03,98.62 -56.84,181.54 -57.95,16.96 -127.54,7.06 -192.86,25.9 -71.89,20.73 -85.79,62.37 -133.72,82.52 -64.95,27.28 -78.76,-36.56 -147.24,-52.35 -73.42,-16.92 -368.77,84.01 -557.81,-21.53 -95.03,-53.04 -170.35,-165.99 -165.58,-255.82 43.32,3.33 156.37,84.21 246.78,118.69 107.64,41.05 203.74,41.51 321.17,19.39 211.56,-39.88 125.59,-18.85 295.85,18.04 65.43,14.17 244.33,-30.02 286.88,-64.25 -23.36,-47.89 -177.81,-14.58 -315.61,-32.73 20.5,-63.75 55.44,-33.09 66.48,-80.89 -89.55,-33.12 -252.91,72.84 -358.24,69.54 -8.16,-42.45 52.47,-183.84 217.64,-161.6 89.59,12.06 263.65,48.73 320.64,-12.09 -50.1,-46.47 -181.06,1.39 -240.18,-27.22 12.91,-33.93 -19.58,-9.08 34.16,-26.58 51.17,-16.66 80.84,7.23 90.24,-53.3 -62.07,-28.23 -382.18,-3.08 -499.04,214.89 -25.14,46.88 -24.65,86.6 -95.21,77.63 -71.88,-9.13 -168.8,-89.26 -222.41,-137.2 -85.21,-76.2 -120.68,-86.68 -42.31,-157.79 304.7,-276.51 646.51,-78.12 904.36,-67.61 77.96,3.17 124.03,-16.48 180.79,24.96 35.38,25.84 76.05,66.17 128.83,48.08 -15,-67.33 -84.19,-33.39 -96.24,-113.61 34.32,-37.25 99.67,-49.97 165.75,-47.9 63.48,75.12 63.59,124.65 188.36,153.16 97.16,22.19 203.18,1.06 275.01,-40.67 71.91,-41.76 121.89,-101.61 177.77,-152.65 59.52,-54.38 162.56,-50.64 234.77,-91.84 -19.16,-14.22 -71.52,-31.98 -99.19,-47.55 -128.7,-72.49 -158.81,-115.76 -242.96,-192.76 -90.49,-82.78 -323.81,-130.17 -455.97,-39.83l-62.53 65.3c-88.48,110.11 -50.41,205.38 -42.49,281.12l-84.51 23.01c-67.71,15.13 -203.3,58.09 -243.54,57.56 -0.56,-81.79 67.04,-68.22 71.89,-148.51 -145.74,-12.24 -117.17,73.56 -180.55,132.6 -130.5,10.07 -165.93,-49.89 -238.45,-64.72 -38.08,-20.97 -37.43,-29.22 -64.54,-47.77l-2.19 -30.52c-17.32,-71.87 11.39,-55.43 21.61,-110.69 14.64,-34.37 31.93,-54.07 66.37,-62.21 126.42,-22.35 198.18,42.67 288.83,81.97 94.84,41.12 266.54,70.69 294.13,-20.09 -54.94,-30.56 -217.68,-7.62 -242.48,-56.81 23.38,-33.87 89.71,-13.12 93.8,-84.06 -57.23,-26.98 -140.22,7.7 -217,7.84 -68.49,0.14 -168.87,-21.17 -226.35,-10.37 -140.28,26.32 -164.7,156.77 -242.67,232.98 -88.2,86.21 -208.66,93.33 -329.5,153.98 -47.57,23.86 -110.05,75.42 -159.62,78.79 -59.04,4.02 -107.34,-67.63 -111.87,-123.53 42.96,-100.44 224.8,-98.17 328.57,-145.78 103.11,-47.28 213.17,-191.45 220.65,-242.93 20.6,-40.67 32.91,-57.08 75.52,-75.18 27.26,1.5 63.83,-22.37 122.95,-23.23 163.78,-2.41 270.02,60.22 378.72,65.12 111.91,5.03 146.48,-38.07 246.34,-49.74 103.79,-12.14 204.16,-5.19 251.22,-42.01 -13.63,-50.99 -104.77,-63.12 -174.25,-53.06 -47.02,6.8 -100.48,49.72 -169.27,35.45 -74.85,-15.51 -103.29,-283.07 144.54,-267.94 93.12,220.77 297.89,307.67 499.84,168.37 81.54,-56.25 123.65,-127.04 176.08,-221.2 56.89,-102.21 145.68,-106.44 216.71,-178.33 -288.92,-18.09 -355.46,-160.25 -537.51,-161.14 -267.16,-1.31 -355.43,101.33 -374.39,326.36 -116.93,10.76 -82.78,38.65 -146.43,39.28 -71.57,-99.61 1.16,-325.61 -56.8,-387 -88.39,16.59 -49.72,165.37 -31.74,233.53 29.2,110.73 38.33,146.43 17.3,265.79 -47.88,271.74 -159.04,229.13 -336.75,110.3 2.71,-51.63 16.3,-77.35 42.64,-112.31 72.54,-8.43 93.88,30.79 150.41,-1.09 -5.05,-68.57 -134.69,-70.64 -202.52,-69.33 -36.57,63.44 -41.94,85.37 -48.36,167.58 -168.34,27.92 -344.32,167.35 -476.02,255.44 -341.89,228.7 -859.82,207.97 -608.35,-41.5 256.67,-254.62 464.34,-2.96 710.09,-133.73 44.17,-23.52 81.21,-43.23 83.65,-95.73 -57.05,5.77 -34.08,22.32 -87.39,34.3 13.22,-77.73 51.07,-97.52 47.99,-175.67 -91.5,29.6 -97.68,130.04 -129.07,210.83 -40.73,18.66 -124.33,24.55 -173.27,-3.54 7.14,-27.71 -1.4,-11.12 21.11,-27.61 29.83,-21.85 71.87,-19.82 104.97,-93.13 36.1,-79.91 -47.56,-69.96 -166.32,24.38 -125.14,99.43 -280.24,38.82 -398.6,121.28 -38.9,27.11 -109.62,104.85 -156.87,78.59 -21.68,-11 -11.12,22.24 -36.03,-78.56 -3.4,-13.75 -7.07,-31.85 -12.56,-43.83 -18.18,-39.58 4.87,-14.33 -28.07,-31.46 -28.02,18.97 -24.24,23.54 -24.64,68.58 -0.25,27.1 -0.35,65.08 5.1,90.21 14.97,69.13 26.19,64.73 91.23,83.88 20.27,112.62 -85.11,230.91 -147.38,272.34 -39.75,26.45 -101.49,53.2 -167.98,35.28 -142.58,-38.44 66.04,-371.7 100.42,-433.36 157.27,-282.02 259,-209.21 582.45,-263.93 210.59,-35.62 508.62,-107.17 699.61,-130.58 365.78,-44.85 209.48,79.32 319.3,69.73 16.63,-33.31 4.48,-75.48 -11.22,-101.51 -44.4,-73.66 -197.72,-38.61 -290.63,-85.64 -3.88,-132.55 130.86,-40.22 180.15,-122.75 -20.15,-37.23 -136.16,-75.75 -171.86,-27.57l-49.35 43.53c-57.19,49.55 8.58,126.42 -90.57,166.79 -58.61,23.86 -158.42,37.36 -221.98,26.82 -184.78,-30.65 -74.26,-259.58 -22.16,-337.81 97.74,-146.78 234,-88.53 366.37,-25.34 80,38.17 317.35,148.55 408.07,58.9 -14.18,-53.72 -59.88,-49.64 -134.88,-50.43 -50.55,-0.52 -111.43,0.85 -150.73,-24.68 -78.35,-50.91 -54.47,-228.68 -10.03,-277.92 60.19,23.97 108.27,79.22 154.77,113.24 257.24,188.14 275.24,60.01 371.92,119.56 52.34,32.24 117.97,65.51 199.38,51.24 292.18,-51.26 300.61,-377.96 327.09,-450.64 25.36,-69.61 89.29,-95.57 103.05,-144.08l10.58 -32.89 -55.74 3.95c-137.55,11.06 -188.46,5.13 -308.75,-17.02 -152.28,-28.03 -380.85,78.47 -427.87,212.24 -16.2,46.07 -23.14,93.4 -16.41,146.77 5.38,42.69 31.75,82.1 33.37,117.09 -71.28,13.29 -157.62,-41.04 -204.63,-76.34 -32.24,-24.23 -45.18,-36.86 -77.55,-63.73 -33.57,-27.87 -52.58,-31.51 -54.05,-88.3 6.53,-30.27 9.98,-35.94 43.7,-40.97 27.9,-7.44 56.09,-27.1 79.58,-37.33 62.25,-27.12 209.49,-64.72 232.1,-132.01l-14.44 -5.02c-2.06,-0.41 -5.03,-1.3 -7.33,-1.58l-30.71 1.91c-95.45,16.55 -254.71,85.08 -331.28,136.29 -232.93,155.77 -92.76,363.29 -179.92,378.31 -25.41,4.38 -36.31,-1.73 -57.42,-6.39 -192.94,-42.7 -240.22,-0.15 -237.34,-115.09 6.32,-251.18 227.23,-288.21 241.56,-380.16 -133.44,-8.13 -212.1,139.25 -269.03,236.34 -55.34,94.37 -66.5,278.39 -103.05,397.87 -32.6,106.61 -101.09,285.81 -194.85,309.07 -93.68,23.24 -245.16,-91.91 -177.84,-279.1 9.24,-31.81 20.6,-43.02 53.12,-51.33 28.64,-5.26 99.39,-58.13 120.69,-75.93 10.25,-24.84 -2.39,-5.26 16.12,-28.87 1.61,-2.06 15.15,-14.93 18.25,-18.23 24.98,-26.77 13.7,-22.4 47.72,-34.77 45.31,-61.61 63.8,-130.5 80.98,-224.5 21.01,-114.92 16.75,-136.89 100.01,-204.13 52.59,-42.49 144.9,-77.6 209.72,-101.63 58.61,-21.72 151.15,-66.77 193.47,-107.61 68.11,21.56 84.58,118.53 274.93,153.89 227.44,42.26 383.01,-198.85 363.18,-442.44 -17.47,-214.48 66.45,-195 77.83,-312.42 -175.09,119.91 -399.88,78.55 -510.85,139.95 -295.11,163.28 -213.73,329.73 -215.61,410.15 -51.7,31.4 -295.21,143.58 -361.83,142.15 -6.42,-70.6 24.99,-250.16 -64.33,-255.68 -38.9,69.96 14.87,201.1 -38.06,301.4 -44.73,84.73 -86.71,92.68 -103.36,226.78 -13.97,112.51 -5.36,175.75 -87.93,245.95 -40.91,34.78 -145.31,114.6 -221.46,100.39 -9.03,-134.32 264.86,-226.68 155.83,-411.53 -57.47,25.35 -64.42,271.85 -198.82,270.64 -28.96,-56.66 -2.25,-74.48 -50.09,-102.27 -66.43,99.5 -0.54,235.54 16.72,344.68 13.29,84.07 35.19,301.75 -39.51,350.96 -88.94,58.58 -265.98,-41.55 -275.8,-109.88 -15.71,-109.26 208.63,-78.2 162.58,-228.14 -57.56,-23.64 -245.82,150.73 -232.48,268.44 11.92,105.31 156.41,73.59 -11.54,204.2 -81.56,63.42 -95.06,151.43 -127.05,251.84 -8,25.08 -15.25,44.39 -28.09,65.38 -19.02,31.1 -17.87,32.85 -49.12,39.56 -45.83,-66.07 -10.05,-134.8 11.7,-206.75 19.55,-64.69 45.35,-136.57 62.96,-204.83 78.84,-305.73 -45.77,-402.42 29.01,-445.04 79.19,-32.47 160.41,5.24 239.85,-51.68 29.91,-21.43 115.1,-115.47 92.02,-177.36 -31.23,8.38 -48.2,74.98 -102.87,109.97 -47.31,30.29 -134.51,32.02 -183.62,-1.96 -1.23,-62.18 49.64,-112.14 83.97,-145.6 119.51,-116.46 392.78,-123.86 460.91,-202.67 3.63,-4.62 19.58,-26.3 20.1,-26.88 14.51,-16.7 6.8,-9 24.46,-20.98 80.44,-58.37 -18.45,-207.4 162.8,-321.96 156.52,-98.91 186.13,-124.99 180.25,-299.33 109.13,12.45 190.58,53.13 300.97,-5.79 163.36,-87.16 197.96,-293.25 135.01,-476.47 -82.36,-239.75 -8.76,-166.38 -26.72,-284.66l0.54 -44c-22.21,26.77 -29.17,40.35 -68.61,57.76 -30.17,7.94 -72.94,42.77 -96.9,56.6 -176.55,102 -196.32,56.79 -295.93,168.19 -107.35,120.06 -175.53,290.08 -59.57,435.24 36.86,14.42 11.19,-0.65 38.29,26.38 0.79,0.8 13.79,13.82 14.12,14.19 16.46,19.38 -2.18,-9.29 12.93,20.22 -0.77,56.43 -11.12,123.99 -33.21,158.47 -21.73,33.92 -62.75,71.23 -121.92,65.83 -57.01,-22.07 -74.67,-177.29 -90.46,-247.24 -9.27,-41.02 -9.01,-53.73 -42.3,-63.77 -29.75,92.93 61.1,313.08 69.38,380.97l-8.58 51.44c-72.27,59.41 -175.97,-272.89 -208.24,-351.69 -18.45,-45.07 -100.35,-205.11 -87.47,-220.34 24.15,-28.59 149.64,-9.02 233.31,-117.47 130.22,-168.83 59.84,-350.44 -52.41,-512.91 -87.64,-126.86 -20.55,-185.74 -68.88,-269.55 -23.97,25.92 -35.22,52.89 -58.68,81.76l-135.74 138.67c-25.46,21.89 -57.46,33.17 -73.7,53.13 -27.38,30.84 -49.52,57.59 -83.52,80.85 -47.29,35.28 -115.4,248.88 -79.22,340.38 76.26,192.93 213.87,175.85 243.6,203.05 25.09,39.35 37.66,91.45 54.7,133.32 81.77,200.9 256.37,525.02 86.89,673.59 -46.81,41.03 -160.81,107.84 -244.46,108.08 -18.8,-196.65 275.71,-278.13 195.45,-388.05 -32.2,8.53 -82,81.62 -104.67,106.23 -78.57,85.32 -141.12,140.19 -168.5,259.32 -13.15,57.28 -26.07,113.3 -92.77,109.23 -45.59,-268.34 167.35,-195.38 218.44,-483.57 6.9,-38.95 8.12,-81.12 4.49,-120.78 -7.97,-87.66 -30.44,-73.52 -36.88,-76.45 -59.78,47.19 -41.72,246.15 -83.31,314.34 -24.65,40.43 -71.59,64.32 -106.55,93.48 -120.72,100.7 -117.41,292.5 -161.41,427.11 -15.45,47.23 -36.59,94.39 -55.69,140.79 -16.26,39.58 -39.16,95.32 -55.43,132.86 -49.07,-1.99 -93.65,-33.11 -94.49,-85.58 -1.23,-77.2 261.98,-236.51 149.75,-314.27 -32.39,16.36 -14.58,2.99 -29.11,37.8 -6.97,16.69 -8.91,25.01 -17.64,41.01 -13.38,24.49 -32.17,50.98 -46.1,72.03 -4.91,39.3 10.81,13.37 -15.44,37.55 -10.67,9.83 -17.67,9.86 -36.76,13.3 -24.9,-12.28 -27.51,-21.38 -32.82,-51.91 -17.18,-98.74 55.17,-85.07 25.31,-174.26 -38.4,-1.56 -43.4,2.2 -57.45,33.19 -34.67,76.42 -53.18,143.65 -47.42,230.72 18.16,274 260.95,270.74 196.1,513.88 -27.73,103.97 -61.54,158.44 -107.8,251.7 -115.82,-14.17 -209.79,-200.89 -234.52,-313.77 -55.59,-253.89 -44.05,-687.44 234.78,-800.78 92.62,-37.64 303.74,-125.59 315.93,-226.03 -66.39,-2.87 -70.23,46.69 -135.38,60.65 0.87,-51.35 21.63,-43.18 26.48,-72.78 27.79,-50.74 50.5,-59.29 83.88,-96.67 29.32,-32.87 55.4,-56.96 87.45,-83.43 49.9,-19.54 161.88,-245.87 143.63,-334.65 -62.48,4.49 -68.07,36.2 -79.89,97.93 -16.19,84.41 -80.69,212.67 -155.28,260.99 -1.29,0.86 -23.33,10.2 -25.14,10.36 -21.55,1.91 -24.53,10.3 -33.26,-27.41 -36.6,-158.27 174.16,-474 162.82,-561.02 -45.15,-0.43 -47.28,2.3 -67.39,35.61 -118.38,196.05 -67.6,353.17 -280.62,104.24 -24.88,-29.07 -107.21,-138.42 -105.24,-187.1 130.19,-8.7 251.46,-84.88 295.67,-187.31 64.27,-148.95 -2.6,-269.64 -65.79,-368.29 -27.21,-13.92 -14.36,-4.8 -37.71,-26.79 -10.48,-9.87 -12.89,-13.1 -23.14,-23.42 -19.51,-19.66 -28.13,-27.43 -51.58,-51.72 -13.4,-30.24 -43.71,-35.86 -70.51,-100.69 -14.64,-35.36 -36.12,-97.74 -48.76,-136.75l-22.74 0c-19.89,72.61 -51.2,119.51 -85.51,179.7 -17.13,30.07 -29.22,53.07 -53.02,79.31 -24.21,26.7 -43.79,42.1 -62.68,68.84 -86.64,122.63 -100.28,326.99 -44.13,428.88 26.51,48.12 90.46,99.21 144.71,120.14 54,20.81 46.18,8.65 71.08,61.69 36.26,77.27 101.38,181.55 157.68,239.87l141.98 128.19c-10.47,49.79 -87.81,447.94 -149.62,461.67 -77.72,17.25 -2.51,-77.43 -2.43,-77.56 45.75,-72.84 65.37,-203.82 4.83,-246.06 -34.74,42.02 -8.89,114.88 -21.63,162.75 -4.32,16.24 -0.39,6.29 -9.35,19.1 -13.85,19.82 -0.82,1.97 -16.37,13.87 -33.57,-58.87 3.99,-135.25 -27.02,-203.34 -17.5,-38.44 -61.82,-99.93 -83.07,-142.2 -21.4,-42.61 -49.46,-110.79 -66.86,-160.05 -15.3,-43.32 -28.49,-129.33 -69.22,-153.55l-7.55 15.32c-19.8,61.7 5.76,-47.99 -4.67,16.89 -7.45,46.37 38.42,174.32 53.18,215.96l84.45 206.06c30.07,99.63 49.72,510.99 -89.22,461.05 -86.78,-68.24 79.29,-453.99 -83.75,-466.39 -9.25,68.03 8.19,214.03 -9.25,254.88 -51.45,1.89 -172.01,-95.88 -191.71,-122.77 70.9,-87.45 196.51,-130.31 118.86,-285.48 -48.05,22.68 -45.38,104.55 -75.66,145.78 -15.1,20.55 -62.59,72.44 -93.39,77.46 -80.52,13.15 -16.53,-108.16 -0.65,-142.85 41.4,-90.49 100.69,-193.61 101.41,-267.87 0.58,-59.71 -2.24,-113.23 -23.39,-158.1 -75.96,-9.27 -50.74,33.33 -46.32,82.35 5.2,57.64 -4,90.4 -17.49,138.93 -11.3,40.68 -26.46,83.71 -43.13,119.18 -16.54,35.2 -43,69.28 -52.53,100.52l0 0.01z"/>
    <path class="fil0" d="M5538.75 4412c79.52,-6.62 173.13,-1.64 182.88,-77.06 -41.46,-27.77 -164.17,-40.56 -227.97,-44.01 1.13,30.72 26.65,94.39 45.09,121.07z"/>
    <path class="fil0" d="M8341.61 1769.32c35.02,-19.87 152.28,-128.59 171.33,-180.1 -32.05,26.46 -58.13,50.56 -87.45,83.43 -33.38,37.38 -56.09,45.93 -83.88,96.67z"/>
    <path class="fil0" d="M6693.81 1967.94c-13.66,-35.12 -107.54,-123.36 -141.22,-151.49 18.82,51.52 107.23,132.23 141.22,151.49z"/>
    <path class="fil0" d="M9060.54 4836.71c40.98,-14.5 73.85,-59.03 111.89,-96.66 7.71,-7.61 10.28,-8.88 14.24,-13.93 19.88,-25.4 4.22,-0.67 15.39,-28.26 -36.94,18.91 -50.9,40.75 -73.08,65.17 -13.67,15.07 -18.97,19.01 -33.8,31.95 -24.44,21.32 -16.91,12.15 -34.64,41.72l0 0.01z"/>
    <path class="fil0" d="M10354.92 5253.38c31.63,15.8 31.33,14.26 69.82,-0.04 5.05,-39.94 -11.72,-49.43 -37.88,-66.29 -29.43,-18.94 -37.92,-30.08 -69.13,-42.21 14.19,22.74 -1.86,4.15 14.29,20.67l34.15 23.99c53.13,39.8 42.79,35.11 39.36,60.79l-50.61 3.1 0 -0.01z"/>
    <path class="fil0" d="M4953.19 1962.33c-13.61,-47.41 -23.97,-33.56 -41.38,-69.51l58.2 8.75c-19.51,-34.01 -55.78,-21.31 -89.14,-13.99l46.65 56.75c2.24,1.81 9.39,7.37 11.56,8.93l14.11 9.07z"/>
    <path class="fil0" d="M9783 594.97c39.43,-17.42 46.39,-30.99 68.61,-57.76l-0.55 44c23.17,-8.89 12.41,-41.78 5.18,-63.08 -27.28,10.72 1.16,-5.99 -19.86,10.22 -1.35,1.05 -16.45,15.88 -18.72,18.15 -21.42,21.45 -20.01,21.89 -34.67,48.47l0.01 0z"/>
    <path class="fil0" d="M9258.84 2408.95c33.76,-12.08 67.2,-49.37 82.1,-81.88 -34.02,12.37 -22.74,8 -47.72,34.77 -3.1,3.31 -16.64,16.18 -18.25,18.24 -18.51,23.61 -5.87,4.02 -16.12,28.87l-0.01 0z"/>
    <path class="fil0" d="M8302.45 432.57c-31.48,-46.89 -56.02,-50.28 -81.59,-95.38l-30.84 -6.55c23.45,24.29 32.07,32.05 51.58,51.72 10.25,10.32 12.66,13.56 23.14,23.42 23.35,21.99 10.5,12.86 37.71,26.79l0 0z"/>
    <path class="fil0" d="M8633.51 543.94c34,-23.26 56.14,-50.01 83.52,-80.85 -27.78,3.36 -34.19,14.64 -50.87,30.66 -21.08,20.26 -22.58,14.6 -32.65,50.19z"/>
    <path class="fil0" d="M5903.93 4866.28l-57.08 -3.27c-2.39,-36.78 1.25,-16 28.59,-54.59 -31.35,11.02 -49.19,23.69 -46.59,60.14 42.02,7.95 40.96,12.15 75.08,-2.29l0 0.01z"/>
    <path class="fil0" d="M10119.16 4826.11c11.33,9.01 6.67,18.16 36.11,8.09 12.7,-4.35 18.29,-15.42 25.81,-25.85 -19.72,-30.57 -20.17,-34.02 -57.88,-43.64 36.75,38.17 78.26,54.45 -4.04,61.4l0 0z"/>
    <path class="fil0" d="M4686.1 4708.4c37.62,-20.26 20.71,-18.59 41.37,-38.67 26.04,-25.28 20.88,-1.63 39.44,-44.46 -39.73,22.74 -62.22,42.01 -80.8,83.13l-0.01 0z"/>
    <path class="fil0" d="M11247.64 4313.93c-17.57,-46.22 -38.42,-63.2 -83.3,-79.15 28.17,26.4 50.25,54.72 83.3,79.15z"/>
    <path class="fil0" d="M9395.93 1315.8c-15.11,-29.51 3.53,-0.84 -12.92,-20.22 -0.33,-0.38 -13.34,-13.4 -14.13,-14.2 -27.09,-27.03 -1.43,-11.96 -38.29,-26.37 5.63,36.6 33.97,45.69 65.34,60.79l0 0z"/>
    <path class="fil0" d="M11147.19 1843.35l55.73 -3.95 -10.57 32.89c15.77,-10.3 13.7,-3.1 29.86,-25.85 2.99,-4.24 8.78,-18.04 12.41,-26.06l-87.43 22.97 0 0z"/>
    <path class="fil0" d="M9837.35 3378.13c26.44,-17.28 20.14,-14.11 40.7,-34.43 21.33,-21.11 17.14,-13.57 34.81,-40.75 -42.61,18.1 -54.92,34.51 -75.52,75.18l0.01 0z"/>
    <path class="fil0" d="M6996.89 3682.02c28.08,-13.64 5.4,1.88 23.72,-13.83l42.91 -47.94c-23.26,5.37 -25.31,7.19 -40.16,21.3 -27.71,26.32 -13.29,7.77 -26.47,40.47l0 0z"/>
    <path class="fil0" d="M10119.6 3757.33l-66.73 -78.3 2.19 30.53c27.1,18.54 26.46,26.8 64.54,47.77z"/>
    <path class="fil0" d="M7496.57 1465.37c-18.88,11.71 -13.89,7.85 -35.78,12.39l-18.89 -26.42c-1.31,-1.59 -3.94,-4.29 -5.89,-6.43 3.79,39.25 7.61,44.64 43.71,48.39l16.85 -27.93z"/>
    <path class="fil0" d="M9085.04 2536.2c16.42,-9.29 15.31,-5.8 31.2,-20.97 18.94,-18.08 13.92,-16.78 21.92,-30.36 -32.52,8.31 -43.89,19.52 -53.12,51.33z"/>
    <path class="fil0" d="M8158.4 2318.71c19.09,-3.44 26.09,-3.48 36.76,-13.31 26.25,-24.17 10.53,1.76 15.44,-37.54l-52.2 50.85z"/>
    <path class="fil0" d="M10074.48 3568.35l66.37 -62.21c-34.45,8.14 -51.73,27.84 -66.37,62.21z"/>
    <path class="fil0" d="M10837.24 3476.27l62.54 -65.3c-34.87,12.91 -48.83,27.07 -62.54,65.3z"/>
    <path class="fil0" d="M10091.3 2074.06c15.68,-10.05 5.99,-0.47 23.92,-18.02 2.83,-2.78 14.58,-16.92 19.78,-22.95 -33.72,5.03 -37.17,10.7 -43.7,40.97z"/>
    <path class="fil0" d="M9054.19 2017.28c33.75,-17.33 29.76,-12.87 44.56,-47.86 -17.66,11.98 -9.95,4.29 -24.46,20.99 -0.52,0.57 -16.47,22.26 -20.1,26.87l0 0z"/>
    <path class="fil0" d="M9892.05 2646.63l49.35 -43.52c-33.9,12.37 -34.04,10.79 -49.35,43.52z"/>
   </g>
  </g>
 </g>
</svg>
