<?xml version="1.0" encoding="UTF-8"?>
<!DOCTYPE svg PUBLIC "-//W3C//DTD SVG 1.1//EN" "http://www.w3.org/Graphics/SVG/1.1/DTD/svg11.dtd">
<!-- Creator: CorelDRAW -->
<svg xmlns="http://www.w3.org/2000/svg" xml:space="preserve" width="1500px" height="834px" version="1.1" style="shape-rendering:geometricPrecision; text-rendering:geometricPrecision; image-rendering:optimizeQuality; fill-rule:evenodd; clip-rule:evenodd"
viewBox="0 0 16256 9144">
 
 <g id="Слой_x0020_1">
  <metadata id="CorelCorpID_0Corel-Layer"/>
  <g id="_2015465158560">
   <g id="_1568209952640">
    <path class="fil0" d="M5521.07 4953.49c-11.24,87.02 -119.25,81.28 -211,88.92 -21.28,-30.78 -50.73,-104.25 -52.03,-139.7 73.61,3.99 215.2,18.74 263.03,50.78zm589.09 -2368.04c-33.83,175.64 123.18,347.74 138.31,498.87 -98.05,-6.52 -191,-79.06 -206.05,-174.32 -18.4,-116.49 23.92,-243.67 -7.27,-342.18 -25.68,-81.15 -81.81,-190.88 -124.87,-257.51 -23.75,-36.73 -43.29,-73.63 -73.17,-113 -30.53,-40.23 -69.33,-66.08 -75.14,-100.13 53.23,-9.86 142.14,-36.48 172.29,-38.49 190.75,342.16 1041.65,452.25 862,897.16 -44.08,1.72 -36.62,4.58 -68.96,-31.62 -61.62,-68.9 -251.13,-333.55 -393.24,-210.28 9.56,31.64 15.67,37.1 60.31,53.06 229.58,82.1 200.65,181.17 303.92,241.7 36.18,21.2 96.15,46.61 64.75,117.39 -46.78,20.03 -232.24,16.8 -294.12,9.88 -99.4,-11.12 -101.85,-81.2 -135.45,-167.55 -33.87,-87.08 -56.03,-142.69 -89.5,-217.42 -39.59,-88.38 -64.23,-164.64 -133.81,-165.56zm1458.9 -942.94l-19.45 32.23c-41.65,-4.33 -46.06,-10.55 -50.44,-55.84l-54.33 -200.08c-15.17,-59.56 -42.65,-136.66 -38.19,-212.46 121.45,-69.04 188.41,-91.32 256.55,-214 66.88,-120.41 23.79,-269.42 -43.79,-369.08 -133.39,-196.72 -298.18,-157.12 -408.13,-303.28 -37.11,-49.34 -58.73,-101.75 -111.32,-123.44 -3.29,127.79 -22.57,224.33 -55.57,330.68 -36.49,117.55 -91.51,119.1 -74.65,307.88 7.71,86.1 47.83,220.14 102.67,280.19 86.78,95.01 195.28,86.91 262.37,108.31 12.31,229.31 73.52,529.95 259.59,669.88 260.93,196.21 283.85,242.85 228.1,657.83 -91.67,682.67 -367,336.93 -377.96,278.73 -11.91,-63.29 39.32,-115.54 67.63,-153.42 145.38,-194.45 214.63,-65.42 267.49,-312.57 0.81,-3.79 8.75,-45.72 8.83,-47.5l-5.82 -33.01c-0.31,-4.12 -1.92,-5.41 -3.61,-7.7 -61.87,48.31 -51.55,211.99 -163.5,220.62 0.08,-119.31 97.23,-357.7 21.47,-415.89 -38.69,26.11 -26.88,144.37 -53.94,195.22 -46.08,-3.52 -44.7,-12.52 -68.61,-52.55 -53.89,-90.29 -67.03,-202.4 -126.8,-216.99 -3.28,80.41 23.62,154.35 51.81,218.8 30.33,69.39 63.31,96.2 136.83,131.85 -13.71,91.02 -114.42,232.89 -168.7,268.72 -34.22,-32.03 -29.49,-82.59 -38.62,-144.53l-37.35 -334.06c-8.86,-56.58 -36.55,-96.25 -42.3,-145.63 -10.1,-86.53 81.36,-153.45 51.57,-311.31 -17.83,-94.48 -64.92,-198.44 -163.06,-201.23 8.93,82.57 75.36,117.18 85.37,199.19 -103.72,11.22 -204.58,-144.53 -279.3,-232.57 -26.27,-30.98 -40.48,-66.18 -88.39,-73.17 -5.34,110.07 106.2,193.55 182.97,250.28 196.46,145.18 222.61,271.23 100.9,255.22l-127.96 -52.65c-52.88,-26.68 -99.93,-50.15 -149.25,-89.83 -40.74,-32.79 -201.04,-196.47 -218.07,-254.96 46.47,-68.69 153.71,-138.75 170.16,-295.31 12.5,-119.09 -70.08,-244.11 -144.86,-305.69 -90.52,-74.53 -189.29,-101.16 -321.32,-126.8 -142.92,-27.75 -172.89,-100.27 -281.15,-166.67 4.5,59.48 19.73,104.22 22.84,173.32 12.76,281.56 -62.92,343.21 16.89,519.32 163.18,359.99 359.7,243.36 472.74,247.83 52.49,94.8 171.12,241.8 237.12,297.49 70.14,59.18 126.99,46.59 192.36,81.7 36.86,19.79 109.54,98.72 128.52,133.98 75.79,140.87 66.79,290.6 62.58,467.74 -10.76,451.25 59.58,329.38 62.87,471.73 -238.08,-1.72 -128.22,-137.12 -233.92,-208.84 -52.74,65.64 -17.61,186.57 31.2,241.26 68.39,76.58 125.47,61.74 251,69.93 141.32,9.22 110.9,64.54 126.79,188.5 7.92,61.64 79.92,198.54 33.64,248.22 -58.71,54.06 -278.12,-116.74 -318.54,-151.87 -247.14,-214.84 -219.49,-426.72 -145.75,-725.28 36.73,-148.7 48.9,-262.3 48.48,-433.59 -6.47,-4.04 -37.08,-24 -49.25,-28.87 -1.48,-0.59 -22.48,-6.47 -24.4,-6.77 -30.68,-4.68 -19.39,-0.57 -25.95,1.12 -18.77,53.53 116.1,550.27 -138.28,457.46 -143.63,-52.43 -72.7,-399.35 -51.71,-505.37 20.14,-101.79 6.07,-303.56 -135.51,-256.72 -2.61,7.9 -3.91,6.84 -1.57,24.03l20.48 44.05c71.12,105.62 81.86,99.26 55.94,224.58 -96.67,-6.69 -119.58,-129.64 -279.06,-178.62 -1.65,38.78 -10.21,40.36 13.42,55.35 38.87,32.45 147.19,134.27 162.95,174.79 10.53,48.31 102.44,131.17 52.6,205.09 -26.69,27.97 -68.36,6.82 -103.99,-12.07 -113.93,-60.4 -189.04,-40.16 -209.04,-203.58 -11.84,-96.72 -75.63,-370.84 -151.03,-398.84 -34.67,60.55 108.59,289.7 97.81,421.89 -110.47,27.95 -152.48,-19.46 -203.01,-74.67 -190.51,-208.17 -92.15,-163.26 -40.4,-320.11 111.82,-338.91 -164.91,-537.55 -542.06,-488.15 -188.08,24.61 -254.15,-103.27 -326.25,-69.13 55.61,62.26 73.63,148.04 98.34,224.71 57.75,179.2 21.67,186.5 53.92,274.18 44.94,122.18 192.06,284.32 344.56,312.25 -7.54,88.06 88.78,192.17 144.68,279.56 33.6,52.54 176.33,217.37 84.75,290.3 -75.23,32.95 -332.23,-76.21 -411.7,-105.42 3.49,-171.52 53.31,-388.27 -254.48,-476.93 -214.42,-61.79 -366.53,58 -461.46,69.3 -65.19,7.78 -111.65,-16.73 -162.21,-4.96l-67.15 -10.09c20.09,41.47 32.04,25.49 47.74,80.19 206.27,261.23 112.03,329.42 304.31,475.91 68.17,51.93 185.3,118.09 284.14,114.07 109.78,-4.48 205.33,-74.32 246.2,-138.19 27.63,2.84 337.84,90.25 386.67,134.3 92.96,83.87 92.02,235.39 190.54,322.64 250.05,221.47 799.34,71.39 858.4,168.31 -30.76,105.6 -329.28,-22.73 -423.65,65.55 8.45,54.36 64.09,67.41 121.45,85.17 40.3,12.48 123.76,28.46 171.49,25.35 129.25,-8.43 209.96,-110.33 307.75,-13.95 64.96,64.01 102.17,158.5 170.29,233.35 54.77,60.16 126.94,131.88 191.54,202.56 387.65,424.1 -520.39,742.17 -534.19,404.08 -2.59,-63.57 47.56,-63.75 83.14,-94.92 15.2,-37.72 -1.44,-16.32 30.54,-46.69 17.13,-16.29 19.5,-18.39 46.33,-24.58 65,1.28 121.81,16.55 175.49,-15.52 37.04,-22.16 70.96,-61.81 56.19,-123.92 -62.31,-10.61 -66.11,73.48 -175.61,67.72 -15.31,-72.47 -2.19,-113.43 1.37,-185.4 1.69,-34.01 10.85,-99.79 -29.81,-114.08 -56.28,-19.78 -15.67,-3.44 -31.19,2.18 -21.92,13.17 -21.86,7.26 -30.8,48.21 -14.13,64.7 -8.82,135.62 -21.78,204.37 -8.13,43.08 -24.58,73.03 -49.57,103.62 -106.61,130.41 -127.83,24.24 -162.21,-95.97 -51.27,-179.23 64.91,-152.64 159.76,-266.13 20.47,-24.51 32.46,-46.53 31.44,-89.4 -0.85,-35.4 -12.62,-54.89 -32.98,-77.65 -45.61,39.5 -37.52,105.86 -87.4,151.74 -105.13,0.5 -66.53,-98.85 -101.49,-169.58 -41.66,17.49 -54.67,86.91 -32.03,142.96 19.64,48.57 65.33,53.15 50.07,119.56 -69.83,38.67 -141.52,-50.71 -175.27,-93.51 -85.74,-108.67 -151.22,-273.39 -264.73,-336.83 -41.45,-23.17 -64.8,-26.48 -98.75,-54.2 -35.45,-28.95 -41.81,-48.27 -95.73,-18.1 9.18,25.16 133.79,111.63 166.57,143.7 46.75,45.7 106.99,114.49 146.79,169.79 84.32,117.19 251.54,237.05 202.15,398.23 -145.19,37.28 -234.64,-25.14 -320.51,-93.07 -115.03,-90.99 -113.99,-122.37 -141.58,-295.16 -12.63,-78.99 -37.32,-107.59 -63.3,-166.41 -50.22,-113.7 -102.45,-382.98 -272.5,-377.03 2.47,92.81 140.04,165.7 151.74,287.15 -96.54,-10.84 -139.74,-84.32 -186.44,-150.58 -38.69,-54.92 -87.35,-152.15 -143.66,-167.78l-2.48 136.25c-187.31,24.82 -208.81,-238.15 -370.15,-250.53 -69.79,89.76 28.02,165.83 87.57,208.11 145.52,103.33 331.01,150.81 477.12,244.55l209.78 150.64 -3.92 104.07c-55.83,8.01 -103.28,-65.28 -164.33,-98.91 -127.78,-70.39 -315.07,-56.1 -455.62,-91.03 -125.71,-31.26 -18.06,-133.46 -142.72,-103.63 -15.92,47.5 33.22,132.47 56.39,157.57 32.89,35.59 104.26,46.32 163.63,56.73 61.52,10.78 315.45,35.58 365.25,83.71l-50.86 19.29c-105.12,20.49 -306.65,4.84 -401.23,-20.26 -62.96,-16.71 -229.51,-149.33 -292.31,-196.05 4.49,-71.79 39.64,-103.16 29.08,-205.48 -19.97,-193.66 -128.96,-355.34 -358.75,-357.88 -135.76,-1.5 -255.35,69.51 -337.96,138.42 -163.12,136.05 -148.76,69.3 -344.35,130.37 4.44,26.2 26.9,27.71 51.88,41.11 179.64,96.49 289.84,279.55 348.13,317.77 165.43,108.52 402.77,153.34 549.77,-1.64 56.22,2.5 79.85,20.36 113.75,48.1 139.31,113.99 -13.73,115.64 -104.05,146.01 -78.12,26.25 -110.77,155.84 -0.59,117.69 78.19,-27.09 9.39,-71.03 193.33,-70.33 55.55,0.22 275.92,8.95 312.99,23.97 -5.5,45.21 -93.23,85.3 -140.81,96.56 -86.25,20.41 -123.44,-6.18 -205.2,32.31 21.98,41.28 83.71,61.88 144.17,66.76 167.49,13.5 269.38,-139.66 408.37,-200.44 122.58,-53.6 238.7,2.17 311.04,70.12 110.18,103.47 63.89,267.26 -11.12,267.47l-184.35 -95.1c-59.41,-20.55 -147.45,-60.14 -203.36,-8.26 22.9,96.38 256.11,46.3 264.32,163.87 -144.4,104.54 -344.95,-5.74 -448.66,-30.51 -77.81,-18.6 -142.87,-17.46 -227.19,-46.05 -133.5,-45.28 -100.82,-0.65 -216.75,3.63 -64.2,-117.76 -84.05,-203.56 -195.06,-266.13 -104.81,-59.1 -236.98,-45.72 -351.33,10.1 -103.78,50.65 -164.93,129.89 -232,227.91 -98.23,143.53 -161,91.39 -260.86,188.46l25.36 11.36c33.95,12.43 -15.12,-4.44 17.53,5.52 313.34,95.64 377.59,214.63 517.17,233.15 219.5,29.16 412.01,-27.79 472.2,-236.42 8.55,-29.62 8.94,-58.85 18.58,-77.93 51.23,-65.12 585.24,112.85 724.8,123.71 -15.78,155.21 -142.6,217.55 -288.21,219.01 -88.93,0.88 -158.44,1.22 -246.27,-11.73 -61.09,-9.02 -172.24,-40 -228.45,-4.48 -0.13,90.97 109.28,91.69 178.86,97.18 509.92,40.16 555.65,-131.85 642.27,-138.79 9.75,73.76 -32.75,175.22 -66.89,223.49 -53.7,75.95 -148.37,77.36 -39.45,135.91 84.49,-26.58 118.32,-120.95 151.11,-209.13 64.44,-173.25 1.85,-194.27 -0.73,-308.27 52.54,-37.65 56.77,-40.42 128.2,-68.67 51.31,-20.3 86.82,-33.28 129.81,-54.42 79.48,-39.12 193.79,-81.17 296.16,-41.97 115.21,44.12 161.73,292.37 143.26,415.34 -11,73.17 -32,84.75 -109.88,83.41 -72.6,-91.42 -99.38,-234.13 -249.62,-235.65 2.88,96.55 152.11,120.44 129.52,226.15 -90.77,28.05 -123.49,-10.86 -225.98,37.42 -63.75,30.04 -101.14,64.89 -97.35,154.99 83.42,1.59 85.24,-74.56 199.79,-107.51 164.71,-47.35 364.11,8.39 169.9,160.05 -49.74,38.85 -90.42,51.88 -161.48,59.94 -174.04,19.73 -614.37,-29.98 -767.34,-98.82 -260.09,-117.02 -181.46,-48.13 -325.3,-12.86 -147.79,-147.7 -322.14,-217.31 -522.4,-53.82 -164.86,134.6 -143.96,339.49 -269.84,475.22 -21.42,49.43 -15.46,22.14 -45.5,51.3 -23.84,23.17 -4.33,21.24 -47.74,44.62 -27.1,43.27 -6.64,7.72 0.59,22.2 312.32,-44.1 431.81,82.09 608.35,48.12 191.73,-36.89 321.38,-117.27 365,-303.14 148.25,-24.9 347.67,-134.79 479.19,-136.28 177.77,-1.98 359.74,38.38 487.67,116.28 -15.85,77.93 -87.41,84.8 -195.47,125.31 -31.49,11.81 -41.81,13 -52.43,46.19 2.48,1.5 5.98,2.87 7.92,3.56 28.93,10.29 60.3,18.36 124.54,10.05 138.12,-17.84 143.19,-132.54 211.21,-195.15 36.96,-34.01 116.15,-55.92 172.37,-101.13 53.67,-43.12 82.49,-90.09 129.1,-143.51 99.35,-113.91 189.56,-150.37 372.15,-172.9 152.36,-18.79 371.25,-41 498.69,23.16 11.13,68.17 -32.09,103.08 -61.48,160.27 -25.79,50.17 -45.61,106.44 -53.1,165.04 -15.56,121.88 84.36,280.95 -54.07,338.18 -194.14,80.28 -409.31,-70.02 -548.86,-68.82 -36.86,0.32 -61.57,6.13 -92.44,20.58 -40.06,18.73 -44.45,24.79 -51.12,61.18 131.08,-5.86 254.97,43.9 267.62,150.77 -66.71,107.73 -218.76,65.74 -327.18,17.54 -76.25,-33.88 -229.55,-125.28 -326.91,-66.83 -47.67,28.64 -80.15,65.35 -139.61,79.48 -244.44,58.09 -178.86,-115.38 -291.75,-130.33 -59.03,-7.81 -123.88,15.06 -157.69,45.59 -31.55,44.54 -35.75,20.55 -32.99,62.99l65.86 3.77 61.38 -0.93c126.06,220.84 -147.83,123.78 -232.91,196.27 20.88,97.73 184.56,49.7 245.18,26.42 76.74,-29.48 153.21,-58.86 234.95,-79.99 73.83,-19.11 486.93,-132.4 514.84,-0.16 -101.63,29.54 -174.13,-31.62 -285.84,19.58 -63.26,28.98 -170.28,73.75 -199.98,121.54l136.44 -10.21c44.15,-10.93 92.71,-17.17 138.36,-25.27 99.74,-17.69 180.54,-27.64 285.57,-26.67 2.78,82.4 -87.83,97.68 -152.28,124.43 -140.78,58.43 -280.22,80.87 -422.74,125.07 -56.83,17.61 -174.03,25.54 -186.07,85.78 43.92,45.23 140.59,4.4 191.87,-13.54 245.33,-85.79 400.71,-66.58 551.41,-170.47 53.94,-37.19 79.45,-93.7 161.95,-93.14 44.81,0.3 68.54,15.64 110.19,18.63 65.58,4.73 57.77,-4.13 95.23,-27.26 77.74,-48.03 307.89,-71.92 403.17,-29.73 -8.36,29.48 -84.75,80.37 -108.07,106.03 -36.92,40.58 -66.47,96.05 -41.27,147.64 55.77,59.33 209.2,-207.09 425.91,-212.65 87.63,-2.25 202.41,34.09 286.95,42.71 60.93,6.21 96.72,-9.69 126.72,36.69 25.05,38.69 15.89,57.49 56.23,98.26 43.16,0.74 109.19,-12.68 136.26,-40.21 55.15,-56.11 -31.38,-148 189.45,-130.79 92.1,7.17 60.3,-0.41 102.51,56.82 75.93,102.99 453.61,100.89 498.99,-17.02 -63.99,-41.34 -211.18,-50.22 -311.39,-49.22 -4.3,-132.62 185.07,-104.93 301.83,-102.37 56.54,1.23 131.47,10.52 194.77,14.96 42.85,3.01 103.33,16.77 151.4,2.71 74.34,-21.72 41.15,-51.57 73.49,-102.45 91.26,-143.56 395.25,173.21 574.06,222.01 130.41,35.59 318.2,17.82 461.78,7.39 296.68,-21.56 260.91,113.8 365.33,125.79l58.39 -3.57c3.97,-29.63 15.89,-24.22 -45.42,-70.15l-39.39 -27.67c-18.64,-19.06 -0.12,2.38 -16.49,-23.85 -44.8,-24.74 -157.52,-98.97 -204.76,-107.65 -88.69,-16.31 -215.97,19.94 -311.12,-2.88 -14.13,-96.65 118.59,-88.94 186.27,-113.86 -10.19,-89.44 -207.91,-48.19 -248.17,-12.02 -60.29,54.13 -30.49,192.78 -189.49,150.53 -82.73,-21.98 -155.55,-100.47 -194.94,-156.09 -90.05,-127.11 -133.61,-119.68 -120.94,-205.03 118.76,-71.86 222.16,-7.22 309.23,-61.42 -14.66,-42.31 -52.23,-43.21 -107.56,-43.42 -117.65,-0.49 -324.63,-16.86 -405.81,36.1 -12.88,31.83 5.18,3.3 -17.75,32.61 -4.58,5.83 -7.54,7.29 -16.44,16.07 -43.89,43.42 -81.81,94.8 -129.1,111.53 -428.07,136.45 -585.47,-80.69 -654.7,-515.68 -37.09,-232.92 29.07,-320.48 158.46,-450.68 85.17,-85.69 233.83,-204.9 393.04,-226.16 384.95,-51.39 320.23,493.87 517.71,735.65 50.83,62.21 691.41,444.65 806.95,444.64 94.97,-8.02 47.07,-26.81 4.66,-70.85 -35.5,-51.08 -264.47,-106.51 -299.06,-168.13l52.63 -16.24c108.43,-17.9 250.79,-16.48 349.07,22.04 81.98,32.14 172.42,207.54 244.81,172.27 21.69,-19.72 18.52,-73.83 -15.38,-107.92 -28.28,-28.44 -52.75,-25.41 -69.39,-59.22 29.86,-83.28 220.62,-134.5 330.4,-148.12 4.22,200.69 210.96,333.28 419.13,310.19 104.79,-11.61 189.66,-57.95 274.23,-97.33 109.59,-51.03 238.87,11.68 309.78,-28.62 -0.69,-1.21 -70.76,-58.71 -90.18,-80.88l-152.27 -207.05c-16.78,-37.57 -29.61,-86.43 -56.35,-111.11 -38.14,-28.18 -63.61,-60.85 -96.11,-91.32 -23.12,-35.83 -127.64,-81.62 -179.73,-99.52 -80.75,-27.73 -145.72,-27.91 -219.74,2.62 -171.74,70.8 -188.23,180.37 -218.38,329 -66.89,19.58 -147.21,8.1 -222.51,29.86 -83.02,24 -99.1,72.09 -154.37,95.25 -75.09,31.42 -90.7,-42.24 -169.85,-60.41 -87.58,-20.1 -603.87,146.69 -775.61,-144.97 -26.15,-44.39 -61.76,-123.6 -59.03,-175.06 49.85,3.84 180.52,97.16 284.71,136.96 123.85,47.3 235.49,47.95 370.64,22.4 206.4,-39.01 151.49,-20.23 341.33,20.77 75.55,16.33 281.84,-34.57 331,-74.11 -26.95,-55.28 -205.12,-16.83 -364.16,-37.77 25.39,-78.98 63.42,-35.85 76.71,-93.33 -103.33,-38.22 -291.82,84.04 -413.35,80.24 -9.76,-50.79 45.81,-116.75 73.25,-142.86 130.01,-123.82 437.93,59.72 547.84,-57.54 -57.81,-53.63 -208.91,1.6 -277.13,-31.41 15.03,-39.51 -22.64,-10.2 39.44,-30.63 58.47,-19.25 93.23,8.48 104.09,-61.55 -68.8,-31.29 -286.41,18.88 -358.85,50.43 -277.44,120.8 -184.04,305.13 -326.8,287.11 -82.97,-10.48 -194.7,-103.04 -256.64,-158.33 -91.4,-81.58 -171.5,-114.33 19.09,-234.65 386.94,-244.29 611.02,-40.5 975.61,-25.44 89.93,3.72 143.08,-19 208.57,28.83 40.83,29.81 87.74,76.35 148.65,55.47 -17.16,-76.99 -97.29,-39.51 -111.04,-131.09 39.6,-42.98 115,-57.66 191.24,-55.27 73.37,86.82 73.21,143.67 217.3,176.72 112.03,25.72 234.57,1.2 317.35,-46.92 83,-48.24 140.58,-117.27 205.11,-176.14 68.83,-62.78 187.53,-58.4 270.89,-105.97 -22.14,-16.41 -82.51,-36.88 -114.45,-54.88 -148.72,-83.79 -183.07,-133.43 -280.32,-222.37 -104.44,-95.5 -373.64,-150.22 -526.12,-45.97l-72.16 75.34c-89.33,111.17 -63.56,185.44 -49.02,324.36l-378.51 92.97c-0.65,-94.37 77.34,-78.72 82.94,-171.36 -168.16,-14.12 -135.19,84.88 -208.32,153 -150.57,11.62 -191.45,-57.57 -275.13,-74.68 -43.94,-24.19 -43.19,-33.71 -74.46,-55.11l-2.53 -35.22c-19.98,-82.93 13.14,-63.96 24.94,-127.71 16.89,-39.66 36.83,-62.39 76.58,-71.78 210.33,-37.18 320.4,148.84 524.07,141.46 62.49,-2.25 133.87,-21.75 148.56,-70.07 -63.39,-35.26 -251.17,-8.79 -279.78,-65.55 26.97,-39.07 103.5,-15.13 108.22,-96.99 -66.03,-31.13 -161.76,8.89 -250.36,9.04 -79.01,0.12 -194.86,-24.37 -261.14,-11.96 -161.83,30.31 -190.1,180.9 -280.04,268.82 -101.68,99.4 -240.77,107.76 -380.17,177.66 -55,27.58 -126.88,87 -184.23,90.88 -68.11,4.6 -123.82,-77.95 -129.04,-142.49 49.57,-115.85 259.4,-113.3 379.14,-168.2 118.96,-54.55 245.94,-220.89 254.57,-280.3 23.77,-46.93 37.98,-65.87 87.14,-86.75 31.31,1.72 73.76,-25.77 141.84,-26.83 67.51,-1.04 96.22,3.49 155.43,14.32 87.07,15.9 199.57,57.09 281.59,60.84 136.76,6.26 222.69,-73.65 448.7,-72.49 62.3,0.32 90.34,-5.95 125.37,-33.37 -15.73,-58.81 -120.86,-72.83 -201.01,-61.2 -40.73,5.93 -59.55,23.29 -105.76,34.89 -237.65,59.68 -123.48,-222.36 -119.99,-227.92 34.89,-55.78 106.28,-80.8 197.18,-75.25 94.29,223.56 316.33,373.56 576.74,194.3 94.09,-64.77 142.63,-146.71 203.13,-255.25 65.78,-117.99 168.07,-122.78 250.06,-205.77 -333.63,-20.89 -410,-184.91 -620.19,-185.9 -308.3,-1.43 -410.1,116.79 -431.99,376.54 -134.52,12.39 -95.65,44.6 -168.94,45.33 -67.78,-94.33 -27.55,-348.81 -44.09,-409.94 -10.09,-37.25 -9.63,-24.07 -21.46,-36.6 -101.96,19.15 -57.39,190.8 -36.63,269.43 33.77,127.88 44.15,168.88 19.97,306.68 -55.02,313.6 -183.74,264.25 -388.55,127.3 3.13,-59.58 18.82,-89.26 49.2,-129.59 83.7,-9.73 108.32,35.52 173.55,-1.27 -5.83,-79.11 -155.4,-81.5 -233.68,-79.98 -42.19,73.19 -48.38,98.5 -55.79,193.35 -375.12,62.22 -659.38,543.74 -1209.57,470.06 -297.69,-39.86 25.1,-337.93 239.36,-361.12 155.69,-16.84 228.84,42.29 382.95,31.83 86.57,-5.85 247.62,-66.46 251.93,-158.67 -65.83,6.65 -39.33,25.75 -100.84,39.58 15.26,-89.69 58.94,-112.52 55.38,-202.7 -127.45,41.23 -110.01,199.43 -159.05,243.27 -42.05,25.8 -136.71,26.38 -189.8,-4.09 7.46,-28.96 0.67,-18.82 52.68,-46.21 43.97,-23.15 133.2,-98.53 93.39,-144.29 -34.89,-45.16 -150.29,45.81 -192.53,79.32 -74.76,59.3 -114.03,58.24 -218.26,74.97 -103.08,16.55 -165.27,11.77 -241.67,64.97 -44.89,31.26 -126.4,120.99 -180.96,90.68 -35.63,-18.09 -22.53,-15.14 -43.86,-99.68 -14.2,-56.2 -11.95,-71.85 -55.5,-74.35 -25.09,35.02 -23.05,126.65 -11.61,179.68 17.21,79.8 30.19,74.73 105.24,96.83 51.96,288.69 -503.28,552.66 -407.89,186.01 27.38,-105.2 106.88,-236.05 159.89,-331.14 181.03,-324.77 298.58,-241.65 672.08,-304.45 244.78,-41.14 584.19,-123.3 807.25,-150.66 55.36,-6.81 170.4,-23.81 222.55,-11.16 115.47,27.98 63.09,98.81 145.8,91.58 19.17,-38.39 5.18,-87.16 -12.92,-117.1 -20.61,-34.07 -52.75,-42.83 -90.17,-51.78 -92.05,-21.97 -166.38,-7.17 -245.19,-47.06 -2.4,-81.91 11.47,-74.47 80.63,-89.63 62.43,-13.68 101.99,-9.75 127.23,-52 -23.25,-42.95 -157.1,-87.41 -198.3,-31.81l-56.94 50.22c-65.94,57.14 9.83,145.88 -104.47,192.47 -261.68,106.66 -521.52,1.42 -281.75,-358.87 202.19,-303.8 547.67,159.59 849.58,64.68l44.02 -25.94c-9.6,-36.35 -16.1,-43.2 -58.25,-51.9 -78.2,-16.14 -202.75,9.77 -271.33,-34.75 -89.61,-58.16 -56.03,-244.76 -31.32,-293.15 18.57,-36.37 5.82,-12.07 19.77,-27.53 69.35,27.62 125.04,91.41 178.59,130.66 295.67,216.74 317.82,69.47 429.14,137.93 284.93,175.28 515.68,-50.11 582.5,-341.4 9.22,-40.17 12.51,-85.2 24.95,-119.39 29.25,-80.37 103,-110.25 118.89,-166.27l12.2 -37.95 -64.31 4.56c-348.08,27.98 -409.53,-95.36 -663.33,41.65 -75.89,40.97 -154.97,93.69 -186.6,183.61 -59.25,168.38 16.75,243.69 19.57,304.44 -116.18,21.65 -248.08,-97.39 -325.6,-161.62 -38.72,-32.06 -60.66,-36.44 -62.35,-101.88 7.53,-34.92 11.51,-41.46 50.42,-47.26l195.85 -82.24c62.19,-26.37 144.92,-57.05 163.78,-113.16 -37.15,-20.38 -58.43,-8.2 -123.58,11.07 -34.54,10.22 -79.81,26.88 -113.84,38.54 -130.98,44.88 -291.95,129.8 -346.64,266.04 -68.92,171.75 22.78,274.67 -84.96,274.05 -22.76,-0.14 -25.7,-3.82 -47.63,-8.68l-248.65 -46.02c-71.47,-81.45 9.82,-252.82 54.49,-317.48 73.28,-106.06 185.44,-120.76 199.04,-207.97 -150.82,-9.2 -246.7,163.68 -310.43,272.68 -77.64,132.84 -119.83,760.13 -343.69,815.69 -87.58,21.74 -147.75,-39.08 -187.93,-94.83 -52.78,-73.25 -45.69,-148.17 -17.28,-227.2 10.66,-36.7 23.77,-49.64 61.29,-59.22 33.04,-6.07 114.68,-67.07 139.25,-87.6 11.83,-28.67 -2.75,-6.08 18.61,-33.32 1.85,-2.37 17.48,-17.22 21.06,-21.04 28.82,-30.88 15.8,-25.84 55.05,-40.12 145.56,-197.89 31.19,-351.17 208.84,-494.56 60.9,-49.16 166.98,-89.39 241.96,-117.26 67.8,-25.23 174.23,-76.87 223.25,-124.16 54.58,17.27 12.58,-1.97 47.96,31.46 9.46,8.93 16.43,17.81 25.91,27.42 54.7,55.43 158,102.91 243.36,118.72 262.57,48.59 441.9,-229.54 419.01,-510.49 -20.15,-247.46 76.68,-224.93 89.83,-360.53 -79.13,54.2 -157.81,70.96 -277.21,101.37 -131.92,33.59 -191.51,-6.81 -312.22,60.12 -60.51,33.55 -158.94,108.98 -200.93,170.09 -107.07,155.79 -45.62,207.7 -47.84,303.14 -59.66,36.24 -340.63,165.67 -417.5,164.01 -7.4,-81.45 28.83,-288.64 -74.22,-295 -44.89,80.73 17.18,232.05 -43.93,347.78 -51.7,97.91 -99.91,106.76 -119.28,261.66 -16.24,129.97 -5.98,202.62 -101.44,283.76 -47.24,40.14 -167.63,132.24 -255.51,115.84 -10.35,-153.86 306.73,-259.65 179.79,-474.83 -51.08,22.52 -59.87,137.27 -85.69,186.01 -27.19,51.28 -73.71,126.89 -143.71,126.26 -28.63,-56.02 -6.81,-88.38 -57.79,-118.01 -76.56,114.67 -0.68,271.86 19.26,397.77 109.41,690.43 -351.9,361.07 -363.74,278.08 -18,-126.17 240.68,-90.21 187.55,-263.22 -66.4,-27.27 -283.66,173.95 -268.24,309.7 13.83,121.68 180.42,84.86 -13.3,235.65 -158.89,123.66 -116.07,385.99 -235.69,411.67 -67.32,-97.07 41.08,-300.68 86.14,-474.88 91.1,-352.19 -52.9,-464.29 33.47,-513.51 91.46,-37.52 184.9,6.07 276.7,-59.66 34.57,-24.75 132.87,-133.19 106.22,-204.62 -36.06,9.68 -55.63,86.58 -118.68,126.91 -54.58,34.91 -155.21,36.93 -211.88,-2.28 -1.42,-71.71 57.25,-129.42 96.87,-168 138.03,-134.4 453.23,-142.92 531.82,-233.85 4.19,-5.32 22.6,-30.34 23.2,-31 16.74,-19.27 7.85,-10.39 28.22,-24.22 47.74,-34.64 44.78,-143.93 61.88,-212.76 20.93,-84.16 60.94,-117.59 125.98,-158.74 180.38,-114.1 214.74,-143.92 207.96,-345.37 137.6,15.7 413.41,111.14 518.29,-227.49 36.39,-117.47 25.97,-208.88 -15.24,-328.93 -14.73,-42.9 -42.1,-94.39 -44.5,-148.14 -3.58,-80.24 22.92,-119.38 13.66,-180.33l0.64 -50.76c-25.63,30.88 -33.67,46.55 -79.17,66.64 -34.64,9.13 -84.31,49.37 -111.83,65.3 -203.61,117.89 -226.31,65.27 -341.43,194.08 -123.82,138.58 -202.57,334.64 -68.73,502.19 42.53,16.63 12.91,-0.76 44.18,30.43 0.91,0.93 15.92,15.95 16.29,16.38 19,22.36 -2.51,-10.72 14.92,23.33 -1.79,131.87 -46.03,270.95 -178.99,258.8 -109.89,-42.54 -58.22,-330.19 -153.19,-358.85 -21.55,67.34 9.82,181.83 31.29,254.52l38.87 244.4c-80.23,65.94 -183.17,-265.5 -203.47,-311.58l-76.6 -185.2c-113.04,-252.59 -68.8,-133.88 99.67,-213.23 45.01,-21.19 75.77,-43.23 108.4,-85.53 150.16,-194.64 69.08,-404.48 -60.47,-591.81 -91.39,-132.17 -26.46,-219.12 -79.47,-311.03 -49.65,53.65 -69.83,102.94 -140.63,174.5 -20.66,20.87 -53.85,54.16 -83.7,79.82 -29.37,25.24 -66.34,38.32 -85.04,61.31 -31.59,35.59 -57.14,66.46 -96.37,93.29 -54.6,40.77 -133.07,287.05 -91.4,392.71 87.67,222.36 246.88,203.04 281.06,234.31 18.96,17.34 218.74,537.43 232.97,604.65 28.48,134.49 17.04,250.3 -69.61,326.4 -53.88,47.32 -185.61,124.42 -282.05,124.69 -14.45,-151.23 94.32,-198.39 210.37,-338.71 32.6,-39.42 48.2,-63.76 15.15,-109.03 -30.49,8.07 -203.92,211.95 -234.27,250.58 -122.48,155.8 -59.78,305.05 -187.96,297.23 -36.04,-212.08 90.33,-267.66 175.36,-364.76 45.87,-52.36 64.47,-123.82 76.68,-193.21 7.84,-44.63 13.6,-147.61 -5.65,-191.92 -23.42,-53.88 4.61,-19.19 -31.72,-35.63 -69,54.45 -48.1,283.97 -96.14,362.67 -58.66,96.09 -144.79,82.98 -214.05,234.54 -50.84,111.22 -57.82,252.13 -95.12,366.14 -31.05,94.87 -85.86,218.05 -128.21,315.75 -56.64,-2.3 -108.05,-38.19 -108.99,-98.75 -0.67,-43.41 51.91,-87.17 76.58,-117.14 34.56,-41.96 193.12,-178.28 96.17,-245.47 -37.54,18.97 -16.73,3.52 -33.62,43.62l-73.52 130.43c-5.66,45.34 12.47,15.43 -17.82,43.33 -12.31,11.34 -20.38,11.38 -42.41,15.34 -41.65,-20.53 -49.55,-86.48 -32.84,-133.83 21.14,-59.92 48.84,-53.49 24.18,-127.12 -104.14,-4.25 -126.4,223.22 -121,304.48 21.01,316.24 301.2,312.63 226.26,593 -32.07,119.98 -70.99,182.7 -124.38,290.37 -334.74,-40.95 -467.7,-1095.39 0.31,-1286 106.86,-43.53 350.45,-144.83 364.51,-260.79 -76.61,-3.32 -81.03,53.87 -156.21,69.97 1.01,-59.25 24.96,-49.82 30.56,-83.97 32.06,-58.55 58.27,-68.41 96.78,-111.55 33.84,-37.92 63.93,-65.72 100.91,-96.26 57.57,-22.54 186.78,-283.68 165.73,-386.12 -72.06,5.18 -78.55,41.75 -92.21,112.97 -46.19,240.81 -337.38,510.62 -229.29,111.31 40.76,-150.55 178.74,-414.85 170.63,-477.14 -125.15,-1.19 -157.81,278.18 -206.87,307.86 -80.89,17.01 -320.03,-265.44 -316.11,-362.38 150.24,-10.04 290.13,-97.95 341.16,-216.09 74.21,-171.75 -3.07,-311.25 -75.91,-424.97 -31.4,-16.07 -16.57,-5.54 -43.51,-30.92 -12.09,-11.38 -14.87,-15.12 -26.7,-27.03 -22.51,-22.68 -32.46,-31.64 -59.52,-59.67 -15.49,-34.93 -50.49,-41.36 -81.37,-116.2 -16.89,-40.91 -41.64,-112.68 -56.25,-157.76l-26.23 0c-20.01,73.04 -107.26,240.79 -159.84,298.84 -27.93,30.82 -50.5,48.61 -72.33,79.46 -118.21,167.09 -160.83,526.3 116.09,633.41 62.24,24.08 53.26,10.06 81.99,71.19 71.76,152.62 172.1,284.02 299.86,387.35l45.9 37.35c-22.46,106.65 -43.98,209.37 -71.81,306.78 -15.2,53.21 -70.57,287.27 -135.4,217.59 -16.49,-32.91 9.8,-46.24 31.73,-81.17 52.9,-84.21 75.38,-235.23 5.61,-283.9 -45.59,55.14 0.2,158.08 -35.83,209.76 -16.15,23.16 -0.64,2.17 -18.81,16.06 -38.71,-67.88 4.56,-155.84 -31.17,-234.59 -52.99,-116.75 -90.66,-115.86 -172.98,-348.8 -20.8,-58.84 -37.82,-152.13 -79.89,-177.14 -1.87,2.69 -3.61,6.37 -4.53,8.76l-9.45 28.47c-6.32,39.02 9.09,84.04 18.26,112.51 14.28,44.29 27.4,92.58 42.99,136.58l97.42 237.77c34.71,114.96 57.39,589.6 -102.92,531.98 -100.13,-78.74 91.48,-523.82 -96.64,-538.13 -10.68,78.49 9.45,246.96 -10.68,294.09 -45.13,1.65 -93.15,-36.13 -124.52,-60.66 -38.74,-30.31 -70,-44.6 -96.67,-81 81.81,-100.91 226.73,-150.36 137.14,-329.39 -55.36,26.12 -52.44,120.61 -87.33,168.2 -23.28,31.75 -94.76,117.63 -142.79,81.39 -53.78,-59.12 149.89,-327.25 151.36,-465.91 0.7,-68.82 -2.65,-130.73 -27.02,-182.42 -87.56,-10.68 -58.67,38.49 -53.48,95.06 6.08,66.4 -4.58,104.34 -20.15,160.27 -44.19,158.71 -94.55,201.57 -110.37,253.48z"/>
    <path class="fil1" d="M8544.08 1993.22c40.41,-22.93 175.7,-148.37 197.69,-207.81 -36.98,30.54 -67.07,58.34 -100.91,96.26 -38.51,43.14 -64.72,53 -96.78,111.55z"/>
    <path class="fil1" d="M6642.81 2222.39c-15.76,-40.52 -124.08,-142.34 -162.95,-174.79 21.72,59.44 123.73,152.57 162.95,174.79z"/>
    <path class="fil1" d="M9373.6 5532.45c47.29,-16.73 85.21,-68.11 129.1,-111.53 8.9,-8.78 11.86,-10.24 16.44,-16.07 22.93,-29.31 4.87,-0.78 17.75,-32.61 -42.62,21.82 -58.72,47.02 -84.31,75.2 -15.78,17.38 -21.9,21.93 -39,36.86 -28.2,24.61 -19.52,14.02 -39.98,48.15z"/>
    <path class="fil2" d="M10867.09 6013.22c36.49,18.23 36.15,16.45 80.56,-0.05 5.83,-46.08 -13.52,-57.03 -43.7,-76.49 -33.96,-21.86 -43.76,-34.7 -79.77,-48.7 16.37,26.23 -2.15,4.79 16.49,23.85l39.39 27.67c61.31,45.93 49.39,40.52 45.42,70.15l-58.39 3.57z"/>
    <path class="fil2" d="M4634.43 2215.91c-15.7,-54.7 -27.65,-38.72 -47.74,-80.19l67.15 10.09c-22.5,-39.24 -64.35,-24.58 -102.85,-16.14l53.83 65.48c2.58,2.09 10.82,8.5 13.34,10.31l16.27 10.45z"/>
    <path class="fil3" d="M10207.19 638.22c45.5,-20.09 53.54,-35.76 79.17,-66.64l-0.64 50.76c26.73,-10.26 14.33,-48.2 5.98,-72.78 -31.48,12.38 1.34,-6.91 -22.91,11.79 -1.56,1.21 -18.98,18.33 -21.6,20.95 -24.72,24.75 -23.09,25.26 -40,55.92z"/>
    <path class="fil1" d="M9602.41 2731.24c38.94,-13.94 77.53,-56.97 94.72,-94.48 -39.25,14.28 -26.23,9.24 -55.05,40.12 -3.58,3.82 -19.21,18.67 -21.06,21.04 -21.36,27.24 -6.78,4.65 -18.61,33.32z"/>
    <path class="fil2" d="M8498.9 450.85c-36.32,-54.11 -64.64,-58.02 -94.14,-110.06l-35.59 -7.56c27.06,28.03 37.01,36.99 59.52,59.67 11.83,11.91 14.61,15.65 26.7,27.03 26.94,25.38 12.11,14.85 43.51,30.92z"/>
    <path class="fil1" d="M8880.89 579.34c39.23,-26.83 64.78,-57.7 96.37,-93.29 -32.06,3.88 -39.46,16.89 -58.7,35.38 -24.33,23.37 -26.06,16.85 -37.67,57.91z"/>
    <path class="fil3" d="M5731.42 5566.57l-65.86 -3.77c-2.76,-42.44 1.44,-18.45 32.99,-62.99 -36.18,12.73 -56.76,27.34 -53.76,69.39 48.48,9.18 47.26,14.02 86.63,-2.63z"/>
    <path class="fil1" d="M10595.06 5520.22c13.07,10.4 7.7,20.96 41.66,9.34 14.66,-5.03 21.11,-17.8 29.79,-29.84 -22.75,-35.26 -23.28,-39.25 -66.79,-50.35 42.41,44.04 90.31,62.83 -4.66,70.85z"/>
    <path class="fil3" d="M4326.26 5384.4c43.41,-23.38 23.9,-21.45 47.74,-44.62 30.04,-29.16 24.08,-1.87 45.5,-51.3 -45.84,26.24 -71.79,48.48 -93.24,95.92z"/>
    <path class="fil2" d="M11897.14 4929.25c-20.28,-53.33 -44.33,-72.92 -96.11,-91.32 32.5,30.47 57.97,63.14 96.11,91.32z"/>
    <path class="fil2" d="M9760.59 1469.93c-17.43,-34.05 4.08,-0.97 -14.92,-23.33 -0.37,-0.43 -15.38,-15.45 -16.29,-16.38 -31.27,-31.19 -1.65,-13.8 -44.18,-30.43 6.49,42.23 39.19,52.72 75.39,70.14z"/>
    <path class="fil3" d="M11781.23 2078.63l64.31 -4.56 -12.2 37.95c18.2,-11.88 15.81,-3.58 34.45,-29.82 3.46,-4.9 10.14,-20.82 14.32,-30.07l-100.88 26.5z"/>
    <path class="fil1" d="M10269.9 3849.51c30.51,-19.94 23.24,-16.28 46.97,-39.74 24.6,-24.35 19.77,-15.65 40.17,-47.01 -49.16,20.88 -63.37,39.82 -87.14,86.75z"/>
    <path class="fil2" d="M6992.51 4200.14c32.39,-15.74 6.23,2.17 27.36,-15.96l49.51 -55.31c-26.83,6.19 -29.2,8.29 -46.33,24.58 -31.98,30.37 -15.34,8.97 -30.54,46.69z"/>
    <path class="fil2" d="M10595.57 4287.03l-76.99 -90.33 2.53 35.22c31.27,21.4 30.52,30.92 74.46,55.11z"/>
    <path class="fil2" d="M7569.06 1642.51c-21.79,13.51 -16.03,9.06 -41.29,14.3l-21.79 -30.49c-1.51,-1.83 -4.55,-4.94 -6.81,-7.42 4.38,45.29 8.79,51.51 50.44,55.84l19.45 -32.23z"/>
    <path class="fil1" d="M9401.87 2878.06c18.94,-10.72 17.66,-6.69 36,-24.19 21.85,-20.87 16.06,-19.36 25.29,-35.03 -37.52,9.58 -50.63,22.52 -61.29,59.22z"/>
    <path class="fil1" d="M8332.69 2627.11c22.03,-3.96 30.1,-4 42.41,-15.34 30.29,-27.9 12.16,2.01 17.82,-43.33l-60.23 58.67z"/>
    <path class="fil2" d="M10543.52 4068.99l76.58 -71.78c-39.75,9.39 -59.69,32.12 -76.58,71.78z"/>
    <path class="fil2" d="M11423.61 3962.74l72.16 -75.34c-40.24,14.89 -56.34,31.23 -72.16,75.34z"/>
    <path class="fil1" d="M10562.92 2344.83c18.09,-11.59 6.92,-0.53 27.6,-20.79 3.26,-3.2 16.82,-19.52 22.82,-26.47 -38.91,5.8 -42.89,12.34 -50.42,47.26z"/>
    <path class="fil2" d="M9366.27 2279.32c38.95,-19.99 34.34,-14.85 51.42,-55.22 -20.37,13.83 -11.48,4.95 -28.22,24.22 -0.6,0.66 -19.01,25.68 -23.2,31z"/>
    <path class="fil2" d="M10333.02 3005.48l56.94 -50.22c-39.11,14.28 -39.27,12.45 -56.94,50.22z"/>
   </g>
   <path class="fil4" d="M5521.07 4953.49c-11.24,87.02 -119.25,81.28 -211,88.92 -21.28,-30.78 -50.73,-104.25 -52.03,-139.7 73.61,3.99 215.2,18.74 263.03,50.78zm947.84 -1817.51c-99.37,-11.14 -101.89,-81.21 -135.42,-167.59 -33.78,-86.95 -56.08,-142.81 -89.52,-217.41 -39.62,-88.35 -64.22,-164.61 -133.81,-165.53 -32.57,169.08 125.26,368.55 138.31,498.87 -97.96,-6.5 -191.07,-79.06 -206.08,-174.29 -30.83,-195.72 86.77,-261.92 -132.11,-599.72l-148.31 -213.13c36.72,-6.8 62.22,-7.3 97.04,-17.45 43.48,-12.65 31.98,-18.17 75.25,-21.04 98.24,176.21 337.93,277.03 523.37,381.73 154.04,86.96 446.1,249.29 338.63,515.43 -44.05,1.72 -36.63,4.6 -68.94,-31.64 -62.32,-69.92 -251.48,-333.23 -393.26,-210.26 7.79,25.8 2.54,18.94 22.07,35.41 8.71,7.33 26.21,13.37 38.24,17.65 228.93,81.59 201.47,181.74 303.89,241.72 36.17,21.18 96.2,46.53 64.78,117.37 -46.72,19.99 -232.33,16.83 -294.13,9.88zm1100.15 -1493.47l-19.45 32.23c-41.65,-4.33 -46.06,-10.55 -50.44,-55.84 -11.09,-77.48 -99.45,-294.55 -92.52,-412.54 63.19,-35.94 103.76,-46.48 151.79,-89.5 158.76,-142.23 186.21,-308.93 60.97,-493.57 -66.66,-98.29 -154.26,-146.12 -270.45,-199.63 -193.25,-89.01 -147.38,-185.21 -249,-227.1 -10.7,416.42 -152.9,383.03 -130.19,638.57 7.64,85.96 47.83,220.29 102.64,280.17 87.13,95.15 195.08,86.85 262.37,108.32 8.82,164.22 26.64,243.52 77.42,392.08 47.14,137.89 74.82,197.09 182.18,277.79 261.27,196.35 283.54,242.82 228.05,657.79 -91.17,681.84 -366.85,337.78 -377.94,278.83 -11.91,-63.27 39.37,-115.66 67.67,-153.47 128.6,-171.8 183.99,-88.86 239.91,-220.68l36.46 -139.43c1.11,-24.3 0.19,-9.9 -2.65,-25.17 -0.34,-1.81 -2.83,-3.72 -3.15,-7.81 -0.32,-4.14 -2.01,-5.4 -3.7,-7.69 -61.87,48.31 -51.55,211.99 -163.5,220.62 0.07,-108.67 14.47,-111.28 37.77,-202.85 11.37,-44.67 21.83,-183.75 -16.3,-213.04 -38.69,26.11 -26.88,144.37 -53.94,195.22 -116.54,-8.91 -97.86,-245.74 -195.41,-269.54 -5.95,145.87 58.66,287.62 188.64,350.65 -13.71,91.02 -114.42,232.89 -168.7,268.72 -4.38,-4.09 -19.59,3.43 -29.11,-67.55 -3.63,-26.92 -5.91,-52.77 -9.51,-76.96l-37.33 -334.12c-8.79,-56.57 -36.55,-96.18 -42.36,-145.52 -6.65,-56.53 22.7,-86.91 39.84,-141.86 47.59,-152.5 -14.7,-366.86 -151.29,-370.75 8.93,82.57 75.36,117.18 85.37,199.19 -153.25,16.57 -269.65,-291.42 -367.69,-305.74 -5.34,110.04 106.2,193.61 182.97,250.26 201.56,148.74 218.89,271.23 100.86,255.3 -52.94,-7.14 -229.88,-104.48 -277.17,-142.54 -40.78,-32.82 -201.04,-196.42 -218.07,-254.96 29.22,-43.18 72.32,-75.16 105.65,-126.46 109.86,-169.13 72.32,-348.91 -80.35,-474.54 -90.41,-74.4 -189.31,-101.22 -321.25,-126.83 -143.23,-27.81 -172.78,-100.12 -281.22,-166.64 4.5,59.42 19.71,104.29 22.86,173.33 10.96,239.94 -32.38,272.4 -23.97,371.99 3.93,46.68 23.25,108.55 40.84,147.31 41,90.31 94.39,175.82 161.81,218.91 33.39,21.33 96.08,42.12 148.54,44.91 83.04,4.41 100.24,-18.44 162.39,-15.98 52.52,94.87 171.08,241.72 237.09,297.5 100.92,85.24 224.04,35.24 320.92,215.67 75.78,141.17 66.74,290.33 62.55,467.74 -10.69,451.45 59.6,329.32 62.89,471.73 -238.05,-1.72 -128.2,-137.12 -233.92,-208.84 -52.72,65.63 -17.64,186.58 31.21,241.24 68.54,76.71 125.34,61.67 251.01,69.94 168.61,11.08 79.52,63.26 161.89,314.79 94.12,287.33 -256.53,25.29 -319.99,-29.95 -378.59,-329.48 -95.94,-602.45 -97.3,-1158.85 -31.64,-19.74 -64.09,-43.7 -99.6,-34.52 -19.17,54.63 116.4,550.58 -138.31,457.46 -143.42,-52.45 -72.85,-399.49 -51.68,-505.38 10.19,-51.03 16.24,-145.18 -6.2,-190.3 -23.25,-46.75 -69.93,-86.05 -129.31,-66.41 -2.56,7.76 -4.04,6.83 -1.7,24.03l20.65 44.06c13.63,20.17 24.76,33.7 40.29,58.8 41.36,66.92 31.66,88.16 15.61,165.77 -114.62,-7.92 -91.89,-121.12 -279.06,-178.62 -1.07,25.2 -3.49,15.68 2.71,40.01 10.1,39.59 -10.58,1.83 10.71,15.34 38.87,32.45 147.19,134.27 162.95,174.79 10.53,48.31 102.44,131.17 52.6,205.09 -26.47,27.75 -71.86,4.92 -103.95,-12.09 -35.33,-18.74 -54.8,-26.88 -98.07,-42.05 -73.18,-25.65 -100.53,-75.73 -110.99,-161.53 -11.77,-96.67 -75.74,-370.86 -151.05,-398.82 -24.22,42.31 28.2,147.04 45.74,197.51 21.18,60.9 58.44,146.34 52.07,224.38 -110.51,27.96 -152.44,-19.48 -203.01,-74.67 -190.46,-207.91 -92.15,-163.47 -40.4,-320.1 62.15,-188.02 13.86,-342.09 -169.08,-442.22 -235.42,-128.85 -357.59,13.39 -551.41,-71.79 -43.5,-19.11 -108.28,-62 -147.82,-43.28 50.34,56.37 121.39,264.15 131.83,350.78 8.1,66.98 -3.63,82.63 20.43,148.12 44.89,122.14 192.1,284.32 344.56,312.24 -12.7,148.22 374.47,482.42 229.43,569.86 -62.31,37.57 -334.73,-77.12 -411.7,-105.42 2.8,-137.25 31.32,-207.65 -36.57,-326.1 -99.11,-172.88 -339.36,-197.13 -541.47,-127.6 -42.88,14.76 -95.3,41.02 -137.86,46.09 -65.18,7.77 -111.67,-16.75 -162.25,-4.98l-67.15 -10.09c20.09,41.47 32.04,25.49 47.74,80.19 206.06,260.97 112.39,330.05 304.31,475.9 68.37,51.96 185.11,118.1 284.16,114.08 109.72,-4.44 205.34,-74.37 246.18,-138.19 64.63,6.64 135.38,45.62 209.04,62.2 333.42,75.02 203.97,249.35 368.17,394.74 250.09,221.44 799.35,71.41 858.4,168.31 -30.76,105.6 -329.28,-22.73 -423.65,65.55 8.47,54.44 64.08,67.32 121.49,85.16 295.82,91.91 350.25,-115.62 479.19,11.42 65.04,64.09 102.15,158.63 170.28,233.34 54.91,60.2 126.93,131.83 191.56,202.58 387.43,424.02 -520.02,742.25 -534.19,404.06 -2.67,-63.5 47.63,-63.82 83.14,-94.92 15.2,-37.72 -1.44,-16.32 30.54,-46.69 17.13,-16.29 19.5,-18.39 46.33,-24.58 71.63,1.41 269.38,19 231.68,-139.44 -62.31,-10.61 -66.11,73.48 -175.61,67.72 -13.33,-63.16 41.9,-349.01 -60.37,-300.07 -31.8,15.21 -31.41,57.38 -33.62,91.88 -6.79,105.82 -17.72,207.45 -82.83,285.06 -92.21,109.87 -120.66,-21.22 -147.16,-113.9 -27.71,-96.89 -27.03,-110.08 35.47,-161.56 81.37,-67.03 225.67,-156.57 122.74,-271.66 -45.61,39.5 -37.52,105.86 -87.4,151.74 -105.13,0.5 -66.53,-98.85 -101.49,-169.58 -41.65,17.49 -54.69,86.96 -32,143 19.63,48.49 65.3,53.13 50.04,119.52 -117.11,64.85 -250.59,-200.42 -296.34,-267.96 -52.73,-77.86 -59.98,-115.65 -143.63,-162.38 -41.26,-23.07 -65.16,-26.6 -98.81,-54.15 -35.46,-29.03 -41.72,-48.34 -95.7,-18.15 11.45,31.39 133.55,111.42 166.58,143.71 46.65,45.62 107.09,114.57 146.76,169.77 84.31,117.3 251.59,236.95 202.17,398.24 -145.3,37.32 -234.54,-25.18 -320.5,-93.08 -114.86,-90.75 -114.14,-122.52 -141.63,-295.11 -7.99,-50.24 -95.98,-258.05 -121.3,-327.72 -30.69,-84.5 -104.34,-219.62 -214.46,-215.76 2.47,92.81 140.04,165.7 151.74,287.15 -72.76,-8.17 -76.36,-18.66 -113.19,-59.59 -61.32,-68.14 -152.87,-240.98 -216.91,-258.77l-2.48 136.25c-187.31,24.82 -208.81,-238.15 -370.15,-250.53 -72.53,93.27 39.02,177.97 107.1,221.21 75.08,47.69 165.99,96.49 259.21,126.14 85.26,27.13 182.52,95.51 250.44,140.14 108.23,71.09 173.06,83.84 153.8,219.88 -47.45,6.81 -62.89,-21.03 -88.1,-44.29 -80.06,-73.8 -186.38,-91.35 -297.28,-108.71 -74.73,-11.72 -162.45,-19.14 -234.52,-36.99 -125.79,-31.13 -18.05,-133.43 -142.77,-103.58 -16.62,49.62 25.5,124.14 56.37,157.6 69.75,75.58 371.5,73.78 491.4,117.66l30.81 17.09c1.23,-2.16 4.58,3.63 6.69,5.66 -61.27,40.76 -165.34,26.93 -233.15,22.66 -64.44,-4.05 -172.48,-9.55 -227.33,-25.91 -40.46,-12.06 -259.5,-168.02 -284.67,-204.31 37.91,-169.25 52.34,-229.3 -29.47,-387.43 -128.92,-249.2 -455.83,-181.32 -643.33,-21.95 -151.4,128.73 -153.7,67.65 -338.43,125.35 4.8,28.34 -3.88,9.06 22.07,26.34 92.39,61.52 209.53,127.79 290.4,234.63 33.96,44.87 36.65,64.57 87.56,97.91 165.5,108.41 402.7,153.39 549.75,-1.64 47.7,2.13 189.74,72.63 169.21,134.35 -45.39,54.19 -91.03,36.76 -159.53,59.76 -33.85,11.36 -101.36,73.65 -63.4,109.19 43.32,40.54 82,-6.5 109.11,-31.7 58.22,-54.15 402.24,-29.57 460.04,-6.16 -5.13,42.11 -17.03,32.25 -58.38,57.52 -107.48,65.69 -188.89,24.87 -287.63,71.35 21.98,41.28 83.71,61.86 144.16,66.79 255.17,20.82 418.91,-412.94 719.42,-130.35 110.16,103.61 63.93,267.26 -11.12,267.47 -34.6,-13.43 -52.91,-34.24 -93.53,-54.52 -32.81,-16.39 -56.83,-28.82 -90.82,-40.58 -59.42,-20.53 -147.43,-60.15 -203.36,-8.26 22.9,96.36 256.11,46.32 264.32,163.87 -144.55,104.65 -345.83,-5.95 -448.68,-30.53 -77.79,-18.59 -142.81,-17.46 -227.2,-46.02 -133.7,-45.25 -100.66,-0.67 -216.72,3.62l-7.51 -16.41c-1.04,-2.36 -2.51,-5.56 -3.65,-8.18 -2.22,-5.12 -7.38,-17.98 -10.2,-24.54 -8.46,-19.67 -10.39,-23.93 -17.16,-37.69 -99.49,-202.77 -291.54,-274.79 -507.87,-169.21 -103.72,50.62 -164.95,129.92 -232.03,227.88 -98.37,143.68 -160.9,91.36 -260.83,188.49 27.08,20.56 36.38,14.61 67.88,23.43 3.31,0.93 12.34,3.62 15.62,4.58 28.82,8.48 50.16,14.44 74.13,24.46 202.41,84.45 275.63,180.7 402.4,197.59 481.62,64.19 455.08,-268.98 490.81,-314.38 43.79,-55.67 452.42,59.92 542.06,88.83 77.95,25.16 97.8,28.28 182.74,34.88 -15.76,155.16 -142.63,217.63 -288.23,218.99 -116.2,1.1 -410.62,-32.38 -426.24,-30.88l-39.49 10.45c-1.8,-2.75 -6.17,2.47 -8.97,4.24 -0.09,61.46 22.25,64.63 69.75,78.63 119.24,35.13 251,22.09 372.32,16.05 255.49,-12.73 303.5,-130.24 379.06,-136.29 9.75,73.79 -32.75,175.21 -66.89,223.51 -53.69,75.93 -148.39,77.33 -39.45,135.89 84.52,-26.59 118.26,-120.93 151.11,-209.1 64.4,-172.76 1.85,-194.59 -0.73,-308.3 69.19,-49.57 178.77,-84.07 257.98,-123.11 233.48,-115.08 381.37,-73.38 430.44,205.32 24.8,140.89 36.66,253.85 -100.87,251.48 -72.38,-91.15 -104.05,-234.18 -249.62,-235.65 2.88,96.49 152.11,120.46 129.52,226.15 -90.79,28.05 -123.39,-10.85 -225.97,37.43 -63.76,30 -101.15,64.89 -97.36,154.98 77.41,1.48 98.99,-78.44 199.82,-107.49 164.68,-47.44 364.13,8.53 169.87,160.02 -145.04,113.12 -403.13,59.47 -570.09,36.44 -163.54,-22.57 -211.81,-9.26 -358.73,-75.31 -260.33,-117.04 -181.22,-48.2 -325.3,-12.86 -158.46,-158.37 -337.27,-205.05 -522.4,-53.83 -164.86,134.68 -143.96,339.5 -269.84,475.23 -21.42,49.43 -15.46,22.14 -45.5,51.3 -23.84,23.17 -4.33,21.24 -47.74,44.62 -9.16,14.62 -5.05,10.91 0.59,22.2 312.48,-44.13 432.31,82.19 608.37,48.12 191.91,-37.14 321.32,-117.13 364.98,-303.14 147.99,-24.86 348.15,-134.92 479.19,-136.27 177.87,-1.81 359.63,38.29 487.67,116.27 -13.24,65.12 -32.56,62.62 -122.09,98.81 -28.35,11.46 -42.55,15.01 -73.38,26.54 -27.23,10.16 -15.92,0.07 -35.4,18.22 -17.93,16.71 -8.59,1.58 -17.03,27.93 2.48,1.5 5.94,2.9 7.88,3.59 31.09,11.13 63.07,17.96 124.59,10.02 138.04,-17.77 143.28,-132.66 211.18,-195.16 36.86,-33.91 116.22,-55.97 172.42,-101.11 53.57,-43.02 82.54,-90.2 129.06,-143.53 99.09,-113.6 189.77,-150.62 372.13,-172.91 152.44,-18.63 371.19,-41.02 498.72,23.18 16.28,99.67 -89.94,134.09 -114.58,325.26 -18.99,147.23 184.17,486.38 -423.86,310.63 -55.32,-15.99 -297.11,-98.54 -322.63,40.54 131.08,-5.86 254.97,43.9 267.62,150.77 -66.71,107.73 -218.78,65.74 -327.21,17.53 -406.07,-180.52 -264.35,-35.48 -466.46,12.69 -55.61,13.24 -145.3,15.11 -182.62,-19 -48.68,-44.5 -30.26,-100.98 -109.13,-111.38 -59.05,-7.78 -123.9,15.08 -157.72,45.61 -31.55,44.54 -35.75,20.55 -32.99,62.99l65.86 3.77 61.38 -0.93c126.06,220.84 -147.83,123.78 -232.91,196.27 29.88,139.86 321.74,-12.63 480.12,-53.57 115.4,-29.83 303.24,-73.11 423.55,-59.58 54.57,6.13 81.49,12.92 91.3,59.42 -101.65,29.56 -174.12,-31.64 -285.82,19.59 -63.3,29.03 -170.25,73.67 -200,121.53l18.5 7.32c76.58,17.1 -47.67,0.11 18.44,3.16 22.79,1.04 298.8,-74.7 523.43,-72.63 1.81,53.74 -15.16,60.3 -54.99,81.29 -164,86.46 -343.65,113.36 -520.08,168.2 -56.81,17.64 -173.98,25.53 -186.02,85.79 43.95,45.23 140.56,4.36 191.84,-13.55 245.21,-85.65 400.56,-66.6 551.43,-170.45 54,-37.18 79.42,-93.73 161.99,-93.16 101.83,0.69 103.41,54.47 205.34,-8.67 77.59,-48.07 308.14,-71.77 403.22,-29.68 -8.36,29.48 -84.75,80.37 -108.07,106.03 -53.8,59.13 -134.91,300.65 151.85,31.08 56.03,-52.66 138.27,-93.68 232.77,-96.11 87.58,-2.24 202.44,34.12 286.92,42.78 60.82,6.23 96.81,-9.81 126.78,36.6 25.04,38.77 15.88,57.53 56.22,98.3 43.18,0.74 109.12,-12.7 136.26,-40.17 54.97,-55.63 -31.18,-148.13 189.47,-130.82 92.17,7.23 60.26,-0.55 102.43,56.85 75.74,103.11 453.75,100.67 499.05,-17.06 -43.18,-27.9 -83.23,-29.4 -151.13,-36.44 -60.41,-6.25 -93.32,-13.44 -160.26,-12.78 -6.88,-212.35 545.49,-32.7 665.71,-89.08 74.62,-34.97 12.37,-133.73 127.47,-133.48 77.7,0.19 193.32,79.27 238.8,108.81 53.06,34.48 152.14,112.48 221,135.99 213.03,72.71 408.8,-0.6 643.29,26.55 169.3,19.6 121.96,107.25 226.39,119.25l58.39 -3.57c3.97,-29.63 15.89,-24.22 -45.42,-70.15l-39.39 -27.67c-18.64,-19.06 -0.12,2.38 -16.49,-23.85 -44.67,-24.66 -157.69,-99.05 -204.73,-107.69 -88.67,-16.27 -216,19.98 -311.15,-2.84 -14.13,-96.65 118.59,-88.94 186.27,-113.86 -10.19,-89.48 -207.89,-48.16 -248.17,-12.04 -60.27,54.02 -30.5,192.9 -189.51,150.55 -82.62,-22.01 -155.62,-100.46 -194.92,-156.09 -90.02,-127.36 -133.65,-119.46 -120.94,-205.03 118.76,-71.86 222.16,-7.22 309.23,-61.42 -14.68,-42.33 -52.24,-43.21 -107.58,-43.41 -117.72,-0.44 -324.5,-16.96 -405.79,36.09 -12.88,31.83 5.18,3.3 -17.75,32.61 -4.58,5.83 -7.54,7.29 -16.44,16.07 -43.89,43.42 -81.81,94.8 -129.1,111.53 -151.7,48.36 -334.87,82.14 -477.11,-58.38 -106.32,-105.04 -148.02,-272.6 -177.63,-457.25 -37.3,-232.64 29.41,-320.86 158.51,-450.73 85.24,-85.77 233.69,-204.83 393.06,-226.14 217.75,-29.13 285.84,123.19 335.54,283.17 45.86,147.64 88.31,337.3 182.14,452.48 50.61,62.11 691.48,444.63 806.95,444.62 94.97,-8.02 47.07,-26.81 4.66,-70.85 -35.5,-51.08 -264.47,-106.51 -299.06,-168.13l16.71 -7.56c42.79,-14.77 150.38,-21.01 192.94,-20.2 61.29,1.17 145.42,15.31 192.07,33.57 73.36,28.7 242.55,283.12 257.17,135.26 1.28,-13.03 0.68,-16.78 -2.23,-28.93 -13.8,-57.35 -75.03,-60.8 -94.92,-101.21 29.86,-83.28 220.62,-134.5 330.4,-148.12 4.22,200.56 211.03,333.46 419.17,310.19 104.76,-11.7 189.62,-57.93 274.19,-97.33 109.6,-51.05 238.82,11.69 309.78,-28.62 -0.69,-1.23 -70.77,-58.69 -90.18,-80.86 -25.07,-28.61 -51.39,-63.52 -76.59,-97.66 -26.38,-35.74 -56.54,-66.46 -75.68,-109.4 -16.75,-37.58 -29.61,-86.45 -56.35,-111.12 -38.14,-28.18 -63.61,-60.85 -96.11,-91.32 -28.34,-43.91 -237.29,-163.67 -399.46,-96.91 -55.21,22.74 -118.42,65.54 -152.81,119.55 -44.3,69.57 -46.18,113.79 -65.58,209.46 -66.86,19.57 -147.16,8.15 -222.52,29.89 -82.95,23.91 -99,71.96 -154.3,95.2 -74.93,31.48 -90.86,-42.19 -169.89,-60.4 -84.71,-19.52 -425.5,96.94 -643.61,-24.84 -109.65,-61.2 -196.56,-191.52 -191.05,-295.18 49.98,3.85 180.42,97.17 284.74,136.96 124.19,47.37 235.08,47.9 370.58,22.38 244.1,-46.02 144.9,-21.76 341.35,20.81 75.49,16.36 281.92,-34.63 331.01,-74.13 -26.95,-55.26 -205.17,-16.83 -364.16,-37.77 23.65,-73.56 63.96,-38.17 76.71,-93.33 -103.33,-38.22 -291.82,84.04 -413.35,80.24 -9.41,-48.98 60.54,-212.12 251.12,-186.45 103.38,13.91 304.2,56.22 369.97,-13.95 -57.81,-53.63 -208.91,1.6 -277.13,-31.41 14.9,-39.16 -22.59,-10.47 39.42,-30.67 59.04,-19.22 93.27,8.34 104.11,-61.51 -71.61,-32.57 -440.96,-3.55 -575.8,247.95 -29.01,54.09 -28.44,99.92 -109.86,89.57 -82.93,-10.53 -194.76,-102.99 -256.61,-158.31 -98.33,-87.92 -139.25,-100.01 -48.82,-182.06 351.57,-319.04 745.96,-90.13 1043.48,-78.01 89.95,3.66 143.1,-19.01 208.59,28.81 40.83,29.81 87.76,76.34 148.65,55.47 -17.31,-77.69 -97.14,-38.53 -111.04,-131.09 39.6,-42.98 115,-57.66 191.24,-55.27 73.25,86.68 73.38,143.83 217.34,176.72 112.1,25.6 234.44,1.23 317.31,-46.92 82.98,-48.19 140.65,-117.24 205.11,-176.14 68.69,-62.74 187.58,-58.43 270.89,-105.97 -22.11,-16.39 -82.53,-36.89 -114.45,-54.86 -148.5,-83.64 -183.23,-133.56 -280.33,-222.4 -104.41,-95.53 -373.63,-150.21 -526.11,-45.96l-72.16 75.34c-102.09,127.04 -58.16,236.98 -49.02,324.36l-97.51 26.56c-78.12,17.45 -234.57,67.02 -281,66.41 -0.65,-94.37 77.34,-78.72 82.94,-171.36 -168.16,-14.12 -135.19,84.88 -208.32,153 -150.57,11.62 -191.45,-57.57 -275.13,-74.68 -43.94,-24.19 -43.19,-33.71 -74.46,-55.11l-2.53 -35.22c-19.98,-82.93 13.14,-63.96 24.94,-127.71 16.89,-39.66 36.83,-62.39 76.58,-71.78 145.86,-25.79 228.66,49.23 333.25,94.58 109.43,47.44 307.54,81.56 339.38,-23.19 -63.39,-35.26 -251.17,-8.79 -279.78,-65.55 26.97,-39.07 103.5,-15.13 108.22,-96.99 -66.03,-31.13 -161.79,8.89 -250.37,9.05 -79.03,0.16 -194.85,-24.42 -261.17,-11.97 -161.86,30.37 -190.04,180.89 -280,268.82 -101.77,99.48 -240.76,107.69 -380.19,177.67 -54.88,27.53 -126.98,87.02 -184.17,90.91 -68.12,4.63 -123.86,-78.04 -129.08,-142.53 49.57,-115.89 259.38,-113.27 379.12,-168.2 118.97,-54.55 245.96,-220.9 254.59,-280.3 23.77,-46.93 37.98,-65.87 87.14,-86.75 31.44,1.74 73.64,-25.81 141.85,-26.81 188.98,-2.77 311.56,69.49 436.98,75.14 129.12,5.81 169.02,-43.93 284.23,-57.39 119.76,-14.01 235.57,-5.99 289.87,-48.47 -15.73,-58.83 -120.89,-72.83 -201.05,-61.22 -54.26,7.84 -115.94,57.37 -195.31,40.9 -86.36,-17.9 -119.18,-326.61 166.78,-309.16 107.44,254.73 343.71,355.01 576.72,194.28 94.08,-64.9 142.68,-146.59 203.17,-255.23 65.63,-117.93 168.09,-122.81 250.04,-205.77 -333.36,-20.86 -410.14,-184.89 -620.19,-185.92 -308.26,-1.51 -410.1,116.92 -431.99,376.56 -134.92,12.42 -95.51,44.6 -168.94,45.33 -82.59,-114.94 1.33,-375.7 -65.55,-446.54 -101.99,19.15 -57.36,190.82 -36.62,269.46 33.7,127.76 44.22,168.96 19.96,306.67 -55.24,313.54 -183.51,264.38 -388.55,127.28 3.13,-59.58 18.82,-89.26 49.2,-129.59 83.7,-9.73 108.32,35.52 173.55,-1.27 -5.83,-79.11 -155.4,-81.5 -233.68,-79.98 -42.19,73.19 -48.38,98.5 -55.79,193.35 -194.24,32.22 -397.28,193.1 -549.25,294.74 -394.48,263.88 -992.08,239.95 -701.93,-47.89 296.15,-293.79 535.77,-3.41 819.33,-154.29 50.96,-27.14 93.7,-49.89 96.52,-110.46 -65.83,6.65 -39.33,25.75 -100.84,39.58 15.26,-89.69 58.94,-112.52 55.38,-202.7 -105.58,34.16 -112.71,150.05 -148.92,243.27 -47,21.53 -143.46,28.33 -199.93,-4.09 8.23,-31.97 -1.62,-12.83 24.35,-31.85 34.43,-25.21 82.94,-22.88 121.12,-107.46 41.65,-92.2 -54.87,-80.72 -191.9,28.13 -144.39,114.72 -323.35,44.79 -459.92,139.94 -44.88,31.27 -126.48,120.98 -181,90.68 -25,-12.7 -12.83,25.65 -41.57,-90.64 -3.92,-15.87 -8.15,-36.76 -14.5,-50.58 -20.97,-45.67 5.62,-16.53 -32.37,-36.3 -32.34,21.89 -27.98,27.16 -28.44,79.12 -0.29,31.28 -0.4,75.1 5.88,104.09 17.28,79.77 30.22,74.69 105.27,96.79 23.39,129.94 -98.2,266.42 -170.05,314.23 -45.87,30.51 -117.1,61.39 -193.82,40.71 -164.52,-44.35 76.19,-428.88 115.87,-500.03 181.45,-325.4 298.83,-241.39 672.04,-304.52 242.99,-41.11 586.85,-123.66 807.22,-150.67 422.05,-51.76 241.71,91.52 368.42,80.46 19.19,-38.43 5.17,-87.09 -12.94,-117.12 -51.24,-85 -228.14,-44.55 -335.34,-98.82 -4.47,-152.94 150.99,-46.41 207.86,-141.63 -23.25,-42.95 -157.1,-87.41 -198.3,-31.81l-56.94 50.22c-65.98,57.17 9.9,145.87 -104.51,192.45 -67.62,27.53 -182.78,43.11 -256.12,30.94 -213.21,-35.36 -85.68,-299.5 -25.57,-389.76 112.78,-169.37 270,-102.15 422.73,-29.25 92.31,44.05 366.17,171.41 470.85,67.96 -16.37,-61.98 -69.1,-57.28 -155.64,-58.18 -58.33,-0.61 -128.56,0.98 -173.92,-28.48 -90.4,-58.73 -62.84,-263.85 -11.57,-320.67 69.46,27.66 124.93,91.41 178.59,130.66 296.8,217.08 317.57,69.24 429.12,137.95 60.39,37.2 136.11,75.58 230.05,59.12 337.12,-59.14 346.85,-436.1 377.4,-519.96 29.27,-80.31 103.04,-110.27 118.91,-166.24l12.2 -37.95 -64.31 4.56c-158.71,12.76 -217.45,5.91 -356.25,-19.64 -175.71,-32.34 -439.43,90.54 -493.69,244.89 -18.69,53.15 -26.7,107.76 -18.93,169.35 6.21,49.25 36.63,94.72 38.51,135.1 -82.25,15.34 -181.87,-47.35 -236.11,-88.08 -37.2,-27.96 -52.13,-42.53 -89.48,-73.54 -38.73,-32.15 -60.67,-36.35 -62.36,-101.88 7.53,-34.92 11.51,-41.46 50.42,-47.26 32.2,-8.6 64.71,-31.27 91.82,-43.07 71.82,-31.3 241.71,-74.68 267.81,-152.33l-16.67 -5.79c-2.37,-0.47 -5.8,-1.5 -8.45,-1.82l-35.43 2.2c-110.14,19.1 -293.9,98.18 -382.25,157.26 -268.76,179.73 -107.03,419.17 -207.59,436.5 -29.31,5.06 -41.9,-1.99 -66.25,-7.37 -222.62,-49.27 -277.17,-0.18 -273.85,-132.79 7.3,-289.82 262.18,-332.55 278.72,-438.64 -153.97,-9.39 -244.72,160.67 -310.41,272.69 -63.86,108.89 -76.73,321.22 -118.9,459.07 -37.62,123.02 -116.64,329.78 -224.82,356.62 -108.09,26.81 -282.88,-106.05 -205.2,-322.04 10.66,-36.7 23.77,-49.64 61.29,-59.22 33.04,-6.07 114.68,-67.07 139.25,-87.6 11.83,-28.67 -2.75,-6.08 18.61,-33.32 1.85,-2.37 17.48,-17.22 21.06,-21.04 28.82,-30.88 15.8,-25.84 55.05,-40.12 52.29,-71.08 73.62,-150.56 93.45,-259.03 24.23,-132.59 19.32,-157.94 115.38,-235.53 60.68,-49.02 167.19,-89.54 241.98,-117.26 67.63,-25.06 174.4,-77.04 223.24,-124.16 78.58,24.87 97.59,136.76 317.22,177.56 262.42,48.76 441.92,-229.43 419.05,-510.5 -20.16,-247.47 76.67,-224.99 89.8,-360.48 -202.03,138.35 -461.4,90.63 -589.44,161.48 -340.5,188.39 -246.61,380.45 -248.76,473.24 -59.66,36.24 -340.63,165.67 -417.5,164.01 -7.4,-81.45 28.83,-288.64 -74.22,-295 -44.89,80.72 17.16,232.04 -43.92,347.76 -51.6,97.76 -100.05,106.94 -119.26,261.67 -16.11,129.82 -6.18,202.78 -101.46,283.78 -47.21,40.13 -167.66,132.23 -255.52,115.83 -10.42,-154.98 305.6,-261.55 179.79,-474.83 -66.3,29.25 -74.32,313.67 -229.4,312.27 -33.41,-65.37 -2.59,-85.94 -57.79,-118.01 -76.65,114.8 -0.62,271.77 19.3,397.7 15.33,97.01 40.59,348.17 -45.59,404.95 -102.63,67.59 -306.9,-47.94 -318.23,-126.78 -18.13,-126.07 240.72,-90.23 187.59,-263.24 -66.41,-27.27 -283.63,173.93 -268.24,309.74 13.75,121.51 180.47,84.91 -13.32,235.6 -94.1,73.19 -109.68,174.73 -146.59,290.58 -9.23,28.94 -17.59,51.22 -32.41,75.44 -21.95,35.89 -20.62,37.91 -56.67,45.66 -52.88,-76.25 -11.61,-155.54 13.49,-238.56 22.56,-74.64 52.33,-157.57 72.65,-236.34 90.96,-352.76 -52.82,-464.33 33.47,-513.49 91.37,-37.48 185.09,6.04 276.75,-59.64 34.51,-24.73 132.8,-133.23 106.17,-204.64 -36.04,9.67 -55.61,86.52 -118.69,126.89 -54.59,34.94 -155.2,36.95 -211.87,-2.26 -1.42,-71.75 57.27,-129.39 96.89,-168 137.89,-134.38 453.19,-142.91 531.8,-233.85 4.19,-5.32 22.6,-30.34 23.2,-31 16.74,-19.27 7.85,-10.39 28.22,-24.22 92.81,-67.35 -21.29,-239.31 187.84,-371.49 180.6,-114.13 214.76,-144.21 207.98,-345.38 125.92,14.37 219.9,61.31 347.27,-6.67 188.49,-100.57 228.41,-338.36 155.78,-549.77 -95.03,-276.62 -10.1,-191.97 -30.84,-328.45l0.64 -50.76c-25.63,30.88 -33.67,46.55 -79.17,66.64 -34.81,9.16 -84.16,49.36 -111.8,65.31 -203.72,117.68 -226.53,65.53 -341.46,194.07 -123.86,138.52 -202.52,334.7 -68.73,502.19 42.53,16.63 12.91,-0.76 44.18,30.43 0.91,0.93 15.92,15.95 16.29,16.38 19,22.36 -2.51,-10.72 14.92,23.33 -0.88,65.11 -12.82,143.06 -38.31,182.85 -25.08,39.14 -72.41,82.18 -140.68,75.95 -65.78,-25.46 -86.16,-204.56 -104.38,-285.27 -10.69,-47.33 -10.4,-61.99 -48.81,-73.58 -34.32,107.23 70.5,361.23 80.06,439.57l-9.9 59.35c-83.39,68.55 -203.04,-314.87 -240.27,-405.79 -21.29,-52 -115.79,-236.65 -100.93,-254.23 27.87,-32.99 172.67,-10.41 269.2,-135.54 150.25,-194.8 69.04,-404.35 -60.47,-591.81 -101.12,-146.38 -23.7,-214.32 -79.47,-311.01 -27.67,29.9 -40.64,61.03 -67.72,94.33l-156.61 160.01c-29.38,25.26 -66.3,38.26 -85.04,61.29 -31.59,35.59 -57.14,66.46 -96.37,93.29 -54.55,40.71 -133.14,287.16 -91.4,392.74 87.99,222.61 246.77,202.9 281.06,234.28 28.96,45.4 43.46,105.52 63.12,153.83 94.35,231.81 295.81,605.79 100.25,777.21 -54,47.34 -185.53,124.43 -282.06,124.7 -21.69,-226.9 318.13,-320.91 225.52,-447.74 -37.16,9.84 -94.61,94.17 -120.77,122.57 -90.66,98.45 -162.83,161.76 -194.42,299.21 -15.18,66.1 -30.08,130.73 -107.04,126.03 -52.6,-309.61 193.09,-225.43 252.04,-557.96 7.96,-44.93 9.37,-93.6 5.18,-139.35 -9.2,-101.15 -35.13,-84.84 -42.55,-88.21 -68.98,54.44 -48.14,284 -96.13,362.69 -28.44,46.65 -82.6,74.21 -122.94,107.86 -139.29,116.19 -135.47,337.5 -186.24,492.81 -17.82,54.5 -42.22,108.91 -64.25,162.45 -18.77,45.67 -45.19,109.98 -63.96,153.29 -56.62,-2.3 -108.06,-38.2 -109.03,-98.74 -1.42,-89.08 302.29,-272.89 172.79,-362.62 -37.37,18.89 -16.82,3.46 -33.59,43.62 -8.04,19.26 -10.28,28.86 -20.36,47.32 -15.44,28.26 -37.11,58.83 -53.19,83.11 -5.66,45.34 12.47,15.43 -17.82,43.33 -12.31,11.34 -20.38,11.38 -42.41,15.34 -28.73,-14.16 -31.75,-24.66 -37.87,-59.89 -19.82,-113.93 63.66,-98.16 29.21,-201.06 -44.31,-1.81 -50.08,2.54 -66.3,38.29 -40,88.17 -61.36,165.75 -54.7,266.21 20.95,316.15 301.08,312.38 226.26,592.93 -31.99,119.97 -71.01,182.81 -124.38,290.42 -133.64,-16.35 -242.06,-231.79 -270.6,-362.04 -64.14,-292.94 -50.83,-793.18 270.89,-923.96 106.87,-43.43 350.47,-144.91 364.53,-260.79 -76.61,-3.32 -81.03,53.87 -156.21,69.97 1.01,-59.25 24.96,-49.82 30.56,-83.97 32.06,-58.55 58.27,-68.41 96.78,-111.55 33.84,-37.92 63.93,-65.72 100.91,-96.26 57.57,-22.54 186.78,-283.68 165.73,-386.12 -72.1,5.18 -78.55,41.76 -92.19,112.99 -18.68,97.39 -93.1,245.39 -179.16,301.14 -1.5,0.99 -26.92,11.77 -29.01,11.95 -24.87,2.21 -28.31,11.89 -38.37,-31.62 -42.24,-182.62 200.94,-546.92 187.86,-647.32 -52.09,-0.5 -54.55,2.66 -77.75,41.09 -136.59,226.2 -78.01,407.5 -323.79,120.27 -28.71,-33.55 -123.7,-159.71 -121.44,-215.88 150.23,-10.04 290.16,-97.94 341.16,-216.13 74.16,-171.85 -3,-311.12 -75.91,-424.93 -31.4,-16.07 -16.57,-5.54 -43.51,-30.92 -12.09,-11.38 -14.87,-15.12 -26.7,-27.03 -22.51,-22.68 -32.46,-31.64 -59.52,-59.67 -15.46,-34.89 -50.43,-41.37 -81.36,-116.18 -16.88,-40.8 -41.66,-112.77 -56.26,-157.78l-26.23 0c-22.95,83.78 -59.08,137.89 -98.67,207.34 -19.76,34.69 -33.71,61.24 -61.17,91.51 -27.93,30.8 -50.53,48.58 -72.33,79.43 -99.96,141.5 -115.7,377.29 -50.91,494.85 30.59,55.53 104.38,114.48 166.97,138.62 62.31,24.02 53.29,9.99 82.01,71.19 41.84,89.15 116.98,209.47 181.95,276.77l163.82 147.89c-12.09,57.46 -101.32,516.85 -172.65,532.69 -89.67,19.91 -2.89,-89.33 -2.8,-89.48 52.78,-84.05 75.44,-235.18 5.58,-283.91 -40.09,48.48 -10.25,132.56 -24.96,187.78 -4.99,18.74 -0.45,7.26 -10.78,22.05 -15.99,22.86 -0.95,2.26 -18.9,15.99 -38.73,-67.93 4.61,-156.05 -31.17,-234.61 -20.19,-44.36 -71.33,-115.31 -95.85,-164.08 -24.69,-49.16 -57.07,-127.83 -77.14,-184.68 -17.66,-49.98 -32.88,-149.22 -79.88,-177.16l-8.7 17.68c-22.85,71.18 6.64,-55.38 -5.39,19.48 -8.59,53.5 44.33,201.13 61.36,249.18l97.43 237.75c34.7,114.96 57.38,589.6 -102.93,531.98 -100.13,-78.74 91.48,-523.82 -96.64,-538.13 -10.68,78.49 9.45,246.96 -10.68,294.09 -59.36,2.18 -198.46,-110.63 -221.19,-141.66 81.81,-100.91 226.73,-150.36 137.14,-329.39 -55.44,26.16 -52.36,120.63 -87.29,168.2 -17.43,23.71 -72.22,83.58 -107.76,89.38 -92.9,15.17 -19.07,-124.8 -0.75,-164.83 47.77,-104.41 116.18,-223.38 117.01,-309.07 0.67,-68.89 -2.58,-130.65 -26.99,-182.42 -87.65,-10.7 -58.54,38.46 -53.44,95.02 6,66.5 -4.62,104.31 -20.18,160.31 -13.04,46.93 -30.54,96.58 -49.77,137.51 -19.08,40.61 -49.62,79.93 -60.61,115.97z"/>
   
   <path class="fil5" d="M5310.07 5042.41c91.75,-7.64 199.76,-1.9 211,-88.92 -47.83,-32.04 -189.42,-46.79 -263.03,-50.78 1.3,35.45 30.75,108.92 52.03,139.7z"/>
   <path class="fil6" d="M8544.08 1993.22c40.41,-22.93 175.7,-148.37 197.69,-207.81 -36.98,30.54 -67.07,58.34 -100.91,96.26 -38.51,43.14 -64.72,53 -96.78,111.55z"/>
   <path class="fil6" d="M6642.81 2222.39c-15.76,-40.52 -124.08,-142.34 -162.95,-174.79 21.72,59.44 123.73,152.57 162.95,174.79z"/>
   <path class="fil6" d="M9373.6 5532.45c47.29,-16.73 85.21,-68.11 129.1,-111.53 8.9,-8.78 11.86,-10.24 16.44,-16.07 22.93,-29.31 4.87,-0.78 17.75,-32.61 -42.62,21.82 -58.72,47.02 -84.31,75.2 -15.78,17.38 -21.9,21.93 -39,36.86 -28.2,24.61 -19.52,14.02 -39.98,48.15z"/>
   <path class="fil7" d="M10867.09 6013.22c36.49,18.23 36.15,16.45 80.56,-0.05 5.83,-46.08 -13.52,-57.03 -43.7,-76.49 -33.96,-21.86 -43.76,-34.7 -79.77,-48.7 16.37,26.23 -2.15,4.79 16.49,23.85l39.39 27.67c61.31,45.93 49.39,40.52 45.42,70.15l-58.39 3.57z"/>
   <path class="fil7" d="M4634.43 2215.91c-15.7,-54.7 -27.65,-38.72 -47.74,-80.19l67.15 10.09c-22.5,-39.24 -64.35,-24.58 -102.85,-16.14l53.83 65.48c2.58,2.09 10.82,8.5 13.34,10.31l16.27 10.45z"/>
   <path class="fil8" d="M10207.19 638.22c45.5,-20.09 53.54,-35.76 79.17,-66.64l-0.64 50.76c26.73,-10.26 14.33,-48.2 5.98,-72.78 -31.48,12.38 1.34,-6.91 -22.91,11.79 -1.56,1.21 -18.98,18.33 -21.6,20.95 -24.72,24.75 -23.09,25.26 -40,55.92z"/>
   <path class="fil6" d="M9602.41 2731.24c38.94,-13.94 77.53,-56.97 94.72,-94.48 -39.25,14.28 -26.23,9.24 -55.05,40.12 -3.58,3.82 -19.21,18.67 -21.06,21.04 -21.36,27.24 -6.78,4.65 -18.61,33.32z"/>
   <path class="fil7" d="M8498.9 450.85c-36.32,-54.11 -64.64,-58.02 -94.14,-110.06l-35.59 -7.56c27.06,28.03 37.01,36.99 59.52,59.67 11.83,11.91 14.61,15.65 26.7,27.03 26.94,25.38 12.11,14.85 43.51,30.92z"/>
   <path class="fil6" d="M8880.89 579.34c39.23,-26.83 64.78,-57.7 96.37,-93.29 -32.06,3.88 -39.46,16.89 -58.7,35.38 -24.33,23.37 -26.06,16.85 -37.67,57.91z"/>
   <path class="fil8" d="M5731.42 5566.57l-65.86 -3.77c-2.76,-42.44 1.44,-18.45 32.99,-62.99 -36.18,12.73 -56.76,27.34 -53.76,69.39 48.48,9.18 47.26,14.02 86.63,-2.63z"/>
   <path class="fil6" d="M10595.06 5520.22c13.07,10.4 7.7,20.96 41.66,9.34 14.66,-5.03 21.11,-17.8 29.79,-29.84 -22.75,-35.26 -23.28,-39.25 -66.79,-50.35 42.41,44.04 90.31,62.83 -4.66,70.85z"/>
   <path class="fil8" d="M4326.26 5384.4c43.41,-23.38 23.9,-21.45 47.74,-44.62 30.04,-29.16 24.08,-1.87 45.5,-51.3 -45.84,26.24 -71.79,48.48 -93.24,95.92z"/>
   <path class="fil7" d="M11897.14 4929.25c-20.28,-53.33 -44.33,-72.92 -96.11,-91.32 32.5,30.47 57.97,63.14 96.11,91.32z"/>
   <path class="fil7" d="M9760.59 1469.93c-17.43,-34.05 4.08,-0.97 -14.92,-23.33 -0.37,-0.43 -15.38,-15.45 -16.29,-16.38 -31.27,-31.19 -1.65,-13.8 -44.18,-30.43 6.49,42.23 39.19,52.72 75.39,70.14z"/>
   <path class="fil8" d="M11781.23 2078.63l64.31 -4.56 -12.2 37.95c18.2,-11.88 15.81,-3.58 34.45,-29.82 3.46,-4.9 10.14,-20.82 14.32,-30.07l-100.88 26.5z"/>
   <path class="fil6" d="M10269.9 3849.51c30.51,-19.94 23.24,-16.28 46.97,-39.74 24.6,-24.35 19.77,-15.65 40.17,-47.01 -49.16,20.88 -63.37,39.82 -87.14,86.75z"/>
   <path class="fil7" d="M6992.51 4200.14c32.39,-15.74 6.23,2.17 27.36,-15.96l49.51 -55.31c-26.83,6.19 -29.2,8.29 -46.33,24.58 -31.98,30.37 -15.34,8.97 -30.54,46.69z"/>
   <path class="fil7" d="M10595.57 4287.03l-76.99 -90.33 2.53 35.22c31.27,21.4 30.52,30.92 74.46,55.11z"/>
   <path class="fil7" d="M7569.06 1642.51c-21.79,13.51 -16.03,9.06 -41.29,14.3l-21.79 -30.49c-1.51,-1.83 -4.55,-4.94 -6.81,-7.42 4.38,45.29 8.79,51.51 50.44,55.84l19.45 -32.23z"/>
   <path class="fil6" d="M9401.87 2878.06c18.94,-10.72 17.66,-6.69 36,-24.19 21.85,-20.87 16.06,-19.36 25.29,-35.03 -37.52,9.58 -50.63,22.52 -61.29,59.22z"/>
   <path class="fil6" d="M8332.69 2627.11c22.03,-3.96 30.1,-4 42.41,-15.34 30.29,-27.9 12.16,2.01 17.82,-43.33l-60.23 58.67z"/>
   <path class="fil7" d="M10543.52 4068.99l76.58 -71.78c-39.75,9.39 -59.69,32.12 -76.58,71.78z"/>
   <path class="fil7" d="M11423.61 3962.74l72.16 -75.34c-40.24,14.89 -56.34,31.23 -72.16,75.34z"/>
   <path class="fil6" d="M10562.92 2344.83c18.09,-11.59 6.92,-0.53 27.6,-20.79 3.26,-3.2 16.82,-19.52 22.82,-26.47 -38.91,5.8 -42.89,12.34 -50.42,47.26z"/>
   <path class="fil7" d="M9366.27 2279.32c38.95,-19.99 34.34,-14.85 51.42,-55.22 -20.37,13.83 -11.48,4.95 -28.22,24.22 -0.6,0.66 -19.01,25.68 -23.2,31z"/>
   <path class="fil7" d="M10333.02 3005.48l56.94 -50.22c-39.11,14.28 -39.27,12.45 -56.94,50.22z"/>
  </g>
  <g id="_2015465156400">
   <path class="fil9" d="M6867.97 7422.14l12.34 0 0 -49.42 12.36 0 0 -86.49 12.36 0 0 -111.19 61.77 0 0 284.17 -98.83 0 0 -37.07zm420.06 -123.55l12.36 0 0 -37.07 12.36 0 0 -37.06 12.35 0 0 37.06 12.36 0 0 37.07 12.35 0 0 37.07 -61.78 0 0 -37.07zm481.86 12.36l-12.36 0 0 12.35 -12.35 0 0 12.36 -12.36 0 0 -160.62 24.71 0 0 12.36 12.36 0 0 24.7 12.36 0 0 74.13 -12.36 0 0 24.72zm-1383.78 -197.7l12.35 0 0 12.37 12.36 0 0 12.35 12.36 0 0 24.71 12.34 0 0 24.71 12.36 0 0 24.7 12.37 0 0 24.72 12.35 0 0 24.71 12.36 0 0 24.7 12.36 0 0 12.37 12.34 24.7 12.36 0 0 24.72 12.36 0 0 24.71 12.35 0 0 24.7 12.36 0 0 12.36 12.36 0 0 12.36 12.34 0 0 12.35 -12.34 0 0 24.71 -37.07 0 0 12.36 -24.72 0 0 -12.36 -24.7 0 0 -12.36 -12.36 0 0 24.72 -12.35 0 0 12.36 -12.37 0 0 24.7 -12.36 0 0 12.36 12.36 0 0 12.35 24.72 0 0 12.36 86.48 0 0 -12.36 37.07 0 0 -12.35 12.36 0 0 -12.36 12.34 0 0 -12.36 12.37 0 0 -12.34 12.36 0 0 -12.36 12.34 0 0 -37.07 12.36 0 0 -24.71 12.36 0 0 -24.71 12.35 0 0 -37.06 12.36 0 0 -24.72 12.36 0 0 -37.07 12.34 0 0 -24.71 12.36 0 0 -37.06 12.36 0 0 -24.71 12.35 0 0 -37.07 12.36 0 0 -24.71 12.36 0 0 -24.71 12.35 0 0 12.36 12.36 0 0 37.07 12.36 0 0 111.2 -12.36 0 0 74.13 -12.36 0 0 49.4 -12.35 0 0 24.72 -12.36 0 0 37.07 -61.77 0 0 172.97 37.06 0 0 12.35 24.71 0 0 -61.77 12.36 0 0 -24.71 12.35 0 0 -12.36 12.36 0 0 -12.36 234.75 0 0 12.36 12.35 0 0 12.36 12.36 0 0 49.41 12.36 0 0 37.07 24.7 0 0 -12.35 37.07 0 0 -98.85 98.83 0 0 -12.34 -12.34 0 0 -74.14 12.34 0 0 -37.07 135.91 0 0 37.07 12.36 0 0 61.78 -12.36 0 0 12.36 -12.34 0 0 12.34 383 0 0 -12.34 -12.35 0 0 -12.36 -12.36 0 0 -148.27 37.07 0 0 -12.34 49.42 0 0 -12.36 24.71 0 0 -12.36 24.71 0 0 -12.35 12.36 0 0 -12.36 12.36 0 0 -24.71 12.34 0 0 -98.84 -12.34 0 0 -24.71 -12.36 0 0 -12.36 -12.36 0 0 -12.35 -12.35 0 0 -12.36 -37.07 0 0 -12.35 -247.11 0 0 12.35 12.36 0 0 12.36 12.36 0 0 383.01 -12.36 0 0 12.36 -24.71 0 0 -24.72 -12.36 0 0 -12.35 -12.36 0 0 -37.07 -12.34 0 0 -37.07 -12.36 0 0 -24.7 -12.37 0 0 -37.07 -12.34 0 0 -37.06 -12.36 0 0 -37.07 -12.36 0 0 -24.72 -12.35 0 0 -37.07 -12.36 0 0 -37.06 -12.36 0 0 -37.07 -12.34 0 0 -37.06 -172.97 0 0 12.35 12.34 0 0 12.36 12.36 0 0 49.42 -12.36 0 0 37.06 -12.34 0 0 37.07 -12.36 0 0 37.06 -12.36 0 0 37.07 -12.35 0 0 37.07 -12.36 0 0 24.72 -12.36 0 0 37.06 -12.34 0 0 37.07 -74.13 0 0 -308.88 12.34 0 0 -37.07 12.36 0 0 -12.35 -444.79 0 0 12.35 12.36 0 0 24.71 12.35 0 0 37.07 -12.35 0 0 24.72 -12.36 0 0 37.06 -12.36 0 0 37.07 -12.34 0 0 24.71 -12.36 0 0 -24.71 -12.37 0 0 -24.72 -12.34 0 0 -24.71 -12.36 0 0 -24.7 -12.36 0 0 -24.72 -12.35 0 0 -24.71 -12.36 0 0 -24.71 -12.36 0 0 -24.71 -160.61 0 0 12.35 0 0z"/>
   <path class="fil9" d="M8980.69 6544.93l12.36 0 0 -12.36 12.35 0 0 -12.35 12.36 0 0 -12.36 12.36 0 0 -24.7 12.34 0 0 -12.36 12.36 0 0 -12.36 12.37 0 0 -12.35 12.34 0 0 -12.36 12.36 0 0 -24.71 12.36 0 0 -12.36 12.35 0 0 -12.36 24.72 0 0 12.36 12.35 0 0 383.01 -24.71 0 0 -12.35 -12.36 0 0 -12.36 -12.35 0 0 -24.71 -12.36 0 0 -24.7 -12.36 0 0 -12.36 -12.34 0 0 -24.71 -12.37 0 0 -12.36 -12.36 0 0 -24.7 -12.34 0 0 -24.72 -12.36 0 0 -12.36 -12.36 0 0 -24.71 -12.35 0 0 -12.35 -12.36 0 0 -12.36 0 0.01zm-247.09 -160.62l12.36 0 0 12.36 12.34 0 0 383 -12.34 0 0 12.36 -12.36 0 0 12.36 185.33 0 0 -12.36 -12.36 0 0 -12.36 -12.35 0 0 -123.54 12.35 0 0 12.36 12.36 0 0 24.71 12.34 0 0 24.7 12.36 0 0 24.71 12.36 0 0 12.36 12.35 0 0 24.71 12.36 0 0 12.36 24.7 0 0 12.36 259.47 0 0 -12.36 12.36 0 0 -12.36 12.36 0 0 -24.71 12.34 0 0 -24.71 12.36 0 0 -24.7 12.36 0 0 -24.72 12.35 0 0 -24.71 12.36 0 0 -24.7 12.36 0 0 -24.72 12.34 0 0 -24.72 12.36 0 0 -24.7 12.36 0 0 210.04 -12.36 0 0 24.7 -12.36 0 0 12.36 172.99 0 0 -12.36 -12.36 0 0 -24.7 -12.36 0 0 -358.3 12.36 0 0 -24.72 12.36 0 0 -12.35 -135.92 0 0 24.71 -12.35 0 0 24.71 -12.36 0 0 12.36 -12.36 0 0 24.7 -12.35 0 0 24.72 -12.36 0 0 24.71 -12.36 0 0 24.7 -12.34 0 0 24.72 -12.36 0 0 24.71 -12.36 0 0 24.71 -12.35 0 0 -210.04 12.35 0 0 -12.36 12.36 0 0 -12.34 -345.95 0 0 12.34 12.36 0 0 61.79 -12.36 0 0 12.35 -12.35 0 0 12.36 -12.36 0 0 24.7 -12.36 0 0 12.36 -12.34 12.36 -12.36 0 0 24.71 -12.35 0 0 -148.26 12.35 0 0 -12.36 12.36 0 0 -12.35 -185.33 0 0 12.35 0 -0.01z"/>
   <polygon class="fil9" points="6151.36,7842.22 6176.07,7842.22 6176.07,7866.92 6188.43,7866.92 6188.43,7879.28 6200.79,7879.28 6200.79,7903.98 6213.13,7903.98 6213.13,7928.69 6225.49,7928.69 6225.49,7953.41 6237.85,7953.41 6237.85,7978.11 6250.2,7978.11 6250.2,8002.83 6262.56,8002.83 6262.56,8027.54 6274.92,8027.54 6274.92,8039.89 6287.26,8039.89 6287.26,8064.61 6299.62,8064.61 6299.62,8089.31 6311.98,8089.31 6311.98,8114.02 6324.33,8114.02 6324.33,8138.74 6336.69,8138.74 6336.69,8151.08 6349.05,8151.08 6349.05,8175.81 6336.69,8175.81 6336.69,8188.15 6299.62,8188.15 6299.62,8200.51 6274.92,8200.51 6274.92,8188.15 6250.2,8188.15 6250.2,8175.81 6237.85,8175.81 6237.85,8200.51 6225.49,8200.51 6225.49,8225.21 6213.13,8225.21 6213.13,8249.93 6225.49,8249.93 6225.49,8262.28 6250.2,8262.28 6250.2,8274.64 6324.33,8274.64 6324.33,8262.28 6361.39,8262.28 6361.39,8249.93 6373.75,8249.93 6373.75,8237.57 6398.45,8237.57 6398.45,8212.87 6410.81,8212.87 6410.81,8200.51 6423.17,8200.51 6423.17,8175.81 6435.52,8175.81 6435.52,8151.08 6447.88,8151.08 6447.88,8126.38 6460.24,8126.38 6460.24,8089.31 6472.6,8089.31 6472.6,8064.61 6484.96,8064.61 6484.96,8027.54 6497.32,8027.54 6509.66,8002.83 6509.66,7965.75 6522.02,7965.75 6522.02,7941.05 6534.38,7941.05 6534.38,7903.98 6546.72,7903.98 6546.72,7879.28 6559.08,7879.28 6559.08,7866.92 6571.44,7866.92 6571.44,8212.87 6559.08,8212.87 6559.08,8249.93 6546.72,8249.93 6546.72,8262.28 6719.7,8262.28 6719.7,8249.93 6707.34,8249.93 6707.34,8237.57 6694.98,8237.57 6694.98,8064.61 6793.84,8064.61 6793.84,8237.57 6781.48,8237.57 6781.48,8249.93 6769.12,8249.93 6769.12,8262.28 6942.1,8262.28 6942.1,8249.93 6929.74,8249.93 6929.74,8212.87 6917.38,8212.87 6917.38,7879.28 6929.74,7879.28 6929.74,7842.22 6942.1,7842.22 6942.1,7829.86 6769.12,7829.86 6769.12,7842.22 6781.48,7842.22 6781.48,7854.58 6793.84,7854.58 6793.84,7990.47 6694.98,7990.47 6694.98,7854.58 6707.34,7854.58 6707.34,7842.22 6719.7,7842.22 6719.7,7829.86 6435.52,7829.86 6435.52,7842.22 6447.88,7842.22 6447.88,7854.58 6460.24,7854.58 6460.24,7916.34 6447.88,7916.34 6447.88,7941.05 6435.52,7941.05 6435.52,7978.11 6423.17,7978.11 6423.17,8015.19 6410.81,8015.19 6410.81,8027.54 6398.45,8027.54 6398.45,7990.47 6386.11,7990.47 6386.11,7965.75 6373.75,7965.75 6373.75,7941.05 6361.39,7941.05 6361.39,7916.34 6349.05,7916.34 6349.05,7891.62 6336.69,7891.62 6336.69,7866.92 6324.33,7866.92 6324.33,7842.22 6311.98,7842.22 6311.98,7829.86 6151.36,7829.86 "/>
   <path class="fil9" d="M6633.21 6532.57l12.36 0 0 -12.35 12.35 0 0 -12.36 12.36 0 0 -12.36 12.36 0 0 -24.7 12.34 0 0 -12.36 12.36 0 0 -12.35 12.36 0 0 -12.36 12.35 0 0 -12.36 24.72 0 0 12.36 12.35 0 0 24.71 12.36 0 0 24.72 12.36 0 0 24.7 12.35 0 0 24.71 12.36 0 0 24.72 12.36 0 0 24.7 12.34 0 0 24.72 12.36 0 0 24.72 12.36 0 0 24.7 12.35 0 0 12.36 12.36 0 0 24.71 24.7 0 0 12.36 -12.34 0 0 12.34 -12.36 0 0 12.36 -24.71 0 0 12.35 -37.06 0 0 -12.35 -12.36 0 0 -12.36 -12.36 0 0 12.36 -12.35 0 0 24.71 -12.36 0 0 24.71 -12.36 0 0 -12.35 -12.35 0 0 -24.72 -12.36 0 0 -12.35 -12.36 0 0 -24.7 -12.35 0 0 -12.36 -12.36 0 0 -24.71 -12.36 0 0 -24.72 -12.34 0 0 -12.34 -12.36 0 0 -24.72 -12.36 0 0 -24.72 -12.35 0 0 -12.35 -12.36 0 0 -37.07 0 0zm-259.46 -148.26l12.36 0 0 12.36 12.35 0 0 383 -12.35 0 0 12.36 -12.36 0 0 12.36 185.33 0 0 -12.36 -12.36 0 0 -12.36 -12.34 0 0 -135.9 12.34 0 0 24.72 12.36 0 0 24.71 12.36 0 0 24.7 12.35 0 0 12.36 12.36 0 0 24.71 12.36 0 0 12.36 12.34 0 0 12.35 12.37 0 0 12.36 12.36 0 0 12.36 160.61 0 0 12.34 86.48 0 0 -12.34 24.71 0 0 -12.36 24.72 0 0 -12.36 12.34 0 0 -12.35 12.36 0 0 -12.36 12.37 0 0 -24.71 12.34 0 0 -24.7 12.36 0 0 -24.72 12.36 0 0 -37.07 12.35 0 0 -24.7 12.36 0 0 -37.08 12.36 0 0 -24.7 12.35 0 0 -37.07 12.36 0 0 -24.72 12.36 0 0 -37.06 12.34 0 0 -24.71 12.36 0 0 -49.43 -86.49 0 0 49.43 -12.35 0 0 37.07 -12.36 0 0 24.7 -12.36 0 0 37.07 -12.34 0 0 37.07 -12.37 0 0 -12.35 -12.36 0 0 -24.72 -12.34 0 0 -24.71 -12.36 0 0 -24.7 -12.36 0 0 -24.72 -12.35 0 0 -24.71 -12.36 0 0 -24.71 -12.36 0 0 -24.72 -12.34 0 0 -12.34 -259.47 0 0 12.34 12.35 0 0 24.72 12.36 0 0 12.35 -12.36 0 0 24.72 -12.35 0 0 12.35 -12.36 0 0 24.72 -12.36 0 0 12.34 -12.34 0 0 12.36 -12.36 0 0 24.71 -12.36 0 0 12.36 -12.35 0 0 -148.26 12.35 0 0 -12.36 12.36 0 0 -12.35 -185.33 0 0 12.35 0 0z"/>
   <path class="fil9" d="M8832.43 7446.84l-12.35 0 0 12.36 -49.42 0 0 -123.55 49.42 0 0 12.36 12.35 0 0 24.71 12.36 0 0 49.42 -12.36 0 0 24.71 0 -0.01zm-37.07 -185.32l-24.7 0 0 -86.48 37.06 0 0 74.12 -12.36 0 0 12.36zm-481.85 -148.27l-12.34 0 0 61.78 -12.36 0 0 37.07 12.36 0 0 -12.35 12.34 0 0 -12.36 49.43 0 0 -12.36 37.07 321.23 -12.36 0 0 24.72 -12.35 0 0 12.35 172.97 0 0 -12.35 -12.37 0 0 -12.36 -12.34 0 0 -333.59 37.07 0 0 12.36 37.07 0 0 12.36 12.34 0 0 -12.36 12.36 0 0 -49.42 12.36 0 0 370.65 -12.36 0 0 12.36 -12.36 0 0 12.35 259.46 0 0 -12.35 24.73 0 0 -12.36 24.7 0 0 -12.36 12.35 0 0 -12.34 12.36 0 0 -12.36 12.36 0 0 -37.07 12.34 0 0 -74.14 -12.34 0 0 -24.7 -12.36 0 0 -12.36 -12.36 0 0 -12.35 -12.35 0 0 -12.36 -12.36 0 0 -12.36 -12.34 0 0 -12.35 24.7 0 0 -12.36 12.35 0 0 -24.7 12.36 0 0 -61.79 -12.36 0 0 -24.7 -12.35 0 0 -12.36 -12.36 0 0 -12.35 -12.34 0 0 -12.37 -24.73 0 0 -12.34 -555.98 0 0 12.34 -0.01 0.01z"/>
   <polygon class="fil9" points="9301.92,7854.58 9289.58,7854.58 9289.58,7916.34 9277.22,7916.34 9277.22,7941.05 9289.58,7941.05 9289.58,7928.69 9301.92,7928.69 9301.92,7916.34 9338.99,7916.34 9338.99,7903.98 9388.41,7903.98 9388.41,8225.21 9376.05,8225.21 9376.05,8249.93 9363.71,8249.93 9363.71,8262.28 9536.68,8262.28 9536.68,8249.93 9524.32,8249.93 9524.32,8225.21 9511.98,8225.21 9511.98,7903.98 9561.38,7903.98 9561.38,7916.34 9598.45,7916.34 9598.45,7928.69 9610.81,7928.69 9610.81,7879.28 9623.17,7879.28 9623.17,7866.92 9635.52,7866.92 9635.52,8212.87 9623.17,8212.87 9623.17,8249.93 9610.81,8249.93 9610.81,8262.28 9894.97,8262.28 9894.97,8237.57 9907.33,8237.57 9907.33,8188.15 9919.69,8188.15 9919.69,8163.45 9907.33,8163.45 9907.33,8175.81 9882.63,8175.81 9882.63,8188.15 9759.08,8188.15 9759.08,8064.61 9820.85,8064.61 9820.85,8076.95 9833.21,8076.95 9833.21,8089.31 9845.57,8089.31 9845.57,7990.47 9759.08,7990.47 9759.08,7903.98 9845.57,7903.98 9845.57,7916.34 9857.91,7916.34 9857.91,7928.69 9870.27,7928.69 9870.27,7829.86 9301.92,7829.86 "/>
   <polygon class="fil9" points="9586.11,6384.31 9598.45,6384.31 9598.45,6396.67 9610.81,6396.67 9610.81,6779.67 9598.45,6779.67 9598.45,6792.03 9586.11,6792.03 9586.11,6804.39 9722,6804.39 9722,6792.03 9734.36,6792.03 9734.36,6767.33 9746.71,6767.33 9746.71,6754.96 9759.08,6754.96 9759.08,6730.26 9771.44,6730.26 9771.44,6705.55 9783.78,6705.55 9783.78,6680.83 9796.14,6680.83 9796.14,6656.13 9808.5,6656.13 9808.5,6631.43 9820.85,6631.43 9820.85,6606.71 9833.21,6606.71 9833.21,6581.99 9845.57,6557.29 9857.91,6557.29 9857.91,6767.33 9845.57,6767.33 9845.57,6792.03 9833.21,6792.03 9833.21,6804.39 10006.17,6804.39 10006.17,6792.03 9993.83,6792.03 9993.83,6767.33 9981.47,6767.33 9981.47,6409.03 9993.83,6409.03 9993.83,6384.31 10006.17,6384.31 10006.17,6371.96 9870.27,6371.96 9870.27,6396.67 9857.91,6396.67 9857.91,6421.37 9845.57,6421.37 9845.57,6433.73 9833.21,6433.73 9833.21,6458.44 9820.85,6458.44 9820.85,6483.16 9808.5,6483.16 9808.5,6507.86 9796.14,6507.86 9796.14,6532.57 9783.78,6532.57 9783.78,6557.29 9771.44,6557.29 9771.44,6581.99 9759.08,6581.99 9759.08,6606.71 9746.71,6606.71 9746.71,6396.67 9759.08,6396.67 9759.08,6384.31 9771.44,6384.31 9771.44,6371.96 9586.11,6371.96 "/>
   <polygon class="fil9" points="6979.16,7842.22 6991.51,7842.22 6991.51,7854.58 7003.87,7854.58 7003.87,8237.57 6991.51,8237.57 6991.51,8249.93 6979.16,8249.93 6979.16,8262.28 7115.07,8262.28 7115.07,8249.93 7127.43,8249.93 7127.43,8225.21 7139.77,8225.21 7139.77,8200.51 7152.14,8200.51 7152.14,8175.81 7164.5,8175.81 7164.5,8151.08 7176.84,8151.08 7176.84,8126.38 7189.2,8126.38 7189.2,8101.67 7201.56,8101.67 7201.56,8089.31 7213.9,8089.31 7213.9,8064.61 7226.26,8064.61 7226.26,8039.89 7238.62,8039.89 7238.62,8015.19 7250.97,8015.19 7250.97,8212.87 7238.62,8212.87 7238.62,8249.93 7226.26,8249.93 7226.26,8262.28 7399.23,8262.28 7399.23,8249.93 7386.87,8249.93 7386.87,8225.21 7374.53,8225.21 7374.53,7854.58 7386.87,7854.58 7386.87,7842.22 7399.23,7842.22 7399.23,7829.86 7263.33,7829.86 7263.33,7842.22 7250.97,7842.22 7250.97,7866.92 7238.62,7866.92 7238.62,7891.62 7226.26,7891.62 7226.26,7916.34 7213.9,7916.34 7213.9,7941.05 7201.56,7941.05 7201.56,7965.75 7189.2,7965.75 7189.2,7990.47 7176.84,7990.47 7176.84,8015.19 7164.5,8015.19 7164.5,8039.89 7152.14,8064.61 7139.77,8064.61 7139.77,7854.58 7152.14,7854.58 7152.14,7842.22 7164.5,7842.22 7164.5,7829.86 6979.16,7829.86 "/>
   <polygon class="fil9" points="10735.13,7113.25 10747.49,7113.25 10747.49,7125.62 10759.85,7125.62 10759.85,7508.63 10747.49,7508.63 10747.49,7520.98 10735.13,7520.98 10735.13,7533.33 10871.04,7533.33 10871.04,7520.98 10883.39,7520.98 10883.39,7496.27 10895.74,7496.27 10895.74,7471.56 10908.1,7471.56 10908.1,7446.84 10920.46,7446.84 10920.46,7422.14 10932.81,7422.14 10932.81,7397.42 10945.17,7397.42 10945.17,7372.72 10957.52,7372.72 10957.52,7348.01 10969.89,7348.01 10969.89,7323.29 10982.25,7323.29 10982.25,7298.59 10994.59,7298.59 10994.59,7273.88 11006.95,7273.88 11006.95,7471.56 10994.59,7471.56 10994.59,7508.63 10982.25,7508.63 10982.25,7533.33 11155.21,7533.33 11155.21,7520.98 11142.84,7520.98 11142.84,7508.63 11130.5,7508.63 11130.5,7125.62 11142.84,7125.62 11142.84,7113.25 11155.21,7113.25 11155.21,7100.91 11019.31,7100.91 11019.31,7113.25 11006.95,7113.25 11006.95,7137.97 10994.59,7137.97 10994.59,7162.68 10982.25,7162.68 10982.25,7187.39 10969.89,7187.39 10969.89,7212.1 10957.52,7212.1 10957.52,7236.82 10945.17,7236.82 10945.17,7261.52 10932.81,7261.52 10932.81,7273.88 10920.46,7273.88 10920.46,7298.59 10908.1,7298.59 10908.1,7323.29 10895.74,7323.29 10895.74,7348.01 10883.39,7348.01 10883.39,7150.33 10895.74,7150.33 10895.74,7113.25 10908.1,7113.25 10908.1,7100.91 10735.13,7100.91 "/>
   <polygon class="fil9" points="8857.15,7842.22 8869.5,7842.22 8869.5,7854.58 8881.86,7854.58 8881.86,8237.57 8869.5,8237.57 8869.5,8249.93 8857.15,8249.93 8857.15,8262.28 8993.05,8262.28 8993.05,8249.93 9005.4,8249.93 9005.4,8225.21 9017.76,8225.21 9017.76,8200.51 9030.12,8200.51 9030.12,8175.81 9042.46,8175.81 9042.46,8151.08 9054.82,8151.08 9054.82,8126.38 9067.19,8126.38 9067.19,8101.67 9079.53,8101.67 9079.53,8076.95 9091.89,8076.95 9091.89,8052.25 9104.25,8052.25 9104.25,8039.89 9116.59,8039.89 9116.59,8015.19 9128.95,8015.19 9128.95,8212.87 9116.59,8212.87 9116.59,8249.93 9104.25,8249.93 9104.25,8262.28 9277.22,8262.28 9277.22,8249.93 9264.86,8249.93 9264.86,8237.57 9252.52,8237.57 9252.52,7854.58 9264.86,7854.58 9264.86,7842.22 9277.22,7842.22 9277.22,7829.86 9141.31,7829.86 9141.31,7842.22 9128.95,7842.22 9128.95,7866.92 9116.59,7866.92 9116.59,7891.62 9104.25,7891.62 9104.25,7916.34 9091.89,7916.34 9091.89,7941.05 9079.53,7941.05 9079.53,7965.75 9067.19,7965.75 9067.19,7990.47 9054.82,7990.47 9054.82,8015.19 9042.46,8015.19 9042.46,8039.89 9030.12,8052.25 9017.76,8052.25 9017.76,8076.95 9005.4,8076.95 9005.4,7879.28 9017.76,7879.28 9017.76,7842.22 9030.12,7842.22 9030.12,7829.86 8857.15,7829.86 "/>
   <polygon class="fil9" points="9722,7113.25 9734.36,7113.25 9734.36,7125.62 9746.71,7125.62 9746.71,7508.63 9734.36,7508.63 9734.36,7520.98 9722,7520.98 9722,7533.33 9907.33,7533.33 9907.33,7520.98 9894.97,7520.98 9894.97,7508.63 9882.63,7508.63 9882.63,7335.65 9981.47,7335.65 9981.47,7496.27 9969.11,7496.27 9969.11,7520.98 9956.76,7520.98 9956.76,7533.33 10129.73,7533.33 10129.73,7520.98 10117.37,7520.98 10117.37,7496.27 10105.03,7496.27 10105.03,7137.97 10117.37,7137.97 10117.37,7113.25 10129.73,7113.25 10129.73,7100.91 9956.76,7100.91 9956.76,7113.25 9969.11,7113.25 9969.11,7137.97 9981.47,7137.97 9981.47,7261.52 9882.63,7261.52 9882.63,7125.62 9894.97,7125.62 9894.97,7113.25 9907.33,7113.25 9907.33,7100.91 9722,7100.91 "/>
   <polygon class="fil9" points="7905.79,6384.31 7918.15,6384.31 7918.15,6409.03 7930.51,6409.03 7930.51,6767.33 7918.15,6767.33 7918.15,6792.03 7905.79,6792.03 7905.79,6804.39 8078.78,6804.39 8078.78,6792.03 8066.42,6792.03 8066.42,6767.33 8054.06,6767.33 8054.06,6606.71 8152.9,6606.71 8152.9,6779.67 8140.54,6779.67 8140.54,6792.03 8128.18,6792.03 8128.18,6804.39 8313.51,6804.39 8313.51,6792.03 8301.17,6792.03 8301.17,6779.67 8288.81,6779.67 8288.81,6396.67 8301.17,6396.67 8301.17,6384.31 8313.51,6384.31 8313.51,6371.96 8128.18,6371.96 8128.18,6384.31 8140.54,6384.31 8140.54,6396.67 8152.9,6396.67 8152.9,6532.57 8054.06,6532.57 8054.06,6409.03 8066.42,6409.03 8066.42,6384.31 8078.78,6384.31 8078.78,6371.96 7905.79,6371.96 "/>
   <path class="fil9" d="M5657.16 7249.16l12.35 0 0 -24.7 12.36 0 0 -24.71 12.36 0 0 -12.36 12.34 0 0 -12.36 37.07 0 0 -12.35 37.07 0 0 12.35 24.7 0 0 12.36 24.72 0 0 24.71 12.35 0 0 12.36 12.36 0 0 37.06 12.35 0 0 135.9 -12.35 0 0 24.72 -12.36 0 0 24.71 -24.71 0 0 12.36 -24.7 0 0 12.35 -37.07 0 0 -12.35 -37.07 0 0 -12.36 -12.36 0 0 -12.35 -12.34 0 0 -12.35 -12.36 0 0 -24.72 -12.36 0 0 -37.07 -12.35 0 0 -111.19 0 -0.01zm49.41 -148.25l-37.06 0 0 12.35 -24.71 0 0 12.36 -24.7 0 0 12.35 -12.36 0 0 12.36 -12.36 0 0 12.35 -12.36 0 0 12.35 -12.36 0 0 12.36 -12.35 0 0 24.71 -12.35 0 0 24.72 -12.36 0 0 49.4 -12.36 0 0 61.79 12.36 0 0 61.77 12.36 0 0 24.71 12.35 0 0 12.35 12.35 0 0 24.71 12.36 0 0 12.36 12.36 0 0 12.35 24.72 0 0 12.36 12.34 0 0 12.36 24.72 0 0 12.34 49.41 0 0 12.36 111.19 0 0 -12.36 49.43 0 0 -12.34 24.71 0 0 -12.36 12.36 0 0 -12.36 12.34 0 0 -12.35 24.73 0 0 -24.71 12.34 0 0 -12.36 12.36 0 0 -12.35 12.36 0 0 -24.71 12.35 0 0 -37.07 12.36 0 -12.36 -111.19 0 -37.07 -12.35 0 0 -24.7 -12.36 0 0 -24.72 -12.36 0 0 -12.35 -12.34 0 0 -12.35 -12.37 0 0 -12.36 -12.36 0 0 -12.35 -24.7 0 0 -12.37 -24.71 0 0 -12.34 -37.07 0 0 -12.36 -123.55 0 0 12.36 0 0z"/>
   <polygon class="fil9" points="9289.58,7113.25 9301.92,7113.25 9301.92,7125.62 9314.28,7125.62 9314.28,7508.63 9301.92,7508.63 9301.92,7520.98 9289.58,7520.98 9289.58,7533.33 9462.55,7533.33 9462.55,7520.98 9450.19,7520.98 9450.19,7483.92 9437.84,7483.92 9437.84,7335.65 9549.04,7335.65 9549.04,7483.92 9536.68,7483.92 9536.68,7520.98 9524.32,7520.98 9524.32,7533.33 9697.3,7533.33 9697.3,7520.98 9684.94,7520.98 9684.94,7508.63 9672.58,7508.63 9672.58,7125.62 9684.94,7125.62 9684.94,7113.25 9697.3,7113.25 9697.3,7100.91 9524.32,7100.91 9524.32,7113.25 9536.68,7113.25 9536.68,7150.33 9549.04,7150.33 9549.04,7261.52 9437.84,7261.52 9437.84,7150.33 9450.19,7150.33 9450.19,7113.25 9462.55,7113.25 9462.55,7100.91 9289.58,7100.91 "/>
   <path class="fil9" d="M7646.33 8175.81l-12.35 0 0 12.34 -49.42 0 37.06 -135.9 0 12.36 24.71 0 0 24.71 12.36 0 0 74.13 -12.36 0 0 12.36zm-24.71 -185.34l-37.06 0 0 -86.49 37.06 0 0 12.36 12.36 0 0 49.41 -12.36 0 0 24.72zm-185.32 -148.25l12.36 0 0 24.7 12.34 0 0 358.3 -12.34 0 0 24.72 -12.36 0 0 12.34 247.1 0 0 -12.34 37.07 0 0 -12.36 12.36 0 0 -12.36 12.36 0 0 -12.35 12.34 0 0 -12.36 12.36 0 0 -24.7 12.36 0 0 -98.85 -12.36 0 0 -24.71 -12.36 0 0 -12.36 -12.34 0 0 -12.35 -24.72 0 0 -24.71 12.36 0 0 -12.35 12.36 0 0 -24.72 12.34 0 0 -74.13 -12.34 0 0 -24.7 -12.36 0 0 -12.35 -12.36 0 0 -12.36 -24.71 0 0 -12.36 -259.46 0 0 12.36 0 0z"/>
   <path class="fil9" d="M10376.83 7446.84l-24.71 0 0 12.36 -37.06 0 0 -135.91 61.77 0 0 24.72 12.36 0 0 74.13 -12.36 0 0 24.7zm-222.39 -333.59l12.36 0 0 12.37 12.36 0 0 37.06 12.34 0 0 308.88 -12.34 0 0 37.07 -12.36 0 0 12.36 -12.36 0 0 12.34 247.11 0 0 -12.34 37.07 0 0 -12.36 24.71 0 0 -12.36 12.36 0 0 -12.35 12.34 0 0 -12.36 12.36 0 0 -24.71 12.35 0 0 -123.55 -12.35 0 0 -24.71 -12.36 0 0 -12.36 -12.34 0 0 -12.35 -12.36 0 0 -12.36 -12.36 0 0 -12.36 -61.77 0 0 -12.34 -24.71 0 0 12.34 -49.43 -123.54 12.36 0 0 -12.37 12.35 0 0 -12.34 -185.33 0 0 12.34 0 0z"/>
   <path class="fil9" d="M7596.92 6594.35l12.34 0 0 -37.07 12.36 0 0 -24.72 12.36 0 0 -24.7 12.35 0 0 37.06 12.36 0 0 37.07 12.37 0 0 24.71 -74.14 0 0 -12.35zm-37.07 -210.04l12.35 0 0 12.36 12.36 0 0 37.07 -12.36 0 0 37.06 -12.35 0 0 37.07 -12.36 0 0 37.06 -12.36 0 0 37.07 -12.34 0 0 37.07 -12.36 0 0 37.07 -12.37 0 0 37.06 -12.34 0 0 37.07 -12.36 0 0 24.7 -12.36 0 0 24.71 -12.35 0 0 12.36 -12.36 0 0 12.36 135.9 0 0 -12.36 -12.34 0 0 -24.7 -12.36 0 0 -12.37 12.36 0 0 -49.4 12.34 0 0 -24.72 123.57 12.36 12.36 0 0 37.06 12.34 0 0 49.41 -12.34 0 0 12.36 -12.36 0 0 12.36 197.68 0 0 -12.36 -12.36 0 0 -12.36 -12.36 0 0 -24.71 -12.34 0 0 -24.7 -12.37 0 0 -37.07 -12.36 0 0 -37.06 -12.34 0 0 -24.71 -12.36 0 0 -37.07 -12.36 0 0 -37.07 -12.35 0 0 -37.06 -12.36 0 0 -24.72 -12.36 0 0 -37.07 -12.34 0 0 -37.06 -12.36 0 0 -37.07 -12.36 0 0 -12.35 -160.61 0 0 12.35 0 0z"/>
   <path class="fil9" d="M7312.75 6717.9l-12.36 0 0 12.36 -49.42 0 0 -123.55 61.78 0 0 12.36 12.35 0 0 86.48 -12.35 0 0 12.35zm-61.78 -197.68l-12.35 0 0 -74.12 74.13 0 0 -12.36 12.34 0 0 12.36 74.14 0 0 -61.79 -259.46 0 0 407.72 247.1 0 0 -12.36 12.36 0 0 -12.34 12.36 0 0 -12.37 12.35 0 0 -12.36 12.36 0 0 -24.7 12.36 0 12.34 -61.77 0 -12.36 -12.34 0 0 -49.41 -12.36 0 0 -12.37 -12.36 0 0 -24.7 -24.71 0 0 -12.36 -24.7 0 0 -12.36 -123.57 0 0 -12.35 0.01 0z"/>
   <path class="fil9" d="M8301.17 8039.89l-12.36 0 0 12.36 -12.36 0 0 12.36 -12.35 0 0 -160.62 24.71 0 0 12.36 12.36 0 0 12.34 12.34 0 0 98.85 -12.34 0 0 12.35zm-185.33 -197.67l12.34 0 0 37.06 12.36 0 0 321.23 -12.36 0 0 37.07 -12.34 0 0 24.7 172.97 0 0 -12.34 -12.36 0 0 -12.36 -12.35 0 0 -160.62 86.48 0 0 -12.35 37.07 0 0 -12.36 12.36 0 0 -12.36 12.36 0 0 -12.35 12.34 0 12.36 -12.35 0 -37.07 12.36 0 0 -61.77 -12.36 0 0 -24.72 -12.36 0 0 -12.34 -12.34 0 0 -12.36 -12.36 0 0 -12.35 -12.36 0 0 -12.36 -24.71 0 0 -12.36 -247.1 0 0 12.36 0 0z"/>
   <polygon class="fil9" points="8091.12,7100.91 8054.06,7100.91 8054.06,7113.25 8029.35,7113.25 8029.35,7125.62 8016.99,7125.62 8016.99,7137.97 7992.28,7137.97 7992.28,7150.33 7979.92,7150.33 7979.92,7162.68 7967.57,7162.68 7967.57,7187.39 7955.22,7187.39 7955.22,7199.75 7942.86,7199.75 7942.86,7224.46 7930.51,7224.46 7930.51,7261.52 7918.15,7261.52 7918.15,7372.72 7930.51,7409.78 7942.86,7409.78 7942.86,7434.49 7955.22,7434.49 7955.22,7459.2 7967.57,7459.2 7967.57,7471.56 7979.92,7471.56 7979.92,7483.92 7992.28,7483.92 7992.28,7496.27 8004.64,7496.27 8004.64,7508.63 8029.35,7508.63 8029.35,7520.98 8054.06,7520.98 8054.06,7533.33 8091.12,7533.33 8091.12,7545.69 8227.03,7545.69 8227.03,7533.33 8276.45,7533.33 8276.45,7520.98 8301.17,7520.98 8301.17,7483.92 8313.51,7483.92 8313.51,7446.84 8325.87,7446.84 8325.87,7422.14 8313.51,7422.14 8313.51,7434.49 8288.81,7434.49 8288.81,7446.84 8251.74,7446.84 8251.74,7459.2 8202.31,7459.2 8202.31,7471.56 8165.25,7471.56 8165.25,7459.2 8115.84,7459.2 8115.84,7446.84 8103.48,7446.84 8103.48,7434.49 8091.12,7434.49 8091.12,7422.14 8078.78,7422.14 8078.78,7409.78 8066.42,7409.78 8066.42,7372.72 8054.06,7372.72 8054.06,7236.82 8066.42,7236.82 8066.42,7212.1 8078.78,7212.1 8078.78,7199.75 8091.12,7199.75 8091.12,7187.39 8103.48,7187.39 8103.48,7175.03 8140.54,7175.03 8140.54,7162.68 8189.97,7162.68 8189.97,7175.03 8227.03,7175.03 8227.03,7187.39 8251.74,7187.39 8251.74,7199.75 8264.1,7199.75 8264.1,7100.91 8227.03,7100.91 8227.03,7088.55 8091.12,7088.55 "/>
   <polygon class="fil9" points="6200.79,7100.91 6163.72,7100.91 6163.72,7113.25 6139,7113.25 6139,7125.62 6126.65,7125.62 6126.65,7137.97 6101.93,7137.97 6101.93,7150.33 6089.58,7150.33 6089.58,7162.68 6077.22,7162.68 6077.22,7187.39 6064.86,7187.39 6064.86,7199.75 6052.52,7199.75 6052.52,7224.46 6040.16,7224.46 6040.16,7261.52 6027.8,7261.52 6027.8,7372.72 6040.16,7372.72 6040.16,7409.78 6052.52,7409.78 6052.52,7434.49 6064.86,7434.49 6064.86,7446.84 6077.22,7446.84 6077.22,7471.56 6089.58,7483.92 6101.93,7483.92 6101.93,7496.27 6114.29,7496.27 6114.29,7508.63 6139,7508.63 6139,7520.98 6163.72,7520.98 6163.72,7533.33 6200.79,7533.33 6200.79,7545.69 6336.69,7545.69 6336.69,7533.33 6386.11,7533.33 6386.11,7520.98 6410.81,7520.98 6410.81,7483.92 6423.17,7483.92 6423.17,7446.84 6435.52,7446.84 6435.52,7422.14 6423.17,7422.14 6423.17,7434.49 6398.45,7434.49 6398.45,7446.84 6361.39,7446.84 6361.39,7459.2 6311.98,7459.2 6311.98,7471.56 6274.92,7471.56 6274.92,7459.2 6225.49,7459.2 6225.49,7446.84 6213.13,7446.84 6213.13,7434.49 6200.79,7434.49 6200.79,7422.14 6188.43,7422.14 6188.43,7409.78 6176.07,7409.78 6176.07,7372.72 6163.72,7372.72 6163.72,7236.82 6176.07,7236.82 6176.07,7212.1 6188.43,7212.1 6188.43,7199.75 6200.79,7199.75 6200.79,7187.39 6213.13,7187.39 6213.13,7175.03 6250.2,7175.03 6250.2,7162.68 6299.62,7162.68 6299.62,7175.03 6336.69,7175.03 6336.69,7187.39 6361.39,7187.39 6361.39,7199.75 6373.75,7199.75 6373.75,7100.91 6336.69,7100.91 6336.69,7088.55 6200.79,7088.55 "/>
   <polygon class="fil9" points="8511.2,6371.96 8474.13,6371.96 8474.13,6384.31 8449.43,6384.31 8449.43,6396.67 8424.71,6396.67 8424.71,6409.03 8412.37,6409.03 8412.37,6421.37 8400.01,6421.37 8400.01,6433.73 8387.65,6433.73 8387.65,6446.09 8375.3,6446.09 8375.3,6470.8 8362.94,6470.8 8362.94,6495.5 8350.58,6495.5 8350.58,6520.22 8338.23,6520.22 8338.23,6656.13 8350.58,6656.13 8350.58,6680.83 8362.94,6680.83 8362.94,6705.55 8375.3,6705.55 8375.3,6730.26 8387.65,6730.26 8387.65,6742.6 8400.01,6742.6 8400.01,6754.96 8412.37,6754.96 8412.37,6767.33 8424.71,6767.33 8424.71,6779.67 8449.43,6779.67 8449.43,6792.03 8474.13,6792.03 8474.13,6804.39 8511.2,6804.39 8511.2,6816.73 8647.1,6816.73 8647.1,6804.39 8696.53,6804.39 8696.53,6792.03 8721.24,6792.03 8721.24,6754.96 8733.6,6754.96 8733.6,6717.9 8745.96,6717.9 8745.96,6693.19 8733.6,6693.19 8733.6,6705.55 8708.89,6705.55 8708.89,6717.9 8671.82,6717.9 8671.82,6730.26 8634.76,6730.26 8634.76,6742.6 8572.98,6742.6 8572.98,6730.26 8535.9,6730.26 8535.9,6717.9 8511.2,6717.9 8511.2,6705.55 8498.84,6705.55 8498.84,6680.83 8486.49,6680.83 8486.49,6656.13 8474.13,6656.13 8474.13,6507.86 8486.49,6507.86 8486.49,6483.16 8498.84,6483.16 8498.84,6458.44 8523.56,6458.44 8523.56,6446.09 8560.62,6446.09 8560.62,6433.73 8597.7,6433.73 8597.7,6446.09 8647.1,6446.09 8647.1,6458.44 8671.82,6458.44 8671.82,6470.8 8684.17,6470.8 8684.17,6371.96 8634.76,6371.96 8634.76,6359.6 8511.2,6359.6 "/>
   <polygon class="fil9" points="8622.4,7829.86 8585.34,7829.86 8585.34,7842.22 8560.62,7842.22 8560.62,7854.58 8548.27,7854.58 8548.27,7866.92 8535.9,7866.92 8535.9,7879.28 8511.2,7879.28 8511.2,7891.62 8498.84,7891.62 8498.84,7916.34 8486.49,7916.34 8486.49,7928.69 8474.13,7928.69 8474.13,7965.75 8461.77,7965.75 8461.77,8015.19 8449.43,8015.19 8449.43,8076.95 8461.77,8076.95 8461.77,8126.38 8474.13,8126.38 8474.13,8163.45 8486.49,8175.81 8498.84,8175.81 8498.84,8188.15 8511.2,8188.15 8511.2,8200.51 8523.56,8200.51 8523.56,8212.87 8535.9,8212.87 8535.9,8225.21 8548.27,8225.21 8548.27,8237.57 8560.62,8237.57 8560.62,8249.93 8585.34,8249.93 8585.34,8262.28 8634.76,8262.28 8634.76,8274.64 8758.3,8274.64 8758.3,8262.28 8807.72,8262.28 8807.72,8249.93 8832.43,8249.93 8832.43,8225.21 8844.79,8225.21 8844.79,8188.15 8857.15,8188.15 8857.15,8151.08 8844.79,8151.08 8844.79,8163.45 8820.08,8163.45 8820.08,8175.81 8783.02,8175.81 8783.02,8188.15 8733.6,8188.15 8733.6,8200.51 8696.53,8200.51 8696.53,8188.15 8659.46,8188.15 8659.46,8175.81 8634.76,8175.81 8634.76,8163.45 8622.4,8163.45 8622.4,8151.08 8610.04,8151.08 8610.04,8126.38 8597.7,8126.38 8597.7,8089.31 8585.34,8089.31 8585.34,7978.11 8597.7,7978.11 8597.7,7941.05 8610.04,7941.05 8610.04,7928.69 8622.4,7928.69 8622.4,7916.34 8634.76,7916.34 8634.76,7903.98 8671.82,7903.98 8671.82,7891.62 8721.24,7891.62 8721.24,7903.98 8770.66,7903.98 8770.66,7916.34 8783.02,7916.34 8783.02,7928.69 8807.72,7928.69 8807.72,7891.62 8795.36,7891.62 8795.36,7829.86 8770.66,7829.86 8770.66,7817.51 8622.4,7817.51 "/>
   <polygon class="fil9" points="8980.69,7113.25 8993.05,7113.25 8993.05,7125.62 9005.4,7125.62 9005.4,7508.63 8993.05,7508.63 8993.05,7520.98 8980.69,7520.98 8980.69,7533.33 9277.22,7533.33 9277.22,7483.92 9289.58,7483.92 9289.58,7434.49 9277.22,7434.49 9277.22,7446.84 9252.52,7446.84 9252.52,7459.2 9128.95,7459.2 9190.73,7335.65 9190.73,7348.01 9215.45,7348.01 9215.45,7360.36 9227.79,7360.36 9227.79,7261.52 9128.95,7261.52 9128.95,7175.03 9215.45,7175.03 9215.45,7187.39 9227.79,7187.39 9227.79,7199.75 9240.16,7199.75 9240.16,7100.91 8980.69,7100.91 "/>
   <polygon class="fil9" points="7819.31,7842.22 7819.31,7879.28 7831.66,7879.28 7831.66,8212.87 7819.31,8212.87 7819.31,8237.57 7806.95,8237.57 7806.95,8262.28 8091.12,8262.28 8091.12,8237.57 8103.48,8237.57 8103.48,8188.15 8115.84,8188.15 8115.84,8163.45 8091.12,8163.45 8091.12,8175.81 8078.78,8175.81 8078.78,8188.15 7955.22,8188.15 7955.22,8064.61 8016.99,8064.61 8016.99,8076.95 8029.35,8076.95 8029.35,8089.31 8041.71,8089.31 8041.71,7990.47 7955.22,7990.47 7955.22,7903.98 8041.71,7903.98 8041.71,7916.34 8054.06,7916.34 8054.06,7928.69 8066.42,7928.69 8066.42,7829.86 7806.95,7829.86 "/>
   <polygon class="fil9" points="9907.33,7854.58 9894.97,7854.58 9894.97,7903.98 9882.63,7903.98 9882.63,7941.05 9894.97,7941.05 9894.97,7928.69 9907.33,7928.69 9907.33,7916.34 9944.4,7916.34 9944.4,7903.98 9993.83,7903.98 9993.83,8225.21 9981.47,8225.21 9981.47,8249.93 9969.11,8249.93 9969.11,8262.28 10142.09,8262.28 10142.09,8249.93 10129.73,8249.93 10129.73,8225.21 10117.37,8225.21 10117.37,7903.98 10166.8,7903.98 10166.8,7916.34 10191.5,7916.34 10191.5,7928.69 10216.22,7928.69 10216.22,7879.28 10228.56,7879.28 10228.56,7829.86 9907.33,7829.86 "/>
   <polygon class="fil9" points="5237.07,7113.25 5249.44,7113.25 5249.44,7137.97 5261.79,7137.97 5261.79,7496.27 5249.44,7496.27 5249.44,7520.98 5237.07,7520.98 5237.07,7533.33 5410.04,7533.33 5410.04,7520.98 5397.7,7520.98 5397.7,7496.27 5385.34,7496.27 5385.34,7175.03 5471.83,7175.03 5471.83,7187.39 5508.9,7187.39 5508.9,7199.75 5521.24,7199.75 5521.24,7212.1 5533.6,7212.1 5533.6,7150.33 5521.24,7150.33 5521.24,7100.91 5237.07,7100.91 "/>
   <polygon class="fil9" points="10525.09,7113.25 10537.45,7113.25 10537.45,7137.97 10549.79,7137.97 10549.79,7496.27 10537.45,7496.27 10537.45,7520.98 10525.09,7520.98 10525.09,7533.33 10698.06,7533.33 10698.06,7520.98 10685.72,7520.98 10685.72,7496.27 10673.36,7496.27 10673.36,7137.97 10685.72,7137.97 10685.72,7113.25 10698.06,7113.25 10698.06,7100.91 10525.09,7100.91 "/>
   <polygon class="fil9" points="10833.98,7002.06 10846.32,7002.06 10846.32,7039.13 10858.68,7039.13 10858.68,7051.49 10871.04,7051.49 10871.04,7063.85 10883.39,7063.85 10883.39,7076.19 10895.74,7088.55 10994.59,7088.55 11019.31,7076.19 11019.31,7063.85 11031.65,7063.85 11031.65,7051.49 11044.01,7051.49 11044.01,7026.78 11056.37,7026.78 11056.37,6977.36 10969.89,6977.36 10969.89,7002.06 10982.25,7002.06 10982.25,7014.42 10969.89,7014.42 10969.89,7026.78 10920.46,7026.78 10920.46,6989.72 10932.81,6989.72 10932.81,6977.36 10833.98,6977.36 "/>
   <polygon class="fil9" points="9697.3,6310.19 9709.64,6310.19 9709.64,6322.54 9722,6322.54 9722,6334.9 9734.36,6334.9 9734.36,6347.24 9746.71,6347.24 9746.71,6359.6 9857.91,6359.6 9857.91,6347.24 9870.27,6347.24 9870.27,6334.9 9882.63,6334.9 9882.63,6322.54 9894.97,6322.54 9894.97,6310.19 9907.33,6310.19 9907.33,6248.4 9820.85,6248.4 9820.85,6260.76 9833.21,6260.76 9833.21,6297.83 9783.78,6297.83 9783.78,6285.48 9771.44,6285.48 9771.44,6260.76 9783.78,6260.76 9783.78,6248.4 9697.3,6248.4 "/>
   <polygon class="fil9" points="7028.57,6409.03 7028.57,6384.31 7115.07,6384.31 7115.07,6396.67 7127.43,6396.67 7127.43,6779.67 7115.07,6779.67 7115.07,6792.03 7102.71,6792.03 7102.71,6804.39 7349.81,6804.39 7349.81,6792.03 7139.77,6792.03 7139.77,6384.31 7399.23,6384.31 7399.23,6446.09 7325.09,6446.09 7325.09,6433.73 7312.75,6433.73 7312.75,6446.09 7238.62,6446.09 7238.62,6520.22 7250.97,6520.22 7250.97,6458.44 7399.23,6458.44 7399.23,6470.8 7411.59,6470.8 7411.59,6371.96 7003.87,6371.96 7003.87,6384.31 7016.23,6384.31 7016.23,6409.03 "/>
  </g>
 </g>
</svg>
