
<svg xmlns="http://www.w3.org/2000/svg" xml:space="preserve" width="1200px" height="667px" version="1.1" style="shape-rendering:geometricPrecision; text-rendering:geometricPrecision; image-rendering:optimizeQuality; fill-rule:evenodd; clip-rule:evenodd" viewBox="0 0 16256 9144">
 <g id="Слой_x0020_1">
  <metadata id="CorelCorpID_0Corel-Layer"/>
  <g id="_1568209952640">
   <path class="fil0" d="M4416.19 6513.76c-13.7,106.03 -145.31,99.03 -257.1,108.34 -25.93,-37.51 -61.81,-127.03 -63.4,-170.22 89.7,4.86 262.22,22.84 320.5,61.88zm717.78 -2885.38c-41.22,214.02 150.09,423.72 168.53,607.86 -119.47,-7.94 -232.73,-96.33 -251.07,-212.4 -22.42,-141.94 29.15,-296.91 -8.85,-416.93 -31.3,-98.88 -99.69,-232.58 -152.16,-313.77 -28.94,-44.76 -52.74,-89.72 -89.15,-137.69 -37.2,-49.02 -84.48,-80.51 -91.55,-122 64.85,-12.02 173.19,-44.45 209.92,-46.9 232.43,416.91 1269.22,551.05 1050.32,1093.16 -53.71,2.09 -44.62,5.57 -84.03,-38.53 -75.08,-83.96 -305.99,-406.42 -479.15,-256.22 11.65,38.55 19.1,45.2 73.49,64.65 279.74,100.03 244.49,220.75 370.31,294.5 44.09,25.83 117.16,56.8 78.9,143.04 -57,24.4 -282.98,20.47 -358.37,12.04 -121.12,-13.55 -124.1,-98.94 -165.04,-204.16 -41.27,-106.1 -68.28,-173.86 -109.06,-264.92 -48.23,-107.68 -78.26,-200.6 -163.04,-201.73zm1777.61 -1148.93l-23.69 39.27c-50.75,-5.28 -56.13,-12.86 -61.46,-68.04l-66.2 -243.79c-18.48,-72.57 -51.97,-166.51 -46.54,-258.87 147.99,-84.13 229.57,-111.27 312.6,-260.75 81.49,-146.72 28.99,-328.28 -53.35,-449.72 -162.53,-239.69 -363.32,-191.44 -497.3,-369.53 -45.21,-60.12 -71.56,-123.98 -135.63,-150.41 -4.01,155.71 -27.5,273.34 -67.72,402.93 -44.46,143.22 -111.5,145.11 -90.95,375.14 9.39,104.91 58.27,268.23 125.1,341.4 105.73,115.76 237.94,105.89 319.69,131.97 14.99,279.4 89.57,645.72 316.3,816.22 317.93,239.07 345.85,295.91 277.93,801.54 -111.7,831.81 -447.18,410.54 -460.53,339.63 -14.52,-77.12 47.91,-140.79 82.4,-186.94 177.14,-236.93 261.52,-79.72 325.93,-380.86 0.98,-4.61 10.66,-55.7 10.76,-57.87l-7.09 -40.22c-0.38,-5.03 -2.35,-6.6 -4.4,-9.39 -75.39,58.87 -62.81,258.3 -199.22,268.82 0.1,-145.38 118.47,-435.85 26.16,-506.75 -47.15,31.82 -32.75,175.91 -65.73,237.87 -56.14,-4.29 -54.46,-15.25 -83.59,-64.03 -65.67,-110.01 -81.68,-246.62 -154.5,-264.39 -4,97.97 28.78,188.07 63.12,266.6 36.96,84.54 77.15,117.21 166.73,160.65 -16.71,110.9 -139.42,283.77 -205.56,327.43 -41.7,-39.03 -35.93,-100.64 -47.06,-176.11l-45.51 -407.04c-10.79,-68.94 -44.53,-117.27 -51.54,-177.44 -12.3,-105.44 99.14,-186.98 62.84,-379.32 -21.73,-115.12 -79.1,-241.79 -198.68,-245.19 10.88,100.61 91.82,142.78 104.02,242.7 -126.38,13.67 -249.28,-176.1 -340.32,-283.38 -32.01,-37.74 -49.32,-80.63 -107.7,-89.15 -6.51,134.11 129.4,235.83 222.94,304.96 239.38,176.89 271.24,330.48 122.95,310.97l-155.92 -64.15c-64.43,-32.51 -121.76,-61.1 -181.85,-109.46 -49.65,-39.95 -244.97,-239.38 -265.71,-310.65 56.62,-83.7 187.28,-169.06 207.33,-359.83 15.23,-145.11 -85.39,-297.44 -176.51,-372.47 -110.29,-90.81 -230.64,-123.26 -391.51,-154.5 -174.15,-33.81 -210.67,-122.17 -342.57,-203.08 5.48,72.47 24.03,126.99 27.83,211.18 15.54,343.07 -76.67,418.19 20.58,632.78 198.82,438.63 438.28,296.52 576.01,301.96 63.96,115.52 208.5,294.63 288.92,362.48 85.47,72.12 154.74,56.77 234.38,99.55 44.92,24.12 133.48,120.29 156.6,163.26 92.35,171.64 81.39,354.08 76.25,569.92 -13.11,549.83 72.6,401.34 76.61,574.78 -290.09,-2.09 -156.23,-167.07 -285.02,-254.46 -64.26,79.98 -21.46,227.33 38.01,293.96 83.33,93.32 152.88,75.23 305.84,85.21 172.19,11.24 135.12,78.64 154.49,229.68 9.65,75.11 97.38,241.92 40.98,302.45 -71.53,65.87 -338.88,-142.24 -388.12,-185.05 -301.13,-261.77 -267.45,-519.94 -177.6,-883.73 44.76,-181.18 59.59,-319.6 59.08,-528.31 -7.89,-4.92 -45.18,-29.24 -60.01,-35.17 -1.81,-0.72 -27.4,-7.89 -29.73,-8.25 -37.39,-5.71 -23.63,-0.7 -31.62,1.36 -22.87,65.22 141.46,670.48 -168.49,557.4 -175.01,-63.88 -88.58,-486.6 -63.01,-615.77 24.54,-124.03 7.4,-369.88 -165.11,-312.81 -3.18,9.63 -4.77,8.34 -1.92,29.28l24.96 53.67c86.66,128.7 99.74,120.95 68.16,273.64 -117.79,-8.14 -145.71,-157.95 -340.02,-217.64 -2.01,47.26 -12.44,49.18 16.35,67.45 47.36,39.54 179.34,163.6 198.55,212.97 12.83,58.86 124.82,159.83 64.09,249.89 -32.52,34.08 -83.3,8.31 -126.71,-14.7 -138.82,-73.6 -230.34,-48.93 -254.71,-248.05 -14.43,-117.85 -92.15,-451.86 -184.02,-485.98 -42.25,73.78 132.31,352.99 119.17,514.06 -134.6,34.05 -185.79,-23.71 -247.36,-90.98 -232.13,-253.65 -112.28,-198.93 -49.22,-390.05 136.25,-412.94 -200.94,-654.98 -660.48,-594.79 -229.17,29.99 -309.68,-125.83 -397.53,-84.23 67.76,75.86 89.72,180.38 119.83,273.8 70.36,218.35 26.4,227.25 65.7,334.08 54.75,148.87 234.01,346.43 419.83,380.46 -9.19,107.3 108.18,234.16 176.29,340.64 40.94,64.01 214.85,264.86 103.26,353.72 -91.66,40.14 -404.81,-92.86 -501.64,-128.45 4.26,-208.99 64.96,-473.09 -310.07,-581.13 -261.27,-75.28 -446.6,70.68 -562.28,84.45 -79.43,9.47 -136.03,-20.39 -197.64,-6.05l-81.82 -12.29c24.48,50.53 39.04,31.06 58.17,97.71 251.33,318.29 136.5,401.38 370.79,579.87 83.06,63.28 225.78,143.89 346.21,138.99 133.76,-5.46 250.19,-90.55 299.99,-168.37 33.66,3.46 411.65,109.96 471.14,163.63 113.27,102.2 112.12,286.82 232.17,393.13 304.68,269.85 973.96,86.98 1045.92,205.08 -37.48,128.67 -401.21,-27.7 -516.2,79.87 10.3,66.23 78.09,82.14 147.99,103.78 49.1,15.2 150.79,34.67 208.95,30.88 157.49,-10.27 255.83,-134.43 374.98,-17 79.15,78 124.49,193.13 207.5,284.33 66.73,73.31 154.67,160.7 233.38,246.81 472.33,516.76 -634.08,904.31 -650.89,492.36 -3.16,-77.46 57.95,-77.68 101.3,-115.66 18.52,-45.96 -1.75,-19.88 37.21,-56.89 20.88,-19.84 23.76,-22.4 56.46,-29.95 79.2,1.56 148.41,20.17 213.82,-18.91 45.13,-27 86.47,-75.31 68.47,-150.99 -75.93,-12.93 -80.56,89.53 -213.98,82.52 -18.65,-88.31 -2.67,-138.21 1.67,-225.91 2.06,-41.43 13.22,-121.58 -36.32,-139 -68.58,-24.1 -19.09,-4.19 -38,2.66 -26.71,16.04 -26.64,8.84 -37.53,58.74 -17.22,78.83 -10.75,165.25 -26.54,249.02 -9.9,52.49 -29.95,88.98 -60.4,126.25 -129.9,158.91 -155.75,29.54 -197.64,-116.93 -62.48,-218.38 79.09,-185.99 194.65,-324.27 24.95,-29.87 39.56,-56.69 38.31,-108.93 -1.03,-43.13 -15.37,-66.88 -40.18,-94.62 -55.58,48.14 -45.72,128.99 -106.49,184.89 -128.1,0.62 -81.07,-120.44 -123.67,-206.62 -50.76,21.31 -66.61,105.89 -39.02,174.19 23.93,59.18 79.6,64.76 61,145.68 -85.08,47.12 -172.43,-61.79 -213.56,-113.94 -104.46,-132.41 -184.25,-333.12 -322.56,-410.41 -50.51,-28.23 -78.95,-32.27 -120.32,-66.04 -43.2,-35.28 -50.94,-58.82 -116.64,-22.06 11.18,30.66 163.01,136.02 202.96,175.09 56.96,55.69 130.36,139.51 178.85,206.89 102.74,142.79 306.5,288.83 246.32,485.23 -176.91,45.42 -285.91,-30.64 -390.54,-113.41 -140.16,-110.87 -138.89,-149.1 -172.51,-359.64 -15.38,-96.25 -45.47,-131.09 -77.12,-202.76 -61.19,-138.54 -124.83,-466.65 -332.03,-459.4 3.01,113.09 170.63,201.9 184.89,349.88 -117.63,-13.21 -170.27,-102.74 -227.17,-183.48 -47.15,-66.91 -106.44,-185.38 -175.05,-204.43l-3.02 166.02c-228.23,30.24 -254.43,-290.18 -451.01,-305.27 -85.04,109.38 34.13,202.06 106.69,253.58 177.31,125.9 403.33,183.76 581.36,297.98l255.61 183.55 -4.78 126.8c-68.03,9.76 -125.84,-79.54 -200.23,-120.52 -155.7,-85.77 -383.9,-68.35 -555.15,-110.92 -153.18,-38.08 -22.01,-162.61 -173.91,-126.27 -19.39,57.88 40.48,161.42 68.72,192 40.07,43.36 127.03,56.44 199.37,69.12 74.96,13.14 384.37,43.36 445.04,102l-61.96 23.5c-128.09,24.97 -373.65,5.9 -488.89,-24.68 -76.71,-20.36 -279.65,-181.95 -356.17,-238.88 5.47,-87.48 48.3,-125.7 35.44,-250.37 -24.34,-235.97 -157.14,-432.97 -437.13,-436.07 -165.42,-1.82 -311.13,84.7 -411.79,168.67 -198.75,165.77 -181.26,84.43 -419.58,158.84 5.41,31.93 32.78,33.77 63.21,50.1 218.89,117.57 353.17,340.62 424.19,387.19 201.57,132.22 490.76,186.84 669.87,-2 68.5,3.05 97.3,24.81 138.6,58.61 169.75,138.89 -16.73,140.9 -126.78,177.9 -95.18,31.99 -134.97,189.89 -0.72,143.4 95.27,-33 11.44,-86.54 235.57,-85.69 67.69,0.27 336.2,10.91 381.36,29.21 -6.7,55.09 -113.59,103.93 -171.56,117.65 -105.1,24.87 -150.41,-7.53 -250.04,39.37 26.79,50.3 102,75.4 175.67,81.35 204.08,16.44 328.23,-170.18 497.59,-244.23 149.36,-65.31 290.84,2.64 378.99,85.43 134.24,126.08 77.84,325.65 -13.55,325.91l-224.63 -115.88c-72.39,-25.04 -179.66,-73.28 -247.78,-10.06 27.9,117.43 312.06,56.41 322.06,199.67 -175.94,127.37 -420.31,-7 -546.68,-37.18 -94.81,-22.66 -174.08,-21.27 -276.82,-56.11 -162.66,-55.17 -122.84,-0.79 -264.1,4.43 -78.23,-143.49 -102.41,-248.03 -237.67,-324.28 -127.71,-72.01 -288.76,-55.7 -428.09,12.31 -126.45,61.72 -200.96,158.27 -282.68,277.7 -119.69,174.89 -196.17,111.36 -317.85,229.63l30.9 13.85c41.37,15.14 -18.42,-5.42 21.36,6.72 381.79,116.54 460.08,261.52 630.15,284.09 267.46,35.53 502.03,-33.86 575.36,-288.07 10.42,-36.1 10.9,-71.71 22.64,-94.96 62.42,-79.35 713.1,137.5 883.15,150.74 -19.23,189.12 -173.76,265.07 -351.18,266.85 -108.36,1.08 -193.05,1.49 -300.07,-14.29 -74.43,-10.99 -209.87,-48.74 -278.36,-5.46 -0.16,110.84 133.15,111.72 217.94,118.41 621.32,48.94 677.04,-160.65 782.58,-169.11 11.88,89.88 -39.9,213.5 -81.5,272.32 -65.44,92.54 -180.79,94.25 -48.07,165.6 102.95,-32.39 144.16,-147.38 184.12,-254.82 78.52,-211.1 2.25,-236.71 -0.89,-375.62 64.02,-45.87 69.17,-49.24 156.21,-83.67 62.51,-24.73 105.78,-40.55 158.16,-66.31 96.85,-47.66 236.13,-98.9 360.86,-51.13 140.39,53.75 197.07,356.24 174.56,506.07 -13.4,89.16 -38.99,103.27 -133.88,101.63 -88.46,-111.39 -121.09,-285.28 -304.15,-287.13 3.5,117.65 185.34,146.76 157.81,275.56 -110.6,34.18 -150.47,-13.24 -275.35,45.59 -77.67,36.6 -123.23,79.07 -118.62,188.85 101.65,1.94 103.87,-90.85 243.44,-130.99 200.7,-57.7 443.65,10.22 207.02,195.01 -60.61,47.34 -110.18,63.21 -196.76,73.03 -212.06,24.04 -748.59,-36.53 -934.97,-120.4 -316.92,-142.59 -221.11,-58.65 -396.37,-15.67 -180.08,-179.97 -392.51,-264.79 -636.52,-65.58 -200.88,164 -175.42,413.65 -328.79,579.04 -26.1,60.22 -18.84,26.97 -55.45,62.51 -29.04,28.23 -5.27,25.88 -58.16,54.36 -33.03,52.73 -8.1,9.41 0.71,27.05 380.55,-53.73 526.15,100.03 741.26,58.63 233.61,-44.95 391.59,-142.88 444.73,-369.36 180.64,-30.34 423.63,-164.24 583.88,-166.05 216.6,-2.42 438.33,46.76 594.21,141.68 -19.32,94.95 -106.51,103.33 -238.18,152.68 -38.37,14.39 -50.94,15.85 -63.88,56.29 3.02,1.82 7.29,3.49 9.65,4.34 35.25,12.53 73.47,22.37 151.75,12.24 168.29,-21.74 174.47,-161.49 257.35,-237.78 45.03,-41.44 141.52,-68.14 210.03,-123.23 65.39,-52.54 100.51,-109.77 157.3,-174.86 121.06,-138.79 230.97,-183.22 453.45,-210.67 185.65,-22.89 452.36,-49.96 607.64,28.22 13.56,83.06 -39.1,125.6 -74.91,195.28 -31.43,61.13 -55.58,129.69 -64.7,201.1 -18.96,148.5 102.78,342.32 -65.89,412.06 -236.55,97.82 -498.73,-85.32 -668.76,-83.86 -44.92,0.39 -75.03,7.47 -112.64,25.08 -48.81,22.82 -54.16,30.21 -62.29,74.55 159.72,-7.14 310.68,53.49 326.09,183.7 -81.28,131.27 -266.55,80.1 -398.66,21.38 -92.9,-41.29 -279.69,-152.66 -398.32,-81.43 -58.09,34.89 -97.66,79.62 -170.11,96.84 -297.85,70.78 -217.94,-140.59 -355.49,-158.81 -71.93,-9.51 -150.95,18.36 -192.14,55.56 -38.44,54.26 -43.56,25.04 -40.2,76.74l80.25 4.6 74.79 -1.13c153.6,269.08 -180.13,150.82 -283.79,239.15 25.44,119.08 224.88,60.55 298.74,32.18 93.51,-35.92 186.68,-71.71 286.28,-97.46 89.96,-23.28 593.3,-161.32 627.31,-0.2 -123.83,36 -212.17,-38.52 -348.29,23.86 -77.07,35.32 -207.47,89.87 -243.66,148.1l166.24 -12.45c53.8,-13.31 112.97,-20.91 168.59,-30.78 121.53,-21.56 219.98,-33.68 347.96,-32.5 3.38,100.4 -107.02,119.02 -185.55,151.61 -171.53,71.2 -341.44,98.54 -515.09,152.39 -69.25,21.46 -212.05,31.12 -226.72,104.52 53.51,55.11 171.3,5.36 233.78,-16.49 298.93,-104.54 488.25,-81.13 671.88,-207.72 65.72,-45.31 96.8,-114.16 197.33,-113.48 54.59,0.36 83.51,19.05 134.26,22.7 79.9,5.76 70.39,-5.03 116.03,-33.22 94.73,-58.52 375.15,-87.63 491.25,-36.22 -10.19,35.92 -103.26,97.93 -131.68,129.19 -44.99,49.44 -80.99,117.03 -50.28,179.9 67.95,72.28 254.9,-252.34 518.95,-259.11 106.77,-2.74 246.63,41.54 349.64,52.04 74.24,7.56 117.85,-11.81 154.4,44.7 30.52,47.15 19.37,70.05 68.52,119.73 52.58,0.9 133.04,-15.45 166.03,-49 67.19,-68.36 -38.24,-180.33 230.83,-159.36 112.22,8.74 73.48,-0.5 124.91,69.24 92.52,125.49 552.7,122.93 608,-20.74 -77.97,-50.37 -257.32,-61.19 -379.42,-59.98 -5.24,-161.59 225.5,-127.85 367.77,-124.73 68.89,1.5 160.19,12.82 237.32,18.23 52.21,3.67 125.9,20.43 184.48,3.3 90.58,-26.46 50.14,-62.84 89.54,-124.83 111.2,-174.92 481.6,211.05 699.47,270.51 158.9,43.37 387.72,21.72 562.66,9 361.5,-26.27 317.91,138.67 445.14,153.27l71.15 -4.35c4.83,-36.1 19.36,-29.51 -55.34,-85.47l-48 -33.72c-22.71,-23.22 -0.14,2.91 -20.09,-29.06 -54.59,-30.14 -191.93,-120.58 -249.49,-131.16 -108.07,-19.88 -263.16,24.29 -379.09,-3.51 -17.22,-117.76 144.5,-108.37 226.96,-138.73 -12.42,-108.99 -253.33,-58.72 -302.39,-14.65 -73.46,65.95 -37.14,234.9 -230.88,183.41 -100.8,-26.78 -189.53,-122.41 -237.53,-190.19 -109.72,-154.88 -162.8,-145.82 -147.36,-249.82 144.7,-87.56 270.7,-8.79 376.78,-74.84 -17.86,-51.55 -63.63,-52.64 -131.05,-52.9 -143.35,-0.6 -395.55,-20.55 -494.47,43.99 -15.69,38.78 6.32,4.02 -21.63,39.73 -5.57,7.1 -9.18,8.88 -20.02,19.58 -53.48,52.91 -99.69,115.51 -157.31,135.89 -521.59,166.26 -713.37,-98.31 -797.73,-628.33 -45.19,-283.8 35.42,-390.5 193.08,-549.14 103.78,-104.41 284.91,-249.66 478.9,-275.56 469.05,-62.62 390.19,601.76 630.82,896.36 61.93,75.8 842.45,541.78 983.24,541.77 115.71,-9.77 57.35,-32.66 5.67,-86.32 -43.25,-62.24 -322.25,-129.78 -364.39,-204.87l64.13 -19.78c132.11,-21.81 305.58,-20.08 425.33,26.85 99.88,39.17 210.08,252.88 298.29,209.91 26.43,-24.03 22.56,-89.96 -18.74,-131.5 -34.46,-34.65 -64.28,-30.96 -84.55,-72.16 36.38,-101.47 268.81,-163.88 402.58,-180.48 5.14,244.54 257.04,406.09 510.69,377.96 127.68,-14.15 231.09,-70.61 334.14,-118.59 133.53,-62.18 291.05,14.23 377.46,-34.87 -0.84,-1.48 -86.22,-71.54 -109.88,-98.55l-185.54 -252.29c-20.45,-45.78 -36.08,-105.31 -68.66,-135.38 -46.47,-34.34 -77.51,-74.15 -117.11,-111.27 -28.17,-43.66 -155.52,-99.45 -218.99,-121.26 -98.39,-33.79 -177.55,-34.01 -267.75,3.19 -209.26,86.27 -229.35,219.78 -266.08,400.87 -81.51,23.86 -179.37,9.87 -271.12,36.39 -101.16,29.24 -120.75,87.84 -188.1,116.05 -91.49,38.29 -110.51,-51.46 -206.95,-73.6 -106.72,-24.49 -735.8,178.74 -945.05,-176.64 -31.87,-54.09 -75.26,-150.6 -71.93,-213.3 60.74,4.67 219.96,118.38 346.91,166.88 150.9,57.63 286.93,58.42 451.61,27.29 251.49,-47.54 184.58,-24.65 415.9,25.31 92.05,19.89 343.41,-42.13 403.31,-90.3 -32.84,-67.36 -249.94,-20.51 -443.72,-46.02 30.94,-96.24 77.28,-43.69 93.47,-113.72 -125.9,-46.57 -355.57,102.4 -503.65,97.76 -11.89,-61.88 55.82,-142.25 89.25,-174.07 158.41,-150.87 533.6,72.77 667.52,-70.11 -70.43,-65.34 -254.55,1.95 -337.67,-38.27 18.31,-48.14 -27.58,-12.43 48.06,-37.32 71.24,-23.46 113.59,10.33 126.83,-74.99 -83.83,-38.13 -348.98,23 -437.25,61.44 -338.05,147.19 -224.24,371.79 -398.19,349.83 -101.1,-12.77 -237.24,-125.54 -312.71,-192.91 -111.37,-99.41 -208.97,-139.31 23.26,-285.92 471.48,-297.65 744.51,-49.34 1188.75,-30.99 109.57,4.53 174.33,-23.16 254.13,35.12 49.75,36.32 106.91,93.03 181.12,67.59 -20.9,-93.81 -118.54,-48.14 -135.29,-159.73 48.25,-52.37 140.12,-70.25 233.02,-67.34 89.39,105.79 89.2,175.05 264.77,215.33 136.5,31.33 285.81,1.46 386.68,-57.18 101.13,-58.77 171.29,-142.88 249.92,-214.61 83.86,-76.5 228.49,-71.16 330.07,-129.12 -26.98,-20 -100.54,-44.94 -139.46,-66.87 -181.21,-102.1 -223.06,-162.58 -341.56,-270.95 -127.25,-116.37 -455.26,-183.04 -641.06,-56.02l-87.92 91.8c-108.84,135.46 -77.44,225.96 -59.73,395.22l-461.2 113.28c-0.79,-114.98 94.24,-95.91 101.06,-208.79 -204.89,-17.21 -164.72,103.42 -253.83,186.42 -183.46,14.16 -233.27,-70.14 -335.23,-90.99 -53.54,-29.48 -52.63,-41.08 -90.73,-67.15l-3.09 -42.92c-24.34,-101.04 16.02,-77.93 30.39,-155.61 20.58,-48.32 44.88,-76.02 93.31,-87.46 256.28,-45.3 390.4,181.36 638.56,172.37 76.14,-2.75 163.12,-26.51 181.02,-85.38 -77.24,-42.96 -306.04,-10.71 -340.9,-79.87 32.86,-47.61 126.11,-18.44 131.86,-118.18 -80.45,-37.93 -197.1,10.83 -305.05,11.02 -96.27,0.14 -237.43,-29.7 -318.2,-14.58 -197.18,36.93 -231.63,220.42 -341.21,327.55 -123.89,121.11 -293.37,131.3 -463.22,216.47 -67.02,33.61 -154.61,106.01 -224.48,110.74 -82.99,5.6 -150.87,-94.98 -157.23,-173.62 60.39,-141.16 316.06,-138.05 461.96,-204.95 144.95,-66.47 299.67,-269.14 310.19,-341.54 28.96,-57.18 46.27,-80.25 106.17,-105.69 38.16,2.09 89.88,-31.41 172.83,-32.7 82.26,-1.27 117.24,4.26 189.39,17.45 106.09,19.37 243.17,69.56 343.1,74.13 166.64,7.63 271.35,-89.74 546.73,-88.32 75.91,0.39 110.07,-7.25 152.76,-40.66 -19.17,-71.66 -147.27,-88.75 -244.92,-74.57 -49.63,7.22 -72.57,28.38 -128.87,42.51 -289.57,72.72 -150.45,-270.94 -146.2,-277.71 42.51,-67.97 129.49,-98.45 240.25,-91.69 114.89,272.4 385.44,455.17 702.74,236.74 114.64,-78.92 173.79,-178.76 247.51,-311.01 80.14,-143.76 204.78,-149.6 304.69,-250.72 -406.52,-25.46 -499.58,-225.31 -755.69,-226.51 -375.65,-1.74 -499.68,142.3 -526.36,458.8 -163.91,15.09 -116.54,54.34 -205.85,55.23 -82.58,-114.94 -33.56,-425.01 -53.72,-499.5 -12.29,-45.39 -11.73,-29.32 -26.14,-44.59 -124.24,23.33 -69.93,232.48 -44.64,328.29 41.15,155.82 53.8,205.77 24.34,373.68 -67.04,382.11 -223.88,321.97 -473.44,155.1 3.82,-72.59 22.93,-108.75 59.95,-157.9 101.99,-11.85 131.99,43.29 211.46,-1.54 -7.1,-96.39 -189.35,-99.31 -284.72,-97.46 -51.41,89.19 -58.96,120.02 -67.98,235.6 -457.07,75.81 -803.43,662.52 -1473.82,572.75 -362.72,-48.57 30.58,-411.76 291.65,-440.01 189.7,-20.52 278.83,51.52 466.61,38.78 105.48,-7.13 301.72,-80.98 306.97,-193.33 -80.21,8.1 -47.92,31.37 -122.87,48.22 18.59,-109.28 71.81,-137.1 67.48,-246.98 -155.3,50.23 -134.04,243 -193.8,296.41 -51.24,31.44 -166.58,32.15 -231.26,-4.98 9.09,-35.28 0.81,-22.93 64.18,-56.3 53.58,-28.21 162.31,-120.06 113.8,-175.82 -42.52,-55.02 -183.12,55.82 -234.59,96.65 -91.09,72.26 -138.95,70.97 -265.95,91.35 -125.59,20.16 -201.37,14.34 -294.46,79.16 -54.7,38.09 -154.01,147.43 -220.49,110.49 -43.42,-22.04 -27.45,-18.44 -53.45,-121.45 -17.3,-68.48 -14.56,-87.55 -67.62,-90.6 -30.57,42.67 -28.08,154.32 -14.15,218.94 20.97,97.23 36.79,91.06 128.23,117.98 63.31,351.76 -613.22,673.4 -496.99,226.65 33.36,-128.19 130.22,-287.62 194.81,-403.48 220.58,-395.72 363.81,-294.45 818.91,-370.96 298.25,-50.13 711.81,-150.24 983.6,-183.58 67.46,-8.29 207.63,-29.01 271.17,-13.6 140.7,34.1 76.87,120.4 177.66,111.59 23.35,-46.77 6.31,-106.2 -15.75,-142.68 -25.11,-41.52 -64.27,-52.19 -109.87,-63.09 -112.16,-26.77 -202.73,-8.74 -298.75,-57.35 -2.92,-99.8 13.98,-90.73 98.24,-109.21 76.07,-16.66 124.28,-11.88 155.03,-63.36 -28.33,-52.33 -191.42,-106.5 -241.62,-38.75l-69.38 61.19c-80.35,69.62 11.98,177.75 -127.3,234.51 -318.84,129.96 -635.45,1.73 -343.3,-437.26 246.36,-370.18 667.32,194.45 1035.18,78.8l53.64 -31.6c-11.69,-44.29 -19.62,-52.64 -70.97,-63.24 -95.29,-19.67 -247.05,11.9 -330.61,-42.34 -109.18,-70.87 -68.27,-298.23 -38.16,-357.2 22.62,-44.31 7.09,-14.7 24.09,-33.54 84.5,33.65 152.36,111.38 217.6,159.21 360.27,264.09 387.25,84.64 522.89,168.06 347.18,213.57 628.34,-61.06 709.76,-415.98 11.23,-48.95 15.24,-103.82 30.4,-145.48 35.64,-97.93 125.5,-134.33 144.86,-202.59l14.87 -46.24 -78.36 5.56c-424.13,34.09 -499,-116.2 -808.25,50.74 -92.46,49.92 -188.82,114.16 -227.36,223.72 -72.19,205.17 20.41,296.93 23.84,370.95 -141.56,26.39 -302.27,-118.66 -396.73,-196.92 -47.18,-39.07 -73.91,-44.4 -75.97,-124.14 9.18,-42.55 14.03,-50.52 61.44,-57.59l238.63 -100.2c75.78,-32.13 176.58,-69.52 199.56,-137.88 -45.26,-24.83 -71.19,-10 -150.57,13.49 -42.09,12.45 -97.25,32.75 -138.71,46.95 -159.6,54.69 -355.74,158.16 -422.37,324.17 -83.98,209.27 27.76,334.67 -103.52,333.92 -27.73,-0.18 -31.32,-4.66 -58.04,-10.58l-302.97 -56.08c-87.08,-99.24 11.97,-308.05 66.4,-386.83 89.28,-129.23 225.95,-147.14 242.52,-253.41 -183.77,-11.21 -300.6,199.44 -378.25,332.26 -94.6,161.86 -146.01,926.18 -418.77,993.88 -106.72,26.49 -180.03,-47.61 -228.99,-115.54 -64.31,-89.26 -55.67,-180.55 -21.05,-276.84 12.98,-44.72 28.96,-60.48 74.68,-72.16 40.26,-7.39 139.73,-81.72 169.67,-106.74 14.41,-34.93 -3.35,-7.4 22.67,-40.59 2.26,-2.89 21.3,-20.99 25.66,-25.64 35.12,-37.63 19.26,-31.49 67.08,-48.88 177.36,-241.13 38,-427.89 254.46,-602.61 74.21,-59.9 203.46,-108.91 294.82,-142.88 82.62,-30.74 212.3,-93.66 272.02,-151.28 66.51,21.05 15.33,-2.4 58.44,38.33 11.53,10.88 20.02,21.7 31.57,33.41 66.65,67.54 192.52,125.4 296.53,144.66 319.93,59.21 538.44,-279.68 510.54,-622.01 -24.55,-301.52 93.44,-274.07 109.46,-439.3 -96.42,66.04 -192.28,86.47 -337.77,123.52 -160.74,40.93 -233.35,-8.3 -380.43,73.25 -73.73,40.88 -193.66,132.79 -244.83,207.25 -130.45,189.83 -55.58,253.08 -58.29,369.37 -72.69,44.15 -415.04,201.86 -508.7,199.84 -9.02,-99.25 35.13,-351.7 -90.44,-359.45 -54.7,98.37 20.94,282.75 -53.52,423.76 -63,119.3 -121.74,130.08 -145.34,318.82 -19.79,158.36 -7.29,246.89 -123.6,345.75 -57.56,48.91 -204.25,161.13 -311.33,141.15 -12.62,-187.47 373.73,-316.38 219.07,-578.57 -62.24,27.45 -72.95,167.26 -104.42,226.65 -33.13,62.48 -89.81,154.61 -175.1,153.84 -34.89,-68.25 -8.3,-107.68 -70.42,-143.78 -93.28,139.72 -0.83,331.25 23.47,484.66 133.31,841.27 -428.77,439.95 -443.2,338.83 -21.93,-153.73 293.26,-109.92 228.52,-320.72 -80.91,-33.23 -345.63,211.95 -326.84,377.36 16.85,148.26 219.84,103.4 -16.21,287.13 -193.6,150.67 -141.42,470.31 -287.18,501.6 -82.02,-118.28 50.06,-366.37 104.96,-578.62 111,-429.13 -64.45,-565.72 40.78,-625.7 111.44,-45.71 225.3,7.4 337.16,-72.69 42.12,-30.15 161.89,-162.28 129.42,-249.32 -43.94,11.8 -67.79,105.5 -144.61,154.63 -66.5,42.54 -189.12,45 -258.17,-2.77 -1.73,-87.38 69.76,-157.7 118.04,-204.71 168.18,-163.76 552.24,-174.14 648,-284.93 5.11,-6.48 27.54,-36.97 28.27,-37.78 20.4,-23.48 9.56,-12.66 34.38,-29.51 58.17,-42.2 54.57,-175.37 75.4,-259.23 25.5,-102.55 74.26,-143.29 153.5,-193.42 219.79,-139.03 261.66,-175.37 253.4,-420.82 167.65,19.13 503.72,135.41 631.51,-277.19 44.34,-143.14 31.65,-254.51 -18.57,-400.79 -17.94,-52.27 -51.3,-115.01 -54.22,-180.5 -4.36,-97.78 27.93,-145.46 16.65,-219.73l0.77 -61.85c-31.23,37.63 -41.02,56.72 -96.46,81.2 -42.21,11.12 -102.73,60.15 -136.26,79.57 -248.09,143.64 -275.75,79.52 -416.02,236.47 -150.87,168.86 -246.82,407.75 -83.75,611.9 51.82,20.27 15.74,-0.92 53.83,37.08 1.12,1.13 19.4,19.43 19.86,19.96 23.14,27.25 -3.07,-13.06 18.17,28.43 -2.18,160.68 -56.08,330.14 -218.09,315.33 -133.89,-51.83 -70.94,-402.32 -186.65,-437.24 -26.26,82.05 11.96,221.55 38.12,310.12l47.36 297.8c-97.75,80.34 -223.18,-323.51 -247.92,-379.65l-93.33 -225.66c-137.74,-307.77 -83.83,-163.13 121.44,-259.81 54.84,-25.83 92.32,-52.68 132.08,-104.22 182.97,-237.16 84.17,-492.85 -73.68,-721.1 -111.35,-161.04 -32.24,-266.99 -96.83,-378.98 -60.5,65.37 -85.08,125.43 -171.35,212.62 -25.17,25.43 -65.61,65.99 -101.99,97.26 -35.78,30.75 -80.83,46.69 -103.62,74.71 -38.49,43.36 -69.62,80.97 -117.42,113.67 -66.53,49.67 -162.14,349.75 -111.37,478.5 106.83,270.94 300.82,247.4 342.47,285.5 23.1,21.13 266.52,654.83 283.86,736.74 34.7,163.87 20.76,304.98 -84.82,397.71 -65.65,57.65 -226.16,151.6 -343.66,151.93 -17.61,-184.27 114.92,-241.74 256.33,-412.71 39.71,-48.03 58.73,-77.69 18.45,-132.85 -37.15,9.84 -248.47,258.26 -285.44,305.32 -149.24,189.84 -72.84,371.7 -229.03,362.17 -43.91,-258.41 110.07,-326.14 213.67,-444.45 55.89,-63.8 78.56,-150.87 93.43,-235.42 9.56,-54.38 16.57,-179.86 -6.88,-233.85 -28.54,-65.65 5.62,-23.38 -38.65,-43.41 -84.08,66.35 -58.61,346.01 -117.14,441.9 -71.48,117.08 -176.42,101.11 -260.82,285.78 -61.94,135.52 -70.45,307.21 -115.9,446.13 -37.83,115.59 -104.61,265.68 -156.21,384.73 -69.02,-2.8 -131.66,-46.54 -132.81,-120.33 -0.81,-52.89 63.25,-106.21 93.31,-142.73 42.11,-51.13 235.32,-217.23 117.18,-299.09 -45.74,23.11 -20.38,4.29 -40.96,53.14l-89.58 158.93c-6.9,55.25 15.19,18.8 -21.71,52.79 -15,13.82 -24.84,13.87 -51.68,18.7 -50.75,-25.02 -60.37,-105.37 -40.01,-163.07 25.75,-73.01 59.51,-65.17 29.46,-154.89 -126.89,-5.18 -154.01,271.99 -147.44,371 25.61,385.32 367.01,380.92 275.7,722.54 -39.08,146.2 -86.5,222.62 -151.56,353.81 -407.87,-49.9 -569.87,-1334.69 0.38,-1566.94 130.21,-53.04 427.01,-176.47 444.14,-317.77 -93.34,-4.04 -98.73,65.64 -190.33,85.26 1.23,-72.19 30.41,-60.7 37.23,-102.32 39.07,-71.33 71,-83.35 117.93,-135.91 41.23,-46.21 77.89,-80.08 122.95,-117.29 70.15,-27.47 227.58,-345.66 201.93,-470.48 -87.8,6.32 -95.7,50.88 -112.35,137.66 -56.28,293.41 -411.09,622.17 -279.38,135.62 49.67,-183.44 217.79,-505.48 207.9,-581.38 -152.49,-1.45 -192.28,338.95 -252.06,375.12 -98.56,20.72 -389.94,-323.43 -385.16,-441.55 183.05,-12.23 353.51,-119.34 415.69,-263.3 90.42,-209.27 -3.75,-379.24 -92.5,-517.81 -38.26,-19.58 -20.19,-6.75 -53.02,-37.67 -14.72,-13.87 -18.11,-18.42 -32.53,-32.93 -27.43,-27.64 -39.55,-38.56 -72.52,-72.71 -18.87,-42.56 -61.52,-50.39 -99.15,-141.58 -20.58,-49.85 -50.73,-137.3 -68.53,-192.23l-31.96 0c-24.39,89 -130.7,293.39 -194.77,364.12 -34.03,37.56 -61.53,59.23 -88.13,96.83 -144.03,203.59 -195.96,641.27 141.46,771.78 75.83,29.34 64.89,12.26 99.9,86.74 87.43,185.96 209.7,346.07 365.36,471.97l55.93 45.52c-27.36,129.94 -53.58,255.1 -87.5,373.79 -18.52,64.84 -85.98,350.03 -164.98,265.13 -20.09,-40.1 11.95,-56.34 38.67,-98.9 64.46,-102.61 91.85,-286.62 6.83,-345.92 -55.55,67.18 0.25,192.61 -43.66,255.58 -19.67,28.22 -0.77,2.64 -22.91,19.57 -47.17,-82.71 5.55,-189.89 -37.98,-285.84 -64.57,-142.25 -110.47,-141.17 -210.77,-425 -25.35,-71.7 -46.08,-185.36 -97.34,-215.84 -2.28,3.28 -4.4,7.76 -5.52,10.67l-11.52 34.7c-7.7,47.54 11.07,102.4 22.25,137.08 17.4,53.97 33.39,112.81 52.38,166.42l118.7 289.71c42.3,140.08 69.93,718.41 -125.4,648.2 -122.01,-95.94 111.46,-638.25 -117.75,-655.69 -13.01,95.64 11.51,300.91 -13.01,358.34 -54.99,2.01 -113.51,-44.02 -151.73,-73.91 -47.2,-36.93 -85.29,-54.35 -117.79,-98.7 99.68,-122.95 276.27,-183.2 167.1,-401.35 -67.45,31.83 -63.9,146.96 -106.41,204.95 -28.36,38.69 -115.46,143.33 -173.98,99.17 -65.53,-72.04 182.64,-398.74 184.42,-567.69 0.86,-83.86 -3.22,-159.29 -32.92,-222.28 -106.68,-13.01 -71.48,46.9 -65.16,115.83 7.41,80.9 -5.58,127.14 -24.55,195.28 -53.85,193.38 -115.21,245.61 -134.49,308.86z"/>
   <path class="fil1" d="M8099.61 2906.77c49.24,-27.93 214.09,-180.78 240.88,-253.2 -45.06,37.21 -81.72,71.08 -122.95,117.29 -46.93,52.56 -78.86,64.58 -117.93,135.91z"/>
   <path class="fil1" d="M5782.99 3186.01c-19.21,-49.37 -151.19,-173.43 -198.55,-212.97 26.46,72.42 150.76,185.9 198.55,212.97z"/>
   <path class="fil1" d="M9110.35 7219.19c57.62,-20.38 103.83,-82.98 157.31,-135.89 10.84,-10.7 14.45,-12.48 20.02,-19.58 27.95,-35.71 5.94,-0.95 21.63,-39.73 -51.93,26.58 -71.55,57.29 -102.73,91.62 -19.22,21.18 -26.68,26.73 -47.52,44.92 -34.36,29.98 -23.78,17.08 -48.71,58.66z"/>
   <path class="fil2" d="M10930.11 7804.99c44.47,22.22 44.05,20.05 98.16,-0.05 7.1,-56.15 -16.47,-69.5 -53.25,-93.2 -41.38,-26.64 -53.31,-42.29 -97.19,-59.35 19.95,31.97 -2.62,5.84 20.09,29.06l48 33.72c74.7,55.96 60.17,49.37 55.34,85.47l-71.15 4.35z"/>
   <path class="fil2" d="M3335.85 3178.12c-19.13,-66.65 -33.69,-47.18 -58.17,-97.71l81.82 12.29c-27.42,-47.81 -78.41,-29.95 -125.32,-19.67l65.59 79.79c3.14,2.55 13.19,10.36 16.25,12.56l19.83 12.74z"/>
   <path class="fil3" d="M10126.05 1255.76c55.44,-24.48 65.23,-43.57 96.46,-81.2l-0.77 61.85c32.57,-12.5 17.45,-58.73 7.28,-88.68 -38.35,15.08 1.63,-8.42 -27.91,14.37 -1.9,1.47 -23.13,22.33 -26.32,25.52 -30.12,30.16 -28.14,30.78 -48.74,68.14z"/>
   <path class="fil1" d="M9389.15 3806.02c47.45,-16.98 94.47,-69.41 115.41,-115.11 -47.82,17.39 -31.96,11.25 -67.08,48.88 -4.36,4.65 -23.4,22.75 -25.66,25.64 -26.02,33.19 -8.26,5.66 -22.67,40.59z"/>
   <path class="fil2" d="M8044.56 1027.45c-44.25,-65.93 -78.76,-70.69 -114.7,-134.1l-43.37 -9.21c32.97,34.15 45.09,45.07 72.52,72.71 14.42,14.51 17.81,19.06 32.53,32.93 32.83,30.92 14.76,18.09 53.02,37.67z"/>
   <path class="fil1" d="M8510 1184.02c47.8,-32.7 78.93,-70.31 117.42,-113.67 -39.06,4.72 -48.07,20.58 -71.52,43.11 -29.64,28.47 -31.75,20.52 -45.9,70.56z"/>
   <path class="fil3" d="M4672.49 7260.77l-80.25 -4.6c-3.36,-51.7 1.76,-22.48 40.2,-76.74 -44.08,15.5 -69.16,33.31 -65.5,84.55 59.07,11.18 57.58,17.08 105.55,-3.21z"/>
   <path class="fil1" d="M10598.66 7204.29c15.92,12.67 9.38,25.54 50.76,11.38 17.86,-6.12 25.72,-21.68 36.29,-36.35 -27.72,-42.97 -28.36,-47.83 -81.38,-61.35 51.68,53.66 110.04,76.55 -5.67,86.32z"/>
   <path class="fil3" d="M2960.36 7038.8c52.89,-28.48 29.12,-26.13 58.16,-54.36 36.61,-35.54 29.35,-2.29 55.45,-62.51 -55.86,31.97 -87.48,59.07 -113.61,116.87z"/>
   <path class="fil2" d="M12185.19 6484.22c-24.71,-64.98 -54.02,-88.85 -117.11,-111.27 39.6,37.12 70.64,76.93 117.11,111.27z"/>
   <path class="fil2" d="M9581.88 2269.17c-21.24,-41.49 4.97,-1.18 -18.17,-28.43 -0.46,-0.53 -18.74,-18.83 -19.86,-19.96 -38.09,-38 -2.01,-16.81 -53.83,-37.08 7.91,51.46 47.75,64.24 91.86,85.47z"/>
   <path class="fil3" d="M12043.96 3010.85l78.36 -5.56 -14.87 46.24c22.18,-14.47 19.27,-4.36 41.98,-36.34 4.22,-5.96 12.35,-25.36 17.45,-36.63l-122.92 32.29z"/>
   <path class="fil1" d="M10202.46 5168.59c37.18,-24.29 28.32,-19.83 57.23,-48.41 29.98,-29.67 24.09,-19.07 48.94,-57.28 -59.9,25.44 -77.21,48.51 -106.17,105.69z"/>
   <path class="fil2" d="M6209.08 5595.82c39.47,-19.17 7.59,2.65 33.34,-19.44l60.33 -67.4c-32.7,7.55 -35.58,10.11 -56.46,29.95 -38.96,37.01 -18.69,10.93 -37.21,56.89z"/>
   <path class="fil2" d="M10599.28 5701.7l-93.82 -110.07 3.09 42.92c38.1,26.07 37.19,37.67 90.73,67.15z"/>
   <path class="fil2" d="M6911.58 2479.45c-26.55,16.46 -19.53,11.04 -50.31,17.42l-26.55 -37.15c-1.84,-2.23 -5.54,-6.02 -8.29,-9.04 5.33,55.18 10.71,62.76 61.46,68.04l23.69 -39.27z"/>
   <path class="fil1" d="M9144.8 3984.92c23.08,-13.06 21.52,-8.15 43.86,-29.47 26.63,-25.43 19.57,-23.59 30.82,-42.69 -45.72,11.68 -61.7,27.44 -74.68,72.16z"/>
   <path class="fil1" d="M7842.04 3679.15c26.84,-4.83 36.68,-4.88 51.68,-18.7 36.9,-33.99 14.81,2.46 21.71,-52.79l-73.39 71.49z"/>
   <path class="fil2" d="M10535.85 5436.02l93.31 -87.46c-48.43,11.44 -72.73,39.14 -93.31,87.46z"/>
   <path class="fil2" d="M11608.21 5306.56l87.92 -91.8c-49.02,18.15 -68.64,38.06 -87.92,91.8z"/>
   <path class="fil1" d="M10559.49 3335.2c22.04,-14.12 8.43,-0.65 33.63,-25.33 3.98,-3.9 20.5,-23.79 27.81,-32.26 -47.41,7.07 -52.26,15.04 -61.44,57.59z"/>
   <path class="fil2" d="M9101.42 3255.38c47.46,-24.36 41.84,-18.1 62.65,-67.29 -24.82,16.85 -13.98,6.03 -34.38,29.51 -0.73,0.81 -23.16,31.3 -28.27,37.78z"/>
   <path class="fil2" d="M10279.37 4140.18l69.38 -61.19c-47.66,17.39 -47.85,15.17 -69.38,61.19z"/>
  </g>
 </g>
 <g id="Слой_x0020_1_0">
  <metadata id="CorelCorpID_1Corel-Layer"/>
  <path class="fil4" d="M4416.19 6513.76c-13.7,106.03 -145.31,99.03 -257.1,108.34 -25.93,-37.51 -61.81,-127.03 -63.4,-170.22 89.7,4.86 262.22,22.84 320.5,61.88zm1154.9 -2214.57c-121.07,-13.58 -124.14,-98.95 -165,-204.2 -41.16,-105.95 -68.33,-174.01 -109.08,-264.91 -48.27,-107.65 -78.25,-200.57 -163.04,-201.7 -39.68,206.02 152.62,449.07 168.53,607.86 -119.36,-7.92 -232.81,-96.33 -251.1,-212.37 -37.57,-238.47 105.72,-319.13 -160.98,-730.73l-180.7 -259.69c44.74,-8.29 75.81,-8.9 118.23,-21.26 52.98,-15.42 38.97,-22.14 91.69,-25.64 119.7,214.71 411.76,337.55 637.71,465.12 187.69,105.96 543.56,303.75 412.61,628.04 -53.68,2.09 -44.64,5.6 -84,-38.56 -75.94,-85.19 -306.42,-406.02 -479.18,-256.19 9.5,31.44 3.1,23.08 26.89,43.14 10.62,8.94 31.94,16.29 46.6,21.51 278.94,99.41 245.48,221.44 370.28,294.53 44.07,25.8 117.22,56.69 78.93,143.01 -56.92,24.35 -283.09,20.5 -358.39,12.04zm1340.49 -1819.74l-23.69 39.27c-50.75,-5.28 -56.13,-12.86 -61.46,-68.04 -13.52,-94.41 -121.18,-358.9 -112.74,-502.66 77,-43.79 126.43,-56.64 184.95,-109.05 193.45,-173.31 226.9,-376.42 74.3,-601.4 -81.23,-119.77 -187.97,-178.04 -329.54,-243.25 -235.47,-108.45 -179.58,-225.66 -303.39,-276.71 -13.04,507.4 -186.31,466.71 -158.64,778.08 9.31,104.74 58.28,268.41 125.07,341.37 106.16,115.94 237.7,105.83 319.69,131.99 10.74,200.09 32.45,296.72 94.33,477.73 57.44,168.02 91.16,240.15 221.98,338.48 318.34,239.24 345.48,295.87 277.87,801.49 -111.09,830.8 -446.99,411.57 -460.51,339.74 -14.51,-77.09 47.97,-140.92 82.45,-186.99 156.7,-209.33 224.19,-108.27 292.33,-268.89l44.42 -169.89c1.36,-29.61 0.23,-12.06 -3.23,-30.67 -0.41,-2.21 -3.44,-4.53 -3.83,-9.52 -0.4,-5.04 -2.46,-6.58 -4.51,-9.37 -75.39,58.87 -62.81,258.3 -199.22,268.82 0.08,-132.41 17.63,-135.59 46.02,-247.17 13.85,-54.43 26.6,-223.89 -19.86,-259.58 -47.15,31.82 -32.75,175.91 -65.73,237.87 -141.99,-10.86 -119.24,-299.42 -238.09,-328.42 -7.25,177.73 71.47,350.45 229.85,427.25 -16.71,110.9 -139.42,283.77 -205.56,327.43 -5.33,-4.99 -23.87,4.18 -35.47,-82.31 -4.42,-32.8 -7.2,-64.3 -11.59,-93.77l-45.48 -407.12c-10.71,-68.92 -44.54,-117.19 -51.62,-177.31 -8.1,-68.88 27.66,-105.89 48.55,-172.85 57.98,-185.81 -17.91,-447 -184.34,-451.74 10.88,100.61 91.82,142.78 104.02,242.7 -186.73,20.19 -328.56,-355.08 -448.02,-372.53 -6.51,134.08 129.4,235.91 222.94,304.93 245.59,181.23 266.71,330.48 122.9,311.07 -64.51,-8.69 -280.1,-127.3 -337.72,-173.68 -49.69,-39.99 -244.97,-239.33 -265.71,-310.65 35.6,-52.62 88.11,-91.58 128.72,-154.09 133.87,-206.08 88.12,-425.14 -97.9,-578.21 -110.16,-90.65 -230.67,-123.33 -391.43,-154.54 -174.52,-33.88 -210.52,-121.99 -342.65,-203.04 5.48,72.4 24.01,127.07 27.85,211.2 13.35,292.35 -39.45,331.9 -29.21,453.25 4.79,56.88 28.33,132.27 49.77,179.49 49.95,110.04 115.01,214.23 197.16,266.73 40.68,25.99 117.06,51.33 180.99,54.73 101.18,5.37 122.13,-22.47 197.86,-19.48 63.99,115.6 208.46,294.53 288.89,362.5 122.96,103.86 272.98,42.94 391.02,262.79 92.34,172 81.33,353.75 76.22,569.92 -13.03,550.07 72.62,401.26 76.63,574.78 -290.05,-2.09 -156.21,-167.07 -285.02,-254.46 -64.24,79.97 -21.5,227.34 38.03,293.94 83.51,93.47 152.72,75.15 305.84,85.22 205.45,13.5 96.89,77.08 197.26,383.56 114.68,350.1 -312.57,30.82 -389.9,-36.49 -461.3,-401.46 -116.9,-734.06 -118.55,-1412.02 -38.56,-24.05 -78.1,-53.25 -121.36,-42.06 -23.36,66.57 141.83,670.86 -168.53,557.4 -174.75,-63.91 -88.77,-486.76 -62.97,-615.79 12.42,-62.18 19.79,-176.89 -7.55,-231.87 -28.33,-56.97 -85.21,-104.85 -157.56,-80.92 -3.12,9.45 -4.92,8.32 -2.08,29.28l25.17 53.69c16.6,24.57 30.17,41.06 49.09,71.64 50.4,81.54 38.58,107.42 19.02,201.98 -139.66,-9.65 -111.97,-147.58 -340.02,-217.64 -1.31,30.71 -4.26,19.11 3.3,48.76 12.3,48.23 -12.89,2.23 13.05,18.69 47.36,39.54 179.34,163.6 198.55,212.97 12.83,58.86 124.82,159.83 64.09,249.89 -32.26,33.82 -87.56,6 -126.66,-14.73 -43.05,-22.83 -66.77,-32.75 -119.5,-51.23 -89.16,-31.25 -122.49,-92.28 -135.23,-196.82 -14.35,-117.79 -92.29,-451.88 -184.05,-485.95 -29.51,51.55 34.36,179.17 55.73,240.66 25.8,74.2 71.2,178.31 63.44,273.4 -134.65,34.07 -185.74,-23.74 -247.36,-90.98 -232.07,-253.33 -112.28,-199.18 -49.22,-390.03 75.72,-229.1 16.88,-416.83 -206.02,-538.83 -286.85,-157 -435.71,16.31 -671.87,-87.47 -53,-23.29 -131.94,-75.55 -180.12,-52.74 61.34,68.69 147.91,321.86 160.64,427.41 9.86,81.62 -4.43,100.68 24.89,180.48 54.7,148.83 234.07,346.44 419.83,380.45 -15.47,180.61 456.28,587.81 279.55,694.36 -75.92,45.78 -407.85,-93.97 -501.64,-128.45 3.41,-167.24 38.17,-253.02 -44.56,-397.34 -120.76,-210.65 -413.5,-240.2 -659.76,-155.48 -52.24,17.99 -116.12,49.98 -167.97,56.16 -79.43,9.47 -136.07,-20.41 -197.7,-6.07l-81.82 -12.29c24.48,50.53 39.04,31.06 58.17,97.71 251.08,317.98 136.94,402.15 370.79,579.86 83.31,63.31 225.55,143.9 346.24,139.01 133.69,-5.42 250.2,-90.62 299.96,-168.38 78.75,8.08 164.96,55.58 254.71,75.78 406.25,91.41 248.52,303.83 448.6,480.98 304.72,269.81 973.98,87.01 1045.92,205.08 -37.48,128.67 -401.21,-27.7 -516.2,79.87 10.32,66.33 78.08,82.03 148.04,103.76 360.44,111.99 426.76,-140.87 583.87,13.92 79.25,78.09 124.47,193.28 207.48,284.31 66.9,73.36 154.66,160.63 233.41,246.84 472.07,516.65 -633.63,904.41 -650.89,492.33 -3.26,-77.37 58.03,-77.76 101.3,-115.66 18.52,-45.96 -1.75,-19.88 37.21,-56.89 20.88,-19.84 23.76,-22.4 56.46,-29.95 87.27,1.72 328.23,23.16 282.29,-169.9 -75.93,-12.93 -80.56,89.53 -213.98,82.52 -16.24,-76.96 51.06,-425.26 -73.56,-365.63 -38.74,18.54 -38.27,69.92 -40.96,111.96 -8.27,128.93 -21.59,252.76 -100.93,347.33 -112.35,133.87 -147.01,-25.85 -179.3,-138.78 -33.77,-118.06 -32.94,-134.13 43.22,-196.86 99.14,-81.67 274.96,-190.77 149.55,-331.01 -55.58,48.14 -45.72,128.99 -106.49,184.89 -128.1,0.62 -81.07,-120.44 -123.67,-206.62 -50.75,21.31 -66.64,105.96 -38.99,174.24 23.92,59.08 79.57,64.74 60.97,145.63 -142.69,79.02 -305.33,-244.2 -361.08,-326.5 -64.24,-94.87 -73.08,-140.92 -175,-197.86 -50.27,-28.1 -79.4,-32.4 -120.4,-65.97 -43.21,-35.38 -50.83,-58.91 -116.6,-22.12 13.95,38.25 162.72,135.76 202.97,175.11 56.84,55.58 130.48,139.6 178.82,206.85 102.73,142.93 306.55,288.72 246.34,485.25 -177.05,45.47 -285.78,-30.68 -390.52,-113.42 -139.96,-110.57 -139.08,-149.28 -172.57,-359.58 -9.74,-61.22 -116.95,-314.42 -147.8,-399.31 -37.4,-102.97 -127.14,-267.6 -261.31,-262.9 3.01,113.09 170.63,201.9 184.89,349.88 -88.66,-9.95 -93.05,-22.74 -137.92,-72.61 -74.72,-83.02 -186.27,-293.62 -264.3,-315.3l-3.02 166.02c-228.23,30.24 -254.43,-290.18 -451.01,-305.27 -88.38,113.65 47.54,216.85 130.49,269.54 91.48,58.11 202.25,117.57 315.84,153.7 103.89,33.06 222.39,116.37 305.15,170.75 131.87,86.63 210.87,102.16 187.4,267.92 -57.81,8.3 -76.63,-25.63 -107.35,-53.96 -97.55,-89.93 -227.09,-111.31 -362.22,-132.47 -91.06,-14.28 -197.94,-23.32 -285.76,-45.06 -153.27,-37.94 -21.99,-162.58 -173.96,-126.22 -20.25,60.47 31.08,151.27 68.69,192.03 84.99,92.1 452.66,89.9 598.75,143.37l37.55 20.82c1.49,-2.63 5.58,4.43 8.14,6.9 -74.65,49.67 -201.46,32.81 -284.08,27.61 -78.52,-4.94 -210.16,-11.64 -276.99,-31.57 -49.3,-14.7 -316.19,-204.73 -346.86,-248.94 46.19,-206.23 63.77,-279.4 -35.91,-472.07 -157.09,-303.64 -555.41,-220.94 -783.87,-26.75 -184.48,156.85 -187.28,82.43 -412.37,152.73 5.85,34.54 -4.73,11.05 26.89,32.1 112.58,74.96 255.31,155.71 353.84,285.89 41.38,54.67 44.66,78.67 106.69,119.3 201.66,132.09 490.68,186.9 669.85,-2 58.12,2.6 231.19,88.5 206.18,163.7 -55.31,66.03 -110.92,44.79 -194.38,72.81 -41.25,13.85 -123.51,89.75 -77.25,133.05 52.78,49.39 99.91,-7.92 132.94,-38.63 70.94,-65.97 490.12,-36.03 560.54,-7.5 -6.24,51.31 -20.74,39.29 -71.13,70.09 -130.96,80.04 -230.15,30.3 -350.47,86.93 26.79,50.3 102,75.37 175.66,81.38 310.92,25.37 510.43,-503.15 876.58,-158.83 134.23,126.25 77.9,325.65 -13.54,325.91 -42.16,-16.36 -64.47,-41.72 -113.97,-66.43 -39.98,-19.97 -69.24,-35.12 -110.66,-49.45 -72.4,-25.01 -179.64,-73.29 -247.78,-10.06 27.9,117.41 312.06,56.44 322.06,199.67 -176.13,127.51 -421.38,-7.25 -546.7,-37.2 -94.79,-22.65 -174.01,-21.28 -276.83,-56.08 -162.91,-55.13 -122.65,-0.81 -264.07,4.42l-9.15 -20c-1.27,-2.88 -3.06,-6.77 -4.45,-9.97 -2.7,-6.24 -8.99,-21.91 -12.43,-29.9 -10.3,-23.97 -12.66,-29.16 -20.9,-45.92 -121.23,-247.07 -355.24,-334.82 -618.82,-206.18 -126.38,61.68 -200.99,158.3 -282.72,277.67 -119.87,175.06 -196.06,111.31 -317.82,229.66 33,25.05 44.33,17.81 82.71,28.55 4.04,1.14 15.04,4.41 19.04,5.58 35.11,10.33 61.11,17.6 90.32,29.8 246.63,102.91 335.84,220.18 490.31,240.76 586.84,78.21 554.5,-327.74 598.03,-383.06 53.36,-67.83 551.26,73.01 660.48,108.24 94.98,30.66 119.17,34.45 222.67,42.5 -19.21,189.06 -173.79,265.17 -351.2,266.83 -141.59,1.34 -500.33,-39.46 -519.36,-37.63l-48.12 12.73c-2.19,-3.35 -7.52,3.02 -10.93,5.17 -0.11,74.89 27.11,78.75 84.99,95.81 145.29,42.81 305.84,26.92 453.66,19.56 311.3,-15.52 369.8,-158.7 461.87,-166.07 11.88,89.91 -39.9,213.49 -81.5,272.34 -65.42,92.52 -180.81,94.22 -48.07,165.58 102.98,-32.4 144.09,-147.35 184.12,-254.78 78.47,-210.51 2.25,-237.11 -0.89,-375.66 84.3,-60.4 217.83,-102.43 314.34,-150 284.49,-140.22 464.68,-89.41 524.47,250.18 30.22,171.66 44.67,309.3 -122.9,306.41 -88.2,-111.06 -126.78,-285.34 -304.15,-287.13 3.5,117.57 185.34,146.78 157.81,275.56 -110.62,34.18 -150.35,-13.22 -275.34,45.61 -77.68,36.55 -123.24,79.06 -118.63,188.83 94.33,1.8 120.62,-95.57 243.48,-130.97 200.66,-57.81 443.68,10.39 206.98,194.98 -176.73,137.83 -491.2,72.46 -694.63,44.4 -199.27,-27.5 -258.09,-11.29 -437.1,-91.76 -317.21,-142.61 -220.81,-58.73 -396.37,-15.67 -193.08,-192.97 -410.95,-249.85 -636.52,-65.59 -200.88,164.1 -175.41,413.66 -328.79,579.05 -26.1,60.22 -18.84,26.97 -55.45,62.51 -29.04,28.23 -5.27,25.88 -58.16,54.36 -11.16,17.82 -6.16,13.3 0.71,27.05 380.75,-53.77 526.76,100.15 741.28,58.63 233.84,-45.25 391.52,-142.71 444.71,-369.36 180.33,-30.29 424.21,-164.4 583.88,-166.04 216.73,-2.2 438.19,46.65 594.21,141.67 -16.14,79.35 -39.68,76.3 -148.77,120.4 -34.54,13.96 -51.84,18.29 -89.41,32.33 -33.18,12.39 -19.39,0.09 -43.13,22.21 -21.84,20.36 -10.47,1.92 -20.75,34.03 3.02,1.82 7.24,3.53 9.6,4.37 37.89,13.56 76.85,21.88 151.81,12.21 168.2,-21.65 174.58,-161.64 257.31,-237.79 44.92,-41.32 141.61,-68.2 210.09,-123.2 65.28,-52.42 100.58,-109.91 157.26,-174.89 120.74,-138.42 231.23,-183.52 453.42,-210.68 185.75,-22.7 452.29,-49.99 607.68,28.24 19.83,121.44 -109.59,163.38 -139.62,396.32 -23.13,179.39 224.41,592.63 -516.45,378.49 -67.41,-19.48 -362.02,-120.07 -393.12,49.4 159.72,-7.14 310.68,53.49 326.09,183.7 -81.28,131.27 -266.58,80.1 -398.69,21.36 -494.79,-219.96 -322.11,-43.23 -568.37,15.46 -67.76,16.14 -177.04,18.42 -222.51,-23.15 -59.32,-54.22 -36.88,-123.04 -132.98,-135.71 -71.94,-9.48 -150.96,18.37 -192.17,55.58 -38.44,54.26 -43.56,25.04 -40.2,76.74l80.25 4.6 74.79 -1.13c153.6,269.08 -180.13,150.82 -283.79,239.15 36.4,170.41 392.02,-15.39 585,-65.28 140.62,-36.35 369.49,-89.08 516.09,-72.6 66.49,7.47 99.29,15.75 111.24,72.4 -123.85,36.02 -212.16,-38.55 -348.26,23.88 -77.13,35.37 -207.44,89.76 -243.69,148.08l22.54 8.92c93.31,20.83 -58.09,0.13 22.47,3.84 27.77,1.27 364.07,-91.02 637.78,-88.49 2.2,65.48 -18.47,73.47 -67.01,99.05 -199.82,105.34 -418.72,138.12 -633.69,204.94 -69.22,21.5 -211.99,31.11 -226.66,104.53 53.55,55.12 171.27,5.32 233.75,-16.51 298.78,-104.36 488.06,-81.15 671.9,-207.68 65.79,-45.3 96.77,-114.21 197.37,-113.52 124.08,0.84 126.01,66.38 250.2,-10.56 94.54,-58.57 375.46,-87.45 491.31,-36.16 -10.19,35.92 -103.26,97.93 -131.68,129.19 -65.55,72.05 -164.38,366.33 185.03,37.87 68.26,-64.16 168.47,-114.14 283.62,-117.1 106.71,-2.73 246.66,41.57 349.6,52.12 74.11,7.59 117.96,-11.95 154.48,44.6 30.5,47.23 19.34,70.09 68.5,119.77 52.61,0.9 132.96,-15.47 166.03,-48.94 66.97,-67.79 -38,-180.5 230.86,-159.4 112.3,8.8 73.42,-0.68 124.8,69.27 92.29,125.63 552.88,122.66 608.08,-20.79 -52.62,-34 -101.41,-35.83 -184.15,-44.4 -73.61,-7.62 -113.71,-16.38 -195.27,-15.58 -8.38,-258.73 664.66,-39.84 811.14,-108.53 90.92,-42.62 15.08,-162.95 155.32,-162.64 94.68,0.22 235.56,96.58 290.97,132.58 64.65,42.01 185.38,137.05 269.28,165.7 259.57,88.59 498.11,-0.74 783.82,32.34 206.29,23.88 148.61,130.68 275.85,145.3l71.15 -4.35c4.83,-36.1 19.36,-29.51 -55.34,-85.47l-48 -33.72c-22.71,-23.22 -0.14,2.91 -20.09,-29.06 -54.43,-30.04 -192.14,-120.68 -249.46,-131.21 -108.04,-19.83 -263.19,24.34 -379.12,-3.46 -17.22,-117.76 144.5,-108.37 226.96,-138.73 -12.42,-109.03 -253.31,-58.69 -302.39,-14.67 -73.43,65.81 -37.16,235.03 -230.91,183.43 -100.67,-26.81 -189.61,-122.4 -237.5,-190.18 -109.68,-155.19 -162.85,-145.56 -147.36,-249.83 144.7,-87.56 270.7,-8.79 376.78,-74.84 -17.88,-51.57 -63.65,-52.64 -131.08,-52.89 -143.43,-0.53 -395.39,-20.66 -494.44,43.98 -15.69,38.78 6.32,4.02 -21.63,39.73 -5.57,7.1 -9.18,8.88 -20.02,19.58 -53.48,52.91 -99.69,115.51 -157.31,135.89 -184.84,58.93 -408.03,100.09 -581.34,-71.13 -129.55,-127.99 -180.36,-332.15 -216.44,-557.14 -45.45,-283.46 35.84,-390.96 193.14,-549.2 103.86,-104.5 284.74,-249.57 478.93,-275.54 265.32,-35.5 348.29,150.1 408.85,345.03 55.87,179.9 107.6,410.99 221.93,551.33 61.66,75.68 842.54,541.76 983.24,541.75 115.71,-9.77 57.35,-32.66 5.67,-86.32 -43.25,-62.24 -322.25,-129.78 -364.39,-204.87l20.36 -9.21c52.14,-17.99 183.23,-25.6 235.09,-24.61 74.68,1.43 177.19,18.66 234.03,40.91 89.39,34.96 295.54,344.96 313.35,164.81 1.56,-15.88 0.83,-20.45 -2.72,-35.25 -16.81,-69.88 -91.42,-74.09 -115.65,-123.33 36.38,-101.47 268.81,-163.88 402.58,-180.48 5.14,244.38 257.13,406.31 510.74,377.96 127.65,-14.26 231.04,-70.58 334.09,-118.59 133.55,-62.21 291,14.24 377.46,-34.87 -0.84,-1.5 -86.24,-71.52 -109.88,-98.53 -30.55,-34.86 -62.62,-77.4 -93.33,-119 -32.14,-43.54 -68.89,-80.97 -92.21,-133.29 -20.41,-45.79 -36.08,-105.34 -68.66,-135.4 -46.47,-34.34 -77.51,-74.15 -117.11,-111.27 -34.53,-53.5 -289.13,-199.43 -486.72,-118.08 -67.28,27.7 -144.3,79.85 -186.2,145.66 -53.97,84.77 -56.27,138.65 -79.9,255.22 -81.47,23.85 -179.31,9.93 -271.14,36.42 -101.07,29.14 -120.62,87.68 -188,116 -91.31,38.36 -110.72,-51.4 -207.01,-73.59 -103.22,-23.79 -518.45,118.11 -784.22,-30.27 -133.6,-74.57 -239.49,-233.36 -232.78,-359.66 60.9,4.69 219.83,118.39 346.94,166.88 151.33,57.71 286.44,58.36 451.54,27.26 297.43,-56.07 176.56,-26.51 415.92,25.36 91.99,19.93 343.51,-42.2 403.33,-90.32 -32.84,-67.34 -249.99,-20.51 -443.72,-46.02 28.82,-89.63 77.94,-46.52 93.47,-113.72 -125.9,-46.57 -355.57,102.4 -503.65,97.76 -11.47,-59.68 73.76,-258.45 305.98,-227.18 125.96,16.95 370.66,68.5 450.79,-17 -70.43,-65.34 -254.55,1.95 -337.67,-38.27 18.16,-47.71 -27.53,-12.76 48.03,-37.37 71.94,-23.42 113.65,10.16 126.86,-74.94 -87.26,-39.69 -537.3,-4.33 -701.6,302.11 -35.34,65.91 -34.65,121.75 -133.85,109.14 -101.05,-12.83 -237.31,-125.49 -312.68,-192.89 -119.8,-107.13 -169.66,-121.86 -59.48,-221.84 428.38,-388.74 908.92,-109.82 1271.44,-95.05 109.6,4.46 174.36,-23.16 254.16,35.1 49.75,36.32 106.93,93.02 181.12,67.59 -21.08,-94.66 -118.36,-46.94 -135.29,-159.73 48.25,-52.37 140.12,-70.25 233.02,-67.34 89.25,105.62 89.41,175.25 264.82,215.33 136.59,31.19 285.65,1.49 386.63,-57.17 101.1,-58.72 171.37,-142.86 249.92,-214.62 83.69,-76.45 228.55,-71.2 330.07,-129.12 -26.95,-19.98 -100.56,-44.95 -139.46,-66.85 -180.94,-101.91 -223.26,-162.74 -341.57,-270.99 -127.22,-116.39 -455.25,-183.02 -641.05,-56l-87.92 91.8c-124.39,154.8 -70.87,288.75 -59.73,395.22l-118.81 32.36c-95.19,21.27 -285.82,81.67 -342.39,80.92 -0.79,-114.98 94.24,-95.91 101.06,-208.79 -204.89,-17.21 -164.72,103.42 -253.83,186.42 -183.46,14.16 -233.27,-70.14 -335.23,-90.99 -53.54,-29.48 -52.63,-41.08 -90.73,-67.15l-3.09 -42.92c-24.34,-101.04 16.02,-77.93 30.39,-155.61 20.58,-48.32 44.88,-76.02 93.31,-87.46 177.73,-31.42 278.62,59.99 406.06,115.24 133.33,57.81 374.72,99.38 413.52,-28.25 -77.24,-42.96 -306.04,-10.71 -340.9,-79.87 32.86,-47.61 126.11,-18.44 131.86,-118.18 -80.45,-37.93 -197.13,10.83 -305.07,11.03 -96.29,0.19 -237.41,-29.76 -318.22,-14.59 -197.22,37.01 -231.56,220.41 -341.17,327.55 -124,121.21 -293.36,131.22 -463.25,216.48 -66.87,33.55 -154.72,106.03 -224.4,110.78 -83,5.64 -150.92,-95.09 -157.28,-173.67 60.4,-141.21 316.04,-138.02 461.94,-204.95 144.96,-66.47 299.69,-269.16 310.21,-341.54 28.96,-57.18 46.27,-80.25 106.17,-105.69 38.32,2.11 89.73,-31.46 172.85,-32.67 230.26,-3.38 379.62,84.67 532.44,91.55 157.33,7.08 205.94,-53.52 346.32,-69.93 145.92,-17.07 287.04,-7.29 353.2,-59.05 -19.17,-71.69 -147.3,-88.74 -244.98,-74.6 -66.11,9.56 -141.26,69.9 -237.97,49.84 -105.23,-21.81 -145.22,-397.97 203.21,-376.7 130.91,310.38 418.8,432.56 702.72,236.72 114.63,-79.08 173.84,-178.61 247.55,-310.99 79.97,-143.69 204.81,-149.64 304.67,-250.72 -406.19,-25.42 -499.74,-225.28 -755.69,-226.54 -375.6,-1.84 -499.69,142.47 -526.36,458.83 -164.39,15.13 -116.37,54.34 -205.85,55.23 -100.63,-140.05 1.62,-457.78 -79.86,-544.09 -124.27,23.33 -69.9,232.5 -44.62,328.32 41.06,155.68 53.88,205.87 24.32,373.67 -67.31,382.04 -223.6,322.14 -473.44,155.08 3.82,-72.59 22.93,-108.75 59.95,-157.9 101.99,-11.85 131.99,43.29 211.46,-1.54 -7.1,-96.39 -189.35,-99.31 -284.72,-97.46 -51.41,89.19 -58.96,120.02 -67.98,235.6 -236.68,39.25 -484.08,235.28 -669.24,359.12 -480.66,321.53 -1208.82,292.38 -855.28,-58.35 360.85,-357.97 652.81,-4.15 998.32,-188 62.1,-33.06 114.17,-60.78 117.61,-134.58 -80.21,8.1 -47.92,31.37 -122.87,48.22 18.59,-109.28 71.81,-137.1 67.48,-246.98 -128.65,41.62 -137.34,182.83 -181.46,296.41 -57.26,26.24 -174.8,34.52 -243.6,-4.98 10.03,-38.95 -1.98,-15.63 29.67,-38.81 41.95,-30.72 101.05,-27.87 147.58,-130.93 50.75,-112.35 -66.86,-98.36 -233.83,34.27 -175.93,139.79 -393.99,54.58 -560.39,170.51 -54.69,38.11 -154.11,147.41 -220.54,110.49 -30.47,-15.47 -15.64,31.26 -50.65,-110.44 -4.78,-19.33 -9.94,-44.79 -17.67,-61.63 -25.55,-55.64 6.85,-20.14 -39.45,-44.23 -39.4,26.67 -34.09,33.1 -34.65,96.41 -0.35,38.11 -0.49,91.5 7.17,126.83 21.05,97.19 36.82,91.01 128.26,117.93 28.5,158.33 -119.65,324.63 -207.2,382.88 -55.88,37.18 -142.68,74.8 -236.16,49.6 -200.46,-54.04 92.84,-522.57 141.18,-609.26 221.1,-396.49 364.12,-294.13 818.86,-371.05 296.07,-50.09 715.06,-150.67 983.57,-183.59 514.25,-63.06 294.51,111.52 448.91,98.04 23.38,-46.83 6.29,-106.12 -15.77,-142.71 -62.43,-103.56 -277.98,-54.28 -408.6,-120.41 -5.45,-186.35 183.98,-56.54 253.27,-172.57 -28.33,-52.33 -191.42,-106.5 -241.62,-38.75l-69.38 61.19c-80.4,69.66 12.06,177.74 -127.34,234.49 -82.4,33.55 -222.72,52.53 -312.07,37.7 -259.79,-43.09 -104.41,-364.93 -31.16,-474.91 137.41,-206.37 328.98,-124.47 515.08,-35.64 112.48,53.67 446.16,208.86 573.71,82.81 -19.95,-75.52 -84.19,-69.79 -189.64,-70.89 -71.07,-0.74 -156.65,1.19 -211.91,-34.7 -110.15,-71.57 -76.57,-321.5 -14.1,-390.73 84.63,33.7 152.22,111.38 217.6,159.21 361.64,264.5 386.95,84.36 522.87,168.08 73.58,45.33 165.85,92.1 280.31,72.04 410.77,-72.06 422.62,-531.37 459.85,-633.55 35.66,-97.86 125.54,-134.36 144.88,-202.56l14.87 -46.24 -78.36 5.56c-193.38,15.54 -264.96,7.2 -434.08,-23.93 -214.09,-39.41 -535.43,110.31 -601.54,298.38 -22.77,64.77 -32.53,131.31 -23.07,206.35 7.57,60.01 44.64,115.41 46.92,164.61 -100.21,18.69 -221.6,-57.69 -287.68,-107.32 -45.33,-34.06 -63.52,-51.82 -109.03,-89.6 -47.19,-39.18 -73.93,-44.29 -75.99,-124.14 9.18,-42.55 14.03,-50.52 61.44,-57.59 39.23,-10.47 78.85,-38.1 111.88,-52.48 87.51,-38.13 294.51,-90.99 326.31,-185.6l-20.31 -7.06c-2.89,-0.57 -7.06,-1.82 -10.3,-2.22l-43.17 2.69c-134.19,23.27 -358.1,119.62 -465.75,191.61 -327.47,218.99 -130.41,510.74 -252.94,531.86 -35.72,6.16 -51.06,-2.43 -80.73,-8.98 -271.25,-60.03 -337.72,-0.22 -333.67,-161.8 8.89,-353.14 319.46,-405.2 339.61,-534.47 -187.61,-11.44 -298.19,195.77 -378.23,332.27 -77.8,132.67 -93.49,391.39 -144.87,559.36 -45.84,149.89 -142.12,401.82 -273.94,434.52 -131.7,32.67 -344.67,-129.21 -250.02,-392.39 12.98,-44.72 28.96,-60.48 74.68,-72.16 40.26,-7.39 139.73,-81.72 169.67,-106.74 14.41,-34.93 -3.35,-7.4 22.67,-40.59 2.26,-2.89 21.3,-20.99 25.66,-25.64 35.12,-37.63 19.26,-31.49 67.08,-48.88 63.71,-86.61 89.7,-183.46 113.86,-315.62 29.53,-161.56 23.54,-192.45 140.59,-286.99 73.94,-59.73 203.72,-109.1 294.85,-142.87 82.4,-30.54 212.5,-93.87 272,-151.29 95.75,30.31 118.92,166.64 386.53,216.35 319.75,59.41 538.46,-279.55 510.59,-622.02 -24.56,-301.54 93.42,-274.15 109.42,-439.24 -246.16,168.58 -562.2,110.44 -718.21,196.76 -414.89,229.55 -300.48,463.57 -303.11,576.63 -72.69,44.15 -415.04,201.86 -508.7,199.84 -9.02,-99.25 35.13,-351.7 -90.44,-359.45 -54.69,98.36 20.91,282.73 -53.51,423.73 -62.88,119.12 -121.91,130.3 -145.32,318.84 -19.63,158.18 -7.53,247.08 -123.62,345.77 -57.52,48.9 -204.29,161.12 -311.34,141.14 -12.7,-188.84 372.36,-318.69 219.07,-578.57 -80.79,35.64 -90.56,382.2 -279.52,380.49 -40.71,-79.65 -3.16,-104.71 -70.42,-143.78 -93.39,139.88 -0.75,331.14 23.52,484.58 18.68,118.2 49.46,424.23 -55.55,493.41 -125.05,82.36 -373.94,-58.41 -387.75,-154.47 -22.09,-153.62 293.31,-109.95 228.57,-320.75 -80.92,-33.23 -345.59,211.92 -326.84,377.41 16.75,148.05 219.9,103.45 -16.23,287.07 -114.66,89.17 -133.64,212.9 -178.62,354.06 -11.24,35.26 -21.43,62.41 -39.48,91.92 -26.75,43.73 -25.13,46.19 -69.06,55.63 -64.43,-92.9 -14.14,-189.52 16.44,-290.67 27.49,-90.95 63.77,-192 88.52,-287.98 110.84,-429.82 -64.35,-565.76 40.78,-625.67 111.34,-45.66 225.53,7.37 337.21,-72.66 42.05,-30.13 161.82,-162.34 129.37,-249.35 -43.91,11.78 -67.76,105.42 -144.62,154.61 -66.52,42.58 -189.11,45.02 -258.16,-2.75 -1.73,-87.43 69.79,-157.66 118.06,-204.7 168.02,-163.74 552.2,-174.13 647.98,-284.94 5.11,-6.48 27.54,-36.97 28.27,-37.78 20.4,-23.48 9.56,-12.66 34.38,-29.51 113.09,-82.06 -25.94,-291.58 228.88,-452.64 220.05,-139.06 261.68,-175.72 253.42,-420.83 153.42,17.51 267.94,74.7 423.13,-8.13 229.67,-122.54 278.31,-412.28 189.81,-669.88 -115.79,-337.05 -12.31,-233.91 -37.57,-400.2l0.77 -61.85c-31.23,37.63 -41.02,56.72 -96.46,81.2 -42.42,11.16 -102.55,60.14 -136.23,79.58 -248.22,143.39 -276.01,79.84 -416.05,236.46 -150.92,168.78 -246.77,407.82 -83.75,611.9 51.82,20.27 15.74,-0.92 53.83,37.08 1.12,1.13 19.4,19.43 19.86,19.96 23.14,27.25 -3.07,-13.06 18.17,28.43 -1.07,79.33 -15.62,174.31 -46.68,222.79 -30.56,47.69 -88.23,100.14 -171.41,92.54 -80.15,-31.02 -104.98,-249.24 -127.18,-347.59 -13.03,-57.67 -12.67,-75.53 -59.47,-89.65 -41.82,130.65 85.9,440.15 97.54,535.6l-12.06 72.32c-101.61,83.52 -247.39,-383.66 -292.76,-494.44 -25.94,-63.37 -141.08,-288.36 -122.98,-309.77 33.96,-40.2 210.39,-12.69 328.01,-165.16 183.08,-237.35 84.13,-492.68 -73.68,-721.09 -123.21,-178.36 -28.88,-261.14 -96.83,-378.96 -33.71,36.43 -49.52,74.36 -82.51,114.94l-190.83 194.96c-35.8,30.78 -80.78,46.63 -103.62,74.69 -38.49,43.36 -69.62,80.97 -117.42,113.67 -66.47,49.6 -162.23,349.89 -111.37,478.53 107.22,271.25 300.68,247.23 342.47,285.47 35.28,55.32 52.95,128.57 76.91,187.43 114.96,282.45 360.43,738.13 122.15,947 -65.8,57.69 -226.07,151.62 -343.68,151.95 -26.43,-276.47 387.62,-391.02 274.78,-545.56 -45.27,11.99 -115.28,114.75 -147.15,149.35 -110.47,119.96 -198.4,197.1 -236.89,364.58 -18.5,80.53 -36.66,159.28 -130.43,153.56 -64.09,-377.25 235.28,-274.68 307.1,-679.85 9.7,-54.75 11.42,-114.05 6.32,-169.8 -11.22,-123.24 -42.81,-103.37 -51.85,-107.48 -84.05,66.34 -58.66,346.05 -117.13,441.93 -34.65,56.84 -100.65,90.42 -149.8,131.42 -169.72,141.57 -165.06,411.23 -226.93,600.47 -21.71,66.4 -51.44,132.7 -78.28,197.94 -22.87,55.64 -55.06,134 -77.93,186.78 -68.99,-2.8 -131.67,-46.55 -132.85,-120.32 -1.73,-108.53 368.32,-332.5 210.53,-441.83 -45.53,23.01 -20.49,4.21 -40.92,53.15 -9.8,23.46 -12.53,35.16 -24.81,57.65 -18.81,34.44 -45.22,71.68 -64.81,101.27 -6.9,55.25 15.19,18.8 -21.71,52.79 -15,13.82 -24.84,13.87 -51.68,18.7 -35.01,-17.26 -38.68,-30.05 -46.14,-72.98 -24.15,-138.81 77.57,-119.6 35.59,-244.98 -53.99,-2.2 -61.02,3.09 -80.78,46.66 -48.74,107.43 -74.77,201.95 -66.66,324.36 25.53,385.22 366.86,380.63 275.7,722.47 -38.99,146.17 -86.53,222.74 -151.56,353.86 -162.83,-19.92 -294.94,-282.43 -329.71,-441.13 -78.16,-356.94 -61.94,-966.46 330.07,-1125.81 130.21,-52.92 427.03,-176.57 444.16,-317.77 -93.34,-4.04 -98.73,65.64 -190.33,85.26 1.23,-72.19 30.41,-60.7 37.23,-102.32 39.07,-71.33 71,-83.35 117.93,-135.91 41.23,-46.21 77.89,-80.08 122.95,-117.29 70.15,-27.47 227.58,-345.66 201.93,-470.48 -87.84,6.32 -95.7,50.89 -112.33,137.68 -22.75,118.67 -113.43,299 -218.3,366.93 -1.82,1.2 -32.8,14.34 -35.34,14.56 -30.3,2.69 -34.5,14.48 -46.76,-38.53 -51.46,-222.52 244.84,-666.4 228.9,-788.74 -63.47,-0.6 -66.46,3.24 -94.73,50.07 -166.43,275.62 -95.05,496.52 -394.53,146.55 -34.98,-40.88 -150.72,-194.61 -147.96,-263.05 183.04,-12.23 353.54,-119.33 415.68,-263.34 90.37,-209.4 -3.65,-379.09 -92.49,-517.77 -38.26,-19.58 -20.19,-6.75 -53.02,-37.67 -14.72,-13.87 -18.11,-18.42 -32.53,-32.93 -27.43,-27.64 -39.55,-38.56 -72.52,-72.71 -18.84,-42.51 -61.45,-50.41 -99.13,-141.56 -20.57,-49.71 -50.77,-137.41 -68.55,-192.25l-31.96 0c-27.97,102.08 -71.99,168.01 -120.23,252.64 -24.08,42.27 -41.08,74.61 -74.54,111.5 -34.03,37.53 -61.56,59.19 -88.12,96.78 -121.8,172.41 -140.98,459.71 -62.04,602.96 37.28,67.66 127.18,139.48 203.45,168.9 75.92,29.27 64.93,12.17 99.93,86.74 50.98,108.63 142.53,255.23 221.69,337.23l199.61 180.21c-14.73,70.01 -123.45,629.76 -210.36,649.06 -109.26,24.26 -3.52,-108.85 -3.41,-109.03 64.31,-102.41 91.91,-286.56 6.79,-345.93 -48.84,59.07 -12.49,161.51 -30.41,228.8 -6.08,22.83 -0.55,8.84 -13.14,26.86 -19.48,27.86 -1.15,2.76 -23.02,19.49 -47.2,-82.77 5.61,-190.14 -37.98,-285.87 -24.61,-54.04 -86.92,-140.49 -116.79,-199.92 -30.09,-59.9 -69.54,-155.76 -94,-225.02 -21.51,-60.9 -40.06,-181.82 -97.32,-215.87l-10.61 21.54c-27.84,86.73 8.1,-67.48 -6.56,23.74 -10.47,65.19 54.01,245.07 74.76,303.62l118.72 289.69c42.28,140.07 69.91,718.4 -125.42,648.19 -122.01,-95.94 111.46,-638.25 -117.75,-655.69 -13.01,95.64 11.51,300.91 -13.01,358.34 -72.33,2.66 -241.82,-134.8 -269.52,-172.61 99.68,-122.95 276.27,-183.2 167.1,-401.35 -67.55,31.88 -63.8,146.98 -106.36,204.95 -21.23,28.89 -88,101.84 -131.3,108.9 -113.2,18.49 -23.24,-152.06 -0.91,-200.83 58.2,-127.22 141.56,-272.19 142.57,-376.6 0.81,-83.94 -3.15,-159.19 -32.89,-222.27 -106.79,-13.03 -71.33,46.87 -65.11,115.78 7.31,81.03 -5.63,127.1 -24.59,195.33 -15.89,57.18 -37.21,117.68 -60.64,167.55 -23.25,49.49 -60.46,97.4 -73.86,141.31z"/>
  
  <path class="fil5" d="M4159.09 6622.1c111.79,-9.31 243.4,-2.31 257.1,-108.34 -58.28,-39.04 -230.8,-57.02 -320.5,-61.88 1.59,43.19 37.47,132.71 63.4,170.22z"/>
  <path class="fil6" d="M8099.61 2906.77c49.24,-27.93 214.09,-180.78 240.88,-253.2 -45.06,37.21 -81.72,71.08 -122.95,117.29 -46.93,52.56 -78.86,64.58 -117.93,135.91z"/>
  <path class="fil6" d="M5782.99 3186.01c-19.21,-49.37 -151.19,-173.43 -198.55,-212.97 26.46,72.42 150.76,185.9 198.55,212.97z"/>
  <path class="fil6" d="M9110.35 7219.19c57.62,-20.38 103.83,-82.98 157.31,-135.89 10.84,-10.7 14.45,-12.48 20.02,-19.58 27.95,-35.71 5.94,-0.95 21.63,-39.73 -51.93,26.58 -71.55,57.29 -102.73,91.62 -19.22,21.18 -26.68,26.73 -47.52,44.92 -34.36,29.98 -23.78,17.08 -48.71,58.66z"/>
  <path class="fil7" d="M10930.11 7804.99c44.47,22.22 44.05,20.05 98.16,-0.05 7.1,-56.15 -16.47,-69.5 -53.25,-93.2 -41.38,-26.64 -53.31,-42.29 -97.19,-59.35 19.95,31.97 -2.62,5.84 20.09,29.06l48 33.72c74.7,55.96 60.17,49.37 55.34,85.47l-71.15 4.35z"/>
  <path class="fil7" d="M3335.85 3178.12c-19.13,-66.65 -33.69,-47.18 -58.17,-97.71l81.82 12.29c-27.42,-47.81 -78.41,-29.95 -125.32,-19.67l65.59 79.79c3.14,2.55 13.19,10.36 16.25,12.56l19.83 12.74z"/>
  <path class="fil8" d="M10126.05 1255.76c55.44,-24.48 65.23,-43.57 96.46,-81.2l-0.77 61.85c32.57,-12.5 17.45,-58.73 7.28,-88.68 -38.35,15.08 1.63,-8.42 -27.91,14.37 -1.9,1.47 -23.13,22.33 -26.32,25.52 -30.12,30.16 -28.14,30.78 -48.74,68.14z"/>
  <path class="fil6" d="M9389.15 3806.02c47.45,-16.98 94.47,-69.41 115.41,-115.11 -47.82,17.39 -31.96,11.25 -67.08,48.88 -4.36,4.65 -23.4,22.75 -25.66,25.64 -26.02,33.19 -8.26,5.66 -22.67,40.59z"/>
  <path class="fil7" d="M8044.56 1027.45c-44.25,-65.93 -78.76,-70.69 -114.7,-134.1l-43.37 -9.21c32.97,34.15 45.09,45.07 72.52,72.71 14.42,14.51 17.81,19.06 32.53,32.93 32.83,30.92 14.76,18.09 53.02,37.67z"/>
  <path class="fil6" d="M8510 1184.02c47.8,-32.7 78.93,-70.31 117.42,-113.67 -39.06,4.72 -48.07,20.58 -71.52,43.11 -29.64,28.47 -31.75,20.52 -45.9,70.56z"/>
  <path class="fil8" d="M4672.49 7260.77l-80.25 -4.6c-3.36,-51.7 1.76,-22.48 40.2,-76.74 -44.08,15.5 -69.16,33.31 -65.5,84.55 59.07,11.18 57.58,17.08 105.55,-3.21z"/>
  <path class="fil6" d="M10598.66 7204.29c15.92,12.67 9.38,25.54 50.76,11.38 17.86,-6.12 25.72,-21.68 36.29,-36.35 -27.72,-42.97 -28.36,-47.83 -81.38,-61.35 51.68,53.66 110.04,76.55 -5.67,86.32z"/>
  <path class="fil8" d="M2960.36 7038.8c52.89,-28.48 29.12,-26.13 58.16,-54.36 36.61,-35.54 29.35,-2.29 55.45,-62.51 -55.86,31.97 -87.48,59.07 -113.61,116.87z"/>
  <path class="fil7" d="M12185.19 6484.22c-24.71,-64.98 -54.02,-88.85 -117.11,-111.27 39.6,37.12 70.64,76.93 117.11,111.27z"/>
  <path class="fil7" d="M9581.88 2269.17c-21.24,-41.49 4.97,-1.18 -18.17,-28.43 -0.46,-0.53 -18.74,-18.83 -19.86,-19.96 -38.09,-38 -2.01,-16.81 -53.83,-37.08 7.91,51.46 47.75,64.24 91.86,85.47z"/>
  <path class="fil8" d="M12043.96 3010.85l78.36 -5.56 -14.87 46.24c22.18,-14.47 19.27,-4.36 41.98,-36.34 4.22,-5.96 12.35,-25.36 17.45,-36.63l-122.92 32.29z"/>
  <path class="fil6" d="M10202.46 5168.59c37.18,-24.29 28.32,-19.83 57.23,-48.41 29.98,-29.67 24.09,-19.07 48.94,-57.28 -59.9,25.44 -77.21,48.51 -106.17,105.69z"/>
  <path class="fil7" d="M6209.08 5595.82c39.47,-19.17 7.59,2.65 33.34,-19.44l60.33 -67.4c-32.7,7.55 -35.58,10.11 -56.46,29.95 -38.96,37.01 -18.69,10.93 -37.21,56.89z"/>
  <path class="fil7" d="M10599.28 5701.7l-93.82 -110.07 3.09 42.92c38.1,26.07 37.19,37.67 90.73,67.15z"/>
  <path class="fil7" d="M6911.58 2479.45c-26.55,16.46 -19.53,11.04 -50.31,17.42l-26.55 -37.15c-1.84,-2.23 -5.54,-6.02 -8.29,-9.04 5.33,55.18 10.71,62.76 61.46,68.04l23.69 -39.27z"/>
  <path class="fil6" d="M9144.8 3984.92c23.08,-13.06 21.52,-8.15 43.86,-29.47 26.63,-25.43 19.57,-23.59 30.82,-42.69 -45.72,11.68 -61.7,27.44 -74.68,72.16z"/>
  <path class="fil6" d="M7842.04 3679.15c26.84,-4.83 36.68,-4.88 51.68,-18.7 36.9,-33.99 14.81,2.46 21.71,-52.79l-73.39 71.49z"/>
  <path class="fil7" d="M10535.85 5436.02l93.31 -87.46c-48.43,11.44 -72.73,39.14 -93.31,87.46z"/>
  <path class="fil7" d="M11608.21 5306.56l87.92 -91.8c-49.02,18.15 -68.64,38.06 -87.92,91.8z"/>
  <path class="fil6" d="M10559.49 3335.2c22.04,-14.12 8.43,-0.65 33.63,-25.33 3.98,-3.9 20.5,-23.79 27.81,-32.26 -47.41,7.07 -52.26,15.04 -61.44,57.59z"/>
  <path class="fil7" d="M9101.42 3255.38c47.46,-24.36 41.84,-18.1 62.65,-67.29 -24.82,16.85 -13.98,6.03 -34.38,29.51 -0.73,0.81 -23.16,31.3 -28.27,37.78z"/>
  <path class="fil7" d="M10279.37 4140.18l69.38 -61.19c-47.66,17.39 -47.85,15.17 -69.38,61.19z"/>
 </g>
 
</svg>
