<?xml version="1.0" encoding="UTF-8"?>
<!DOCTYPE svg PUBLIC "-//W3C//DTD SVG 1.1//EN" "http://www.w3.org/Graphics/SVG/1.1/DTD/svg11.dtd">
<!-- Creator: CorelDRAW -->
<svg xmlns="http://www.w3.org/2000/svg" xml:space="preserve" width="1000px" height="556px" version="1.1" style="shape-rendering:geometricPrecision; text-rendering:geometricPrecision; image-rendering:optimizeQuality; fill-rule:evenodd; clip-rule:evenodd"
viewBox="0 0 16256 9144">
 
 <g id="Слой_x0020_1">
  <metadata id="CorelCorpID_0Corel-Layer"/>
  <path class="fil0" d="M6689.79 4537.78l15.19 0 0 -60.82 15.21 0 0 -106.43 15.21 0 0 -136.83 76.01 0 0 349.69 -121.62 0 0 -45.61zm516.91 -152.04l15.21 0 0 -45.61 15.21 0 0 -45.61 15.19 0 0 45.61 15.21 0 0 45.61 15.2 0 0 45.61 -76.02 0 0 -45.61zm592.95 15.21l-15.21 0 0 15.19 -15.19 0 0 15.21 -15.21 0 0 -197.65 30.4 0 0 15.21 15.21 0 0 30.4 15.21 0 0 91.22 -15.21 0 0 30.42zm-1702.81 -243.27l15.19 0 0 15.21 15.21 0 0 15.2 15.21 0 0 30.41 15.19 0 0 30.41 15.21 0 0 30.4 15.21 0 0 30.42 15.2 0 0 30.4 15.21 0 0 30.4 15.21 0 0 15.21 15.19 30.4 15.21 0 0 30.42 15.21 0 0 30.4 15.19 0 0 30.4 15.21 0 0 15.21 15.21 0 0 15.21 15.19 0 0 15.2 -15.19 0 0 30.41 -45.61 0 0 15.2 -30.42 0 0 -15.2 -30.4 0 0 -15.21 -15.21 0 0 30.41 -15.2 0 0 15.21 -15.21 0 0 30.4 -15.21 0 0 15.21 15.21 0 0 15.19 30.41 0 0 15.21 106.43 0 0 -15.21 45.61 0 0 -15.19 15.21 0 0 -15.21 15.19 0 0 -15.21 15.21 0 0 -15.19 15.21 0 0 -15.21 15.19 0 0 -45.61 15.21 0 0 -30.41 15.21 0 0 -30.4 15.19 0 0 -45.61 15.21 0 0 -30.42 15.21 0 0 -45.61 15.19 0 0 -30.4 15.21 0 0 -45.61 15.21 0 0 -30.4 15.2 0 0 -45.62 15.21 0 0 -30.41 15.21 0 0 -30.41 15.19 0 0 15.21 15.21 0 0 45.61 15.21 0 0 136.84 -15.21 0 0 91.22 -15.21 0 0 60.8 -15.19 0 0 30.42 -15.21 0 0 45.61 -76.02 0 0 212.85 45.61 0 0 15.19 30.41 0 0 -76.01 15.21 0 0 -30.4 15.19 0 0 -15.21 15.21 0 0 -15.21 288.87 0 0 15.21 15.2 0 0 15.21 15.21 0 0 60.8 15.21 0 0 45.61 30.4 0 0 -15.19 45.61 0 0 -121.64 121.62 0 0 -15.19 -15.19 0 0 -91.23 15.19 0 0 -45.61 167.24 0 0 45.61 15.21 0 0 76.02 -15.21 0 0 15.21 -15.19 0 0 15.19 471.3 0 0 -15.19 -15.19 0 0 -15.21 -15.21 0 0 -182.45 45.61 0 0 -15.19 60.82 0 0 -15.21 30.4 0 0 -15.21 30.4 0 0 -15.19 15.21 0 0 -15.21 15.21 0 0 -30.4 15.19 0 0 -121.64 -15.19 0 0 -30.4 -15.21 0 0 -15.21 -15.21 0 0 -15.2 -15.19 0 0 -15.21 -45.61 0 0 -15.19 -304.09 0 0 15.19 15.21 0 0 15.21 15.21 0 0 471.31 -15.21 0 0 15.21 -30.4 0 0 -30.42 -15.21 0 0 -15.19 -15.21 0 0 -45.62 -15.19 0 0 -45.61 -15.21 0 0 -30.4 -15.21 0 0 -45.61 -15.19 0 0 -45.61 -15.21 0 0 -45.61 -15.21 0 0 -30.42 -15.19 0 0 -45.61 -15.21 0 0 -45.61 -15.21 0 0 -45.61 -15.19 0 0 -45.6 -212.85 0 0 15.19 15.19 0 0 15.21 15.21 0 0 60.81 -15.21 0 0 45.61 -15.19 0 0 45.61 -15.21 0 0 45.61 -15.21 0 0 45.61 -15.19 0 0 45.61 -15.21 0 0 30.42 -15.21 0 0 45.61 -15.19 0 0 45.61 -91.22 0 0 -380.09 15.19 0 0 -45.62 15.21 0 0 -15.19 -547.34 0 0 15.19 15.21 0 0 30.41 15.19 0 0 45.61 -15.19 0 0 30.42 -15.21 0 0 45.61 -15.21 0 0 45.61 -15.19 0 0 30.4 -15.21 0 0 -30.4 -15.21 0 0 -30.42 -15.19 0 0 -30.4 -15.21 0 0 -30.4 -15.21 0 0 -30.42 -15.19 0 0 -30.4 -15.21 0 0 -30.41 -15.21 0 0 -30.4 -197.64 0 0 15.19z"/>
  <path class="fil0" d="M9289.61 3458.32l15.21 0 0 -15.21 15.19 0 0 -15.19 15.21 0 0 -15.21 15.21 0 0 -30.4 15.19 0 0 -15.21 15.21 0 0 -15.21 15.21 0 0 -15.19 15.19 0 0 -15.21 15.21 0 0 -30.4 15.21 0 0 -15.21 15.19 0 0 -15.21 30.42 0 0 15.21 15.2 0 0 471.3 -30.41 0 0 -15.19 -15.21 0 0 -15.21 -15.19 0 0 -30.4 -15.21 0 0 -30.4 -15.21 0 0 -15.21 -15.19 0 0 -30.4 -15.21 0 0 -15.21 -15.21 0 0 -30.4 -15.19 0 0 -30.42 -15.21 0 0 -15.2 -15.21 0 0 -30.41 -15.19 0 0 -15.2 -15.21 0 0 -15.21zm-304.07 -197.65l15.21 0 0 15.21 15.19 0 0 471.3 -15.19 0 0 15.21 -15.21 0 0 15.21 228.06 0 0 -15.21 -15.21 0 0 -15.21 -15.19 0 0 -152.02 15.19 0 0 15.21 15.21 0 0 30.4 15.19 0 0 30.4 15.21 0 0 30.4 15.21 0 0 15.21 15.19 0 0 30.4 15.21 0 0 15.21 30.4 0 0 15.21 319.28 0 0 -15.21 15.21 0 0 -15.21 15.21 0 0 -30.4 15.19 0 0 -30.4 15.21 0 0 -30.4 15.21 0 0 -30.42 15.19 0 0 -30.4 15.21 0 0 -30.4 15.21 0 0 -30.42 15.19 0 0 -30.41 15.21 0 0 -30.4 15.21 0 0 258.46 -15.21 0 0 30.4 -15.21 0 0 15.21 212.87 0 0 -15.21 -15.21 0 0 -30.4 -15.21 0 0 -440.9 15.21 0 0 -30.42 15.21 0 0 -15.19 -167.26 0 0 30.4 -15.19 0 0 30.4 -15.21 0 0 15.21 -15.21 0 0 30.4 -15.19 0 0 30.42 -15.21 0 0 30.4 -15.21 0 0 30.4 -15.19 0 0 30.42 -15.21 0 0 30.4 -15.21 0 0 30.41 -15.19 0 0 -258.46 15.19 0 0 -15.21 15.21 0 0 -15.19 -425.71 0 0 15.19 15.21 0 0 76.03 -15.21 0 0 15.19 -15.19 0 0 15.21 -15.21 0 0 30.4 -15.21 0 0 15.21 -15.19 15.21 -15.21 0 0 30.4 -15.19 0 0 -182.44 15.19 0 0 -15.21 15.21 0 0 -15.19 -228.06 0 0 15.19z"/>
  <polygon class="fil0" points="5807.96,5054.7 5838.37,5054.7 5838.37,5085.1 5853.58,5085.1 5853.58,5100.31 5868.79,5100.31 5868.79,5130.71 5883.98,5130.71 5883.98,5161.11 5899.19,5161.11 5899.19,5191.53 5914.4,5191.53 5914.4,5221.93 5929.59,5221.93 5929.59,5252.34 5944.8,5252.34 5944.8,5282.75 5960.01,5282.75 5960.01,5297.95 5975.2,5297.95 5975.2,5328.37 5990.41,5328.37 5990.41,5358.77 6005.62,5358.77 6005.62,5389.17 6020.81,5389.17 6020.81,5419.59 6036.02,5419.59 6036.02,5434.78 6051.23,5434.78 6051.23,5465.2 6036.02,5465.2 6036.02,5480.39 5990.41,5480.39 5990.41,5495.6 5960.01,5495.6 5960.01,5480.39 5929.59,5480.39 5929.59,5465.2 5914.4,5465.2 5914.4,5495.6 5899.19,5495.6 5899.19,5526 5883.98,5526 5883.98,5556.42 5899.19,5556.42 5899.19,5571.61 5929.59,5571.61 5929.59,5586.82 6020.81,5586.82 6020.81,5571.61 6066.42,5571.61 6066.42,5556.42 6081.63,5556.42 6081.63,5541.21 6112.03,5541.21 6112.03,5510.81 6127.24,5510.81 6127.24,5495.6 6142.45,5495.6 6142.45,5465.2 6157.64,5465.2 6157.64,5434.78 6172.85,5434.78 6172.85,5404.38 6188.06,5404.38 6188.06,5358.77 6203.26,5358.77 6203.26,5328.37 6218.47,5328.37 6218.47,5282.75 6233.68,5282.75 6248.87,5252.34 6248.87,5206.72 6264.08,5206.72 6264.08,5176.32 6279.29,5176.32 6279.29,5130.71 6294.48,5130.71 6294.48,5100.31 6309.69,5100.31 6309.69,5085.1 6324.9,5085.1 6324.9,5510.81 6309.69,5510.81 6309.69,5556.42 6294.48,5556.42 6294.48,5571.61 6507.34,5571.61 6507.34,5556.42 6492.13,5556.42 6492.13,5541.21 6476.92,5541.21 6476.92,5328.37 6598.57,5328.37 6598.57,5541.21 6583.36,5541.21 6583.36,5556.42 6568.15,5556.42 6568.15,5571.61 6781.01,5571.61 6781.01,5556.42 6765.8,5556.42 6765.8,5510.81 6750.59,5510.81 6750.59,5100.31 6765.8,5100.31 6765.8,5054.7 6781.01,5054.7 6781.01,5039.49 6568.15,5039.49 6568.15,5054.7 6583.36,5054.7 6583.36,5069.91 6598.57,5069.91 6598.57,5237.14 6476.92,5237.14 6476.92,5069.91 6492.13,5069.91 6492.13,5054.7 6507.34,5054.7 6507.34,5039.49 6157.64,5039.49 6157.64,5054.7 6172.85,5054.7 6172.85,5069.91 6188.06,5069.91 6188.06,5145.92 6172.85,5145.92 6172.85,5176.32 6157.64,5176.32 6157.64,5221.93 6142.45,5221.93 6142.45,5267.55 6127.24,5267.55 6127.24,5282.75 6112.03,5282.75 6112.03,5237.14 6096.84,5237.14 6096.84,5206.72 6081.63,5206.72 6081.63,5176.32 6066.42,5176.32 6066.42,5145.92 6051.23,5145.92 6051.23,5115.5 6036.02,5115.5 6036.02,5085.1 6020.81,5085.1 6020.81,5054.7 6005.62,5054.7 6005.62,5039.49 5807.96,5039.49 "/>
  <path class="fil0" d="M6400.91 3443.11l15.21 0 0 -15.19 15.19 0 0 -15.21 15.21 0 0 -15.21 15.21 0 0 -30.4 15.19 0 0 -15.21 15.21 0 0 -15.19 15.21 0 0 -15.21 15.19 0 0 -15.21 30.42 0 0 15.21 15.2 0 0 30.4 15.21 0 0 30.42 15.21 0 0 30.4 15.19 0 0 30.4 15.21 0 0 30.42 15.21 0 0 30.4 15.19 0 0 30.41 15.21 0 0 30.42 15.21 0 0 30.4 15.19 0 0 15.21 15.21 0 0 30.4 30.4 0 0 15.21 -15.19 0 0 15.19 -15.21 0 0 15.21 -30.4 0 0 15.19 -45.61 0 0 -15.19 -15.21 0 0 -15.21 -15.21 0 0 15.21 -15.19 0 0 30.4 -15.21 0 0 30.4 -15.21 0 0 -15.19 -15.2 0 0 -30.42 -15.21 0 0 -15.19 -15.21 0 0 -30.4 -15.19 0 0 -15.21 -15.21 0 0 -30.4 -15.21 0 0 -30.42 -15.19 0 0 -15.19 -15.21 0 0 -30.42 -15.21 0 0 -30.41 -15.19 0 0 -15.2 -15.21 0 0 -45.62zm-319.28 -182.44l15.21 0 0 15.21 15.19 0 0 471.3 -15.19 0 0 15.21 -15.21 0 0 15.21 228.06 0 0 -15.21 -15.21 0 0 -15.21 -15.19 0 0 -167.23 15.19 0 0 30.42 15.21 0 0 30.4 15.21 0 0 30.4 15.19 0 0 15.21 15.21 0 0 30.4 15.21 0 0 15.21 15.19 0 0 15.19 15.21 0 0 15.21 15.21 0 0 15.21 197.64 0 0 15.19 106.43 0 0 -15.19 30.4 0 0 -15.21 30.42 0 0 -15.21 15.19 0 0 -15.19 15.21 0 0 -15.21 15.21 0 0 -30.4 15.19 0 0 -30.4 15.21 0 0 -30.42 15.21 0 0 -45.61 15.19 0 0 -30.4 15.21 0 0 -45.62 15.21 0 0 -30.4 15.2 0 0 -45.61 15.21 0 0 -30.42 15.21 0 0 -45.61 15.19 0 0 -30.4 15.21 0 0 -60.82 -106.44 0 0 60.82 -15.19 0 0 45.61 -15.21 0 0 30.4 -15.21 0 0 45.61 -15.19 0 0 45.62 -15.21 0 0 -15.2 -15.21 0 0 -30.42 -15.19 0 0 -30.4 -15.21 0 0 -30.4 -15.21 0 0 -30.42 -15.19 0 0 -30.4 -15.21 0 0 -30.4 -15.21 0 0 -30.42 -15.19 0 0 -15.19 -319.28 0 0 15.19 15.19 0 0 30.42 15.21 0 0 15.19 -15.21 0 0 30.42 -15.19 0 0 15.19 -15.21 0 0 30.42 -15.21 0 0 15.19 -15.19 0 0 15.21 -15.21 0 0 30.4 -15.21 0 0 15.21 -15.19 0 0 -182.44 15.19 0 0 -15.21 15.21 0 0 -15.19 -228.06 0 0 15.19z"/>
  <path class="fil0" d="M9107.16 4568.18l-15.19 0 0 15.21 -60.82 0 0 -152.04 60.82 0 0 15.21 15.19 0 0 30.4 15.21 0 0 60.82 -15.21 0 0 30.4zm-45.61 -228.05l-30.4 0 0 -106.43 45.61 0 0 91.22 -15.21 0 0 15.21zm-592.94 -182.45l-15.19 0 0 76.02 -15.21 0 0 45.61 15.21 0 0 -15.19 15.19 0 0 -15.21 60.82 0 0 -15.21 45.61 395.29 -15.21 0 0 30.42 -15.19 0 0 15.19 212.84 0 0 -15.19 -15.21 0 0 -15.21 -15.19 0 0 -410.5 45.61 0 0 15.21 45.62 0 0 15.21 15.19 0 0 -15.21 15.21 0 0 -60.82 15.21 0 0 456.11 -15.21 0 0 15.21 -15.21 0 0 15.19 319.28 0 0 -15.19 30.42 0 0 -15.21 30.4 0 0 -15.21 15.19 0 0 -15.19 15.21 0 0 -15.21 15.21 0 0 -45.61 15.19 0 0 -91.23 -15.19 0 0 -30.4 -15.21 0 0 -15.21 -15.21 0 0 -15.19 -15.19 0 0 -15.21 -15.21 0 0 -15.21 -15.19 0 0 -15.19 30.4 0 0 -15.21 15.19 0 0 -30.4 15.21 0 0 -76.03 -15.21 0 0 -30.4 -15.19 0 0 -15.21 -15.21 0 0 -15.2 -15.19 0 0 -15.21 -30.42 0 0 -15.19 -684.17 0 0 15.19z"/>
  <polygon class="fil0" points="9684.9,5069.91 9669.71,5069.91 9669.71,5145.92 9654.5,5145.92 9654.5,5176.32 9669.71,5176.32 9669.71,5161.11 9684.9,5161.11 9684.9,5145.92 9730.51,5145.92 9730.51,5130.71 9791.33,5130.71 9791.33,5526 9776.12,5526 9776.12,5556.42 9760.93,5556.42 9760.93,5571.61 9973.78,5571.61 9973.78,5556.42 9958.57,5556.42 9958.57,5526 9943.38,5526 9943.38,5130.71 10004.18,5130.71 10004.18,5145.92 10049.79,5145.92 10049.79,5161.11 10065,5161.11 10065,5100.31 10080.21,5100.31 10080.21,5085.1 10095.4,5085.1 10095.4,5510.81 10080.21,5510.81 10080.21,5556.42 10065,5556.42 10065,5571.61 10414.68,5571.61 10414.68,5541.21 10429.89,5541.21 10429.89,5480.39 10445.1,5480.39 10445.1,5449.99 10429.89,5449.99 10429.89,5465.2 10399.49,5465.2 10399.49,5480.39 10247.45,5480.39 10247.45,5328.37 10323.46,5328.37 10323.46,5343.56 10338.67,5343.56 10338.67,5358.77 10353.88,5358.77 10353.88,5237.14 10247.45,5237.14 10247.45,5130.71 10353.88,5130.71 10353.88,5145.92 10369.07,5145.92 10369.07,5161.11 10384.28,5161.11 10384.28,5039.49 9684.9,5039.49 "/>
  <polygon class="fil0" points="10034.6,3260.67 10049.79,3260.67 10049.79,3275.88 10065,3275.88 10065,3747.18 10049.79,3747.18 10049.79,3762.39 10034.6,3762.39 10034.6,3777.6 10201.83,3777.6 10201.83,3762.39 10217.04,3762.39 10217.04,3731.99 10232.24,3731.99 10232.24,3716.78 10247.45,3716.78 10247.45,3686.38 10262.66,3686.38 10262.66,3655.98 10277.85,3655.98 10277.85,3625.56 10293.06,3625.56 10293.06,3595.16 10308.27,3595.16 10308.27,3564.76 10323.46,3564.76 10323.46,3534.34 10338.67,3534.34 10338.67,3503.93 10353.88,3473.53 10369.07,3473.53 10369.07,3731.99 10353.88,3731.99 10353.88,3762.39 10338.67,3762.39 10338.67,3777.6 10551.51,3777.6 10551.51,3762.39 10536.32,3762.39 10536.32,3731.99 10521.11,3731.99 10521.11,3291.09 10536.32,3291.09 10536.32,3260.67 10551.51,3260.67 10551.51,3245.48 10384.28,3245.48 10384.28,3275.88 10369.07,3275.88 10369.07,3306.28 10353.88,3306.28 10353.88,3321.49 10338.67,3321.49 10338.67,3351.89 10323.46,3351.89 10323.46,3382.31 10308.27,3382.31 10308.27,3412.71 10293.06,3412.71 10293.06,3443.11 10277.85,3443.11 10277.85,3473.53 10262.66,3473.53 10262.66,3503.93 10247.45,3503.93 10247.45,3534.34 10232.24,3534.34 10232.24,3275.88 10247.45,3275.88 10247.45,3260.67 10262.66,3260.67 10262.66,3245.48 10034.6,3245.48 "/>
  <polygon class="fil0" points="6826.62,5054.7 6841.81,5054.7 6841.81,5069.91 6857.02,5069.91 6857.02,5541.21 6841.81,5541.21 6841.81,5556.42 6826.62,5556.42 6826.62,5571.61 6993.86,5571.61 6993.86,5556.42 7009.07,5556.42 7009.07,5526 7024.26,5526 7024.26,5495.6 7039.47,5495.6 7039.47,5465.2 7054.68,5465.2 7054.68,5434.78 7069.87,5434.78 7069.87,5404.38 7085.08,5404.38 7085.08,5373.98 7100.29,5373.98 7100.29,5358.77 7115.48,5358.77 7115.48,5328.37 7130.69,5328.37 7130.69,5297.95 7145.9,5297.95 7145.9,5267.55 7161.09,5267.55 7161.09,5510.81 7145.9,5510.81 7145.9,5556.42 7130.69,5556.42 7130.69,5571.61 7343.54,5571.61 7343.54,5556.42 7328.33,5556.42 7328.33,5526 7313.14,5526 7313.14,5069.91 7328.33,5069.91 7328.33,5054.7 7343.54,5054.7 7343.54,5039.49 7176.3,5039.49 7176.3,5054.7 7161.09,5054.7 7161.09,5085.1 7145.9,5085.1 7145.9,5115.5 7130.69,5115.5 7130.69,5145.92 7115.48,5145.92 7115.48,5176.32 7100.29,5176.32 7100.29,5206.72 7085.08,5206.72 7085.08,5237.14 7069.87,5237.14 7069.87,5267.55 7054.68,5267.55 7054.68,5297.95 7039.47,5328.37 7024.26,5328.37 7024.26,5069.91 7039.47,5069.91 7039.47,5054.7 7054.68,5054.7 7054.68,5039.49 6826.62,5039.49 "/>
  <polygon class="fil0" points="11448.53,4157.68 11463.74,4157.68 11463.74,4172.89 11478.95,4172.89 11478.95,4644.2 11463.74,4644.2 11463.74,4659.41 11448.53,4659.41 11448.53,4674.6 11615.78,4674.6 11615.78,4659.41 11630.97,4659.41 11630.97,4628.99 11646.18,4628.99 11646.18,4598.59 11661.39,4598.59 11661.39,4568.18 11676.59,4568.18 11676.59,4537.78 11691.79,4537.78 11691.79,4507.36 11707,4507.36 11707,4476.96 11722.2,4476.96 11722.2,4446.56 11737.41,4446.56 11737.41,4416.14 11752.62,4416.14 11752.62,4385.74 11767.81,4385.74 11767.81,4355.34 11783.02,4355.34 11783.02,4598.59 11767.81,4598.59 11767.81,4644.2 11752.62,4644.2 11752.62,4674.6 11965.46,4674.6 11965.46,4659.41 11950.25,4659.41 11950.25,4644.2 11935.06,4644.2 11935.06,4172.89 11950.25,4172.89 11950.25,4157.68 11965.46,4157.68 11965.46,4142.49 11798.23,4142.49 11798.23,4157.68 11783.02,4157.68 11783.02,4188.09 11767.81,4188.09 11767.81,4218.5 11752.62,4218.5 11752.62,4248.91 11737.41,4248.91 11737.41,4279.31 11722.2,4279.31 11722.2,4309.73 11707,4309.73 11707,4340.13 11691.79,4340.13 11691.79,4355.34 11676.59,4355.34 11676.59,4385.74 11661.39,4385.74 11661.39,4416.14 11646.18,4416.14 11646.18,4446.56 11630.97,4446.56 11630.97,4203.3 11646.18,4203.3 11646.18,4157.68 11661.39,4157.68 11661.39,4142.49 11448.53,4142.49 "/>
  <polygon class="fil0" points="9137.58,5054.7 9152.78,5054.7 9152.78,5069.91 9167.99,5069.91 9167.99,5541.21 9152.78,5541.21 9152.78,5556.42 9137.58,5556.42 9137.58,5571.61 9304.82,5571.61 9304.82,5556.42 9320.01,5556.42 9320.01,5526 9335.22,5526 9335.22,5495.6 9350.43,5495.6 9350.43,5465.2 9365.62,5465.2 9365.62,5434.78 9380.83,5434.78 9380.83,5404.38 9396.04,5404.38 9396.04,5373.98 9411.23,5373.98 9411.23,5343.56 9426.44,5343.56 9426.44,5313.16 9441.65,5313.16 9441.65,5297.95 9456.84,5297.95 9456.84,5267.55 9472.05,5267.55 9472.05,5510.81 9456.84,5510.81 9456.84,5556.42 9441.65,5556.42 9441.65,5571.61 9654.5,5571.61 9654.5,5556.42 9639.29,5556.42 9639.29,5541.21 9624.1,5541.21 9624.1,5069.91 9639.29,5069.91 9639.29,5054.7 9654.5,5054.7 9654.5,5039.49 9487.26,5039.49 9487.26,5054.7 9472.05,5054.7 9472.05,5085.1 9456.84,5085.1 9456.84,5115.5 9441.65,5115.5 9441.65,5145.92 9426.44,5145.92 9426.44,5176.32 9411.23,5176.32 9411.23,5206.72 9396.04,5206.72 9396.04,5237.14 9380.83,5237.14 9380.83,5267.55 9365.62,5267.55 9365.62,5297.95 9350.43,5313.16 9335.22,5313.16 9335.22,5343.56 9320.01,5343.56 9320.01,5100.31 9335.22,5100.31 9335.22,5054.7 9350.43,5054.7 9350.43,5039.49 9137.58,5039.49 "/>
  <polygon class="fil0" points="10201.83,4157.68 10217.04,4157.68 10217.04,4172.89 10232.24,4172.89 10232.24,4644.2 10217.04,4644.2 10217.04,4659.41 10201.83,4659.41 10201.83,4674.6 10429.89,4674.6 10429.89,4659.41 10414.68,4659.41 10414.68,4644.2 10399.49,4644.2 10399.49,4431.35 10521.11,4431.35 10521.11,4628.99 10505.9,4628.99 10505.9,4659.41 10490.71,4659.41 10490.71,4674.6 10703.56,4674.6 10703.56,4659.41 10688.35,4659.41 10688.35,4628.99 10673.16,4628.99 10673.16,4188.09 10688.35,4188.09 10688.35,4157.68 10703.56,4157.68 10703.56,4142.49 10490.71,4142.49 10490.71,4157.68 10505.9,4157.68 10505.9,4188.09 10521.11,4188.09 10521.11,4340.13 10399.49,4340.13 10399.49,4172.89 10414.68,4172.89 10414.68,4157.68 10429.89,4157.68 10429.89,4142.49 10201.83,4142.49 "/>
  <polygon class="fil0" points="7966.88,3260.67 7982.09,3260.67 7982.09,3291.09 7997.3,3291.09 7997.3,3731.99 7982.09,3731.99 7982.09,3762.39 7966.88,3762.39 7966.88,3777.6 8179.75,3777.6 8179.75,3762.39 8164.54,3762.39 8164.54,3731.99 8149.33,3731.99 8149.33,3534.34 8270.97,3534.34 8270.97,3747.18 8255.76,3747.18 8255.76,3762.39 8240.55,3762.39 8240.55,3777.6 8468.61,3777.6 8468.61,3762.39 8453.42,3762.39 8453.42,3747.18 8438.21,3747.18 8438.21,3275.88 8453.42,3275.88 8453.42,3260.67 8468.61,3260.67 8468.61,3245.48 8240.55,3245.48 8240.55,3260.67 8255.76,3260.67 8255.76,3275.88 8270.97,3275.88 8270.97,3443.11 8149.33,3443.11 8149.33,3291.09 8164.54,3291.09 8164.54,3260.67 8179.75,3260.67 8179.75,3245.48 7966.88,3245.48 "/>
  <path class="fil0" d="M5199.83 4324.92l15.19 0 0 -30.4 15.21 0 0 -30.4 15.21 0 0 -15.21 15.19 0 0 -15.21 45.61 0 0 -15.2 45.61 0 0 15.2 30.4 0 0 15.21 30.42 0 0 30.4 15.2 0 0 15.21 15.21 0 0 45.61 15.2 0 0 167.23 -15.2 0 0 30.42 -15.21 0 0 30.4 -30.41 0 0 15.21 -30.4 0 0 15.2 -45.61 0 0 -15.2 -45.61 0 0 -15.21 -15.21 0 0 -15.2 -15.19 0 0 -15.2 -15.21 0 0 -30.42 -15.21 0 0 -45.61 -15.19 0 0 -136.83zm60.8 -182.43l-45.61 0 0 15.19 -30.4 0 0 15.21 -30.4 0 0 15.2 -15.21 0 0 15.21 -15.21 0 0 15.2 -15.2 0 0 15.2 -15.21 0 0 15.21 -15.2 0 0 30.4 -15.2 0 0 30.42 -15.21 0 0 60.8 -15.21 0 0 76.03 15.21 0 0 76.01 15.21 0 0 30.41 15.2 0 0 15.2 15.2 0 0 30.41 15.21 0 0 15.21 15.2 0 0 15.19 30.42 0 0 15.21 15.19 0 0 15.21 30.42 0 0 15.19 60.8 0 0 15.21 136.83 0 0 -15.21 60.82 0 0 -15.19 30.41 0 0 -15.21 15.21 0 0 -15.21 15.19 0 0 -15.19 30.42 0 0 -30.41 15.19 0 0 -15.21 15.21 0 0 -15.2 15.21 0 0 -30.41 15.19 0 0 -45.61 15.21 0 -15.21 -136.83 0 -45.61 -15.19 0 0 -30.4 -15.21 0 0 -30.42 -15.21 0 0 -15.2 -15.19 0 0 -15.2 -15.21 0 0 -15.21 -15.21 0 0 -15.2 -30.4 0 0 -15.21 -30.41 0 0 -15.19 -45.61 0 0 -15.21 -152.04 0 0 15.21z"/>
  <polygon class="fil0" points="9669.71,4157.68 9684.9,4157.68 9684.9,4172.89 9700.11,4172.89 9700.11,4644.2 9684.9,4644.2 9684.9,4659.41 9669.71,4659.41 9669.71,4674.6 9882.56,4674.6 9882.56,4659.41 9867.35,4659.41 9867.35,4613.8 9852.15,4613.8 9852.15,4431.35 9988.99,4431.35 9988.99,4613.8 9973.78,4613.8 9973.78,4659.41 9958.57,4659.41 9958.57,4674.6 10171.43,4674.6 10171.43,4659.41 10156.22,4659.41 10156.22,4644.2 10141.01,4644.2 10141.01,4172.89 10156.22,4172.89 10156.22,4157.68 10171.43,4157.68 10171.43,4142.49 9958.57,4142.49 9958.57,4157.68 9973.78,4157.68 9973.78,4203.3 9988.99,4203.3 9988.99,4340.13 9852.15,4340.13 9852.15,4203.3 9867.35,4203.3 9867.35,4157.68 9882.56,4157.68 9882.56,4142.49 9669.71,4142.49 "/>
  <path class="fil0" d="M7647.61 5465.2l-15.2 0 0 15.19 -60.82 0 45.61 -167.23 0 15.21 30.41 0 0 30.4 15.21 0 0 91.22 -15.21 0 0 15.21zm-30.41 -228.06l-45.61 0 0 -106.43 45.61 0 0 15.21 15.21 0 0 60.8 -15.21 0 0 30.42zm-228.05 -182.44l15.21 0 0 30.4 15.19 0 0 440.9 -15.19 0 0 30.42 -15.21 0 0 15.19 304.07 0 0 -15.19 45.61 0 0 -15.21 15.21 0 0 -15.21 15.21 0 0 -15.19 15.19 0 0 -15.21 15.21 0 0 -30.4 15.21 0 0 -121.64 -15.21 0 0 -30.4 -15.21 0 0 -15.21 -15.19 0 0 -15.2 -30.42 0 0 -30.41 15.21 0 0 -15.2 15.21 0 0 -30.42 15.19 0 0 -91.22 -15.19 0 0 -30.4 -15.21 0 0 -15.19 -15.21 0 0 -15.21 -30.4 0 0 -15.21 -319.28 0 0 15.21z"/>
  <path class="fil0" d="M11007.63 4568.18l-30.41 0 0 15.21 -45.61 0 0 -167.25 76.02 0 0 30.42 15.21 0 0 91.22 -15.21 0 0 30.4zm-273.67 -410.5l15.21 0 0 15.21 15.21 0 0 45.61 15.19 0 0 380.09 -15.19 0 0 45.61 -15.21 0 0 15.21 -15.21 0 0 15.19 304.09 0 0 -15.19 45.61 0 0 -15.21 30.4 0 0 -15.21 15.21 0 0 -15.19 15.19 0 0 -15.21 15.21 0 0 -30.41 15.19 0 0 -152.04 -15.19 0 0 -30.4 -15.21 0 0 -15.21 -15.19 0 0 -15.19 -15.21 0 0 -15.21 -15.21 0 0 -15.21 -76.01 0 0 -15.19 -30.41 0 0 15.19 -60.82 -152.03 15.21 0 0 -15.21 15.2 0 0 -15.19 -228.06 0 0 15.19z"/>
  <path class="fil0" d="M7586.8 3519.14l15.19 0 0 -45.61 15.21 0 0 -30.42 15.21 0 0 -30.4 15.2 0 0 45.61 15.21 0 0 45.61 15.21 0 0 30.41 -91.23 0 0 -15.2zm-45.61 -258.47l15.19 0 0 15.21 15.21 0 0 45.61 -15.21 0 0 45.61 -15.19 0 0 45.61 -15.21 0 0 45.61 -15.21 0 0 45.61 -15.19 0 0 45.62 -15.21 0 0 45.61 -15.21 0 0 45.61 -15.19 0 0 45.61 -15.21 0 0 30.4 -15.21 0 0 30.4 -15.19 0 0 15.21 -15.21 0 0 15.21 167.23 0 0 -15.21 -15.19 0 0 -30.4 -15.21 0 0 -15.21 15.21 0 0 -60.8 15.19 0 0 -30.42 152.05 15.21 15.21 0 0 45.61 15.19 0 0 60.8 -15.19 0 0 15.21 -15.21 0 0 15.21 243.26 0 0 -15.21 -15.21 0 0 -15.21 -15.21 0 0 -30.4 -15.19 0 0 -30.4 -15.21 0 0 -45.61 -15.21 0 0 -45.61 -15.19 0 0 -30.4 -15.21 0 0 -45.62 -15.21 0 0 -45.61 -15.19 0 0 -45.61 -15.21 0 0 -30.42 -15.21 0 0 -45.61 -15.19 0 0 -45.61 -15.21 0 0 -45.61 -15.21 0 0 -15.19 -197.64 0 0 15.19z"/>
  <path class="fil0" d="M7237.12 3671.17l-15.21 0 0 15.21 -60.82 0 0 -152.04 76.03 0 0 15.21 15.19 0 0 106.43 -15.19 0 0 15.19zm-76.03 -243.25l-15.19 0 0 -91.22 91.22 0 0 -15.21 15.19 0 0 15.21 91.23 0 0 -76.03 -319.28 0 0 501.72 304.07 0 0 -15.21 15.21 0 0 -15.19 15.21 0 0 -15.21 15.19 0 0 -15.21 15.21 0 0 -30.4 15.21 0 15.19 -76.01 0 -15.21 -15.19 0 0 -60.81 -15.21 0 0 -15.21 -15.21 0 0 -30.4 -30.4 0 0 -15.21 -30.4 0 0 -15.21 -152.05 0 0 -15.19z"/>
  <path class="fil0" d="M8453.42 5297.95l-15.21 0 0 15.21 -15.21 0 0 15.21 -15.2 0 0 -197.66 30.41 0 0 15.21 15.21 0 0 15.19 15.19 0 0 121.64 -15.19 0 0 15.2zm-228.06 -243.25l15.19 0 0 45.61 15.21 0 0 395.29 -15.21 0 0 45.61 -15.19 0 0 30.4 212.85 0 0 -15.19 -15.21 0 0 -15.21 -15.2 0 0 -197.65 106.42 0 0 -15.19 45.61 0 0 -15.21 15.21 0 0 -15.21 15.21 0 0 -15.2 15.19 0 15.21 -15.2 0 -45.62 15.21 0 0 -76.01 -15.21 0 0 -30.42 -15.21 0 0 -15.19 -15.19 0 0 -15.21 -15.21 0 0 -15.19 -15.21 0 0 -15.21 -30.4 0 0 -15.21 -304.07 0 0 15.21z"/>
  <polygon class="fil0" points="8194.94,4142.49 8149.33,4142.49 8149.33,4157.68 8118.93,4157.68 8118.93,4172.89 8103.72,4172.89 8103.72,4188.09 8073.32,4188.09 8073.32,4203.3 8058.11,4203.3 8058.11,4218.5 8042.91,4218.5 8042.91,4248.91 8027.71,4248.91 8027.71,4264.12 8012.5,4264.12 8012.5,4294.52 7997.3,4294.52 7997.3,4340.13 7982.09,4340.13 7982.09,4476.96 7997.3,4522.57 8012.5,4522.57 8012.5,4552.98 8027.71,4552.98 8027.71,4583.39 8042.91,4583.39 8042.91,4598.59 8058.11,4598.59 8058.11,4613.8 8073.32,4613.8 8073.32,4628.99 8088.53,4628.99 8088.53,4644.2 8118.93,4644.2 8118.93,4659.41 8149.33,4659.41 8149.33,4674.6 8194.94,4674.6 8194.94,4689.81 8362.19,4689.81 8362.19,4674.6 8423,4674.6 8423,4659.41 8453.42,4659.41 8453.42,4613.8 8468.61,4613.8 8468.61,4568.18 8483.82,4568.18 8483.82,4537.78 8468.61,4537.78 8468.61,4552.98 8438.21,4552.98 8438.21,4568.18 8392.59,4568.18 8392.59,4583.39 8331.77,4583.39 8331.77,4598.59 8286.16,4598.59 8286.16,4583.39 8225.36,4583.39 8225.36,4568.18 8210.15,4568.18 8210.15,4552.98 8194.94,4552.98 8194.94,4537.78 8179.75,4537.78 8179.75,4522.57 8164.54,4522.57 8164.54,4476.96 8149.33,4476.96 8149.33,4309.73 8164.54,4309.73 8164.54,4279.31 8179.75,4279.31 8179.75,4264.12 8194.94,4264.12 8194.94,4248.91 8210.15,4248.91 8210.15,4233.7 8255.76,4233.7 8255.76,4218.5 8316.58,4218.5 8316.58,4233.7 8362.19,4233.7 8362.19,4248.91 8392.59,4248.91 8392.59,4264.12 8407.8,4264.12 8407.8,4142.49 8362.19,4142.49 8362.19,4127.28 8194.94,4127.28 "/>
  <polygon class="fil0" points="5868.79,4142.49 5823.17,4142.49 5823.17,4157.68 5792.76,4157.68 5792.76,4172.89 5777.56,4172.89 5777.56,4188.09 5747.14,4188.09 5747.14,4203.3 5731.95,4203.3 5731.95,4218.5 5716.74,4218.5 5716.74,4248.91 5701.53,4248.91 5701.53,4264.12 5686.34,4264.12 5686.34,4294.52 5671.13,4294.52 5671.13,4340.13 5655.92,4340.13 5655.92,4476.96 5671.13,4476.96 5671.13,4522.57 5686.34,4522.57 5686.34,4552.98 5701.53,4552.98 5701.53,4568.18 5716.74,4568.18 5716.74,4598.59 5731.95,4613.8 5747.14,4613.8 5747.14,4628.99 5762.35,4628.99 5762.35,4644.2 5792.76,4644.2 5792.76,4659.41 5823.17,4659.41 5823.17,4674.6 5868.79,4674.6 5868.79,4689.81 6036.02,4689.81 6036.02,4674.6 6096.84,4674.6 6096.84,4659.41 6127.24,4659.41 6127.24,4613.8 6142.45,4613.8 6142.45,4568.18 6157.64,4568.18 6157.64,4537.78 6142.45,4537.78 6142.45,4552.98 6112.03,4552.98 6112.03,4568.18 6066.42,4568.18 6066.42,4583.39 6005.62,4583.39 6005.62,4598.59 5960.01,4598.59 5960.01,4583.39 5899.19,4583.39 5899.19,4568.18 5883.98,4568.18 5883.98,4552.98 5868.79,4552.98 5868.79,4537.78 5853.58,4537.78 5853.58,4522.57 5838.37,4522.57 5838.37,4476.96 5823.17,4476.96 5823.17,4309.73 5838.37,4309.73 5838.37,4279.31 5853.58,4279.31 5853.58,4264.12 5868.79,4264.12 5868.79,4248.91 5883.98,4248.91 5883.98,4233.7 5929.59,4233.7 5929.59,4218.5 5990.41,4218.5 5990.41,4233.7 6036.02,4233.7 6036.02,4248.91 6066.42,4248.91 6066.42,4264.12 6081.63,4264.12 6081.63,4142.49 6036.02,4142.49 6036.02,4127.28 5868.79,4127.28 "/>
  <polygon class="fil0" points="8711.87,3245.48 8666.26,3245.48 8666.26,3260.67 8635.86,3260.67 8635.86,3275.88 8605.44,3275.88 8605.44,3291.09 8590.25,3291.09 8590.25,3306.28 8575.04,3306.28 8575.04,3321.49 8559.83,3321.49 8559.83,3336.7 8544.64,3336.7 8544.64,3367.1 8529.43,3367.1 8529.43,3397.5 8514.22,3397.5 8514.22,3427.92 8499.03,3427.92 8499.03,3595.16 8514.22,3595.16 8514.22,3625.56 8529.43,3625.56 8529.43,3655.98 8544.64,3655.98 8544.64,3686.38 8559.83,3686.38 8559.83,3701.57 8575.04,3701.57 8575.04,3716.78 8590.25,3716.78 8590.25,3731.99 8605.44,3731.99 8605.44,3747.18 8635.86,3747.18 8635.86,3762.39 8666.26,3762.39 8666.26,3777.6 8711.87,3777.6 8711.87,3792.79 8879.11,3792.79 8879.11,3777.6 8939.93,3777.6 8939.93,3762.39 8970.33,3762.39 8970.33,3716.78 8985.54,3716.78 8985.54,3671.17 9000.75,3671.17 9000.75,3640.77 8985.54,3640.77 8985.54,3655.98 8955.14,3655.98 8955.14,3671.17 8909.53,3671.17 8909.53,3686.38 8863.92,3686.38 8863.92,3701.57 8787.89,3701.57 8787.89,3686.38 8742.27,3686.38 8742.27,3671.17 8711.87,3671.17 8711.87,3655.98 8696.66,3655.98 8696.66,3625.56 8681.47,3625.56 8681.47,3595.16 8666.26,3595.16 8666.26,3412.71 8681.47,3412.71 8681.47,3382.31 8696.66,3382.31 8696.66,3351.89 8727.08,3351.89 8727.08,3336.7 8772.69,3336.7 8772.69,3321.49 8818.31,3321.49 8818.31,3336.7 8879.11,3336.7 8879.11,3351.89 8909.53,3351.89 8909.53,3367.1 8924.72,3367.1 8924.72,3245.48 8863.92,3245.48 8863.92,3230.27 8711.87,3230.27 "/>
  <polygon class="fil0" points="8848.71,5039.49 8803.1,5039.49 8803.1,5054.7 8772.69,5054.7 8772.69,5069.91 8757.48,5069.91 8757.48,5085.1 8742.27,5085.1 8742.27,5100.31 8711.87,5100.31 8711.87,5115.5 8696.66,5115.5 8696.66,5145.92 8681.47,5145.92 8681.47,5161.11 8666.26,5161.11 8666.26,5206.72 8651.05,5206.72 8651.05,5267.55 8635.86,5267.55 8635.86,5343.56 8651.05,5343.56 8651.05,5404.38 8666.26,5404.38 8666.26,5449.99 8681.47,5465.2 8696.66,5465.2 8696.66,5480.39 8711.87,5480.39 8711.87,5495.6 8727.08,5495.6 8727.08,5510.81 8742.27,5510.81 8742.27,5526 8757.48,5526 8757.48,5541.21 8772.69,5541.21 8772.69,5556.42 8803.1,5556.42 8803.1,5571.61 8863.92,5571.61 8863.92,5586.82 9015.94,5586.82 9015.94,5571.61 9076.76,5571.61 9076.76,5556.42 9107.16,5556.42 9107.16,5526 9122.37,5526 9122.37,5480.39 9137.58,5480.39 9137.58,5434.78 9122.37,5434.78 9122.37,5449.99 9091.97,5449.99 9091.97,5465.2 9046.36,5465.2 9046.36,5480.39 8985.54,5480.39 8985.54,5495.6 8939.93,5495.6 8939.93,5480.39 8894.32,5480.39 8894.32,5465.2 8863.92,5465.2 8863.92,5449.99 8848.71,5449.99 8848.71,5434.78 8833.5,5434.78 8833.5,5404.38 8818.31,5404.38 8818.31,5358.77 8803.1,5358.77 8803.1,5221.93 8818.31,5221.93 8818.31,5176.32 8833.5,5176.32 8833.5,5161.11 8848.71,5161.11 8848.71,5145.92 8863.92,5145.92 8863.92,5130.71 8909.53,5130.71 8909.53,5115.5 8970.33,5115.5 8970.33,5130.71 9031.15,5130.71 9031.15,5145.92 9046.36,5145.92 9046.36,5161.11 9076.76,5161.11 9076.76,5115.5 9061.55,5115.5 9061.55,5039.49 9031.15,5039.49 9031.15,5024.3 8848.71,5024.3 "/>
  <polygon class="fil0" points="9289.61,4157.68 9304.82,4157.68 9304.82,4172.89 9320.01,4172.89 9320.01,4644.2 9304.82,4644.2 9304.82,4659.41 9289.61,4659.41 9289.61,4674.6 9654.5,4674.6 9654.5,4613.8 9669.71,4613.8 9669.71,4552.98 9654.5,4552.98 9654.5,4568.18 9624.1,4568.18 9624.1,4583.39 9472.05,4583.39 9548.07,4431.35 9548.07,4446.56 9578.49,4446.56 9578.49,4461.75 9593.68,4461.75 9593.68,4340.13 9472.05,4340.13 9472.05,4233.7 9578.49,4233.7 9578.49,4248.91 9593.68,4248.91 9593.68,4264.12 9608.89,4264.12 9608.89,4142.49 9289.61,4142.49 "/>
  <polygon class="fil0" points="7860.47,5054.7 7860.47,5100.31 7875.66,5100.31 7875.66,5510.81 7860.47,5510.81 7860.47,5541.21 7845.26,5541.21 7845.26,5571.61 8194.94,5571.61 8194.94,5541.21 8210.15,5541.21 8210.15,5480.39 8225.36,5480.39 8225.36,5449.99 8194.94,5449.99 8194.94,5465.2 8179.75,5465.2 8179.75,5480.39 8027.71,5480.39 8027.71,5328.37 8103.72,5328.37 8103.72,5343.56 8118.93,5343.56 8118.93,5358.77 8134.14,5358.77 8134.14,5237.14 8027.71,5237.14 8027.71,5130.71 8134.14,5130.71 8134.14,5145.92 8149.33,5145.92 8149.33,5161.11 8164.54,5161.11 8164.54,5039.49 7845.26,5039.49 "/>
  <polygon class="fil0" points="10429.89,5069.91 10414.68,5069.91 10414.68,5130.71 10399.49,5130.71 10399.49,5176.32 10414.68,5176.32 10414.68,5161.11 10429.89,5161.11 10429.89,5145.92 10475.5,5145.92 10475.5,5130.71 10536.32,5130.71 10536.32,5526 10521.11,5526 10521.11,5556.42 10505.9,5556.42 10505.9,5571.61 10718.77,5571.61 10718.77,5556.42 10703.56,5556.42 10703.56,5526 10688.35,5526 10688.35,5130.71 10749.17,5130.71 10749.17,5145.92 10779.57,5145.92 10779.57,5161.11 10809.99,5161.11 10809.99,5100.31 10825.18,5100.31 10825.18,5039.49 10429.89,5039.49 "/>
  <polygon class="fil0" points="4682.89,4157.68 4698.1,4157.68 4698.1,4188.09 4713.3,4188.09 4713.3,4628.99 4698.1,4628.99 4698.1,4659.41 4682.89,4659.41 4682.89,4674.6 4895.74,4674.6 4895.74,4659.41 4880.55,4659.41 4880.55,4628.99 4865.34,4628.99 4865.34,4233.7 4971.77,4233.7 4971.77,4248.91 5017.38,4248.91 5017.38,4264.12 5032.57,4264.12 5032.57,4279.31 5047.78,4279.31 5047.78,4203.3 5032.57,4203.3 5032.57,4142.49 4682.89,4142.49 "/>
  <polygon class="fil0" points="11190.07,4157.68 11205.28,4157.68 11205.28,4188.09 11220.47,4188.09 11220.47,4628.99 11205.28,4628.99 11205.28,4659.41 11190.07,4659.41 11190.07,4674.6 11402.92,4674.6 11402.92,4659.41 11387.73,4659.41 11387.73,4628.99 11372.52,4628.99 11372.52,4188.09 11387.73,4188.09 11387.73,4157.68 11402.92,4157.68 11402.92,4142.49 11190.07,4142.49 "/>
  <polygon class="fil0" points="11570.17,4020.85 11585.36,4020.85 11585.36,4066.46 11600.57,4066.46 11600.57,4081.67 11615.78,4081.67 11615.78,4096.88 11630.97,4096.88 11630.97,4112.07 11646.18,4127.28 11767.81,4127.28 11798.23,4112.07 11798.23,4096.88 11813.42,4096.88 11813.42,4081.67 11828.63,4081.67 11828.63,4051.27 11843.84,4051.27 11843.84,3990.45 11737.41,3990.45 11737.41,4020.85 11752.62,4020.85 11752.62,4036.06 11737.41,4036.06 11737.41,4051.27 11676.59,4051.27 11676.59,4005.66 11691.79,4005.66 11691.79,3990.45 11570.17,3990.45 "/>
  <polygon class="fil0" points="10171.43,3169.46 10186.62,3169.46 10186.62,3184.66 10201.83,3184.66 10201.83,3199.87 10217.04,3199.87 10217.04,3215.06 10232.24,3215.06 10232.24,3230.27 10369.07,3230.27 10369.07,3215.06 10384.28,3215.06 10384.28,3199.87 10399.49,3199.87 10399.49,3184.66 10414.68,3184.66 10414.68,3169.46 10429.89,3169.46 10429.89,3093.43 10323.46,3093.43 10323.46,3108.64 10338.67,3108.64 10338.67,3154.25 10277.85,3154.25 10277.85,3139.05 10262.66,3139.05 10262.66,3108.64 10277.85,3108.64 10277.85,3093.43 10171.43,3093.43 "/>
  <polygon class="fil1" points="6887.42,3291.09 6887.42,3260.67 6993.86,3260.67 6993.86,3275.88 7009.07,3275.88 7009.07,3747.18 6993.86,3747.18 6993.86,3762.39 6978.65,3762.39 6978.65,3777.6 7282.72,3777.6 7282.72,3762.39 7024.26,3762.39 7024.26,3260.67 7343.54,3260.67 7343.54,3336.7 7252.31,3336.7 7252.31,3321.49 7237.12,3321.49 7237.12,3336.7 7145.9,3336.7 7145.9,3427.92 7161.09,3427.92 7161.09,3351.89 7343.54,3351.89 7343.54,3367.1 7358.75,3367.1 7358.75,3245.48 6857.02,3245.48 6857.02,3260.67 6872.23,3260.67 6872.23,3291.09 "/>
 </g>
</svg>
