<?xml version="1.0" encoding="UTF-8"?>
<!DOCTYPE svg PUBLIC "-//W3C//DTD SVG 1.1//EN" "http://www.w3.org/Graphics/SVG/1.1/DTD/svg11.dtd">
<!-- Creator: CorelDRAW -->
<svg xmlns="http://www.w3.org/2000/svg" xml:space="preserve" width="162.56mm" height="91.44mm" version="1.1" style="shape-rendering:geometricPrecision; text-rendering:geometricPrecision; image-rendering:optimizeQuality; fill-rule:evenodd; clip-rule:evenodd"
viewBox="0 0 16256 9144">
 
 <g id="Слой_x0020_1">
  <metadata id="CorelCorpID_0Corel-Layer"/>
  <path class="fil0" d="M5929.25 4829.45c-2.85,3.24 -6.93,4.32 -8.41,9.88 -1.38,5.15 -18.09,17.27 -19.14,17.98 -56.27,37.32 -81.24,18.23 -134.78,-7.63 -13.73,45.68 -32.93,64.9 -54.83,109.74 368.89,196.87 395.2,-404.09 543.41,-598.19 61.59,107.38 35.22,286.83 -5.89,407.31 -22.16,64.95 -21.6,21.87 -29.38,97.57l-89.59 0.64 -0.2 255.68 90.93 19.5c1.57,-98.28 17.76,-109.47 56.33,-163.72 463.84,-3.84 336.6,-8.65 395.1,128.84 11.12,26.16 11.16,19.33 21.54,33.42l71.9 -21.37 2.23 -140.78 144.6 -0.96c-40.09,-87.93 -7.92,-95.53 1.5,-180.72l196.49 -0.71c12.56,117.13 48.96,76.88 -16.75,181.06l564 0.24c-54.33,-85.31 -37.88,-114.1 -35.16,-253.74 152.72,-15.87 334.26,-103.22 236.82,-293.88 -63.7,-124.63 -288.04,-89.92 -475.24,-89.38 54.76,90.11 36.66,115.71 36.14,272.85 -0.32,92.26 12.69,276.91 -17.03,345.61 -36.59,-13.48 -14.52,2.09 -35.89,-19.13 -31.2,-30.99 -97.41,-227.41 -111.48,-270.3 -29.83,-90.97 -96.42,-224.51 -107.55,-328.65l-254.23 -0.21c37.99,62.52 45.74,49.57 20.34,129.18 -16.37,51.24 -28.37,81.63 -46.46,136.09 -17.5,52.75 -29.27,89.06 -47.91,133.93l-33.83 93.37c-23.92,54.4 0.48,4.19 -19.77,33.12l-89.43 0.04c-0.99,-150.59 -23.43,-396.32 35.05,-525.67l-654.85 -0.19 39.82 89.08c-33.55,56.16 -60.93,132.83 -77.96,199.82l-149.37 -285.96 -231.44 -2.83c99.24,160.57 202,370.22 290.37,489.07z"/>
  <path class="fil0" d="M5657.39 3413.02c0.02,142.84 31.01,381.31 -36.75,491.61l273.97 -0.56c-50.64,-82.21 -35.95,-98.32 -34.72,-234.2 28.8,38.85 44.77,78.91 73.17,122.53 32.85,50.51 57.55,67.41 87.51,111.71 53.35,0.22 113.03,-2.66 165.32,-0.51 80.24,3.31 73.3,19.58 162.96,19.61 206.07,0.04 265.36,-419.9 379.51,-617.07l1.63 416.07c0.86,125.94 13.21,103.32 -36.6,182.44 230.33,-1.16 449.45,37.78 504.2,-134.42 87.17,-274.35 -155,-265.18 -284.56,-266.92l0.53 -106.85c88.46,-2.68 174.02,-11.1 236.24,16.84l-0.56 -146.4 -600.64 -0.04c45.02,88.16 15.49,174.66 -52.03,289.79l-147.91 -289.54 -381.93 -0.38 35.8 72.01c-3.05,3.48 -7.56,4.14 -8.72,9.96 -1.18,5.82 -6.76,7.78 -8.35,9.88 -2.24,2.96 -12.52,16.86 -15.47,21.03l-110.04 140.23c-1.82,-117.08 -15.61,-173.8 34.47,-252.45l-273.11 -0.71c35.91,58.93 36.17,48.84 36.08,146.34z"/>
  <path class="fil0" d="M9914.21 3610.41c-32.64,-40.38 -14.41,-251.81 -17.71,-320.25l-169.47 -1.4c-4.21,77.96 4.42,184.8 6.79,269.72 1.69,61.21 7.08,189.18 -21.74,240.19l-1.54 67c-66.9,-17.48 -49.83,-18.23 -82.21,-77.1l-168.2 -264.82c59.91,-44.41 49.48,-50.87 94.98,-104.84 50.06,-59.38 51.83,-37.69 80.9,-113.74 -40.18,-18.9 -20.27,-13.66 -68.65,-16.99l-78.82 8.08c-7.05,13.83 -8.25,1.39 -15.64,43.36 -0.15,0.88 2.13,48.81 2.37,49.67l-35.91 9.34c-150.53,85.95 -236.37,125.01 -72.18,-131.49l-272.88 -0.58c68.83,108.51 35.89,357.61 36,492.44 0.06,101.22 3.26,84.04 -36.3,144.77l273.67 0.54c-52.66,-88.42 -37.65,-82.64 -35.05,-216.7 68.55,53.59 76.91,183.99 167.49,210.75 50.77,15.01 305.44,6.23 377.27,6.12 72.81,-107.17 122.27,-264.31 197.22,-362.45 0.68,66.23 1.46,132.48 1.5,198.72 0.09,98.27 -4.12,99.56 -36.64,163.45l255.27 0c-52.92,-106.16 -35.7,-161.31 -35.67,-309.36 0.02,-148.77 -18.02,-222.75 35.52,-327.06l-181.84 -1.42c-70.23,80.82 -116.83,211.05 -170.18,304.27 -16.23,28.37 -15.5,24.49 -28.35,39.78z"/>
  <path class="fil0" d="M5584.78 5921.25c-83.99,40.12 -86.31,40.31 -163.48,0.66 -14.23,55.82 -24.07,52.1 -36.42,110.69 72.98,38.19 140.75,52.02 223.22,3.57 152.53,-89.64 207.68,-489.1 302.79,-567.12 2.41,167.83 24.18,446.46 -35.41,580.77l255.8 0.13c-31.18,-49.26 -36.42,-42.02 -37.33,-126.83 -0.55,-53.82 0.58,-109.47 1.23,-163.39l143.26 0c1.23,136.15 17.16,204.53 -35,289.54l254.83 0.34c-56.03,-125.66 -55.51,-513.9 0.28,-637.56l-255.33 0.35c32.39,52.38 30.97,20.48 36.9,90.86 3.2,37.84 -0.9,104.4 -1.61,144.88l-143.46 0.64c-1.22,-136.03 -16.92,-151.79 35.61,-236.38l-418.72 -0.28c36.23,56.67 77.36,522.62 -180.87,0.68l-236.17 -0.32c52.66,53.28 279.55,473.29 289.88,508.77z"/>
  <path class="fil0" d="M8439.13 4504.33c50.32,-31.96 86.64,-48.58 164.04,-53.82 -1.2,157.59 27.04,400.89 -36.49,527l255.46 0.06c-65.2,-100.85 -36.25,-262.52 -36.27,-382.66l0.36 -144.77c54.51,4.83 87.19,18 128.1,35.52 20.23,-39.58 13.23,-51.78 32.78,-88.56 0.43,132.7 35.2,468.67 -34.94,580.62 78.92,0 157.99,-0.45 236.92,0.11 336.06,2.38 367.11,-233.08 183.6,-366.47 153.31,-125.61 40.01,-269.97 -110.93,-271.2l-545.49 0.07c-204.21,0 -221.59,-37.41 -237.14,164.1z"/>
  <path class="fil0" d="M4712.38 4995.14c88.61,0.02 154.67,-10.55 224.62,-66.47 2.92,-2.34 7.11,-5.69 9.99,-8.1l38.01 -34.74c206.62,-221.27 59.44,-577.07 -273.01,-565.68 -214.15,7.32 -406.09,201.91 -320.78,468.39 40.72,127.16 182.84,206.68 321.17,206.6z"/>
  <path class="fil0" d="M9894.33 5576.43c55.21,-35.44 70.87,-51.71 162.34,-52.36 4.05,152.74 24.89,404.67 -35.16,525.41l254.81 0.32c-46.73,-96.27 -36.46,-100.74 -35.86,-236.64 0.56,-127.29 -54.85,-376.65 127.07,-254.75 29.89,-46.17 8.63,-53.52 52.21,-88.72 3.52,189.46 25.73,445.52 -34.41,579.77l418.96 0.26c12.28,-50.15 24.7,-95.64 36.66,-145.85 -95.89,45.94 -98.19,38.1 -236.24,35.12l-0.39 -179.31c85.87,-0.77 77,3.5 127.08,35.22l0.45 -145.95 -127.59 -0.13 0.56 -125.01c111.18,-1.16 92.56,-8.91 162.92,34.21l-0.11 -145.67 -837.24 0c-12.87,52.75 -24.74,111.7 -36.06,164.08z"/>
  <path class="fil0" d="M10384.6 3503.93c0.48,122.61 26.61,297.01 -36.33,400.66l202.17 -0.13c32.37,-63.31 61.17,-105.08 96.24,-175.68 33.28,-67 58.56,-132.74 100.33,-186.3 1.33,167.71 21.54,246.41 -34.04,361.16l254.32 0.67c-61.72,-124.13 -54.68,-530.5 0,-637.13 -205.29,-2.19 -183.06,-36.34 -279.87,157.1 -34.75,69.45 -59.02,132.05 -100.21,187.18 -1.42,-134.16 -19.33,-259.19 34.64,-344.2l-272.42 -0.38c54.63,87.23 34.64,105.9 35.17,237.05z"/>
  <path class="fil0" d="M6548.15 5522.22c0.09,131.89 30.73,419.15 -35.78,527.52l201.77 0.34 182.03 -362.25c35.05,64.75 19.56,270.25 -20.08,361.82l255.31 0.11c-62.76,-122.69 -36.38,-350.66 -36.19,-491.16 -0.11,-98.51 -1.42,-86.24 35.95,-145.95l-201.62 -0.71 -173.2 347.27c-8.83,-131.54 -29.21,-253.46 28.48,-346.04l-272.47 -0.9c22.81,37.13 35.78,45.12 35.8,109.95z"/>
  <path class="fil0" d="M9276.01 6049.76l201.43 0.06 182.37 -362.25c18.96,34.14 13.94,7.19 16.79,69.6 4.86,105.71 2.37,205.89 -36.83,292.46l255.18 0.32c-59.32,-97.35 -36.32,-136.03 -36.21,-309.53 0.11,-165.13 -20.81,-238.1 36.55,-327.57l-201.1 -0.58c-68.1,126.88 -114.03,252.02 -197.49,362.06 -1.83,-128.25 -14.43,-256.17 34.32,-361.59l-255.29 -0.65c31.27,49.85 36.21,43.11 36.81,127.44l-0.25 365.05c0.51,101.33 1.95,83.97 -36.28,145.18z"/>
  <path class="fil0" d="M7220.89 5940.43l-35.65 109.09c148.12,0.11 447.88,52.96 503.65,-133.06 38.1,-126.99 -28.15,-182.57 -84.18,-230.59 19,-28.82 53.84,-65.41 53.81,-109.1 -0.1,-211.39 -187.8,-164.46 -473.33,-164.57 62.99,127.29 35.42,371.19 35.7,528.23z"/>
  <path class="fil0" d="M12039.48 4976.97l200.87 0.88 192.42 -383.69c12.89,248.07 15.53,160.77 -28.93,383.3l254.84 -0.28c-69.91,-109.31 -36.21,-417.27 -36.15,-564.11 0.07,-38.8 14.2,-37.11 35.98,-72.89l-200.48 0.18c-33.01,59.66 -60.93,121.92 -91.19,181.3 -14.11,27.66 -36.83,68.87 -59.32,106.71 -17.2,28.99 -34.32,56.03 -47.27,73.56 -2.64,-155 -16,-251.79 35.18,-361.98l-254.85 0.38c32.98,52.96 35.45,37.48 36.14,126.43 1.01,133.82 31.57,406.97 -37.24,510.21z"/>
  <path class="fil0" d="M10584.8 4413.07c0.11,135.86 31.68,460.21 -36.61,564.39l274.25 -0.08c-55.97,-86.01 -37.27,-138.11 -35.57,-290.04l142.67 -0.36c2.51,148.51 15.8,187.03 -35.5,290.66l255.69 0c-56.76,-115.5 -57.94,-520.54 -0.67,-637.18l-254.44 -0.23c45.65,96.83 37.69,97.56 34.96,235.25l-142.69 -0.52c-2.42,-148.61 -18.27,-147.65 34.66,-234.67l-272.93 -0.04c22.16,35.03 36.14,33.11 36.18,72.82z"/>
  <path class="fil0" d="M7876.38 3903.62l254.53 0.43c-53.58,-109.44 -36.51,-132.12 -35.52,-290.01l143.85 0.23c0.21,171.17 20.44,197.43 -36.58,290.62l273.69 -0.71c-69.92,-116.66 -35.24,-416.55 -35.58,-563.9 -0.2,-38.25 15.7,-42.48 35.28,-72.63l-272.34 -0.86c51.18,81.18 35.35,89.94 36.04,236.75l-144.77 -0.17c-0.15,-136.35 -11.66,-141.07 35.97,-236.15l-254.59 -0.54c57.32,115.37 55.53,521.96 0.02,636.94z"/>
  <path class="fil0" d="M9948.94 4613.08c-0.39,181.62 22.01,271.52 -37.24,364.64l256.04 0.02c-44.22,-98.16 -38.14,-150.87 -34.92,-289.88l160.1 -0.95c1.87,115.31 11.84,190.6 -34.9,290.1l255.55 0.43c-68.94,-105.42 -36.55,-422.62 -36.55,-564.37 0,-39.96 13.85,-37.39 36.31,-72.76l-255.37 -0.13c37.56,83.35 37.95,115.03 34.94,234.8l-159.67 0.65c-4.9,-118.21 -1.94,-153.67 34.25,-235.08l-254.81 -0.07c55.77,90.57 36.59,123.11 36.27,272.6z"/>
  <path class="fil0" d="M11239.65 4540.36c-0.13,202.61 26.05,312.63 -54.72,437.21 205.03,-0.04 456.71,33.76 517.81,-120.24 36.44,-91.86 8.29,-198.59 -38.12,-250.65 -74.33,-83.41 -137.64,-50.64 -241.59,-48.99 -0.3,-35.88 -3.99,-93.93 -1.2,-127.24 6.19,-73.54 2.26,-34.39 36.83,-90.24l-273.49 -0.09c45.46,74.59 54.5,78.54 54.48,200.24z"/>
  <path class="fil0" d="M7402.66 3340.28c-79.25,163.39 -92.28,357.88 -218.18,564.33l201.41 -0.37c-43.15,-87.49 -27.43,-72.54 0.86,-181.04l179.51 -0.64c65.31,136.05 27.15,138.84 0.2,181.83l291.56 -0.45c-29.23,-46.69 -54.06,-83.24 -74.7,-143.31l-117.13 -319.15c-24.7,-63.31 -37.17,-119.99 -62,-174.92l-236.97 0.1c25.37,41.52 23.07,23.15 35.44,73.62z"/>
  <path class="fil0" d="M8220.85 5558.6c0.86,239.53 13.64,252.05 -36.14,491.33l255.09 -0.62c-55.99,-90.48 -37.13,-119.49 -34.47,-270.79 105.73,-1.93 158.09,-2.19 214.2,-58.52 49.08,-49.27 82.02,-133.48 33.08,-210.17 -87.56,-137.23 -249.75,-99.41 -467.58,-97.03 20.17,44.01 35.59,80.45 35.82,145.8z"/>
  <path class="fil0" d="M5713.44 4812.96c-481.73,231.83 -452.52,-268.28 -331.72,-348.75 84.62,-56.35 167.71,-12.99 240,21.62l1.18 -145.9c-190.11,-15.83 -247.12,-53.07 -395.59,60.95 -86.44,66.38 -146.79,222.06 -100.85,361.54 70.25,213.3 296.54,278.46 493.26,213.11 56.29,-18.68 54.21,8.61 93.72,-162.57z"/>
  <path class="fil0" d="M8458.85 4958.46c5.37,-66.19 22.81,-86.36 36.02,-145.48 -32.48,15.48 -49.76,25.71 -89.07,38.63 -79.95,26.33 -168.67,59.71 -252.62,-24.41 -39.26,-39.33 -58.86,-83.16 -58.46,-159.57 1.34,-249.53 126.13,-272.19 309.99,-181.49l-0.86 -146c-168.78,-15.96 -221.5,-51.71 -361.4,39.02 -211.02,136.85 -200.8,474.11 32.64,580.5 145.16,66.15 239.72,34.51 383.76,-1.2z"/>
  <path class="fil0" d="M9240.66 6031.46c13.6,-60.15 31.25,-80.27 36.28,-145.75 -166.04,83.82 -358.89,114.63 -396.92,-112.37 -18.56,-110.71 8.59,-204.96 77.16,-242.98 44.43,-24.63 73.55,-28.39 126.36,-16.04 83.89,19.61 54.32,27.21 120.08,44.71 -6.38,-101.81 -14.63,-150.41 -74.1,-162.98 -134.5,-28.39 -287.95,16.54 -374.22,114.32 -37.62,42.65 -61.8,113.95 -73.89,182.18 -29.32,165.47 101.62,369.02 339.98,377.16 93.62,3.2 147.07,-20.51 219.27,-38.25z"/>
  <path class="fil0" d="M8876.28 3923.25c189.25,-0.09 207.35,-43.4 237.18,-183.02 -90.84,44.46 -253.57,115.63 -348.6,20.72 -74.63,-74.54 -65.74,-286.79 -15.07,-347.11 75.33,-89.66 191.95,-40.53 272.23,-1.08l0.17 -145.99c-54.75,-1.35 -441.31,-92.48 -507.42,239.76 -44.49,223.74 96.41,416.74 361.51,416.72z"/>
  <path class="fil0" d="M9457.4 4977.36l438.19 0.04 20.39 -145.8c-97.03,46.86 -103.22,35.18 -237.53,34.57l-0.71 -178.93c84.12,-0.91 90.42,8.05 144.71,35.05l0.19 -146.39 -144.6 -0.51 -0.81 -124.8c115.92,-1.48 90.17,-7.49 163.19,35.35l-0.1 -145.69 -382.9 -0.02c69.32,109.89 36.27,355.02 36.96,491.56 0.49,97.27 0.24,88.1 -36.98,145.57z"/>
  <path class="fil0" d="M7730.06 6049.72l419.86 0.43c11.66,-51.22 24.8,-96.64 36.31,-146.38 -114.44,26.56 26.25,39.45 -235.76,35.5l-0.97 -179.61c90.7,-0.66 73.19,1.61 127.33,34.88l-0.19 -145.39 -126.3 -0.67 -0.02 -124.77c98.75,-0.84 96.88,-6.81 162.34,34.49l0.34 -145.29 -382.14 -0.32c48.94,109.91 41.44,346.13 36.38,492.34 -3.16,91.48 -20.73,70.31 -37.18,144.79z"/>
  <path class="fil0" d="M10784.92 5576.82c56.69,-34.62 69.86,-51.29 162.81,-52.88 1.97,153.77 26.2,404.4 -35.16,525.67l255.35 0.28c-61.51,-123.47 -36.42,-369.32 -35.71,-526.12 90,2.92 73.31,18.28 144.31,35.05 2.86,-80.84 17.25,-63.48 18.04,-145.95l-472.92 -0.56c-13.34,55.9 -32.34,102.38 -36.72,164.51z"/>
  <path class="fil0" d="M3984.43 4758.56c0.02,114.59 9.73,128.12 -35.56,218.73l255.05 0.19c-52.62,-102.99 -162.36,-689.33 181.45,-473.54l-19.93 -163.43 -416.66 -0.18c56.18,111.08 35.22,248.25 35.65,418.23z"/>
  <path class="fil0" d="M11730.55 4977.87l255.8 -0.39c-59.79,-117.06 -36.57,-274.74 -36.6,-455.31 0.03,-118.91 -4.74,-99.6 35.72,-181.56l-254.81 -0.19c58.09,118.01 56.71,520.75 -0.11,637.45z"/>
  <path class="fil1" d="M6003.93 3522.12c15.85,56.89 65.18,120.27 96.81,175.14 38.01,65.95 68.68,105.89 104.78,168.43l53.35 -88.82c70.59,43.7 68.59,49.8 160.19,-20.27l-70.74 -88.55c-54.04,-92.52 -115.2,-277.73 -181.28,-326.05 -36.71,23.99 -53.78,39.32 -83.03,78.82 -34.25,46.21 -52.68,62.11 -80.08,101.3z"/>
  <path class="fil1" d="M6404.28 4522.17c0.5,68.85 -10.82,107.83 -20.21,180.29 -7.56,58.5 -29.87,100.17 -33.33,163.69l142.9 0.54 0 -416.33 -89.74 -0.07 0.38 71.88z"/>
  <path class="fil0" d="M10584.59 3250.34l165.45 -0.77c55.77,-82.32 73.17,-28.52 71.94,-164.27 -239.93,-1.33 -22.35,71.51 -180.93,72.29 -34.26,-71.33 54.44,-73.8 -128,-72.08 -2.4,134.87 17.2,81.83 71.54,164.83z"/>
  <path class="fil0" d="M12275.55 4323.11c156.96,0.3 235.63,-4.29 237.61,-164.59l-109.38 -0.65c-35.27,60.89 33.72,72.74 -90.52,72.74 0.62,-6.89 6.1,-43.36 6.03,-45.44 -0.62,-24.53 2.54,-8.27 -6.42,-27.17l-128.49 0c28.84,124.95 36.94,84.02 91.17,165.11z"/>
  <path class="fil0" d="M9439.36 3398.63l35.91 -9.34c-0.24,-0.86 -2.52,-48.79 -2.37,-49.67 7.39,-41.97 8.59,-29.53 15.64,-43.36l78.82 -8.08c48.38,3.33 28.47,-1.91 68.65,16.99 110.73,-46.65 76.35,76.71 76.24,198.76 -0.08,98.25 -0.21,196.51 -0.17,294.74 28.82,-51.01 23.43,-178.98 21.74,-240.19 -2.37,-84.92 -11,-191.76 -6.79,-269.72l169.47 1.4c3.3,68.44 -14.93,279.87 17.71,320.25 -1.05,-59.96 -0.9,-119.49 -1.41,-179.41 -0.97,-113.1 -7.39,-94.43 36.42,-164.21l-509.37 -0.13c28.22,62.07 25.19,70.06 -0.49,131.97z"/>
  <path class="fil1" d="M7404.38 5938.73c74.97,0.04 108.84,-12.78 109.5,-88.89 0.71,-80.28 -35.9,-102.72 -108.92,-107.59l-0.58 196.48z"/>
  <path class="fil1" d="M6913.22 3794.54c78.62,-1.61 105.75,-11.1 109.83,-90.95 4.96,-97.41 -22.53,-90.35 -109.91,-90.2l0.08 181.15z"/>
  <path class="fil1" d="M9149.82 4866.39c167.1,-3.67 89.83,-150.16 84.31,-156.32 -31.87,-35.53 -28.04,-21.91 -83.69,-22.7l-0.62 179.02z"/>
  <path class="fil1" d="M8404.54 5756.89l67.73 -56.95c4.08,-111.55 27.02,-148.64 -66.42,-175.89l-1.31 232.84z"/>
  <path class="fil1" d="M7622.96 4683.37c36.87,-25.34 66.1,-50.62 71.71,-107.98 7.41,-75.53 -18.34,-109.72 -72.18,-125.23l0.47 233.21z"/>
  <path class="fil1" d="M6968.84 4683.89l87.71 0.36c-5.5,-75.38 -28.75,-86.01 -36.92,-160.08 -26.22,43.55 -46.47,96.64 -50.79,159.72z"/>
  <path class="fil1" d="M7423.47 3610.88l106.03 2 -45.1 -145.16c-15.06,35.93 -45.92,112.47 -60.93,143.16z"/>
  <path class="fil1" d="M7421.64 5648.48c63.36,-22.55 98.54,-99.48 0,-124.82 -11.33,18.28 -15.82,-30 -19.58,53.65 -2.97,65.54 7.17,51.33 19.58,71.17z"/>
  <path class="fil1" d="M9167.21 4575.2c30.78,-22.4 31.23,-2.47 37.93,-54.75 12.2,-95.18 -14.92,-61.18 -37.93,-70.29 -0.21,0.35 -58.73,29.4 0,125.04z"/>
 </g>
</svg>
